<svg fill="none" height="16" viewBox="0 0 18 16" width="18" xmlns="http://www.w3.org/2000/svg"><path d="m17.7979 13.7532-7.5085-13.008778c-.57343-.992563-2.00314-.992563-2.57656 0l-7.51108 13.008778c-.573424.9925.143998 2.232 1.28827 2.232h15.01957c1.1469 0 1.8617-1.2395 1.2883-2.232z" fill="#ffd4d6"/><g fill="#000"><path d="m9.00033 14.1022c.61287 0 1.10967-.4968 1.10967-1.1097s-.4968-1.1097-1.10967-1.1097-1.10971.4968-1.10971 1.1097.49684 1.1097 1.10971 1.1097z"/><path d="m8.83877 4.11523h.32233c.51801 0 .9347.43053.9163.94855l-.16115 4.82099c-.01612.49503-.42363.88873-.91632.88873-.49499 0-.90019-.3914-.91631-.88873l-.16116-4.82099c-.01842-.52032.3983-.94855.91631-.94855z"/></g></svg>