<svg xmlns="http://www.w3.org/2000/svg" viewBox="0 0 174 150">
  <defs>
    <radialGradient id="a" fx="50%" fy="50%">
      <stop stop-color="#FFF68E" offset="0%"/>
      <stop stop-color="#EED26A" offset="73.1%"/>
      <stop stop-color="#D6AA4A" offset="100%"/>
    </radialGradient>
    <radialGradient id="b" r="71.529%" fx="50%" fy="50%">
      <stop stop-color="#FFF68E" offset="0%"/>
      <stop stop-color="#FAEA82" offset="50%"/>
      <stop stop-color="#D6AA4A" offset="100%"/>
    </radialGradient>
    <radialGradient id="c" r="95.965%" fx="50%" fy="50%">
      <stop stop-color="#FFF68E" offset="0%"/>
      <stop stop-color="#FAEA82" offset="50%"/>
      <stop stop-color="#D6AA4A" offset="100%"/>
    </radialGradient>
    <radialGradient id="d" r="76.495%" fx="50%" fy="50%">
      <stop stop-color="#FFF68E" offset="0%"/>
      <stop stop-color="#FAEA82" offset="50%"/>
      <stop stop-color="#D6AA4A" offset="100%"/>
    </radialGradient>
    <radialGradient id="e" r="90.68%" fx="50%" fy="50%">
      <stop stop-color="#FFF68E" offset="0%"/>
      <stop stop-color="#FAEA82" offset="50%"/>
      <stop stop-color="#D6AA4A" offset="100%"/>
    </radialGradient>
    <radialGradient id="f" cx="-142.012%" cy="157.813%" r="1292.725%" fx="-142.012%" fy="157.813%">
      <stop stop-color="#FFF68E" offset="0%"/>
      <stop stop-color="#FAEA82" offset="50%"/>
      <stop stop-color="#D6AA4A" offset="100%"/>
    </radialGradient>
    <radialGradient id="g" r="105.04%" fx="50%" fy="50%">
      <stop stop-color="#FFF68E" offset="0%"/>
      <stop stop-color="#FAEA82" offset="50%"/>
      <stop stop-color="#D6AA4A" offset="100%"/>
    </radialGradient>
    <radialGradient id="h" r="90.477%" fx="50%" fy="50%">
      <stop stop-color="#FFF68E" offset="0%"/>
      <stop stop-color="#FAEA82" offset="50%"/>
      <stop stop-color="#D6AA4A" offset="100%"/>
    </radialGradient>
    <radialGradient id="i" r="139.124%" fx="50%" fy="50%">
      <stop stop-color="#FFF68E" offset="0%"/>
      <stop stop-color="#FAEA82" offset="50%"/>
      <stop stop-color="#D6AA4A" offset="100%"/>
    </radialGradient>
    <radialGradient id="j" r="107.054%" fx="50%" fy="50%">
      <stop stop-color="#FFF68E" offset="0%"/>
      <stop stop-color="#FAEA82" offset="50%"/>
      <stop stop-color="#D6AA4A" offset="100%"/>
    </radialGradient>
    <radialGradient id="k" r="152.143%" fx="50%" fy="50%">
      <stop stop-color="#FFF68E" offset="0%"/>
      <stop stop-color="#FAEA82" offset="50%"/>
      <stop stop-color="#D6AA4A" offset="100%"/>
    </radialGradient>
    <radialGradient id="l" r="126.107%" fx="50%" fy="50%">
      <stop stop-color="#FFF68E" offset="0%"/>
      <stop stop-color="#FAEA82" offset="50%"/>
      <stop stop-color="#D6AA4A" offset="100%"/>
    </radialGradient>
  </defs>
  <g fill="none">
    <path fill="#000" d="M99.18.888c-1.455 3.382-1.047 7.327-2.107 10.842-.245.81-1.045 3.256-2.216 3.087-2.394-.347-1.154-4.946-3.917-5.038l.867 6.72c-4.15.52-3.585-5.96-5.27-8.59-1.944-3.04-2.413 1.37-2.283 2.73.083.87.26 1.73.364 2.6.18 1.51.224 2.82.033 4.34-3.96-.05-2.51-5.27-5.42-6.07l.22 6.29c-4.4-.04-6.4-4.01-8.33-7.38-.8-1.41-1.88-4.12-3.81-3.26.91 3.91 3.04 7.65 3.26 11.71.06 1.05-.93 3.72-2.39 3.23-3.36-1.14-2.91-7.25-5.72-8.85-.57-.33-1.46-.04-2.08-.02 0 3.24 1.43 7.16 2.56 10.19.25.65.93 2.94-.49 2.9-2.54-.08-3.17-5-5.75-4.42.32 1.32 1.11 2.4 1.55 3.68.27.78.77 1.57.91 2.38.32 1.78-1.93 1.92-3.1 1.58-2.76-.81-4.75-3.07-6.72-5.05-.55-.55-1.99-2.48-2.9-1.6-1.01.97.98 2.68 1.54 3.33 1.69 1.95 3.52 4.23 4.32 6.72.35 1.07.42 2.59-.64 3.32-1.05.73-2.76-.59-3.61-1.15-2.6-1.71-5.18-4.7-8.46-4.77l-.76 1.95 2.09 2.82 5.4 6.07-6.29-2.6c.25 1.64 4.19 3.64 3.42 5.33-.46 1-2.74 1.02-3.64.89-3.2-.45-5.47-2.84-8.46-3.7-2.63-.75-2.14 1.29-.65 2.47.52.41 1.02.84 1.52 1.27.9.78 1.76 1.57 2.61 2.41 1.32 1.32 2.47 2.72 3.69 4.12l-6.29-.22v.43l6.08 2.82-1.08 4.34c-1.75-.01-3.18-.48-4.77-1.18-1.09-.47-2.23-1.26-3.47-1.17-1.48.1-2.36 1.45-1.37 2.71 1.49 1.89 4.46 2.97 6.36 4.44.72.56 1.77 1.52.95 2.48-1.61 1.89-5.98-.54-8.11.09v.43c1.98 1.15 6.04 1.81 7.2 3.94.91 1.66-1.67 5.44-3.51 5.29-1.63-.13-3.13-1.98-4.33-2.94-2.88-2.32-5.96-5.04-9.32-6.64-5.78-2.72-11.5 1.64-16.07 4.48.59 1.85 2.89-.12 4.34.21 1.95.44 3.43 2.26 4.68 3.7 6.04 6.95 11.09 14.83 13.35 23.85.6 2.37 1.61 5.21-.16 7.34-.47.57-1.18.64-1.71 1.11-.39.35-.37.85.17 1.02 1 .3 2.45-.16 3.42-.39 3.19-.77 6.82-2.49 8.27-5.61.9-1.95 1.22-5.73 3.45-6.51.5 2.08 2.84 4.84 2.61 6.94-.2 1.86-2.16 4.02-3.31 5.4-.41.49-1.39 1.56-.8 2.26.58.7 1.79-.81 2.15-1.15 1.65-1.56 5.24-4.01 6.22-.44.85 3.1-1.88 8.11-3.24 10.84-.38.76-2.13 3.13-1.44 3.98.78.97 2.43-1.57 2.78-2.03 1.37-1.79 6.15-7.09 8.7-5.19 3.1 2.33 2.03 3.99.86 7.14-.33.89-1.55 3.12-.72 3.96.81.82 1.86.07 2.28-.71.74-1.41 2.75-5.6 4.75-4.53 1.25.67 3.17 1.81 3.9 3.06 1.14 1.96.15 5.86-.16 7.99-.17 1.22-1.49 5.04-.4 5.93 1.01.81 1.82-1.64 2.13-2.25 1.07-2.12 2.3-4.3 3.89-6.07.57-.64 1.38-1.71 2.35-1.53 5.04.94-.11 5.96 1.96 8.52.42.51 1.55.48 2.16.59l2.6-6.72c1.33.51 3.27.69 4.25 1.78.82.92.98 2.47 1.22 3.64.66 3.27 1.03 6.44.61 9.76.41.3 1.06.99 1.62.63.7-.45.79-2.27 1.03-3.02.77-2.4 1.94-4.68 3.02-6.94.72-1.49 2.67-3.08 4.07-1.03 1.45 2.1.87 5.78 1.77 8.18 2.31-1.14 2.56-5.93 2.6-8.24l2.99.43 1.8 3.68 3.24 9.33c1.67-.65 1.14-3.87 1.33-5.42.26-2.11.74-6.34 2.29-7.91.62-.63 1.86-.68 2.67-.99.92 2.24 1.42 4.79 2.54 6.94.43.84 1.42 1.74 2.42 1.23.96-.49.92-1.61.8-2.53-.3-2.25-.81-4.46-.99-6.72 4.3-.31 6.82 3.17 9.53 6.07 1.046 1.12 1.955 2.6 3.49 3.03l-2.23-6.51-1.24-6.07c1.56-.65 4.86-3.84 6.51-3.38 2.45.69 4.32 7.52 7.36 5.91 1.3-.68.63-1.84.02-2.75-.91-1.35-3.63-4.59-3.34-6.29.22-1.25 2.33-2.72 3.55-2.7 2.81.04 7.7 2.18 9.33 4.44l1.95-.22c-.29-3.88-6.11-5.65-6.94-9.54-.08-.39-.07-.85.03-1.24.61-2.49 2.11-1.4 3.66-.73.48.21 1.54.75 1.94.15.44-.66-.34-1.527-.63-2.077-.58-1.12-1.12-2.42-.88-3.687 2.02.53 3.27 1.73 4.98 2.87.4.27 1.29.94 1.81.57.53-.4-.26-1.2-.51-1.49-.77-.89-3.11-3.03-2.88-4.32.15-.87 1.63-1.81 2.23-2.4 1.98-1.98 4.24-4 5.85-6.29h.22c3.83 4.47 15.836 1.33 14.31-5.42-.955.13-1.84.89-2.82.55-4.27-1.47-3.24-8.32-8.02-8.36-.35-4.46-2.14-8.92-4.306-12.8-.99-1.78-3.056-3.41-3.776-5.22-.4-1-.33-2.59-.38-3.67 2.503-.39 1.27-2.93.353-4.34-1.01-1.57-2.09-3.43-3.41-4.75-1.63-1.62-4.04-2.68-3.83-5.44.19-2.57 4.61-2.24 5.36-4.55-1.31.06-2.61.38-3.904.6-3.22.535-3.78-.55-2.27-3.42 1.31-2.504 3.408-4.41 5.25-6.5.59-.67 2.41-2.2 1.478-3.17-.78-.8-2.06.42-2.72.86-2.39 1.59-5.06 2.76-7.8 3.61-.82.253-3.22 1.194-3.5-.25-.37-1.955 3.33-2.32 2.84-4.515-1.48.35-4.39 2.69-5.81 1.6-1.71-1.3.8-4.63 1.07-6.16.27-1.55-.974-1.602-1.85-.632-.31.34-.59.71-.87 1.07-.49.62-.9 1.23-1.22 1.95-3.55-2.07 3.17-4.48 1.9-6.4-.45-.68-1.28 0-1.69.354-.84.735-4.01 4.39-4.7 1.71-.76-2.97.78-6.53 1.58-9.33.207-.73 1.15-2.7.23-3.223-1.33-.77-1.92 1.817-2.23 2.575-.96 2.335-2.55 4.36-4.42 6.036-.62.55-1.66 1.62-2.59 1.36-1.34-.37-1.35-4.09-1.3-5.23.02-.54.32-1.47-.21-1.87-.69-.51-1.05.52-1.15 1.01-.33 1.597-1.325 6.16-3.69 3.167-2.14-2.7 1.17-8.32-3.2-9.46l-2.38 7.59c-2.86-.62-2.225-4.71-1.52-6.94l-1.3-.43c-.21.89-.5 1.75-.806 2.61-1.156 3.24-2.7 3.87-3.89.22-.91-2.79-.587-5.81-1.04-8.68-.18-1.143-.287-2.303-1.42-2.82z"/>
    <path fill="url(#a)" d="M98.793 6.87c-.128 6.195-2 10.837-8.89 10.842l2.384 9.76c-2.588-2.714-3.53-6.51-4.698-9.977-.75-2.2-1.69-4.412-2.03-6.722h-.22c.08 3.914.9 7.8.12 11.71-.44 2.15-1.65 3.82-2.29 5.855h-.22l1.3-9.542c-4.85.383-9.02 1.116-12.2-3.47-.69-.996-1.22-2.137-1.69-3.252h-.22c.54 3.628 3.77 7.862-.02 10.906-.58.465-1.25.75-1.93 1.02l3.43 5.197 1.99 2.61c-5.49-3.633-8.75-9.96-11.5-15.83h-.21c.7 4.67 3.53 8.893 4.24 13.662.24 1.65.89 4-.56 5.2l-1.73-8.24c-2.53 1.31-4.47 5.25-7.81 4.69-1.42-.24-2.57-1.39-3.91-1.88.62 1.98 2.36 3.86 1.37 6.07-.37.81-1.09 1.44-1.59 2.17l6.94 2.6c-1.27 1.51-3.91.32-5.43-.39-2.88-1.35-5.44-3.13-8.03-4.97-1.47-1.05-3.19-2.54-4.99-2.88 1.11 2.36 3.94 4.37 5.86 6.11 1.58 1.43 2.76 3.08 4.1 4.73 1.31 1.62 3.03 3.45 2.4 5.64-2.31-2.33-4.32-4.02-7.81-3.2-1.26.29-2.33 1.04-3.69 1-2.41-.06-4.74-1.29-6.94-2.14 1.28 2.73 4.65 4.21 5.36 7.37.53 2.32-1.14 5.28-1.45 7.59l7.37 1.08v.43c-6.32 1.67-10.78-1.8-16.7-2.82v.22c4 1.89 8.52 5.08 11.37 8.46 1.04 1.23 2.31 2.65 2.3 4.33-1.17-.95-3.37-3.41-4.99-3.16-1.29.19-1.72 1.63-1.89 2.72-.46 2.95-.5 6.12-.5 9.11-1.25-1.09-1.09-2.6-1.09-4.12-1.54 1.01-3.21 2.29-5.21 1.89-2.02-.41-4.03-2.89-5.43-4.28-2.76-2.74-5.81-5.44-9.76-5.98-2.06-.28-8.31.01-5.52 3.16.29.32.58.66.97.86 1.46.76 4.6-.21 6.28-.21v.21l-5.41 1.09c2.18 4.56 6.9.47 9.54 3.25-1.81-.54-4.91-.54-6.72 0l3.03 3.9 1.39 1.82 5.12.56v.21h-4.55c.27 2.38 3.03 1.73 4.77 1.51v.22l-3.69.65c.58 1.34 2 5.33 3.34 5.94 1.05.48 2.52-.45 3.39-.95-1.2 2.18-3.34 1.3-2.17 4.33L27 91.85c-.774.877-2.074 1.567-2.596 2.61-.61 1.206.41 3.39.86 4.55l3.47-2.6-3.31 3.71.27 3.88c2.904-1.21 5.26-3.36 6.5-6.29.513-1.22.57-2.74 1.18-3.88.45-.83 1.744-.69 2.005-1.59.5-1.72-.56-3.112.29-4.94h.21l.65 3.47c2.19-.61 3.49-4.06 4.12-6.07h.43c.6 2.787-1.92 4.59-2.82 6.94 1.53.358 4.28 1.1 4.12 3.04l-5.42-1.95 4.12 9.11h.22c1.98-3 3.9-7.77 6.72-9.98.98 3.2-2.43 5.8-3.69 8.458 1.86-.51 5.23-3.008 6.94-1.95-2.39.99-4.51 2.43-6.27 4.333-.58.63-1.63 1.68-1.62 2.6.01.94 1.17 2.08 1.69 2.82 1.89 2.68 4.18 5.49 7.06 7.16 1.17-2.24 2.17-4.48 2.79-6.94.28-1.13.23-2.65 1.33-3.25 1.06 5.98-3.22 12.58-4.56 18.22 4.08-3.45 6.54-9.04 11.71-11.27-.12 2.79-4.6 4.27-4.84 7.37-.08 1.09 1.27 1.66 2.02 2.18 2.1 1.46 3.88 3.08 6.29 4.05.87.35 1.68 1.09 2.49.25 1.46-1.52 1.59-4.49 1.35-6.47-.15-1.25-.67-3.16.28-4.12l1.51 8.89-.86 10.41h.21c2.03-5.15 3.82-10.75 7.81-14.74.02 2.72-3.05 6.54-4.12 9.11 4.06 1.9 8.83 3.05 13.22 3.9.34-2.72.24-5.35-.47-8.02-.32-1.2-1.37-2.79-.62-3.91 2.69 5.79 5.63 11.66 5.64 18.22h.21c0-3.97.69-8.03 1.47-11.92.14-.71.34-3.64 1.35-3.64 1.1 0 .67 1.75.56 2.34-.5 2.66-1.1 5.33-1.44 8.02l9.32-.23 3.24-.58-.09-3.31-4.46-7.81c1.7-.38 3.37 2.64 4.16 3.91 2.87 4.63 4.81 10.54 6.03 15.83h.22c-.57-7.16-2.43-13.78-1.52-21.03 2.11.85.98 6.19 1.24 8.24.09.66-.01 2.39.78 2.65.75.24 2.05-.4 2.75-.63 2.56-.83 4.94-2.03 7.38-3.14.93-.43 2.25-.95 2.31-2.13.23-4.18-3.52-5.37-6-7.59 2.19-.23 3.79 1.21 5.42 2.48 2.44 1.9 4.85 4.05 6.85 6.42 1.15 1.36 2 3.19 3.35 4.33-.75-2.33-2.53-4.51-3.64-6.72-2.14-4.27-3.79-8.91-4.39-13.66h.22l4.12 10.84c2.24-.76 4.06-3.42 5.5-5.2.65-.8 1.45-1.54 1.43-2.6 3.64-1.31-1.03-4.2-1.74-5.42 2.52-.38 4.79 2.06 7.15 2.6-1.05-2.26-2.89-5.21-2.38-7.81h.43l1.51 4.34c3.8-3.51 8.29-7.11 11.12-11.49 3.99-6.18 3.97-14 1.17-20.6-.77-1.81-1.5-4.37-2.84-5.82-1.92-2.07-3.58 1.41-3.82 3 .94.14 1.8.46 2.6 1 2.94 1.99 3.09 5.48 1.85 8.55-.52 1.3-1.49 2.46-1.59 3.9-.11 1.79.85 3.49 1.16 5.21.51 2.86-.89 5.9-2.94 7.79-1.9 1.76-4.57 2.73-7.16 2.34-1.2-.17-2.47-1.3-3.69-.85-1.9.71-2.28 3.59-3.47 5.04-.54-3.26 1.94-5.14 2.46-8.02.27-1.5-.83-3.99-1.3-5.42-.37-1.13-.94-4.33-2.67-3.68-1.12.42-1.68 1.69-2.33 2.6-1.55 2.14-2.95 4.76-5.7 5.42 1.01-2.6 3.74-4.78 5.27-7.153 3.03-4.713 6.25-12.68 2.23-17.78-1.21-1.535-3.15-2.62-4.9-3.44-2.41-1.13-5.05-1.486-7.59-2.2v-.43l3.04-.43-.65-4.77-1.95.65c.03-7.94 7.97-12.275 13.45-16.485l-1 2.82 2.7 4.12 5.47 8.45-2.17-.22c.42 3.103 1.16 6.013.07 9.11-.71 1.99-2.44 3.64-2.96 5.64-.27 1 .21 2.02.21 3.03 0 1.41-.49 2.76-.8 4.12 3.89-1.85 4.63-7.52 8.68-8.89-.33-1.92-1.14-3.66-1.28-5.64-.29-4.29.56-8.52-.11-12.8-.73-4.67-2.76-8.86-4.46-13.223l1.954.87c.45-3 2.92-4.62 4.554-6.94-2.503.91-6.36 4.02-9.11 2.38-1.89-1.13-2.58-3.62-4.55-4.55l-2.6 10.41h-.22c-1.14-4.81 1.317-9.36 2.39-13.88-3.31 2.67-5.61 6.04-10.19 6.72l6.29-4.57 1.44-2.11-1.88-1.62-4.77-3.4 2.17.43.87-6.94h-.213c-.49.86-1.076 1.65-1.754 2.38-.9.97-2.08 2.52-3.36 2.96-2.52.87-6.01-2.07-8.33-2.74v9.97c-2.22-.37-1.93-2.6-1.95-4.55-.05-4.28-.19-8.5 0-12.79h-.22c-.65 4.82-2.23 11.69-6.94 14.096 1.35-2.165 2.63-4.014 3.34-6.506.21-.73.83-1.99.05-2.57-2.19-1.643-5.54-.24-7.33-2.85-1.77-2.57-.61-5.84-1.7-8.46z" transform="translate(.604 .524)"/>
    <path fill="#0F0D06" d="M86.17 11.947l.216.217-.217-.217zm-.218.65l.217.218-.22-.217z"/>
    <path fill="#0E0B05" d="M111.975 13.465l.217.217-.217-.217z"/>
    <path fill="#0F0D06" d="M98.313 13.9l.217.216-.217-.217z"/>
    <path fill="#0D0B05" d="M111.758 14.333l.217.216-.217-.22z"/>
    <path fill="#0F0D06" d="M98.096 14.55l.217.216-.217-.217z"/>
    <path fill="#FFF" d="M62.314 16.284l.217.217-.21-.21z"/>
    <path fill="#0F0D06" d="M97.012 16.284l.216.217-.216-.21zm-.217.217l.217.22-.217-.21zm4.987.22l.217.22-.22-.21zm-29.71.22l.218.22-.217-.21zm30.144 0l.217.22-.217-.21zm-39.25.22l.216.22-.217-.21zm10.625 0l.22.22-.21-.21zm29.06 0l.22.22-.21-.21z"/>
    <path fill="#0F0E07" d="M74.24 17.802l.218.217-.217-.22zm19.52 0l.216.217-.217-.22z"/>
    <path fill="#0D0B05" d="M128.022 17.802l.217.217-.22-.22z"/>
    <path fill="#FFF" d="M127.878 18.164l.072.144-.072-.144z"/>
    <path fill="#0F0D06" d="M62.965 18.236l.217.217-.217-.217zm44.456 0l.22.217-.21-.217z"/>
    <path fill="#0F0E07" d="M72.507 19.103l.216.217-.216-.217z"/>
    <path fill="#0E0B05" d="M127.59 19.103l.215.217-.216-.217z"/>
    <path fill="#0F0E07" d="M64.05 21.055l.216.217-.217-.217zm1.083 0l.217.217-.217-.217zm.217.434l.217.21-.217-.22z"/>
    <path fill="#000" d="M97.445 22.356l-3.47 15.614c2.673-1.63 3.238-7.567 3.47-10.41h.217c.465 2.5.69 5.006 1.707 7.374.4.938.84 2.187 1.98 2.17l-2.78-9.76-1.13-4.988z"/>
    <path fill="#0F0E07" d="M89.638 22.573l.217.217-.217-.217zm-18.433.434l.217.217-.217-.217zm-1.084.867l.22.217-.21-.21zm-1.08.434l.22.217-.21-.217zm27.76.65l.22.217-.21-.216z"/>
    <path fill="#000" d="M76.193 25.175c.046 5.545 2.788 10.593 1.735 16.265 1.04-.636 1.07-2.122 1.083-3.253.04-2.624-.42-5.196-.43-7.807h.22c.76 2.62 2.81 7.833 5.86 8.24-.36-1.408-1.52-2.474-2.29-3.686-1.71-2.692-3.39-8.124-6.16-9.76z"/>
    <path fill="#0F0E07" d="M67.52 25.392l.216.217-.217-.22z"/>
    <path fill="#0F0E08" d="M76.627 25.392l.217.217-.217-.22z"/>
    <path fill="#0F0D06" d="M106.336 25.61l.217.216-.217-.217z"/>
    <path fill="#0F0E07" d="M96.578 26.043l.217.217-.217-.217zm10.626 0l.217.217-.21-.217z"/>
    <path fill="#0F0D06" d="M125.637 26.043l.217.217-.217-.217z"/>
    <path fill="#0F0E07" d="M106.987 26.26l.217.217-.217-.217zm-1.3.217l.216.216-.217-.216zm1.083 0l.217.216-.217-.216z"/>
    <path fill="#0F0E08" d="M77.494 26.693l.217.217-.21-.217zm14.313.217l.217.217-.217-.217z"/>
    <path fill="#0D0B05" d="M126.938 26.91l.217.217-.217-.217z"/>
    <path fill="#0F0E07" d="M105.686 27.344l.217.217-.217-.21z"/>
    <path fill="#000" d="M120.65 27.56c-2.412 3.787-5.286 8.953-8.892 11.71v.218c2.734-.488 5.69-3.943 6.506-6.506h.216c-.03 3.858-1.805 7.948-.216 11.71h.216c1.154-3.903.553-8.508 1.547-12.577.31-1.276 1.46-3.403.622-4.554z"/>
    <path fill="#0F0E07" d="M64.7 27.995l.217.216L64.7 28z"/>
    <path fill="#0F0E08" d="M78.362 28.21l.217.218-.22-.217zm-11.927.435l.216.217-.21-.217zm-1.518.217l.216.217-.216-.22zm4.987 0l.217.217-.21-.22zm28.842 0l.217.217-.217-.22zm-1.734.434l.216.217-.216-.217z"/>
    <path fill="#0F0D06" d="M120.65 29.296l.216.217-.217-.217z"/>
    <path fill="#FFF" d="M133.877 29.513l.217.216-.217-.22zm-81.32.216l.216.21-.217-.22z"/>
    <path fill="#0F0E08" d="M79.23 29.73l.216.216-.217-.217z"/>
    <path fill="#0E0B05" d="M133.877 29.73l.217.216-.217-.217z"/>
    <path fill="#0F0E07" d="M118.914 30.163l.217.217-.21-.217z"/>
    <path fill="#0F0E08" d="M71.64 30.597l.216.217-.217-.217z"/>
    <path fill="#0F0E07" d="M112.408 30.597l.217.217-.217-.217z"/>
    <path fill="#0E0D08" d="M73.59 31.03l.218.217-.217-.216z"/>
    <path fill="#0F0E08" d="M73.808 31.247l.217.217-.217-.217z"/>
    <path fill="#0F0E07" d="M118.047 31.247l.217.217-.217-.217z"/>
    <path fill="#010101" d="M74.025 31.464l.216.217-.21-.21z"/>
    <path fill="#0F0E07" d="M56.242 31.68l.217.218-.22-.217z"/>
    <path fill="#0F0D06" d="M132.143 31.68l.216.218-.22-.217zm-.217.218l.217.217-.217-.217zm-90.647.434l.21.217-.22-.22z"/>
    <path fill="#0F0E07" d="M53.857 32.332l.217.217-.217-.22z"/>
    <path fill="#0E0D08" d="M79.663 32.55l.217.215-.217-.216z"/>
    <path fill="#0F0E07" d="M118.48 32.765l.217.217-.217-.217z"/>
    <path fill="#0F0D06" d="M128.89 32.765l.217.217-.217-.217z"/>
    <path fill="#0E0B05" d="M131.058 32.765l.217.217-.217-.217z"/>
    <path fill="#0F0E07" d="M118.264 32.982l.216.217-.216-.22z"/>
    <path fill="#0E0D08" d="M77.71 33.85l.218.217-.217-.217z"/>
    <path fill="#0F0D06" d="M132.36 34.067l.216.216-.217-.216z"/>
    <path fill="#0E0D08" d="M78.795 34.5l.217.217-.217-.217z"/>
    <path fill="#0E0B05" d="M126.07 34.717l.217.217-.216-.217z"/>
    <path fill="#0E0D08" d="M82.265 34.934l.217.217-.217-.21z"/>
    <path fill="#0F0D06" d="M136.263 35.368l.217.217-.217-.217z"/>
    <path fill="#FFF" d="M147.973 35.368l.217.217-.217-.217z"/>
    <path fill="#0E0D08" d="M82.7 35.585l.216.216-.217-.21z"/>
    <path fill="#0F0E07" d="M116.53 35.585l.216.216-.217-.21z"/>
    <path fill="#0E0B05" d="M147.973 35.585l.217.216-.217-.21z"/>
    <path fill="#0D0B05" d="M147.106 35.8l.217.218-.217-.217zm.65 0l.217.218-.217-.217z"/>
    <path fill="#0F0E07" d="M116.095 36.018l.217.217-.217-.217z"/>
    <path fill="#0E0B05" d="M147.54 36.018l.216.217-.217-.217z"/>
    <path fill="#0E0D08" d="M81.615 36.235l.217.217-.217-.217z"/>
    <path fill="#000" d="M106.336 36.235c-1.28 2.89-1.905 5.572-4.554 7.59v.434c1.904.5 3.23-1.89 3.687-3.47h.21c.19 1.45.36 4.48 1.95 4.98l-1.07-4.99-.24-4.56z"/>
    <path fill="#0F0D06" d="M136.913 36.235l.217.217-.217-.217z"/>
    <path fill="#0D0B05" d="M147.323 36.235l.216.217-.22-.217z"/>
    <path fill="#000" d="M59.93 36.452c.467 5.334 7.642 8.94 6.72 14.746 1.155-.674.852-1.93.464-3.036-.8-2.285-2.14-4.285-3.065-6.505 2.07 1.894 5.14 4.035 8.02 2.82l-4.55-1.887-7.6-6.138z"/>
    <path fill="#0E0B05" d="M147.106 36.452l.217.217-.217-.22z"/>
    <path fill="#0D0B05" d="M146.89 36.67l.216.216-.217-.217z"/>
    <path fill="#0F0D06" d="M133.227 36.886l.217.217-.217-.217z"/>
    <path fill="#0D0B05" d="M144.937 36.886l.217.217-.217-.217z"/>
    <path fill="#0E0B05" d="M146.672 36.886l.217.217-.22-.217z"/>
    <path fill="#0E0D08" d="M82.265 37.103l.217.216-.217-.22z"/>
    <path fill="#0F0E07" d="M115.228 37.103l.216.216-.216-.22z"/>
    <path fill="#0D0B05" d="M146.455 37.103l.217.216-.217-.22z"/>
    <path fill="#0F0E08" d="M59.93 37.32l.216.216-.217-.217zm55.08 0l.218.216-.217-.217z"/>
    <path fill="#0E0B05" d="M146.238 37.32l.217.216-.217-.217z"/>
    <path fill="#0F0E07" d="M61.447 37.536l.217.217-.217-.217z"/>
    <path fill="#0D0B05" d="M146.02 37.536l.218.217-.217-.217z"/>
    <path fill="#0F0E07" d="M49.303 37.753l.217.217-.217-.217z"/>
    <path fill="#0F0E08" d="M114.577 37.753l.217.217-.217-.217zm-.217.217l.217.217-.217-.217z"/>
    <path fill="#0F0E07" d="M46.484 38.187l.217.217-.21-.217z"/>
    <path fill="#0E0D08" d="M83.35 38.187l.216.217-.216-.217z"/>
    <path fill="#000" d="M89.855 38.187c-.656 2.16-2.497 6.373-1.735 8.457h.434l1.518-5.204h.217c.53 1.963 1.09 4.94 3.47 5.204l-3.47-8.457h-.44z"/>
    <path fill="#0F0E08" d="M46.7 38.404l.217.217-.216-.21z"/>
    <path fill="#0D0B05" d="M145.154 38.404l.217.217-.21-.21z"/>
    <path fill="#0F0E07" d="M46.917 38.62l.217.217-.217-.216z"/>
    <path fill="#0F0E08" d="M53.857 38.62l.217.217-.217-.216zm58.55 0l.218.217-.217-.216z"/>
    <path fill="#0F0E07" d="M47.134 38.837l.217.217-.21-.217z"/>
    <path fill="#0F0E08" d="M51.038 38.837l.217.217-.217-.217z"/>
    <path fill="#0E0D08" d="M105.252 38.837l.217.217-.22-.217zm1.3 0l.218.217-.217-.217z"/>
    <path fill="#0F0E08" d="M112.192 38.837l.216.217-.216-.217z"/>
    <path fill="#0F0E07" d="M47.35 39.054l.218.217-.217-.21z"/>
    <path fill="#0E0D08" d="M111.975 39.054l.217.217-.217-.21zm-48.36.434l.217.217-.217-.217z"/>
    <path fill="#0F0E08" d="M117.613 39.488l.217.217-.217-.217z"/>
    <path fill="#0E0D08" d="M61.447 40.14l.217.216-.217-.217zm43.155.216l.216.216-.216-.216z"/>
    <path fill="#0F0E08" d="M54.507 40.572l.217.217-.217-.22zm-5.42.217l.216.21-.217-.22z"/>
    <path fill="#0E0D08" d="M65.133 40.79l.217.216-.217-.217zm12.795 0l.217.216-.217-.217z"/>
    <path fill="#0F0D06" d="M132.36 40.79l.216.216-.217-.217z"/>
    <path fill="#0E0D08" d="M78.362 41.223l.217.217-.22-.217zm11.71.217l.217.217-.22-.217zm15.614 0l.217.217-.217-.217zm-42.72.867l.216.217-.217-.217z"/>
    <path fill="#0D0B05" d="M142.985 42.307l.217.217-.217-.217z"/>
    <path fill="#0E0D08" d="M65.784 42.958l.217.217-.21-.217z"/>
    <path fill="#0D0B05" d="M141.9 42.958l.218.217-.217-.217z"/>
    <path fill="#0E0D08" d="M63.615 43.175l.217.217-.217-.217zm40.12.217l.216.216-.21-.216z"/>
    <path fill="#000" d="M75.326 43.608l1.084 9.108h.434l-.217-6.505c1.414.99 3.327 3.42 5.205 2.61-.725-.78-1.774-.92-2.602-1.59-1.346-1.09-2.056-3.46-3.904-3.61z"/>
    <path fill="#0E0D08" d="M65.133 44.042l.217.217-.217-.22zm36.65.217l.216.21-.22-.22zm-37.3.21l.217.21-.217-.22zm23.42 0l.217.21-.216-.22z"/>
    <path fill="#0F0E08" d="M118.047 44.476l.217.217-.217-.217zm.433 0l.217.217-.217-.217z"/>
    <path fill="#000" d="M123.035 44.91c-2.288 2.293-4.2 3.87-7.374 4.77v.434c1.88.54 3.7-.502 5.21-1.518-.24 1.273-1.87 4.606-.65 5.422l2.08-6.29.74-2.818z"/>
    <path fill="#0E0D08" d="M77.277 45.126l.217.217-.217-.217zm-24.72.217l.216.217-.217-.217zm34.913 0l.217.217-.217-.217zm20.168 0l.216.217-.216-.217z"/>
    <path fill="#0F0D06" d="M122.384 45.343l.217.217-.21-.217z"/>
    <path fill="#0F0E07" d="M37.81 45.777l.216.217-.217-.217z"/>
    <path fill="#0E0D08" d="M93.108 45.777l.217.217-.217-.217z"/>
    <path fill="#0F0E08" d="M49.52 45.994l.217.217-.217-.21z"/>
    <path fill="#0D0B05" d="M143.202 45.994l.217.217-.22-.21z"/>
    <path fill="#0E0D08" d="M65.35 46.21l.217.218-.217-.217zm.868 0l.217.218-.217-.217zm22.336 0l.217.218-.21-.217zm-37.733.218l.22.216-.21-.216z"/>
    <path fill="#0F0E08" d="M121.083 46.86l.217.218-.217-.217zm1.3.218l.218.217-.21-.217z"/>
    <path fill="#0F0D06" d="M136.046 47.078l.217.217-.217-.217z"/>
    <path fill="#010101" d="M37.16 47.295l.216.217-.217-.217z"/>
    <path fill="#0E0D08" d="M78.362 47.512l.217.217-.22-.22zm-11.494.217l.217.21-.217-.22zm13.012 0l.217.21-.217-.22z"/>
    <path fill="#0F0E07" d="M37.81 47.946l.216.216-.217-.216z"/>
    <path fill="#0F0E08" d="M119.565 47.946l.217.216-.217-.216z"/>
    <path fill="#0E0D08" d="M79.23 48.162l.216.217-.217-.22zm2.385.217l.217.21-.217-.22z"/>
    <path fill="#0F0E08" d="M120.432 48.596l.217.217-.22-.217z"/>
    <path fill="#0E0D08" d="M80.314 48.813l.216.217-.216-.217zm.433.217l.217.217-.217-.217zm36.65 0l.216.217-.217-.217z"/>
    <path fill="#0F0E07" d="M131.275 49.03l.217.217-.217-.217zm-92.38.217l.215.217-.216-.217z"/>
    <path fill="url(#b)" d="M124.816 58.48c4.962-1.194 10.387-1.9 15.397-.866-.746-2.59-2.68-4.72-4.396-6.723-.587-.68-1.334-1.95-2.328-2.02-1.18-.09-2.21 1.05-3.04 1.7-2.44 1.92-4.54 5.01-5.64 7.92z" transform="translate(.604 .524)"/>
    <path fill="#0E0D08" d="M118.697 49.68l.217.217-.217-.217z"/>
    <path fill="#0F0E07" d="M130.408 49.68l.217.217-.217-.217z"/>
    <path fill="#000" d="M85.952 49.897l-1.3 6.723c1.087-.825 1.34-3.457 1.517-4.77l1.95 2.168c-.23-1.462-1.08-3.117-2.17-4.12z"/>
    <path fill="#0E0D08" d="M115.66 50.114l.218.217-.217-.21z"/>
    <path fill="#0F0E08" d="M120.432 50.114l.217.217-.22-.21zm14.963.217l.217.22-.217-.21z"/>
    <path fill="#000" d="M107.204 50.548l-4.12 4.12 3.903-2.82.65 3.904c.76-1.11.36-4.157-.433-5.204zm-45.974.65v.217c1.828 1.845 3.332 4.385 4.473 6.723.628 1.287.45 2.706 1.816 3.47-.11-2.536-1.2-4.458-2.17-6.723 1.53.896 3.59 2.236 5.42 1.735v-.434c-2.46-1.094-4.37-2.024-6.51-3.728-.91-.726-1.85-1.665-3.04-1.26z"/>
    <path fill="#0E0D08" d="M131.058 50.982l.217.216-.217-.216zm-44.022.433l.217.217-.217-.217zm-25.59.217l.218.217-.217-.22zm25.807.217l.217.21-.217-.22z"/>
    <path fill="#0F0E08" d="M136.697 51.85l.216.216-.216-.217z"/>
    <path fill="#0E0D08" d="M86.602 52.066l.217.217-.22-.217z"/>
    <path fill="#0F0E08" d="M128.022 52.066l.217.217-.22-.217z"/>
    <path fill="#0F0D06" d="M138.865 52.066l.217.217-.217-.217z"/>
    <path fill="#0F0E08" d="M40.412 52.283l.216.217-.216-.217z"/>
    <path fill="#0E0D08" d="M105.252 52.283l.217.217-.22-.217zm1.735 0l.217.217-.217-.217zm12.795 0l.217.217-.22-.217zm-55.516.217l.217.216-.217-.216zm21.686 0l.217.216-.22-.216z"/>
    <path fill="#0F0D06" d="M145.37 52.5l.218.216-.217-.216z"/>
    <path fill="#0F0E08" d="M129.107 52.716l.216.217-.216-.217z"/>
    <path fill="#0E0D08" d="M105.47 52.933l.216.217-.217-.217z"/>
    <path fill="#000" d="M46.7 53.15c.204 1.83 1.7 2.512 3.037 3.522 1.832 1.386 3.536 2.887 4.936 4.72.912 1.192 1.474 3.255 2.654 4.12-.254-3.19-2.135-6.942-5.205-8.242v-.216c3.12.605 6.23 1.765 9.325.433v-.433l-3.687-.146L46.7 53.15z"/>
    <path fill="#0E0D08" d="M62.748 53.15l.217.217-.217-.217zm41.203.217l.22.217-.21-.217zm16.27 0l.22.217-.21-.217zm-54.65.217l.22.217-.21-.21zm38.17 0l.22.217-.21-.21z"/>
    <path fill="#0F0D06" d="M139.95 53.584l.216.217-.217-.21z"/>
    <path fill="#0F0E08" d="M126.504 53.8l.217.218-.21-.217z"/>
    <path fill="url(#c)" d="M146.935 53.277l.434 5.204 4.77.66c-.8-2.1-3.08-5.03-5.21-5.85z" transform="translate(.604 .524)"/>
    <path fill="#0E0D08" d="M88.12 54.018l.217.216-.217-.216z"/>
    <path fill="#000" d="M95.06 54.018l-1.952 3.686 2.17-2.385 1.3 2.16"/>
    <path fill="#0E0D08" d="M120 54.018l.215.216-.216-.216z"/>
    <path fill="#0D0B05" d="M147.54 54.018l.216.216-.217-.216z"/>
    <path fill="#0E0D08" d="M63.4 54.234l.215.217-.216-.21zm3.035 0l.216.217-.21-.21z"/>
    <path fill="#0F0D06" d="M138.648 54.234l.217.217-.217-.21z"/>
    <path fill="#0F0E08" d="M39.978 54.45l.217.218-.217-.217z"/>
    <path fill="#0E0D08" d="M94.41 54.668l.216.217-.217-.217zm-26.89.217l.216.217-.217-.217zm-1.302.434l.217.21-.217-.22zm41.636 0l.217.21-.21-.22zm41.637 0l.22.21-.21-.22zm-54.21.21l.22.21-.21-.22zm54.43 0l.22.21-.21-.22zm-96.06.21l.22.21-.21-.22zm96.29 0l.22.21-.21-.22zm-101.05.22l.22.21-.22-.22zm47.28 0l.22.21-.21-.22z"/>
    <path fill="#0F0E08" d="M39.544 56.403l.217.217-.21-.217z"/>
    <path fill="#0E0D08" d="M49.52 56.403l.217.217-.217-.217z"/>
    <path fill="#0D0B05" d="M126.72 56.403l.218.217-.217-.217z"/>
    <path fill="#0E0D08" d="M84.868 56.62l.216.217-.216-.217zm9.108.217l.216.217-.216-.217z"/>
    <path fill="#0F0E08" d="M39.327 57.27l.217.217-.217-.217z"/>
    <path fill="#0E0D08" d="M53.64 57.27l.217.217-.217-.217zm12.795 0l.216.217-.21-.217zm-1.085.217l.217.217-.217-.217z"/>
    <path fill="#0D0B05" d="M126.07 57.487l.217.217-.216-.217z"/>
    <path fill="#0F0E08" d="M135.395 57.487l.217.217-.217-.217z"/>
    <path fill="#0D0B05" d="M139.3 57.704l.216.217-.217-.21z"/>
    <path fill="#0E0D08" d="M51.688 58.138l.217.217-.217-.217zm14.096.217l.217.217-.21-.217z"/>
    <path fill="#0D0B05" d="M152.31 58.788l.217.217-.217-.217z"/>
    <path fill="#000" d="M115.878 59.222l-3.686 2.82 3.252-1.736-.433 2.603c.93-.65 1.27-2.67.87-3.69z"/>
    <path fill="#FFF" d="M137.564 72.234c1.645-.784 2.432-2.658 2.877-4.338.55-2.066 1.26-7.516-1.36-8.543-1.44-.565-3.85.086-5.41.086-1.41 0-4.41-.22-5.5.83-1.01.97-.25 4.62.49 5.61.78 1.02 2.61 1.22 3.72 1.74 2.22 1.04 4 2.44 5.21 4.6z"/>
    <path fill="#0F0D06" d="M143.636 59.44l.217.216-.217-.217z"/>
    <path fill="#0D0B05" d="M151.443 59.44l.217.216-.217-.217zm1.3 0l-.216.433.217-.434z"/>
    <path fill="#020202" d="M139.733 59.656l.216.217-.22-.217z"/>
    <path fill="#FFF" d="M152.744 59.656l.217.217-.21-.217z"/>
    <path fill="#0F0E08" d="M40.412 59.873l.216.217-.216-.217z"/>
    <path fill="#0E0D08" d="M114.577 59.873l.217.217-.217-.217z"/>
    <path fill="#0F0E07" d="M34.556 60.09l.217.216-.217-.216z"/>
    <path fill="#0E0D08" d="M127.805 60.09l.217.216-.217-.216zm12.144 0l.21.216-.22-.216zm-72.65.216l.21.217-.22-.217zm47.92 0l.21.217-.22-.217z"/>
    <path fill="#0F0E08" d="M35.858 60.523l.216.217-.216-.217z"/>
    <path fill="#0E0D08" d="M113.493 60.523l.217.217-.217-.217z"/>
    <path fill="#020202" d="M140.166 60.523l.217.217-.217-.217z"/>
    <path fill="#FFF" d="M147.54 60.523v1.952c3.932-1.422 4.823 4.33.65 4.12l.867 4.988c2.906-1.356 4.245-7.895 1.858-10.34-.72-.738-2.4-.643-3.376-.72z"/>
    <path fill="#0F0E07" d="M33.255 60.74l.217.217-.217-.217z"/>
    <path fill="#0E0D08" d="M55.81 60.957l.215.217-.216-.217zm58.333 0l.217.217-.217-.217zm10.843 0l.217.217-.217-.217z"/>
    <path fill="#020202" d="M140.383 60.957l.217.217-.217-.217zm10.41 0l.216.217-.22-.217z"/>
    <path fill="#0F0E07" d="M33.906 61.174l.217.217-.217-.21z"/>
    <path fill="#0E0D08" d="M124.553 61.174l.216.217-.22-.21zm-57.468.217l.217.22-.217-.21z"/>
    <path fill="#000" d="M136.48 61.39c-.445.457-1.092.79-1.42 1.348-2.29 3.92 6.37 4.02 3.923-.217-.278-.48-.773-.79-1.202-1.13l-1.3.65v-.65z"/>
    <path fill="#020202" d="M136.697 61.39v.218h.867"/>
    <path fill="#010101" d="M140.6 61.39l.217.218-.217-.217z"/>
    <path fill="#0F0E07" d="M34.556 61.608l.217.216-.217-.216z"/>
    <path fill="#020202" d="M135.9 61.752l.074.145-.073-.145z"/>
    <path fill="#010101" d="M136.19 61.68l.145.072-.144-.072zm.29.144v.217l1.084-.21h-1.084z"/>
    <path fill="#020202" d="M137.998 61.608l.217.216-.217-.216z"/>
    <path fill="#010101" d="M135.612 61.824l.217.217-.22-.21z"/>
    <path fill="#050505" d="M138.43 61.824l.218.217-.217-.21z"/>
    <path fill="#0F0E07" d="M35.207 62.04l.217.218-.217-.217z"/>
    <path fill="#010101" d="M135.395 62.04l.217.218-.217-.217z"/>
    <path fill="#020202" d="M148.19 62.04l.65.435v-.217"/>
    <path fill="#050505" d="M148.407 62.04l.217.218-.217-.217z"/>
    <path fill="#010101" d="M148.624 62.04l.217.218-.21-.217z"/>
    <path fill="#020202" d="M149.057 62.04l.217.218-.217-.217z"/>
    <path fill="#010101" d="M149.274 62.04l.217.218-.21-.217z"/>
    <path fill="#0E0D08" d="M56.46 62.258l.216.217-.217-.217z"/>
    <path fill="#000" d="M90.94 62.258c0 1.104-.213 2.224.867 2.82v-2.17l2.602.868-3.47-1.518z"/>
    <path fill="#0E0D08" d="M91.373 62.258l.217.217-.217-.217z"/>
    <path fill="#020202" d="M147.756 62.258l.217.217-.217-.217z"/>
    <path fill="#010101" d="M147.973 62.258l.434.434v-.434h-.434zm1.084 0l.217.217-.217-.217z"/>
    <path fill="#0E0D08" d="M92.024 62.475l.217.217-.21-.217z"/>
    <path fill="#010101" d="M134.962 62.475l.217.217-.22-.217z"/>
    <path fill="#0F0E08" d="M147.106 62.475l.217.217-.217-.217z"/>
    <path fill="#050505" d="M147.323 62.475l.216.217-.22-.217z"/>
    <path fill="#000" d="M104.168 65.294l1.084-1.952 1.3.868c-.952-2.55-2.37-.724-2.384 1.084z"/>
    <path fill="#010101" d="M139.082 62.692l.217.217-.22-.22zm8.024 0l.217.217-.217-.22z"/>
    <path fill="#000" d="M77.928 62.91c.383 1.4.984 2.594 2.17 3.468l-1.303-2.82 2.603.218c-.672-1.218-2.246-.867-3.47-.867z"/>
    <path fill="#0E0D08" d="M80.964 62.91l.217.216-.21-.217zm10.843 0l.217.216-.217-.217z"/>
    <path fill="#FFF" d="M146.89 62.91l.216.216-.217-.217z"/>
    <path fill="#0F0E08" d="M36.725 63.126l.217.216-.217-.216z"/>
    <path fill="#0E0D08" d="M105.903 63.126l.217.216-.217-.216z"/>
    <path fill="#FFF" d="M146.672 63.126l.217.216-.22-.216z"/>
    <path fill="#0E0D08" d="M92.674 63.342l.217.217-.21-.22z"/>
    <path fill="#000" d="M66.868 64.21l3.036 3.686-1.735-3.036 2.6-.433-.22-.868"/>
    <path fill="#0E0D08" d="M78.795 63.56l.217.216-.217-.217z"/>
    <path fill="#050505" d="M139.3 63.56l.216.216-.217-.217z"/>
    <path fill="#FFF" d="M146.455 63.56v.65h.217"/>
    <path fill="#0E0D08" d="M78.145 63.776l.217.217-.217-.217z"/>
    <path fill="#050505" d="M146.455 64.21l.217.217-.217-.217z"/>
    <path fill="#0E0D08" d="M57.11 64.427l.217.217-.217-.217zm9.758 0l.217.217-.217-.217z"/>
    <path fill="#FFF" d="M146.455 64.427v.65h.217"/>
    <path fill="#010101" d="M138.937 64.788l.073.145-.073-.145zm12.072-.144l.21.216-.22-.216z"/>
    <path fill="#0E0D08" d="M56.676 64.86l.217.217-.217-.217zm34.48 0l.217.217-.217-.217zm-52.046.217l.217.217-.217-.217zm39.685 0l.217.217-.217-.217z"/>
    <path fill="#050505" d="M135.18 65.077l.215.217-.216-.217z"/>
    <path fill="#0F0E08" d="M39.327 65.294l.217.217-.217-.21z"/>
    <path fill="#FFF" d="M146.672 65.294l.217.217-.22-.21z"/>
    <path fill="#010101" d="M138.215 65.51l.216.218-.21-.217z"/>
    <path fill="#050505" d="M146.672 65.51l.217.218-.22-.217z"/>
    <path fill="#020202" d="M136.046 65.728l.217.217-.217-.217z"/>
    <path fill="#010101" d="M136.263 65.728l.217.217-.217-.217zm1.446.072l.14.073-.15-.073z"/>
    <path fill="#FFF" d="M146.89 65.728l.216.217-.217-.217z"/>
    <path fill="#010101" d="M150.43 65.873l.073.144-.072-.144z"/>
    <path fill="#050505" d="M150.575 65.728l.217.217-.217-.217z"/>
    <path fill="#010101" d="M39.978 65.945l.217.217-.217-.217z"/>
    <path fill="#050505" d="M136.913 65.945l.217.217-.217-.217z"/>
    <path fill="#FFF" d="M147.106 65.945l.217.217-.217-.217z"/>
    <path fill="#010101" d="M128.673 66.162l.217.216-.217-.216z"/>
    <path fill="#FFF" d="M147.323 66.162l.216.216-.22-.216z"/>
    <path fill="#010101" d="M147.756 66.162l.217.216-.217-.216z"/>
    <path fill="#000" d="M44.966 70.282v.434l6.29 2.168c-.13-1.648-2.26-2.14-3.688-2.385l4.337-3.91c-2.305-.27-5.07 2.54-6.94 3.68z"/>
    <path fill="#050505" d="M147.54 66.378l.216.217-.217-.217z"/>
    <path fill="#FFF" d="M147.756 66.378l.217.217-.217-.217z"/>
    <path fill="#020202" d="M147.973 66.378l.217.217-.217-.217z"/>
    <path fill="#010101" d="M148.84 66.378v.217h.65"/>
    <path fill="#0F0E08" d="M40.628 66.595l.217.217-.217-.217z"/>
    <path fill="#0E0D08" d="M140.6 66.595l.217.217-.217-.217zm8.24 0l.217.217-.216-.217z"/>
    <path fill="#010101" d="M130.408 66.812l.217.217-.217-.22z"/>
    <path fill="#000" d="M54.074 69.414v.434l4.77 1.714 2.82 1.973c-.31-2.303-2.753-2.69-4.337-3.904 2.014-.37 4.748-.41 5.638-2.6l-8.89 2.39z"/>
    <path fill="#0E0D08" d="M126.287 67.246l.217.217-.217-.217z"/>
    <path fill="#010101" d="M131.492 67.246l.217.217-.22-.217z"/>
    <path fill="#0E0D08" d="M49.086 67.463l.217.217-.217-.217zm12.144.217l.217.216-.217-.216zm1.3 0l.218.216-.217-.216zm89.13 0l.217.216-.217-.216zm-109.947.216l.217.217-.217-.217z"/>
    <path fill="#020202" d="M151.66 67.896l.217.217-.217-.217z"/>
    <path fill="#0E0D08" d="M48.002 68.113l.217.217-.22-.217zm14.095 0l.217.217-.217-.217zm78.07.217l.216.217-.217-.217zm8.24 0l.217.217-.217-.217zm-101.056.217l.22.217-.21-.217z"/>
    <path fill="#0F0D06" d="M142.335 68.547l.217.217-.217-.217zM18.51 68.98l.216.218-.217-.217z"/>
    <path fill="#010101" d="M148.407 68.98l.217.218-.217-.217z"/>
    <path fill="#0E0D08" d="M40.845 69.414l.217.217-.217-.21z"/>
    <path fill="#000" d="M84.65 70.932l.65-1.518c-.922.148-1.648.86-.65 1.518z"/>
    <path fill="#0E0D08" d="M45.833 69.63l.217.218-.217-.217z"/>
    <path fill="#0F0D06" d="M19.81 69.848l.217.217-.217-.217z"/>
    <path fill="#0F0E08" d="M132.793 69.848l.217.217-.217-.217z"/>
    <path fill="#0E0D08" d="M57.76 70.065l.217.217-.217-.217z"/>
    <path fill="#010101" d="M148.624 70.065l.217.217-.21-.217z"/>
    <path fill="#0E0D08" d="M41.496 70.282l.217.217-.217-.22z"/>
    <path fill="#0F0E07" d="M133.444 70.282l.217.217-.21-.22z"/>
    <path fill="#0E0D08" d="M139.3 70.282l.216.217-.217-.22z"/>
    <path fill="#0E0B05" d="M8.75 70.5l.217.216-.217-.217z"/>
    <path fill="#0F0D06" d="M20.678 70.5l.216.216-.216-.217z"/>
    <path fill="#0F0E08" d="M36.29 70.5l.218.216-.217-.217z"/>
    <path fill="#020202" d="M150.36 70.5l.215.216-.216-.217z"/>
    <path fill="#0E0D08" d="M59.278 70.716l.217.216-.217-.216z"/>
    <path fill="#000" d="M92.458 70.716l-.217 1.518c.68-.397.8-.754.65-1.518h-.43z"/>
    <path fill="#0E0D08" d="M92.89 70.716l.218.216-.217-.216z"/>
    <path fill="#000" d="M101.566 72.234l.65-1.518c-.84.243-1.54.848-.65 1.518z"/>
    <path fill="#010101" d="M139.082 70.716l.217.216-.22-.216z"/>
    <path fill="#020202" d="M150.142 70.716l.217.216-.22-.216z"/>
    <path fill="#0E0D08" d="M58.194 71.15l.217.216-.21-.217z"/>
    <path fill="#010101" d="M136.913 71.15l.217.216-.217-.217z"/>
    <path fill="#0F0E07" d="M141.25 71.15l.217.216-.216-.217z"/>
    <path fill="#010101" d="M149.708 71.15l.217.216-.217-.217zm-.217.216l.22.217-.21-.217z"/>
    <path fill="#0E0D08" d="M60.58 71.583l.216.217-.217-.217z"/>
    <path fill="#0F0D06" d="M22.196 71.8l.216.217-.216-.217z"/>
    <path fill="#0E0D08" d="M137.347 71.8l.217.217-.217-.217z"/>
    <path fill="#0E0B05" d="M13.304 72.017l.217.217-.21-.217z"/>
    <path fill="#0E0D08" d="M92.674 72.017l.217.217-.21-.217zm8.458 0l.217.217-.22-.217z"/>
    <path fill="#000" d="M108.07 73.535v.867l2.17-1.518"/>
    <path fill="#0E0D08" d="M60.796 73.1l.217.218-.217-.217zm48.143 0l.21.218-.22-.217zm1.08 0l.21.218-.22-.217z"/>
    <path fill="#000" d="M118.48 73.1v2.603c.815-.797.815-1.804 0-2.602z"/>
    <path fill="#0F0D06" d="M147.323 73.1l.216.218-.22-.217z"/>
    <path fill="#0D0B05" d="M156.214 73.1l.217.218-.21-.217z"/>
    <path fill="#0E0D08" d="M108.722 73.318l.217.217-.22-.217zm1.084 0l.217.217-.217-.217zm8.458 0l.216.217-.216-.217z"/>
    <path fill="#0F0E07" d="M139.95 73.318l.216.217-.217-.217z"/>
    <path fill="#0F0D06" d="M146.238 73.535l.217.217-.217-.217z"/>
    <path fill="#0E0D08" d="M108.505 74.185l.217.217-.217-.217zm-31.01.217l.216.217-.21-.22z"/>
    <path fill="#000" d="M75.76 77.438l2.602.65-1.444-1.39.793-2.08c-1.04.543-1.68 1.69-1.95 2.82z"/>
    <path fill="#0E0D05" d="M147.54 74.62l.216.216-.217-.217z"/>
    <path fill="url(#d)" d="M138.044 83.637v.217c5.457.69 7.914-1.92 11.927-4.988-.57 1.553-3.43 3.547-3.36 4.987.08 1.544 2.51 1.686 3.58 1.26 2.05-.812 3.35-3.076 3.79-5.163.93-4.333-4.76-7.88-8.32-5.114-3.05 2.37-4.4 6.42-7.61 8.8z" transform="translate(.604 .524)"/>
    <path fill="#010101" d="M13.738 75.053l.217.217-.217-.217z"/>
    <path fill="#000" d="M36.508 79.39c.28 1.618 1.885.75 3.036.67 1.654-.113 4.725.423 5.638 1.932l1.52-.217c-.39-2.454-3.928-2.45-5.857-2.602 1.42-1.435 3.454-1.863 3.904-4.12L36.5 79.39z"/>
    <path fill="#0D0B05" d="M154.696 75.053l.217.217-.217-.217z"/>
    <path fill="#0F0E07" d="M25.882 75.27l.217.217-.22-.217z"/>
    <path fill="#0D0B05" d="M157.298 75.487l.217.216-.217-.216z"/>
    <path fill="#0F0D06" d="M20.027 75.703l.217.217-.217-.217z"/>
    <path fill="#0E0D08" d="M76.41 75.703l.217.217-.217-.217zm-33.396.217l.217.217-.21-.217zm33.613.217l.217.217-.217-.217z"/>
    <path fill="#0F0E07" d="M27.4 76.57l.217.218-.217-.217z"/>
    <path fill="#0E0D08" d="M42.146 76.57l.217.218-.217-.217zm1.735 0l.22.218-.21-.217z"/>
    <path fill="#0E0B05" d="M14.172 76.788l.217.217-.22-.217z"/>
    <path fill="#000" d="M86.602 76.788l-2.385 3.036 3.036 1.084-2.17-1.3c.453-.948 2.224-1.77 1.52-2.82z"/>
    <path fill="#0E0D05" d="M154.045 76.788l.217.217-.217-.217z"/>
    <path fill="#0F0E07" d="M33.038 77.005l.217.216-.217-.21z"/>
    <path fill="#0E0D08" d="M41.496 77.005l.217.216-.217-.21zm34.047 0l.216.216-.22-.21z"/>
    <path fill="#0F0E07" d="M28.268 77.22l.216.218-.216-.217zm4.337 0l.217.218-.217-.217z"/>
    <path fill="#0E0D08" d="M43.014 77.438l.217.217-.21-.217zm24.505 0l.21.217-.22-.217z"/>
    <path fill="#000" d="M67.736 77.438l-2.603 2.386c1.016.343 3.362 1.68 4.12.65l-2.818-1.084 1.3-1.952zm56.166 0l3.036 2.386v.433l-2.82 1.518c1.485-.12 2.75-.57 3.904-1.518-.843-1.428-2.49-2.505-4.12-2.82z"/>
    <path fill="#0F0E07" d="M28.918 77.655l.217.217-.217-.217z"/>
    <path fill="#010101" d="M154.48 77.655l.216.217-.217-.217z"/>
    <path fill="#0D0B05" d="M158.166 77.655l.216.217-.216-.217zm-143.127.217l.21.217-.22-.22z"/>
    <path fill="#0E0D08" d="M85.3 77.872l.218.217-.217-.22zm1.086 0l.216.217-.216-.22zm38.817 0l.217.217-.217-.22z"/>
    <path fill="#0E0D05" d="M144.07 77.872l.217.217-.217-.22zm10.41 0l.216.217-.217-.22z"/>
    <path fill="#0E0D08" d="M66.65 78.09l.218.216-.217-.217zm.87 0l.216.216-.217-.217zm17.564 0l.217.216-.21-.217z"/>
    <path fill="#0E0B05" d="M15.473 78.306l.217.217-.217-.217z"/>
    <path fill="#000" d="M54.29 78.306c-1.312 2.943-3.334 5.34-5.638 7.586-1.322 1.29-3.383 2.49-3.903 4.34l9.54-2.024 4.98-1.01c-2.98-2.12-8.19.238-11.06 1.517 1.97-3.96 5.84-5.53 6.72-10.192l-.22-.217h-.44z"/>
    <path fill="#0E0D08" d="M67.302 78.306l.217.217-.22-.217zm17.566 0l.216.217-.216-.217zm39.9 0l.218.217-.217-.217zm-83.49.217l.218.216-.217-.22z"/>
    <path fill="#000" d="M93.976 80.474l1.3.217v-2.16c-.94.31-1.048 1.07-1.3 1.95z"/>
    <path fill="#0F0E08" d="M38.243 78.74l.217.216-.217-.217z"/>
    <path fill="#0E0D08" d="M125.42 78.74l.217.216-.217-.217zm-71.563.216l.217.217-.217-.217z"/>
    <path fill="#0E0B05" d="M16.124 79.173l.216.217-.216-.217z"/>
    <path fill="#0E0D08" d="M41.713 79.173l.217.217-.217-.217zm43.37.217l.218.217-.21-.217z"/>
    <path fill="#010101" d="M154.696 79.39l.217.217-.217-.217z"/>
    <path fill="#0F0E08" d="M127.59 79.607l.215.217-.216-.217z"/>
    <path fill="#0F0E07" d="M141.467 79.607l.217.217-.217-.217z"/>
    <path fill="#0E0D08" d="M67.52 79.824l.216.217-.217-.21z"/>
    <path fill="#0F0D06" d="M149.708 79.824l.217.217-.217-.21z"/>
    <path fill="#0E0D08" d="M66 80.04l.218.217L66 80.04zm27.976 0l.216.217-.216-.216z"/>
    <path fill="#000" d="M104.168 80.04l.217 2.386c1.006-.533 1.663-1.277 1.95-2.385l-1.517 1.09-.65-1.08z"/>
    <path fill="#0E0D08" d="M45.833 80.257l.217.217-.217-.217zm58.118 0l.22.217-.21-.217zm1.74 0l.22.217-.21-.217z"/>
    <path fill="#0F0E08" d="M127.805 80.257l.217.217-.217-.217z"/>
    <path fill="#0E0D05" d="M150.142 80.257l.217.217-.22-.217z"/>
    <path fill="#0E0B05" d="M16.99 80.474l.218.217-.217-.21z"/>
    <path fill="#0E0D08" d="M67.302 80.474l.217.217-.22-.21zm38.167 0l.21.217-.22-.21zm20.16.217l.21.22-.22-.21z"/>
    <path fill="#0E0D05" d="M141.684 81.125l.217.217-.21-.217z"/>
    <path fill="#010101" d="M154.262 81.125l.217.217-.22-.217z"/>
    <path fill="#0D0B05" d="M159.25 81.342l.217.217-.217-.22z"/>
    <path fill="#010101" d="M154.045 81.775l.217.217-.217-.217z"/>
    <path fill="#0E0D08" d="M53.64 81.992l.217.217-.217-.22z"/>
    <path fill="#0E0B05" d="M22.846 82.21l.217.216-.217-.217z"/>
    <path fill="#020202" d="M146.89 82.426l.216.217-.217-.217z"/>
    <path fill="#0D0B05" d="M140.383 82.643l.217.217-.217-.217z"/>
    <path fill="#0E0D05" d="M146.672 82.643l.217.217-.22-.217zm-6.506.217l.217.217-.217-.217z"/>
    <path fill="#000" d="M73.59 84.595l.435-1.518c-.93.27-1.442.94-.434 1.518z"/>
    <path fill="#0F0D06" d="M18.51 83.293l.216.217-.217-.217z"/>
    <path fill="#0E0D08" d="M72.94 83.293l.217.217-.217-.217zm-22.12.217l.218.217-.217-.217z"/>
    <path fill="#0E0D05" d="M144.937 83.51l.217.217-.217-.217z"/>
    <path fill="#0E0D08" d="M50.604 83.727l.217.217-.21-.217z"/>
    <path fill="#010101" d="M152.96 83.727l.218.217-.217-.217zm-9.107.217l.217.217-.217-.21z"/>
    <path fill="#0E0D05" d="M152.744 83.944l.217.217-.21-.21z"/>
    <path fill="#000" d="M112.408 84.378l-.216 3.036-1.952-1.3c.204 1.314 1.123 1.94 2.385 2.167l.217-3.9h-.434z"/>
    <path fill="#010101" d="M141.9 84.378v.217h.652"/>
    <path fill="#000" d="M58.845 91.1c1.435-.06 6.433.13 7.156-.867l-4.77-.65 2.61-4.988c-1.58.493-4.28 4.975-4.98 6.505zm17.565 18.867c1.636-.937 3.765-3.73 4.554-5.422-1.736.52-2.495 2.222-3.687 3.47l-.65-4.554c5.072-.44 7.3-5.98 10.285-9.31 1.817-2.03 4.093-2.9 6.413-4.13-1.367-1.63-3.27.1-4.554 1.09-3.44 2.65-5.42 5.86-8.45 8.9l1.74-4.55h-.21c-.94 2.26-2.07 4.68-4.34 5.86l.87-3.03h-.22c-.91 2.18-1.94 3.25-4.33 3.25L76 96.55h-.22l-2.82 4.77-.87-.21 2.17-4.12h-.21c-1.1 1.752-2.25 4.25-4.55 3.684l1.954-3.685c-1.09.85-1.56 2.88-2.84 3.39-.587.23-1.69-.2-1.455-.97.3-1.01 1.96-2 2.61-2.86 2.22-2.92 4.02-7.67 7.32-9.46 2.7-1.47 6.8.39 9.75.35 1.69-.02 3.61-.6 4.12-2.39-1.38-.15-2.68.74-4.12.74-3.65 0-9.63-1.81-12.76.66-2.85 2.25-3.01 5.27-4.81 8.13-.88 1.4-2.42 2.34-3.69 3.35-.47.37-1.32.91-1.14 1.62.22.88 1.71 1.35 2.44 1.68 1.64.75 3.43 1.34 5.2 1.7.95.19 2.36.16 3.16.74 1.47 1.06.97 4.69 1.17 6.29z"/>
    <path fill="#010101" d="M151.443 85.245l.217.217-.217-.217zm-3.687.217l.217.217-.217-.22zm3.036 0l.217.217-.22-.22z"/>
    <path fill="#000" d="M35.858 85.68l-.217 1.3.87-1.3"/>
    <path fill="#0E0D08" d="M87.036 85.68l.217.216-.217-.217z"/>
    <path fill="#010101" d="M148.624 85.68l.217.216-.21-.217z"/>
    <path fill="#0E0D08" d="M112.842 85.896l.217.217-.22-.217z"/>
    <path fill="url(#e)" d="M147.803 91.444c-.498-1.47-.27-3.25-1.226-4.545-1.248-1.7-4.048-1.55-5.93-1.53-.65.01-1.734-.03-2.154.58-.502.73.41 2.53.608 3.31.82 3.25 1.55 7.73 4.37 9.91 1.86 1.43 5.59.49 7.13-1.04 2.47-2.45 3.14-8.16.63-10.8-3.1-3.27-3.05 2.54-3.42 4.09z" transform="translate(.604 .524)"/>
    <path fill="#0F0D06" d="M20.244 86.113l.217.216-.21-.22z"/>
    <path fill="#0E0D08" d="M74.24 86.113l.218.216-.217-.22z"/>
    <path fill="#0F0E08" d="M40.628 86.33l.217.216-.217-.217z"/>
    <path fill="#0E0D08" d="M48.002 86.33l.217.216-.22-.216zm14.963 0l.217.216-.217-.217z"/>
    <path fill="#0F0E08" d="M36.29 86.546l.218.217-.217-.217z"/>
    <path fill="#0E0D08" d="M41.713 86.546l.217.217-.217-.217zm6.072 0l.217.217-.217-.217zm29.926 0l.22.217-.21-.217zm-30.14.217l.22.217-.21-.217z"/>
    <path fill="#0F0E08" d="M36.074 86.98l.217.217-.21-.217z"/>
    <path fill="#0E0D08" d="M61.664 86.98l.217.217-.21-.217zm11.71 0l.217.217-.21-.217z"/>
    <path fill="#0E0B05" d="M88.77 86.98l.218.217-.217-.217z"/>
    <path fill="#0E0D08" d="M150.792 86.98l.217.217-.22-.217z"/>
    <path fill="url(#f)" d="M161.248 86.673l-1.16 5.42-.82 2.81L160.814 96l-.433-1.952h.22c1.01 2.408 2.06 2.82 4.56 2.82l-1.52-3.254c1 1.15 1.36 2.777 3.04 3.036l-1.51-2.82c1.39 1.508 2.08 2.548 4.12 1.52v-.435c-3.61-1.72-3.94-7.5-8.02-8.24z" transform="translate(.604 .524)"/>
    <path fill="#000" d="M127.155 88.932l.65-1.518c-.886.258-1.35.755-.65 1.518z"/>
    <path fill="#0E0D08" d="M61.23 87.63l.217.217-.217-.216z"/>
    <path fill="#0E0D05" d="M147.323 87.63l.216.217-.22-.216z"/>
    <path fill="#0F0E08" d="M75.543 87.847l.216.217-.22-.217z"/>
    <path fill="#010101" d="M139.082 87.847l.217.217-.22-.217z"/>
    <path fill="#0D0B05" d="M159.467 87.847l.217.217-.217-.217z"/>
    <path fill="#0E0D08" d="M54.29 88.064l.217.217-.216-.21z"/>
    <path fill="#0F0E08" d="M75.326 88.064l.217.217-.217-.21zm-39.468.217l.216.22-.216-.21zm.867 0l.217.22-.217-.21zm38.384 0l.21.22-.22-.21z"/>
    <path fill="#0E0D08" d="M61.447 88.498l.217.217-.217-.217zm10.41 0l.216.217-.217-.217z"/>
    <path fill="#0F0E08" d="M39.544 88.715l.217.217-.21-.217z"/>
    <path fill="#0F0E07" d="M134.094 88.715l.217.217-.21-.217z"/>
    <path fill="#010101" d="M148.407 88.715l.217.217-.217-.217z"/>
    <path fill="#0F0E08" d="M39.327 89.15l.217.215-.217-.216z"/>
    <path fill="#0F0E07" d="M74.458 89.15l.217.215-.217-.216z"/>
    <path fill="#000" d="M97.88 89.15l2.384 2.6 1.085-2.6-1.09 1.733-2.39-1.734zm21.902 0l-.217 3.25-2.17-1.3c-.12 1.43 2.07 3.055 3.254 3.687l-.44-5.638h-.44z"/>
    <path fill="#0E0D08" d="M59.712 89.582l.217.217-.22-.22zm3.687 0l.21.217-.22-.22zm-3.91.217l.21.21-.22-.22z"/>
    <path fill="#0F0E07" d="M133.444 89.8l.217.216-.21-.217z"/>
    <path fill="#0F0D06" d="M26.1 90.233l.216.217-.217-.217z"/>
    <path fill="#0F0E08" d="M39.76 90.45l.218.217-.217-.217z"/>
    <path fill="#0E0D08" d="M58.845 90.45l.216.217-.21-.217z"/>
    <path fill="#0F0D06" d="M89.422 90.45l.216.217-.216-.217z"/>
    <path fill="#0F0E07" d="M133.01 90.45l.217.217-.217-.217zm1.518.217l.217.216-.217-.216z"/>
    <path fill="#0E0D08" d="M99.18 90.883l.217.217-.217-.217zm66.576 0l.216.217-.216-.217zm-95.2.217l.216.217-.217-.217z"/>
    <path fill="#0F0E07" d="M132.576 91.1l.217.217-.217-.217z"/>
    <path fill="#0F0D06" d="M24.147 91.317l.217.217-.217-.217zm64.19 0l.217.217-.217-.217z"/>
    <path fill="#0E0D08" d="M90.072 91.317l.217.217-.22-.217z"/>
    <path fill="#0F0D06" d="M23.497 91.534l.217.217-.217-.21z"/>
    <path fill="#0E0D08" d="M99.614 91.534l.217.217-.21-.21zm18.65 0l.216.217-.216-.21z"/>
    <path fill="#0F0E07" d="M133.66 91.968l.217.217-.216-.217z"/>
    <path fill="#0E0D08" d="M88.554 92.4l.217.218-.21-.217z"/>
    <path fill="#0F0D06" d="M23.497 92.618l.217.217-.217-.217z"/>
    <path fill="#0E0D08" d="M140.383 92.618l.217.217-.217-.217zm-92.598.217l.217.217-.217-.217z"/>
    <path fill="#000" d="M61.013 92.835c-.68 3.25-3 6.173-5.082 8.674-.99 1.19-2.51 2.39-2.94 3.9 3.6-1.04 7.64-4.69 11.5-4.34-.99-1.93-5.62.74-7.37 1.08 1.41-2.09 3.33-3.9 4.24-6.29.38-1 .62-2.35-.33-3.04z"/>
    <path fill="#0F0E07" d="M72.073 92.835l.217.217-.217-.217z"/>
    <path fill="#0E0D08" d="M86.17 92.835l.216.217-.217-.217z"/>
    <path fill="#0F0D06" d="M26.1 93.052l.216.217-.217-.22zm.866 0l.217.217-.217-.22z"/>
    <path fill="#0E0D08" d="M60.796 93.27l.217.216-.217-.217z"/>
    <path fill="#0F0E07" d="M130.84 93.27l.218.216-.217-.217z"/>
    <path fill="#010101" d="M140.6 93.486l.217.217-.217-.217zm12.578.217l.217.216-.217-.22z"/>
    <path fill="#0F0E08" d="M167.49 93.703l.217.216-.217-.22z"/>
    <path fill="#0E0D08" d="M86.82 93.92l.216.216-.217-.217z"/>
    <path fill="#0F0E08" d="M40.628 94.136l.217.217-.217-.217z"/>
    <path fill="#0F0D06" d="M25.232 94.353l.216.217-.216-.217z"/>
    <path fill="#0E0D08" d="M84.65 94.353l.218.217-.217-.217z"/>
    <path fill="#0F0D06" d="M25.015 94.57l.217.217-.217-.217z"/>
    <path fill="#0E0D08" d="M120 94.57l.215.217-.216-.217z"/>
    <path fill="#000" d="M109.372 98.04c-.917-.915-1.85-2.18-3.252-1.952l4.12 4.988 1.084-6.29c-1.652.262-1.572 1.902-1.952 3.254z"/>
    <path fill="#0F0E07" d="M164.888 94.787l.217.217-.217-.217z"/>
    <path fill="#0F0E08" d="M38.026 95.004l.217.217-.217-.21zm4.554 0l.217.217-.217-.21z"/>
    <path fill="#000" d="M88.988 96.955l-.217-1.084h-.65l.22 2.82c1.27-.21 2.58-2.49 2.82-3.68l-2.17 1.95z"/>
    <path fill="#010101" d="M152.96 95.004l.218.217-.217-.21z"/>
    <path fill="#0E0D08" d="M46.267 95.22l.217.217-.217-.216zm37.733 0l.217.217L84 95.22zm1.735 0l.217.217-.217-.216zm25.59 0l.216.217-.21-.216z"/>
    <path fill="#0F0E07" d="M131.275 95.22l.217.217-.217-.216z"/>
    <path fill="#0D0B05" d="M169.876 95.437l.217.217-.217-.217z"/>
    <path fill="#0E0D08" d="M68.17 95.654l.216.217-.217-.21z"/>
    <path fill="#0E0B05" d="M159.684 95.654l.216.217-.216-.21z"/>
    <path fill="#0E0D08" d="M48.002 95.87l.217.218-.22-.218zm11.71 0l.217.218-.22-.217z"/>
    <path fill="#000" d="M76.05 96.016l.07.144-.07-.144z"/>
    <path fill="#0F0E07" d="M130.408 96.088l.217.217-.217-.217z"/>
    <path fill="#0D0B05" d="M154.48 96.088l.216.217-.217-.217zm6.722 0l.216.217-.216-.217z"/>
    <path fill="#0E0D08" d="M61.013 96.305l.217.217-.217-.217zm14.746 0l.21.217-.22-.217zm-16.49.434l.21.21-.22-.22zm93.03 0l.21.21-.22-.22z"/>
    <path fill="#0D0B05" d="M154.262 96.74l.217.215-.22-.216z"/>
    <path fill="#0F0D06" d="M165.972 96.74l.217.215-.22-.216z"/>
    <path fill="#000" d="M29.135 96.955l.217.217-.217-.217z"/>
    <path fill="#0E0D08" d="M66.65 96.955l.218.217-.217-.217z"/>
    <path fill="#0F0E07" d="M128.673 96.955l.217.217-.217-.217z"/>
    <path fill="#0F0D06" d="M28.7 97.172l.218.217-.217-.22zm.435 0l.217.217-.217-.22z"/>
    <path fill="#0F0E08" d="M73.808 97.172l.217.217-.217-.22z"/>
    <path fill="#0E0D08" d="M82.7 97.172l.216.217-.217-.22zm69.393 0l.217.217-.217-.22zm-42.72.434l.216.217-.22-.217zm32.962 0l.217.217-.217-.217z"/>
    <path fill="#0F0E07" d="M32.822 97.823l.216.217-.216-.217z"/>
    <path fill="#0E0D08" d="M82.048 98.04l.217.217-.217-.217zm28.192 0l.217.217-.217-.217z"/>
    <path fill="#0F0E08" d="M46.484 98.257l.217.216-.21-.216z"/>
    <path fill="#0E0B05" d="M70.12 98.257l.218.216-.217-.216z"/>
    <path fill="#0E0D08" d="M72.94 98.257l.217.216-.217-.216z"/>
    <path fill="#0F0E08" d="M74.892 98.257l.217.216-.22-.216z"/>
    <path fill="#0E0D08" d="M83.566 98.257l.217.216-.217-.216z"/>
    <path fill="#0D0B05" d="M155.13 98.257l.216.216-.216-.216z"/>
    <path fill="#0E0D08" d="M64.7 98.473l.217.217-.217-.217zm13.228 0l.217.217-.217-.217z"/>
    <path fill="#000" d="M97.012 98.473l-1.085 2.82h-.217l-1.734-2.386 1.518 4.988h.216c.577-1.45 2.62-4.115 1.302-5.422z"/>
    <path fill="#0E0D08" d="M108.288 98.473l.217.217-.217-.217z"/>
    <path fill="#0F0E08" d="M74.675 98.69l.217.217-.217-.217z"/>
    <path fill="#0F0D06" d="M139.95 98.69l.216.217-.217-.217z"/>
    <path fill="#0D0B05" d="M67.085 98.907l.217.217-.217-.217z"/>
    <path fill="#0E0D08" d="M96.578 98.907l.217.217-.217-.217z"/>
    <path fill="#0F0E08" d="M39.978 99.124l.217.217-.217-.21z"/>
    <path fill="#0F0E07" d="M74.025 99.124l.216.217-.21-.21z"/>
    <path fill="#0E0D08" d="M77.928 99.124l.217.217-.217-.21zm1.952 0l.217.217-.217-.21z"/>
    <path fill="#0F0D06" d="M27.183 99.34l.217.218-.217-.217z"/>
    <path fill="#0E0D08" d="M80.314 99.34l.216.218-.216-.217zm63.322 0l.217.218-.217-.217zm-86.31.218l.217.217-.216-.217zm86.527 0l.217.217-.217-.217z"/>
    <path fill="#0F0D06" d="M26.533 99.775l.217.216-.217-.21z"/>
    <path fill="#0D0B05" d="M69.687 99.775l.217.216-.217-.21z"/>
    <path fill="#0F0D06" d="M72.507 99.775l.216.216-.216-.21z"/>
    <path fill="#0E0D08" d="M80.314 99.775l.216.216-.216-.21z"/>
    <path fill="#000" d="M120.432 99.99l1.3 7.158c-1.38-1.208-5.644-6.772-7.372-4.77 3.99 1.27 5.652 5.93 9.108 8.023l-1.08-4.12-1.305-6.5-.65.22z"/>
    <path fill="#0E0D08" d="M144.07 99.775l.217.216-.217-.21z"/>
    <path fill="#010101" d="M148.19 99.99l.217.218-.217-.217z"/>
    <path fill="#0E0B05" d="M153.612 99.99l.216.218-.216-.217z"/>
    <path fill="#0D0B05" d="M25.882 100.208l.217.217-.22-.217z"/>
    <path fill="#0F0E07" d="M31.52 100.208l.217.217-.217-.217z"/>
    <path fill="#0E0D08" d="M58.194 100.208l.217.217-.21-.217z"/>
    <path fill="#0D0B05" d="M68.82 100.208l.217.217-.217-.217zm.65 0l.217.217-.216-.217z"/>
    <path fill="#0E0B05" d="M73.374 100.208l.217.217-.21-.217z"/>
    <path fill="#010101" d="M145.154 100.208l.217.217-.21-.217z"/>
    <path fill="#0D0B05" d="M153.395 100.208l.217.217-.217-.217z"/>
    <path fill="#0E0D08" d="M56.676 100.425l.217.217-.217-.217z"/>
    <path fill="#0D0B05" d="M68.386 100.425l.217.217-.217-.217zm3.036 0l.217.217-.22-.217z"/>
    <path fill="#0F0E08" d="M42.797 100.642l.217.217-.217-.22z"/>
    <path fill="#0F0E07" d="M78.145 100.86l.217.216-.217-.217z"/>
    <path fill="#0F0D06" d="M30.87 101.076l.217.217-.217-.217z"/>
    <path fill="#0E0B05" d="M72.723 101.076l.217.217-.217-.217z"/>
    <path fill="#0F0E07" d="M77.71 101.076l.218.217-.217-.217z"/>
    <path fill="#0E0D08" d="M59.93 101.293l.216.216-.217-.22z"/>
    <path fill="#0F0D06" d="M142.77 101.293l.215.216-.216-.22z"/>
    <path fill="#0E0D08" d="M67.736 101.51l.217.216-.217-.217z"/>
    <path fill="#000" d="M131.926 101.51c-1.098 2.688 1.582 5.573 2.602 8.023-2.82-1.453-5.323-3.875-8.674-3.903v.867c4.828.422 7.404 5.362 11.276 7.59-.036-4.042-3.505-8.69-4.77-12.578h-.434z"/>
    <path fill="#0F0D06" d="M138.43 101.51l.218.216-.217-.217z"/>
    <path fill="#0E0D08" d="M58.628 101.726l.217.217-.217-.217z"/>
    <path fill="#0F0D06" d="M143.636 101.726l.217.217-.217-.217z"/>
    <path fill="#0E0B05" d="M151.877 101.726l.216.217-.216-.217z"/>
    <path fill="#0E0D08" d="M80.097 101.943l.217.217-.217-.217z"/>
    <path fill="#0D0B05" d="M151.66 101.943l.217.217-.217-.217z"/>
    <path fill="#0F0E08" d="M46.484 102.16l.217.217-.21-.217zm74.165 0l.21.217-.22-.217z"/>
    <path fill="#0E0B05" d="M151.443 102.16l.217.217-.217-.217z"/>
    <path fill="#0F0E08" d="M46.267 102.377l.217.217-.217-.217z"/>
    <path fill="#0E0D08" d="M70.338 102.377l.217.217-.217-.217zm9.108 0l.217.217-.217-.217z"/>
    <path fill="#0F0D06" d="M139.733 102.377l.216.217-.22-.217z"/>
    <path fill="#0F0E08" d="M46.05 102.594l.217.217-.217-.21zm-.217.217l.217.22-.217-.21z"/>
    <path fill="#0E0D08" d="M95.927 102.81l.217.217-.217-.216z"/>
    <path fill="#0F0E08" d="M45.616 103.027l.217.217-.217-.217z"/>
    <path fill="#0E0D08" d="M54.507 103.027l.217.217-.217-.217z"/>
    <path fill="#0F0E08" d="M121.733 103.244l.217.217-.217-.21z"/>
    <path fill="#0F0E07" d="M131.71 103.895l.216.217-.217-.217z"/>
    <path fill="#0F0E08" d="M44.75 104.112l.216.217-.217-.22z"/>
    <path fill="#0E0D08" d="M55.592 104.112l.217.217-.22-.22zm-.434.217l.217.21-.217-.22z"/>
    <path fill="#000" d="M87.904 104.762l-1.518.217c.51 1.21 1.414 2.19 1.838 3.47.47 1.4.165 3.35 1.63 4.12.68-1.53 2.35-4.01 1.953-5.64-1.232.6-1.816 1.92-1.952 3.25h-.217l-1.734-5.42z"/>
    <path fill="#0F0E08" d="M44.098 104.98l.217.216-.217-.217z"/>
    <path fill="#000" d="M67.736 104.98c0 4.255-.58 8.257-1.735 12.36 1.51.055 2.3-1.514 3.12-2.602 1.62-2.15 3.24-4.52 5.78-5.638v-.217c-2.57-.334-5.79 3.518-6.72 5.638h-.21c.77-2.95 1.45-6.64.22-9.54h-.43z"/>
    <path fill="#0E0D08" d="M80.747 104.98l.217.216-.217-.217z"/>
    <path fill="#0E0B05" d="M143.202 104.98l.217.216-.22-.217z"/>
    <path fill="#0D0B05" d="M148.407 104.98l.217.216-.217-.217z"/>
    <path fill="#000" d="M104.602 109.75l-4.988-3.47c.277.888.982 1.152 1.64 1.762 1.293 1.2 2.423 4.007 4.215 4.31l.43-7.156c-1.75.668-1.3 3.017-1.3 4.554z"/>
    <path fill="#0F0E07" d="M132.36 105.196l.216.217-.217-.217z"/>
    <path fill="#0E0B05" d="M148.19 105.196l.217.217-.217-.217z"/>
    <path fill="#0E0D08" d="M88.12 105.413l.217.217-.217-.217z"/>
    <path fill="#0F0E08" d="M121.3 105.63l.217.217-.217-.217z"/>
    <path fill="#0E0D08" d="M86.82 105.847l.216.216-.217-.216z"/>
    <path fill="#0F0E08" d="M118.914 105.847l.217.216-.21-.216zm1.518.216l.217.217-.22-.217z"/>
    <path fill="#0F0E07" d="M120.65 106.28l.216.217-.217-.217z"/>
    <path fill="#0E0D08" d="M79.23 106.497l.216.217-.217-.217zm21.25 0l.218.217-.217-.217z"/>
    <path fill="#0F0E08" d="M129.757 106.714l.217.217-.217-.21z"/>
    <path fill="#0F0E07" d="M44.532 106.93l.217.218-.22-.217z"/>
    <path fill="#0E0D08" d="M91.807 106.93l.217.218-.217-.217zm-13.228.435l.21.216-.22-.21z"/>
    <path fill="#0F0E08" d="M120.215 107.365l.217.216-.217-.21z"/>
    <path fill="#0F0D06" d="M134.528 107.365l.217.216-.217-.21z"/>
    <path fill="#0E0B05" d="M144.937 107.365l.217.216-.217-.21z"/>
    <path fill="#010101" d="M146.02 107.365l.218.216-.217-.21z"/>
    <path fill="#0F0E07" d="M44.966 107.58l.216.218-.216-.217z"/>
    <path fill="#0E0B05" d="M145.805 107.58l.216.218-.21-.217z"/>
    <path fill="#0E0D08" d="M101.132 107.798l.217.217-.22-.217z"/>
    <path fill="#0F0D06" d="M131.71 107.798l.216.217-.217-.217z"/>
    <path fill="#0E0B05" d="M145.588 107.798l.217.217-.217-.217z"/>
    <path fill="#0E0D08" d="M55.592 108.232l.217.217-.22-.22zm32.528 0l.217.217-.217-.22zm13.88.434l.216.217-.217-.217z"/>
    <path fill="#0F0E08" d="M55.375 109.1l.217.216-.217-.216z"/>
    <path fill="#0E0D08" d="M103.95 109.316l.218.217-.217-.217z"/>
    <path fill="#000" d="M116.963 109.316c-1.53 2.712.7 8.298 1.084 11.277h-.217c-1.21-2.553-3.537-4.662-5.422-6.723-.265-.29-1.64-2.16-2.13-1.374-.512.82 1.998 2.767 2.47 3.326 1.732 2.054 3.297 4.377 4.61 6.723.758 1.355 1.42 3.168 2.857 3.903-1.085-5.594-2.803-11.404-2.82-17.132h-.432z"/>
    <path fill="#0F0D06" d="M131.71 109.316l.216.217-.217-.217z"/>
    <path fill="#010101" d="M72.507 109.533l.216.217-.216-.217z"/>
    <path fill="#0E0D08" d="M73.59 109.533l.218.217-.217-.217zm15.832 0l.216.217-.216-.217z"/>
    <path fill="#0F0E07" d="M122.384 109.533l.217.217-.21-.217z"/>
    <path fill="#0F0E08" d="M116.53 109.75l.216.217-.217-.217z"/>
    <path fill="#0E0B05" d="M144.72 109.75l.217.217-.217-.217z"/>
    <path fill="#0E0D08" d="M76.41 109.967l.217.217-.217-.217z"/>
    <path fill="#0F0E08" d="M89.638 109.967l.217.217-.217-.217z"/>
    <path fill="#0E0B05" d="M139.733 110.184l.216.217-.22-.21zm2.82 0l.216.217-.22-.21z"/>
    <path fill="#0E0D08" d="M72.507 110.4l.216.218-.216-.217zm30.793 0l.217.218-.217-.217z"/>
    <path fill="#0F0D06" d="M132.793 110.4l.217.218-.217-.217z"/>
    <path fill="#0F0E08" d="M54.94 110.618l.218.216-.217-.216z"/>
    <path fill="#0E0B05" d="M140.817 110.834l.217.217-.217-.21z"/>
    <path fill="#0E0D08" d="M67.302 111.05l.217.218-.22-.217z"/>
    <path fill="#0F0E07" d="M47.785 111.268l.217.217-.217-.217z"/>
    <path fill="#0F0E08" d="M103.95 111.268l.218.217-.217-.217zm12.58 0l.216.217-.217-.217z"/>
    <path fill="#0D0B05" d="M144.72 111.268l.217.217-.217-.217z"/>
    <path fill="url(#g)" d="M44.145 110.96l-2.386 6.724 4.98-3.47c-.09-1.676-1-2.776-2.6-3.253z" transform="translate(.604 .524)"/>
    <path fill="#0E0D08" d="M71.205 111.702l.217.217-.217-.22zm33.18.217l.217.21-.217-.22z"/>
    <path fill="#0F0E08" d="M54.074 112.786l.217.217-.21-.217z"/>
    <path fill="#0F0D06" d="M135.395 112.786l.217.217-.217-.217z"/>
    <path fill="#0F0E08" d="M111.54 113.003l.218.217-.217-.217z"/>
    <path fill="#0E0D08" d="M64.05 113.22l.216.217-.217-.217z"/>
    <path fill="#000" d="M80.747 113.22l-.217.217c1.06 2.914 2.106 5.33 2.62 8.457.24 1.453.09 3.343 1.284 4.337 1.22-2.31 1.658-4.99 2.772-7.37.64-1.36 1.682-2.56 1.348-4.12-2.084 1.03-3.315 5.66-3.903 7.81-1.07-2.86-.74-7.85-3.9-9.32z"/>
    <path fill="#0F0E08" d="M110.674 113.654l.216.216-.216-.216zm.216.216l.217.217-.217-.217z"/>
    <path fill="#0E0D08" d="M67.953 114.087l.216.217-.22-.217z"/>
    <path fill="#0F0E08" d="M111.107 114.087l.217.217-.217-.217z"/>
    <path fill="#0F0E07" d="M50.82 114.304l.218.217-.217-.21z"/>
    <path fill="#0F0E08" d="M55.375 114.304l.217.217-.217-.21z"/>
    <path fill="#FFF" d="M67.953 114.304l.216.217-.22-.21z"/>
    <path fill="#0F0E08" d="M111.324 114.304l.217.217-.21-.21z"/>
    <path fill="#010101" d="M140.817 114.304l.217.217-.217-.21z"/>
    <path fill="#0E0D08" d="M69.037 114.52l.217.218-.217-.217zm18.867.218l.216.217-.216-.217z"/>
    <path fill="#0F0E07" d="M116.963 114.738l.216.217-.22-.217z"/>
    <path fill="#0E0D08" d="M88.554 114.955l.217.217-.21-.217z"/>
    <path fill="#0F0E08" d="M113.276 114.955l.217.217-.217-.217z"/>
    <path fill="#0F0D06" d="M113.493 115.172l.217.216-.217-.216z"/>
    <path fill="#0F0E07" d="M52.122 115.388l.217.217-.22-.217zm16.264 0l.217.217-.217-.217z"/>
    <path fill="#000" d="M95.494 115.388c2.452 4.87 4.267 9.45 5.638 14.747 1.53-.858 1.32-2.37 1.302-3.904-.04-3.56 1.33-7.12 1.083-10.62-1.023.35-1.206 1.4-1.384 2.39-.428 2.37-.436 4.81-1 7.16-1.177-2.73-2.11-9.19-5.64-9.76z"/>
    <path fill="#0E0D08" d="M96.144 115.388l.217.217-.21-.217z"/>
    <path fill="#0F0D06" d="M130.84 115.388l.218.217-.217-.217z"/>
    <path fill="#0E0D08" d="M81.615 115.605l.217.217-.217-.217z"/>
    <path fill="#0F0E07" d="M112.625 115.605l.217.217-.217-.217zm-57.684.217l.22.217-.21-.22z"/>
    <path fill="#0E0D08" d="M71.422 115.822l.217.217-.22-.22z"/>
    <path fill="#0F0E08" d="M102.65 115.822l.217.217-.217-.22z"/>
    <path fill="#0F0D06" d="M139.733 115.822l.216.217-.22-.22z"/>
    <path fill="#0D0B05" d="M44.75 116.04l.216.216-.217-.217z"/>
    <path fill="#0F0E08" d="M102.433 116.256l.217.217-.217-.217zm-44.022.434l.22.216-.21-.216z"/>
    <path fill="#0E0D08" d="M86.82 116.69l.216.216-.217-.216zm1.3 0l.217.216-.217-.216z"/>
    <path fill="#0F0E07" d="M113.493 116.69l.217.216-.217-.216zm-55.3.216l.218.217-.21-.217z"/>
    <path fill="#0F0D06" d="M131.492 116.906l.217.217-.22-.217z"/>
    <path fill="#0D0B05" d="M138.865 116.906l.217.217-.217-.217z"/>
    <path fill="#0F0E08" d="M57.977 117.123l.217.217-.217-.217z"/>
    <path fill="#0E0D08" d="M87.904 117.123l.216.217-.216-.217z"/>
    <path fill="#0F0E08" d="M97.662 117.123l.217.217-.22-.217z"/>
    <path fill="url(#h)" d="M140.647 116.6l-1.518 2.602 4.77 2.168" transform="translate(.604 .524)"/>
    <path fill="#0F0E07" d="M115.444 117.34l.217.217-.21-.217z"/>
    <path fill="#0E0D08" d="M87.687 117.557l.217.217-.217-.217z"/>
    <path fill="#0F0E08" d="M96.795 117.774l.217.217-.217-.21z"/>
    <path fill="#0D0B05" d="M42.58 117.99l.217.218-.217-.217z"/>
    <path fill="#0F0E08" d="M59.93 117.99l.216.218-.217-.217z"/>
    <path fill="#FFF" d="M42.146 118.208l.217.216-.217-.216z"/>
    <path fill="#0E0D08" d="M86.17 118.208l.216.216-.217-.216z"/>
    <path fill="#0F0E08" d="M97.012 118.208l.216.216-.216-.216z"/>
    <path fill="#0E0B05" d="M137.78 118.208l.218.216-.217-.216z"/>
    <path fill="#0F0E08" d="M97.228 118.64l.217.218-.217-.217zm1.302 0l.216.218-.216-.217zm-1.085.435l.217.217-.217-.217zm1.3 0l.218.217-.217-.217zm-13.01.217l.217.217-.217-.22zm1.084 0l.21.217-.22-.22z"/>
    <path fill="#0F0D06" d="M124.553 119.292l.216.217-.22-.22z"/>
    <path fill="#0F0E08" d="M98.963 119.51l.217.216-.217-.217z"/>
    <path fill="#010101" d="M139.95 119.726l.216.216-.217-.216z"/>
    <path fill="#0F0E07" d="M55.375 119.942l.217.217-.217-.22z"/>
    <path fill="#000" d="M79.88 120.16l.217.216-.217-.217z"/>
    <path fill="#0F0E07" d="M115.878 120.16l.217.216-.217-.217z"/>
    <path fill="#0F0E08" d="M85.3 120.376l.218.217-.217-.217z"/>
    <path fill="#0F0D06" d="M126.07 120.376l.217.217-.216-.217z"/>
    <path fill="#0F0E07" d="M59.06 120.593l.218.217-.217-.217z"/>
    <path fill="#0F0E08" d="M80.314 120.593l.216.217-.216-.217z"/>
    <path fill="#0F0D06" d="M126.938 121.027l.217.217-.217-.217zm-13.88.217l.218.216-.217-.216zm.435 0l.217.216-.217-.216z"/>
    <path fill="#0F0E07" d="M54.074 121.46l.217.217-.21-.217z"/>
    <path fill="#0F0E08" d="M84.868 121.46l.216.217-.216-.217z"/>
    <path fill="#0F0E07" d="M116.746 121.46l.217.217-.217-.217zm-55.082.868l.217.217-.21-.217z"/>
    <path fill="#0F0E08" d="M88.77 122.328l.218.217-.217-.217zm-35.564.217l.217.217-.217-.217z"/>
    <path fill="#0F0D06" d="M119.348 122.545l.217.217-.217-.217z"/>
    <path fill="#0F0E07" d="M100.264 122.762l.217.216-.21-.216zm-37.733.216l.22.217-.21-.217z"/>
    <path fill="#0F0D06" d="M117.613 122.978l.217.217-.217-.217z"/>
    <path fill="#0F0E07" d="M104.385 123.195l.217.217-.217-.217z"/>
    <path fill="#0F0E08" d="M62.965 123.412l.217.217-.217-.22z"/>
    <path fill="#0E0B05" d="M129.974 123.63l.217.216-.21-.217z"/>
    <path fill="#0F0E07" d="M52.34 123.846l.216.217-.217-.217z"/>
    <path fill="#0F0E08" d="M83.35 123.846l.216.217-.216-.217z"/>
    <path fill="#0F0E07" d="M96.578 123.846l.217.217-.217-.217z"/>
    <path fill="#0E0B05" d="M130.19 123.846l.218.217-.217-.217z"/>
    <path fill="#0F0E07" d="M70.99 124.063l.215.217-.216-.217zm29.708.217l.217.216-.217-.216zm-36.215.216l.217.217-.217-.217zm42.504 0l.217.217-.217-.217zm-41.854.434l.217.217-.217-.217zm40.553.217l.217.217-.217-.217zm-29.276.217l.217.217-.217-.21zm31.228 0l.216.217-.216-.21zm-31.445.434l.217.216-.217-.216zm-8.89.216l.216.217-.22-.21zm2.818 0l.22.217-.21-.21zm37.95 0l.22.217-.21-.21zm-40.11.217l.22.22-.21-.21zm22.77.22l.22.22-.21-.21z"/>
    <path fill="url(#i)" d="M62.36 126.358l-.433 6.722c1.906-2.035 5.084-6.313.434-6.722z" transform="translate(.604 .524)"/>
    <path fill="#0F0E07" d="M77.277 126.882l.217.217-.217-.22z"/>
    <path fill="#0E0B05" d="M126.07 127.75l.217.216-.216-.217z"/>
    <path fill="#0D0B05" d="M134.745 127.75l.217.216-.217-.217z"/>
    <path fill="#0F0E07" d="M102.65 127.966l.217.217-.217-.217z"/>
    <path fill="#0E0B05" d="M125.203 128.183l.217.217-.217-.217z"/>
    <path fill="#0F0E07" d="M91.59 128.617l.217.217-.217-.217zm9.108 0l.217.217-.217-.217z"/>
    <path fill="#0D0B05" d="M123.685 128.834l.217.216-.217-.216z"/>
    <path fill="#0F0E07" d="M102 129.484l.216.217-.217-.21z"/>
    <path fill="#0F0D06" d="M108.288 129.484l.217.217-.217-.21z"/>
    <path fill="#0E0B05" d="M122.384 129.484l.217.217-.21-.21z"/>
    <path fill="#0F0E07" d="M76.844 129.7l.217.218-.21-.217zm24.938 0l.217.218-.22-.217z"/>
    <path fill="#0E0B05" d="M121.95 129.7l.217.218-.217-.217z"/>
    <path fill="#0F0E07" d="M96.795 130.135l.217.217-.217-.217z"/>
    <path fill="#0F0D06" d="M108.505 130.135l.217.217-.217-.217zm1.735 0l.217.217-.217-.217z"/>
    <path fill="#0D0B05" d="M64.266 130.568l.217.217-.217-.217z"/>
    <path fill="#0F0E07" d="M80.097 130.785l.217.217-.217-.217zm12.36.434l.217.21-.216-.22z"/>
    <path fill="#0E0B05" d="M118.264 131.22l.216.216-.216-.217zm-.65.216l.216.217-.217-.217z"/>
    <path fill="#0D0B05" d="M136.697 131.653l.216.217-.216-.217zm.433 0l.217.217-.217-.217z"/>
    <path fill="#0F0D06" d="M116.095 131.87l.217.216-.217-.216z"/>
    <path fill="url(#j)" d="M119.61 132.864c.837 1.793 2.732 3.64 4.34 4.77l-1.953-6.072-2.386 1.302z" transform="translate(.604 .524)"/>
    <path fill="#0F0D06" d="M111.107 132.303l.217.217-.217-.217zm-37.733.434l.217.217-.21-.217z"/>
    <path fill="#0F0E07" d="M86.82 132.737l.216.217-.217-.217z"/>
    <path fill="#0D0B05" d="M120.65 132.954l.216.217-.217-.21z"/>
    <path fill="#0F0D06" d="M88.77 133.17l.218.218-.217-.217z"/>
    <path fill="#0D0B05" d="M121.083 134.69l.217.216-.217-.217zm.217.216l.217.216-.217-.216z"/>
    <path fill="url(#k)" d="M82.746 142.19h.216l1.952-6.94-2.468-.42-.134 1.937" transform="translate(.604 .524)"/>
    <path fill="#0D0B05" d="M121.517 135.122l.216.217-.216-.22zm2.168.868l.217.217-.217-.217z"/>
    <path fill="url(#l)" d="M100.745 136.55l2.385 6.94c.536-1.24 2.188-6.032 1.015-7.026-.907-.77-2.416-.174-3.4.086z" transform="translate(.604 .524)"/>
    <path fill="#0D0B05" d="M101.782 136.857l.217.217-.22-.217z"/>
    <path fill="#010101" d="M123.035 136.857l.216.217-.21-.217zm-10.193.868l.217.217-.22-.217z"/>
    <path fill="#0D0B05" d="M124.12 137.942l.216.216-.217-.216zm-22.554.216l.216.217-.216-.217zm22.77 0l.433.434-.44-.434z"/>
    <path fill="#FFF" d="M124.553 138.158l.216.217-.22-.217z"/>
    <path fill="#0E0B05" d="M113.926 138.592l.217.217-.217-.22z"/>
    <path fill="#0D0B05" d="M84.434 138.81l.217.216-.21-.217z"/>
    <path fill="#FEF666" d="M148.727 85.808c-.858-.156-1.53-.795-1.53-1.454 0-.623.4-1.25 2.024-3.188 1.3-1.544 1.14-1.503-1.25.33-2.65 2.026-4.55 2.797-7.19 2.924-1.23.058-2.23.028-2.23-.07 0-.095.36-.478.81-.85.44-.373 1.93-2.18 3.3-4.02 2.51-3.356 3.74-4.493 5.35-4.966 2.55-.748 5.83 1.22 6.57 3.94.69 2.527-1.54 6.593-3.98 7.27-.52.147-1.01.25-1.08.233-.07-.018-.41-.086-.76-.15z"/>
    <path fill="#FEF67A" d="M145.287 100.345c-.835-.23-1.91-1.102-2.69-2.18-.93-1.285-1.587-3.043-2.69-7.203-.483-1.822-.936-3.5-1.007-3.732-.356-1.162 2.178-1.754 5.277-1.23 2.438.41 3.335 1.23 3.772 3.442.16.836.33 1.635.37 1.775.03.14.21-.53.4-1.49.2-1.067.55-2.004.9-2.41l.57-.667.93.627c1.46.985 2.28 2.92 2.27 5.313-.02 3.388-1.42 6.028-3.77 7.134-1.17.547-3.44.872-4.34.62z"/>
  </g>
</svg>
