<svg xmlns="http://www.w3.org/2000/svg" viewBox="0 0 303 149">
  <g fill="none">
    <path fill="#5C809B" d="M236.57 147.025h11.295V91.222H236.57M17.44 148.03c-6.176 0-11.55-1.565-16.477-4.26l1.112-6.157c6.062 1.46 9.76 2.13 13.34 2.13 8.076 0 11.32-3.475 11.32-7.397 0-4.37-1.91-6.495-10.75-9.86C5.108 118.446 1.18 114.2 1.18 106.46c0-9.626 7.624-16.245 19.283-16.245 4.703 0 9.19.895 14.343 3.588l-1.345 6.162c-4.26-1.225-7.63-1.68-10.76-1.68-6.38 0-9.52 3.025-9.52 6.958 0 3.91 2.24 6.048 11.1 9.182 10.54 3.802 14.68 8.625 14.68 16.58 0 9.85-7.94 17.026-21.51 17.026M70.5 98.74c-7.845 0-12.665 5.61-12.665 19.04 0 16.48 4.25 21.748 12.99 21.748 7.73 0 12.66-5.597 12.66-19.16 0-16.358-4.36-21.622-12.986-21.622m-1.01 49.408c-14.47 0-23.54-7.51-23.54-27.907 0-20.5 10.08-30.136 25.88-30.136 14.34 0 23.54 7.51 23.54 27.68 0 20.63-10.21 30.37-25.89 30.37m59.79-9.01l1.22 6.67c-2.25 1.06-7.3 2-14.24 2-6.84 0-10.19-2.02-10.19-11.09v-45.9h11.54v41.42c0 6.53 1 7.36 4.04 7.52 1.13.06 7.63-.61 7.63-.61m40.61-18.22h-4.82c-13.01 0-16.25 4.26-16.25 10.09 0 5.38 3 8.74 8.62 8.74 3.92 0 8.3-2.02 12.45-5.59v-13.23zm2.45 26.11l-.9-6.05c-4.92 4.27-10.19 7.18-17.25 7.18-10.98 0-16.81-5.61-16.81-15.46 0-11.42 8.85-19.05 28.45-19.05h4.04v-5.04c0-6.71-3.48-9.96-11.55-9.96-5.83 0-11.78 1.56-16.36 3.25l-1.68-7.05c5.82-2.58 13-4.6 21.17-4.6 14.01 0 19.84 6.73 19.84 16.92v39.89h-8.97zm52.89-45.26c-2.13-.57-3.59-.79-4.71-.79-3.25 0-6.27 2.46-11.76 9.3v36.75h-11.54V91.22h9.54l1 9.416c6.04-7.844 9.85-10.424 13.89-10.424 1.45 0 3.13.34 4.93 1.235l-1.35 10.313m50.53 46.27c-6.16 0-11.54-1.565-16.46-4.26l1.11-6.157c6.06 1.46 9.74 2.13 13.34 2.13 8.07 0 11.32-3.475 11.32-7.397 0-4.37-1.91-6.495-10.75-9.86-10.88-4.04-14.8-8.285-14.8-16.025 0-9.62 7.61-16.24 19.27-16.24 4.7 0 9.18.9 14.33 3.59l-1.34 6.16c-4.26-1.22-7.63-1.68-10.76-1.68-6.39 0-9.52 3.03-9.52 6.96 0 3.91 2.23 6.05 11.08 9.18 10.53 3.8 14.68 8.63 14.68 16.58 0 9.85-7.96 17.03-21.52 17.03m26.77-51.6v-4.85h-1.17l-1.1 3.43-1.12-3.43h-1.19v4.85h.8v-3.82h.01l1.19 3.83h.55l1.21-3.82h.014v3.83h.78m-6.47 0V92.4h1.2v-.81H294v.81h1.22v4.04"/>
    <path fill="#EE7314" d="M231.224 31.916c.17-.922 2.402-6.468 2.402-6.468 2.766-6.23 1.008-10.696 1.008-10.696C233.004 8.7 228.32 3.97 228.32 3.97c.228.168 1.652 3.956 1.652 3.956 3.282 9.065-5.518 14.267-5.518 14.267-2.267 1.497-5.97 5.065-5.97 5.065-5.19 5.074-3.622 11.294-3.622 11.294l.206.093c6.176 1.517 11.976 3.977 17.247 7.208-3.492-6.795-1.09-13.937-1.09-13.937m18.05 29.384c-.578-7.472 4.204-13.077 4.204-13.077.49-.798 4.62-5.102 4.62-5.102 4.89-4.75 4.94-9.55 4.94-9.55.75-6.22-1.84-12.35-1.84-12.35.14.24.05 4.29.05 4.29-.34 9.63-10.44 11.18-10.44 11.18-2.67.55-7.44 2.48-7.44 2.48-6.22 2.58-7.41 8.22-7.55 9.03 5.12 3.66 9.65 8.09 13.43 13.12m36.16-12.38c.04.29-1.56 4.01-1.56 4.01-3.89 8.82-13.84 6.49-13.84 6.49-2.68-.47-7.82-.46-7.82-.45-7.26.08-10.42 5.66-10.42 5.66l.38.93c3.16 5.06 5.59 10.6 7.17 16.49 2.15-7.36 8.87-10.9 8.87-10.9.75-.54 6.18-3.02 6.18-3.02 6.31-2.59 8.13-7.02 8.13-7.02 3-5.51 2.89-12.16 2.89-12.16m-75.17-11.25c-5.51-5.02-5.91-12.32-5.91-12.32-.21-.92-.18-6.88-.18-6.88.26-6.81-3.03-10.32-3.03-10.32-3.74-5.02-9.86-7.68-9.86-7.68.28.08 3.01 3.08 3.01 3.08 6.4 7.19.16 15.29.16 15.29-1.55 2.24-3.67 6.92-3.67 6.92-2.78 6.27.42 11.25.78 11.79 3.11-.46 6.32-.68 9.56-.65 3.11.03 6.16.29 9.12.78m-33.31-8.6c-.507-.78-2.73-6.32-2.73-6.32-2.288-6.42-6.63-8.45-6.63-8.45-5.37-3.26-12.02-3.46-12.02-3.46.29-.03 3.94 1.74 3.94 1.74 8.63 4.3 5.84 14.13 5.84 14.13-.61 2.65-.83 7.79-.83 7.79-.267 7.24 5.165 10.67 5.165 10.67l.26-.09c5.275-3.072 11.07-5.373 17.2-6.736-7.065-2.58-10.196-9.28-10.196-9.28M166 47.59c-7.48.19-12.84-4.85-12.84-4.85-.765-.533-4.866-4.864-4.866-4.864-4.507-5.12-9.31-5.39-9.31-5.39-6.18-1.05-12.42 1.22-12.42 1.22.245-.13 4.28.15 4.29.15 9.596.804 10.646 10.97 10.646 10.97.41 2.69 2.115 7.545 2.115 7.545 2.44 6.83 8.746 8.01 8.746 8.01l.13-.11c3.84-4.89 8.4-9.18 13.51-12.69m-29.97 16.87c-.91-.21-6.33-2.71-6.33-2.71-6.07-3.11-10.63-1.58-10.63-1.58-6.13 1.3-11.1 5.74-11.1 5.74.19-.21 4.05-1.44 4.05-1.44 9.22-2.8 13.95 6.26 13.95 6.26 1.38 2.34 4.76 6.23 4.76 6.22 4.79 5.45 11.1 4.21 11.1 4.21l.16-.31c1.72-5.95 4.34-11.52 7.67-16.58-6.84 2.88-13.61.2-13.61.2"/>
  </g>
</svg>
