<svg xmlns="http://www.w3.org/2000/svg" viewBox="0 0 197 148">
  <g fill="none">
    <path fill="#777" d="M37.966 10.474s-.557-1.27-2.13-.42c-1.307.71-.627 2.02-.627 2.02L59.77 62.93h5.96L37.96 10.473m69.74 131.735l-18.58-35.112h-8.004l18.67 38.644s1.882 3.637 5.92 1.626c4.035-2.01 2.002-5.158 2.002-5.158"/>
    <path fill="#F26711" d="M176.214 6.99c-23.294-10.944-44.37-5.717-67.94 1.187-23.73 6.948-44.838 10.708-68.55 1.238 2.583 4.518 3.876 6.777 6.46 11.292 2.374 4.153 4.75 8.305 7.124 12.456l6.46 11.29c18.88 5.224 34.514-1.55 51.29-9.76 20.147-9.853 38.344-18.717 61.362-13.58-19.453-9.536-37.087-7.172-57.426-1.77C134.907 9.42 153.654 1.7 176.214 6.99M38.274 88.16c0 3.81 0 7.498.12 9.433-.42.7-2.095 1.348-3.53 1.348-.06 0-2.036-2.98-4.85-6.38L16.19 75.8c-3.41-4.22-5.445-6.62-6.522-7.5-.3.584-.3 1.58-.3 3.75v11.37c0 4.742.24 9.14.9 10.72.537 1.23 1.913 1.58 3.47 1.87l1.675.23c.478.47.36 1.7 0 2.05-3.232-.114-5.625-.175-8.02-.175-2.213 0-4.427.06-6.7.176-.36-.35-.48-1.58 0-2.05l1.016-.17c1.61-.35 2.75-.7 3.29-1.93.59-1.58.83-5.97.83-10.72V68.53c0-3.22 0-4.157-.42-4.977-.41-.997-1.31-1.583-3.4-1.993l-1.68-.235c-.42-.47-.36-1.874.23-2.05 2.81.115 5.8.176 8.26.176 2.03 0 3.77-.05 5.03-.17.6 2.64 4.49 7.09 9.88 13.36l5.03 5.8c2.69 3.05 4.36 5.1 5.74 6.45.24-.58.24-1.58.24-2.63v-8.09c0-4.74-.24-9.14-.9-10.72-.54-1.23-1.86-1.58-3.47-1.87l-1.62-.23c-.48-.47-.36-1.7 0-2.05 3.23.12 5.56.18 8.02.18 2.21 0 4.37-.05 6.7-.17.36.36.48 1.58 0 2.05l-1.08.18c-1.56.36-2.69.71-3.23 1.94-.66 1.58-.9 5.98-.9 10.726v14"/>
    <path fill="#F26711" d="M52.492 81.656c.84 0 1.795-.12 2.455-.527.3-.18.417-.77.417-1.35 0-1.94-1.136-3.23-3.17-3.23-2.515 0-4.67 2.34-4.67 4.22 0 .82.838.88 2.754.88h2.214zm-3.95 2.577c-1.375 0-1.495.117-1.495 1.054 0 4.396 2.873 8.672 8.438 8.672 1.676 0 3.95-.35 5.565-3.05.66-.12 1.557.35 1.557 1.34-2.454 4.98-6.882 6.68-10.474 6.68-8.08 0-12.447-5.57-12.447-11.96 0-7.39 5.446-13.13 12.926-13.13 6.224 0 9.575 3.92 9.575 8.43 0 1.11-.3 1.93-2.153 1.93h-11.49zm25.445-6.385c-.777 0-.837.057-.837 1.348v8.786c0 3.283 0 6.916 4.19 6.916.837 0 1.794-.41 2.513-.878.597.174.957.818.836 1.522-1.68 1.757-4.91 3.4-8.62 3.4-4.97 0-6.71-2.814-6.71-6.683V79.19c0-1.232-.06-1.348-1.14-1.348h-1.85c-.66-.24-.84-1.407-.36-1.82 1.85-.64 3.53-1.697 4.97-2.633 1.07-.76 2.57-1.99 4.42-4.58.42-.23 1.5-.17 1.79.29v4.4c0 1.11.06 1.17 1.13 1.17h5.32c.3.23.48.58.48 1.11 0 .64-.18 1.69-.78 2.05h-5.39"/>
    <path fill="#777" d="M95.6 88.217c0 4.57.6 7.44 5.268 7.44 4.428 0 6.76-3.338 6.76-8.085 0-5.097-2.99-8.67-8.735-8.67-3.293 0-3.293.058-3.293 2.403v6.912zm0-13.534c0 1.524.06 1.64 3.172 1.64 5.147 0 7.062-3.22 7.062-6.737 0-5.097-3.232-7.617-7.362-7.617-2.81 0-2.872.47-2.872 3.04v9.66zM87.34 69c0-5.917-.12-6.56-2.632-6.855l-1.616-.236c-.54-.3-.66-2.05.24-2.11 4.548-.3 8.917-.53 14.902-.53 5.744 0 9.576.64 12.208 2.17 2.573 1.52 4.128 3.98 4.128 7.44 0 4.92-4.248 6.85-6.103 7.32-.6.11-1.198.35-1.198.64 0 .17.3.35.84.47 4.72.99 8.73 4.04 8.79 9.72.06 5.39-3.23 8.55-7 9.84-3.77 1.28-8.26 1.46-11.91 1.46-2.16 0-4.43-.24-6.17-.24-2.94 0-5.87.06-9.28.17-.48-.35-.48-1.88 0-2.05l1.73-.35c2.69-.53 3.05-.94 3.05-6.21V69zm42.617 30.056c-5.505 0-8.917-1.523-10.173-2.225-1.136-1.28-1.914-5.5-1.914-9.49.418-.76 1.795-.82 2.274-.17 1.196 3.81 5.205 9.2 10.293 9.2 4.427 0 6.464-2.99 6.464-5.92 0-4.74-4.54-7.55-8.14-9.31-4.3-2.11-8.97-5.62-9.03-11.42 0-6.62 5.21-11.19 13.89-11.19 1.98 0 4.43.24 6.83.94.78.23 1.32.35 2.04.47.48 1.29 1.08 4.46 1.08 8.38-.3.7-1.79.76-2.33.18-1.02-2.99-3.59-7.27-7.9-7.27-3.95 0-6.1 2.52-6.1 5.45 0 2.7 2.45 5.16 5.45 6.68l3.96 2.05c3.71 1.94 8.44 5.33 8.44 11.78 0 7.21-6.05 11.9-15.082 11.9"/>
    <path fill="#777" d="M158.184 87.512c0 3.225.12 5.333 1.197 6.564 1.08 1.173 2.82 1.7 4.97 1.7 10.35 0 13.89-9.02 13.89-16.992 0-10.546-5.68-16.815-16.52-16.815-1.61 0-2.75.29-3.11.76-.36.46-.42 1.58-.42 3.39v21.39zm-8.557-18.572c0-5.565-.12-6.678-2.873-6.97l-1.136-.117c-.598-.293-.598-1.994.12-2.053 5.027-.292 9.694-.528 16.04-.528 4.906 0 9.812.473 13.942 1.935 7.84 2.753 12.148 9.667 12.148 16.99 0 7.852-3.83 14.18-10.71 17.52-4.07 1.993-8.98 2.752-15.143 2.752-2.81 0-5.806-.36-7.96-.36-2.873 0-5.925.06-9.335.17-.478-.35-.478-1.76 0-2.05l1.855-.3c2.693-.47 3.052-.88 3.052-6.27V68.94zm35.993-5.17c0-1.452.525-2.69 1.577-3.718 1.05-1.027 2.32-1.54 3.8-1.54 1.482 0 2.75.513 3.798 1.54 1.048 1.027 1.573 2.266 1.573 3.717 0 1.45-.525 2.69-1.573 3.72-1.05 1.03-2.316 1.54-3.797 1.54-1.482 0-2.75-.52-3.8-1.55-1.053-1.03-1.58-2.27-1.58-3.72zm9.867 0c0-1.216-.437-2.253-1.313-3.11-.876-.858-1.934-1.287-3.176-1.287-1.242 0-2.302.43-3.18 1.286-.88.85-1.318 1.89-1.318 3.11 0 1.21.44 2.25 1.318 3.11.878.86 1.938 1.29 3.18 1.29 1.242 0 2.3-.43 3.176-1.29.876-.86 1.313-1.9 1.313-3.12zm-2.82 3.165l-1.686-2.788h-.95v2.788h-.94v-6.468h1.7c1.59 0 2.39.597 2.39 1.79 0 .83-.43 1.417-1.28 1.76l1.81 2.918h-1.02zm-2.642-5.685v2.163c.08.01.285.014.618.014.613 0 1.026-.076 1.237-.23.212-.154.318-.448.318-.882 0-.715-.476-1.073-1.428-1.073h-.372l-.373.008z"/>
  </g>
</svg>
