<svg width="23" height="22" xmlns="http://www.w3.org/2000/svg"><path d="M11.608.342C5.535.342.61 5.162.61 11.108c0 4.757 3.152 8.792 7.523 10.215.55.1.751-.233.751-.518 0-.256-.01-.933-.015-1.831-3.06.65-3.705-1.444-3.705-1.444-.5-1.243-1.222-1.574-1.222-1.574-.998-.668.076-.655.076-.655 1.104.076 1.685 1.11 1.685 1.11.981 1.645 2.575 1.17 3.201.894.1-.695.385-1.17.699-1.439-2.443-.271-5.011-1.195-5.011-5.32 0-1.176.429-2.137 1.132-2.89-.113-.272-.49-1.367.108-2.849 0 0 .924-.289 3.025 1.104.877-.24 1.819-.358 2.754-.363.934.005 1.875.124 2.754.363 2.1-1.393 3.022-1.104 3.022-1.104.6 1.482.222 2.577.11 2.85.705.752 1.13 1.713 1.13 2.888 0 4.136-2.572 5.046-5.022 5.313.394.332.746.99.746 1.994 0 1.438-.013 2.6-.013 2.953 0 .288.198.623.756.518 4.368-1.427 7.516-5.46 7.516-10.215 0-5.946-4.925-10.766-11-10.766" fill="#161514" fill-rule="evenodd"/></svg>