<svg width="26" height="26" viewBox="0 0 26 26" fill="none" xmlns="http://www.w3.org/2000/svg">
<path fill-rule="evenodd" clip-rule="evenodd" d="M13 3C7.48 3 3 7.48 3 13C3 18.52 7.48 23 13 23C18.52 23 23 18.52 23 13C23 7.48 18.52 3 13 3ZM13 21C8.59 21 5 17.41 5 13C5 8.59 8.59 5 13 5C17.41 5 21 8.59 21 13C21 17.41 17.41 21 13 21Z"/>
<path d="M17.5 16V17.5H16.0155L15.5 17V16H14.5V15H13.5L11.5 13L13.026 11.5L17.5 16ZM12 10L11 9L9.5015 9.5L9 11L10 12L12 10ZM9.8915 13.9195L7.566 11.594L8.417 8.417L11.594 7.566L13.919 9.891L13.068 13.068L9.8915 13.9195V13.9195Z"/>
</svg>
