<svg width="24" height="20" viewBox="0 0 24 20" xmlns="http://www.w3.org/2000/svg"><title>Path Copy 7</title><path d="M24 2.309a9.83 9.83 0 0 1-2.828.775A4.94 4.94 0 0 0 23.337.36a9.865 9.865 0 0 1-3.127 1.196 4.925 4.925 0 0 0-8.39 4.49A13.974 13.974 0 0 1 1.671.901a4.902 4.902 0 0 0-.667 2.476c0 1.708.869 3.216 2.191 4.099A4.936 4.936 0 0 1 .964 6.86v.061a4.926 4.926 0 0 0 3.95 4.828 4.964 4.964 0 0 1-2.224.085 4.93 4.93 0 0 0 4.6 3.42 9.886 9.886 0 0 1-6.115 2.107c-.398 0-.79-.023-1.175-.068a13.945 13.945 0 0 0 7.548 2.212c9.057 0 14.009-7.503 14.009-14.01 0-.213-.005-.425-.014-.636A10.012 10.012 0 0 0 24 2.309" fill="#FFF" fill-rule="evenodd"/></svg>