<svg xmlns="http://www.w3.org/2000/svg" viewBox="0 0 175.37 60.01">
  <path class="text" fill="#000000" d="M84.54 7.86V4.63h-3v3.23h-1.46V.11h1.51v3.25h3V.11H86v7.75zm7 0h-1.2l-.11-.38a3.28 3.28 0 0 1-1.7.52C87.47 8 87 7.27 87 6.31c0-1.14.51-1.57 1.7-1.57h1.4v-.59c0-.62-.18-.84-1.11-.84a8.46 8.46 0 0 0-1.61.17l-.18-1.07a7.89 7.89 0 0 1 2-.26c1.83 0 2.37.62 2.37 2zm-1.43-2.11H89c-.48 0-.61.13-.61.55s.13.56.59.56a2.37 2.37 0 0 0 1.1-.29zM94.63 8a7.12 7.12 0 0 1-2-.32l.2-1.07a6.77 6.77 0 0 0 1.73.24c.65 0 .74-.14.74-.56s-.07-.52-1-.73c-1.42-.33-1.59-.68-1.59-1.76s.51-1.62 2.18-1.62a8 8 0 0 1 1.75.2l-.14 1.11a10.66 10.66 0 0 0-1.6-.16c-.63 0-.74.14-.74.48s0 .48.82.68c1.63.41 1.78.62 1.78 1.77S96.38 8 94.63 8zm6.68-.11V4c0-.3-.13-.45-.47-.45a4.14 4.14 0 0 0-1.52.45v3.86h-1.46V0l1.46.22v2.47a5.31 5.31 0 0 1 2.13-.54c1 0 1.32.65 1.32 1.65v4.06zM104 1.48V.11h1.46v1.37zm0 6.38V2.27h1.46v5.59zm2.62-5.54c0-1.4.85-2.22 2.83-2.22a9.37 9.37 0 0 1 2.16.25l-.17 1.25a12.21 12.21 0 0 0-1.95-.2c-1 0-1.37.34-1.37 1.16V5.5c0 .81.33 1.16 1.37 1.16a12.21 12.21 0 0 0 1.95-.2l.17 1.25a9.37 9.37 0 0 1-2.16.25c-2 0-2.83-.81-2.83-2.22zM114.83 8c-2 0-2.53-1.06-2.53-2.2V4.36c0-1.15.54-2.2 2.53-2.2s2.53 1.06 2.53 2.2v1.41c0 1.15-.54 2.23-2.53 2.23zm0-4.63c-.78 0-1.08.33-1.08 1v1.5c0 .63.3 1 1.08 1s1.08-.33 1.08-1V4.31c-.01-.63-.3-.96-1.08-.96zm6.64.09a11.57 11.57 0 0 0-1.54.81v3.6h-1.46v-5.6h1.23l.1.62a6.63 6.63 0 0 1 1.53-.73zM127.3 6a1.73 1.73 0 0 1-1.92 2 8.36 8.36 0 0 1-1.55-.16v2.26l-1.46.22v-8h1.16l.14.47a3.15 3.15 0 0 1 1.84-.59c1.17 0 1.79.67 1.79 1.94zm-3.48.63a6.72 6.72 0 0 0 1.29.15c.53 0 .73-.24.73-.75v-2c0-.46-.18-.71-.72-.71a2.11 2.11 0 0 0-1.3.51zM0 0l29.89 60L60 0zm33.45 12h3.48v3.48h-3.48zm-6.93 14H23v-3.51h3.48zm0-5.22H23v-3.51h3.48zm0-5.22H23v-3.51h3.48zm5.22 15.65h-3.48V27.7h3.48zm0-5.22h-3.48v-3.5h3.48zm0-5.22h-3.48v-3.5h3.48zm0-5.22h-3.48v-3.5h3.48zm1.71 1.74h3.48v3.48h-3.48zm0 8.7v-3.5H37V26zm68.38-11.89h6.29l-9.55 32h-8.93l-9.55-32h6.29l7.72 26.64zm23.76 31.97h-4.8l-.43-1.58a12.79 12.79 0 0 1-7 2.06c-4.27 0-6.1-2.93-6.1-7 0-4.75 2.06-6.58 6.82-6.58h5.62v-2.41c0-2.59-.72-3.5-4.46-3.5a32.66 32.66 0 0 0-6.48.72l-.72-4.46a30.5 30.5 0 0 1 8-1.1c7.35 0 9.5 2.59 9.5 8.45zm-5.86-8.83h-4.32c-1.92 0-2.45.53-2.45 2.3s.53 2.35 2.35 2.35a9.22 9.22 0 0 0 4.42-1.2zm15.08-14.55V39c0 1.25.53 1.87 1.87 1.87a16.15 16.15 0 0 0 6.1-2V22.69h5.86v23.38h-4.47l-.58-2a23.42 23.42 0 0 1-9.36 2.45c-3.89 0-5.28-2.74-5.28-6.91V22.69zm16.94 23.38V13.14l5.86-.82v33.75zm23.33-.43a16.24 16.24 0 0 1-5.14.91c-4.27 0-6.43-2-6.43-6.19v-13H160v-4.67h3.5v-5.81l5.86-.82v6.63h6l-.36 4.66h-5.62v12.24a1.84 1.84 0 0 0 2.11 2.06 11.27 11.27 0 0 0 2.93-.48z" data-name="Layer 2"/>
</svg>
