<svg width="456" height="592" fill="none" xmlns="http://www.w3.org/2000/svg"><path d="m146.675 197.929.054.071h-2.148L0 9.655V6.858l146.675 191.071ZM83.399 198h-2.147L0 92.156V89.36l83.344 108.569.055.071Zm37.997 0h-2.148L0 42.656V39.86l121.341 158.069.055.071Zm12.67 0h-2.148L0 26.158v-2.796l134.011 174.567.055.071Zm-25.333 0h-2.148L0 59.16v-2.796l108.678 141.565.055.071Zm-12.67 0h-2.148L0 75.658v-2.796l96.008 125.067.055.071Z" fill="#000"/><path d="M5.258 198 0 191.146v-2.796L7.405 198H5.258Zm65.485 0h-2.148L0 108.64v-2.787l70.688 92.076.055.071Zm-12.67 0h-2.148L0 125.138v-2.791l58.017 75.582.055.071Zm-12.664 0h-2.147L0 141.642v-2.792l45.354 59.079.055.071Zm-27.48 0L0 174.638v-2.786L20.075 198h-2.147Zm12.663 0L0 158.14v-2.792L32.739 198h-2.147ZM190.805 58.1a.862.862 0 0 1-.339.254 1.209 1.209 0 0 1-.936-.001.886.886 0 0 1-.348-.268L144.601 0h2.148l43.254 56.349L228 6.854v2.8l-37.169 48.408-.026.038Zm-.802 80.751L228 89.356v2.8l-37.169 48.407-.026.039a.854.854 0 0 1-.34.254 1.203 1.203 0 0 1-.935-.001.888.888 0 0 1-.348-.268L81.319.071 81.265 0h2.147l106.591 138.851Zm.802-14.752a.854.854 0 0 1-.34.254 1.18 1.18 0 0 1-.462.094 1.221 1.221 0 0 1-.473-.095.897.897 0 0 1-.348-.268L93.932 0h2.149l93.922 122.347L228 72.853v2.8l-37.169 48.407-.026.039Zm-.802-16.146c-.164 0-.325-.032-.468-.093a.773.773 0 0 1-.31-.233L106.659.071 106.604 0h2.148l81.251 105.849L228 56.354v2.796l-37.195 48.455a.854.854 0 0 1-.34.254 1.18 1.18 0 0 1-.462.094Zm0-16.503c-.164 0-.326-.032-.47-.093a.777.777 0 0 1-.306-.232L119.329.071 119.274 0h2.148l68.581 89.35L228 39.856v2.795l-37.195 48.451a.859.859 0 0 1-.34.254c-.14.06-.299.093-.462.094Zm.773-16.822a.406.406 0 0 1-.113.103.945.945 0 0 1-.309.158.736.736 0 0 1-.224.047 1.088 1.088 0 0 1-.587-.079l-.089-.04-.002-.004a.404.404 0 0 1-.1-.07.746.746 0 0 1-.051-.042.167.167 0 0 1-.066-.063.458.458 0 0 1-.06-.07L131.938 0h2.147l55.918 72.852L228 23.352v2.8l-37.206 48.459-.018.017Zm-.454.115h-.001l.002.004-.001-.004Zm.073-.03h-.001l.002.003-.001-.003Z" fill="#1D1E1F"/><path d="M227 92.148v-2.796L295.594 0h2.147l-70.577 91.935-.164.213Zm0-82.5L234.408 0h-2.147L227 6.852v2.796Zm.164 65.788L285.074 0h-2.147L227 72.853v2.796l.164-.213Zm0-16.5L272.408 0h-2.146L227 56.352v2.797l.164-.213Zm0-33L247.075 0h-2.148L227 23.352v2.797l.164-.213Zm0 16.5L259.742 0h-2.147L227 39.852v2.797l.164-.214Z" fill="#000"/><path d="M282.981 197.929 434.927 0h2.146l-.055.071L285.074 198h-2.148l.055-.071ZM270.26 198h2.147L424.352.071l.055-.071h-2.146L270.315 197.929l-.055.071Zm25.333 0h2.147L449.685.071 449.74 0h-2.146L295.647 197.929l-.054.071Zm-37.999 0h2.146L411.686.071 411.74 0h-2.146L257.648 197.929l-.054.071Zm-12.667 0h2.146L399.019.071l.055-.071h-2.147L244.982 197.929l-.055.071Zm-12.667 0h2.147L386.352.071l.055-.071h-2.147L232.315 197.929l-.055.071Z" fill="#fff"/><g clip-path="url(#a)"><path d="M108.47 295.652a.551.551 0 0 1 0 .694l-75.731 97.653h-2.141l75.995-98-75.945-97.925-.05-.075h2.14l75.707 97.625.025.028Zm-12.672 0a1 1 0 0 1 .088.159l.013.029v.028l.012.047v.028c0 .009.013.028.013.075 0 .019 0 .028-.013.056 0 .038-.012.066-.025.103a.318.318 0 0 0-.038.094c-.012.019-.025.047-.037.075l-75.732 97.653h-2.141l75.996-97.991-75.946-97.934-.05-.075h2.154l75.706 97.616v.037Zm25.344.009c.051.066.089.15.114.272a.479.479 0 0 1-.089.366l-75.768 97.7h-2.142l75.996-97.991-75.945-97.934-.051-.075h2.142l75.668 97.587.075.075Zm-38.004 0c.05.075.088.15.113.272a.48.48 0 0 1-.088.366l-75.756 97.7H5.266l75.995-97.991-75.945-97.934-.05-.075H7.42l75.668 97.587.05.075Zm50.664.685-75.731 97.653h-2.142l75.996-98-75.945-97.925-.05-.075h2.14l75.732 97.653a.55.55 0 0 1 0 .694Zm12.672 0-75.73 97.653h-2.142l75.995-98-75.945-97.925-.05-.075h2.141l75.731 97.653a.55.55 0 0 1 0 .694Z" fill="#BFBFC0"/><path d="m81.261 393.999 146.575-189.004.164-.206v2.776L83.415 393.999h-2.154Zm12.672 0 133.903-172.668.164-.206v2.767L96.088 393.999h-2.155Zm12.66 0 121.243-156.331.164-.206v2.766L108.747 393.999h-2.154Zm12.672 0 108.571-140.004.164-.216v2.776L121.419 393.999h-2.154Zm25.332 0 83.239-107.34.164-.216v2.776l-81.249 104.78h-2.154Zm-12.672 0 95.911-123.668.164-.215v2.776l-93.921 121.107h-2.154Z" fill="#000"/></g><g clip-path="url(#b)" fill="#BFBFC0"><path d="m374.675 393.929.054.07h-2.148L228 207.556v-2.768l146.675 189.141Zm-63.276.07h-2.147L228 289.224v-2.768l83.344 107.473.055.07Zm37.997 0h-2.148L228 240.224v-2.768l121.341 156.473.055.07Zm12.67 0h-2.148L228 223.893v-2.768l134.011 172.804.055.07Zm-25.333 0h-2.148L228 256.561v-2.768l108.678 140.136.055.07Zm-12.67 0h-2.148L228 272.893v-2.768l96.008 123.804.055.07ZM233.258 393.999 228 387.215v-2.769l7.405 9.553h-2.147Zm65.485 0h-2.148L228 305.541v-2.758l70.688 91.146.055.07Zm-12.671 0h-2.147L228 321.873v-2.763l58.017 74.819.055.07Zm-12.663 0h-2.147L228 338.21v-2.763l45.354 58.482.055.07Zm-27.481 0L228 370.873v-2.758l20.075 25.884h-2.147Zm12.664 0L228 354.541v-2.763l32.739 42.221h-2.147Z"/></g><g clip-path="url(#c)"><path d="m309.261 393.999 146.575 190.933.164.208v-2.804L311.415 393.999h-2.154Zm12.672 0 133.903 174.429.164.209v-2.795L324.088 393.999h-2.155Zm12.66 0 121.243 157.926.164.209v-2.795l-119.253-155.34h-2.154Zm12.672 0 108.571 141.433.164.218v-2.805L349.419 393.999h-2.154Zm25.332 0 83.239 108.436.164.218v-2.805l-81.249-105.849h-2.154Zm-12.672 0 95.911 124.929.164.209v-2.804l-93.921-122.334h-2.154Z" fill="#000"/><path d="m228.164 485.932 70.579-91.933h-2.141l-68.589 89.356v2.795l.151-.218ZM228 400.848l5.266-6.849h2.141L228 403.643v-2.795Zm0 68.798v-2.794l55.929-72.853h2.142l-57.907 75.439-.164.208Zm0-16.503v-2.795l43.257-56.349h2.142l-45.248 58.936-.151.208Zm0-32.997v-2.794l17.925-23.353h2.154l-19.915 25.939-.164.208Zm0 16.504v-2.795l30.597-39.856h2.142l-32.575 42.433-.164.218ZM228 499.848v2.795l68.589 89.356h2.141l-70.579-91.933-.151-.218Zm0 82.507 7.407 9.644h-2.142L228 585.15v-2.795Zm.164-65.795 57.907 75.439h-2.142L228 519.146v-2.794l.164.208Zm0 16.503 45.247 58.936h-2.141l-43.257-56.349v-2.795l.151.208Zm0 32.997 19.915 25.939h-2.154L228 568.646v-2.794l.164.208Zm0-16.494 32.575 42.433h-2.142L228 552.143v-2.795l.164.218Z" fill="#fff"/></g><defs><clipPath id="a"><path fill="#fff" transform="matrix(-1 0 0 1 228 197.999)" d="M0 0h228v196H0z"/></clipPath><clipPath id="b"><path fill="#fff" transform="matrix(-1 0 0 1 456 197.999)" d="M0 0h228v196H0z"/></clipPath><clipPath id="c"><path fill="#fff" transform="matrix(-1 0 0 1 456 393.999)" d="M0 0h228v198H0z"/></clipPath></defs></svg>