<svg width="667" height="411" viewBox="0 0 667 411" fill="none" xmlns="http://www.w3.org/2000/svg"><rect width="477.789" height="368.91" rx="2" fill="#1D1E23"/><rect y="42.271" width="477.789" height="326.639" rx="2" fill="url(#paint0_radial)"/><path opacity=".8" fill="#000" d="M0 42.271h147.308V368.91H0z"/><path d="M0 2a2 2 0 012-2h473.789a2 2 0 012 2v40.27H0V2z" fill="#000"/><circle cx="30.526" cy="21.039" r="6.188" fill="#1D1E23"/><circle cx="48.979" cy="21.039" r="6.188" fill="#1D1E23"/><circle cx="66.912" cy="21.039" r="6.188" fill="#1D1E23"/><rect x="24.338" y="114.003" width="81.98" height="11.528" rx="5.764" fill="#1D1E23"/><rect x="24.338" y="138.341" width="66.609" height="8.967" rx="4.483" fill="#1D1E23"/><rect x="178.05" y="114.003" width="66.609" height="11.528" rx="5.764" fill="#1D1E23"/><path d="M32.594 54.836l-6.767 3.903v9.377l2.542 1.468v-9.377l4.225-2.439v-2.932z" fill="#4C4C53"/><path d="M35.295 54.836v7.467h-2.7v-2.786l-2.544 1.467v9.568l2.543 1.47v-7.446h2.701v2.768l2.542-1.467v-9.573l-2.542-1.468z" fill="#4C4C53"/><path d="M35.295 72.025l6.768-3.903v-9.377l-2.544-1.468v9.378l-4.224 2.438v2.932z" fill="#4C4C53"/><rect x="56.361" y="324.077" width="65.328" height="5.124" rx="2.562" fill="#1D1E23"/><circle cx="33.945" cy="327.279" r="13.45" fill="#1D1E23"/><path fill="url(#paint1_linear)" d="M170.365 67.89h176.769v98.632H170.365z"/><path fill="url(#paint2_radial)" d="M170.365 67.89h176.769v98.632H170.365z"/><g clip-path="url(#clip0)" fill="#fff"><path d="M345.922 68l-30.009 52h-.338l29.996-52h.351zm-2.845 0l-29.996 52h.338l29.996-52h-.338zm-2.494 0l-29.996 52h.338l29.995-52h-.337zm-2.508 0l-29.995 52h.337l29.996-52h-.338zm-2.494 0l-29.996 52h.338l29.996-52h-.338zm-2.507 0l-29.996 52h.338l29.996-52h-.338zM347 95.872v.585L333.412 120h-.338L347 95.872zM335.581 120h.338L347 100.786v-.585L335.581 120zm2.494 0h.338L347 105.115v-.585L338.075 120zm2.508 0h.337l6.093-10.556v-.585L340.583 120zm2.494 0h.338l3.585-6.214v-.585L343.077 120zm2.494 0h.338l1.091-1.885v-.585l-1.429 2.47z"/></g><path d="M189.209 93.869l17.127 34.383 17.256-34.383h-34.383zm19.149 6.915h1.994v1.979h-1.994v-1.979zm-3.968 7.979h-1.974v-2.011h1.99l-.016 2.011zm0-2.99h-1.974v-2.01h1.99l-.016 2.01zm0-2.989h-1.974v-2.011h1.99l-.016 2.011zm2.989 8.973h-1.973v-2.016h1.989l-.016 2.016zm0-2.994h-1.973v-2.011h1.989l-.016 2.011zm0-2.99h-1.973v-2.01h1.989l-.016 2.01zm0-2.989h-1.973v-2.011h1.989l-.016 2.011zm.979.979h1.994v1.989h-1.994v-1.989zm0 4.978v-1.989h1.989v1.989h-1.989z" fill="#fff"/><circle cx="206.483" cy="165.881" r="4.483" fill="#76767D"/><g opacity=".15" filter="url(#filter0_f)"><path fill="#000" d="M283 111h328v244H283z"/></g><path d="M278 114a2 2 0 012-2h323a2 2 0 012 2v228a2 2 0 01-2 2H280a2 2 0 01-2-2V114z" fill="#000"/><path d="M493 167h-38.148v55H386m0 8h108m-108 70h108M386 159h108m-1 133h-38.148v-54H386" stroke="#4C4C53" stroke-linecap="round" stroke-linejoin="round"/><path d="M207.028 175.769v51.654h100.25M258 231v66.654h49.249" stroke="#76767D" stroke-linecap="round" stroke-linejoin="round" stroke-dasharray="2 3"/><path d="M258 223.654V157h49.249" stroke="#76767D" stroke-linecap="round" stroke-linejoin="round" stroke-dasharray="2 3"/><path d="M375 131h-58v58h58v-58z" fill="url(#paint3_linear)"/><path d="M357 152v6h-6m-16 10v-6h6" stroke="#fff" stroke-width="1.5" stroke-linecap="round" stroke-linejoin="round"/><path d="M337.51 157a9 9 0 0114.85-3.36L357 158m-22 4l4.64 4.36a9 9 0 0014.85-3.36" stroke="#fff" stroke-width="1.5" stroke-linecap="round" stroke-linejoin="round"/><path d="M375 197h-58v58h58v-58z" fill="url(#paint4_linear)"/><path d="M357 221v6h-6m-16 10v-6h6" stroke="#fff" stroke-width="1.5" stroke-linecap="round" stroke-linejoin="round"/><path d="M337.51 226a9 9 0 0114.85-3.36L357 227m-22 4l4.64 4.36a9 9 0 0014.85-3.36" stroke="#fff" stroke-width="1.5" stroke-linecap="round" stroke-linejoin="round"/><path d="M375 267h-58v58h58v-58z" fill="url(#paint5_linear)"/><path d="M357 288v6h-6m-16 10v-6h6" stroke="#fff" stroke-width="1.5" stroke-linecap="round" stroke-linejoin="round"/><path d="M337.51 293a9 9 0 0114.85-3.36L357 294m-22 4l4.64 4.36a9 9 0 0014.85-3.36" stroke="#fff" stroke-width="1.5" stroke-linecap="round" stroke-linejoin="round"/><path d="M542.262 267H505v48.727h37.262V267z" fill="url(#paint6_linear)"/><path d="M553.748 275.599h-37.261v48.727h37.261v-48.727z" fill="url(#paint7_linear)"/><path d="M545.149 284.198h-10.032m10.032 5.016h-10.032m10.032 5.016h-10.032" stroke="#000" stroke-width="2" stroke-miterlimit="10" stroke-linejoin="round"/><path d="M531.6 199c14.72 0 26.6 11.88 26.6 26.6s-11.88 26.6-26.6 26.6-26.6-11.88-26.6-26.6 12.009-26.6 26.6-26.6z" fill="url(#paint8_linear)"/><path fill-rule="evenodd" clip-rule="evenodd" d="M531.213 227.924a2.315 2.315 0 01-2.325-2.324 2.315 2.315 0 012.325-2.324 2.314 2.314 0 012.324 2.324c.129 1.291-1.033 2.324-2.324 2.324zm4.648-1.291c-.645 0-1.033-.517-1.033-1.162 0-.646.517-1.033 1.033-1.033.646 0 1.033.516 1.033 1.033 0 .516-.387 1.162-1.033 1.162zm4.003 1.033c0 .517-.516 1.033-1.033 1.033-.516 0-1.033-.516-1.033-1.033 0-.516.517-1.033 1.033-1.033.646 0 1.033.387 1.033 1.033 0-.129 0-.129 0 0zm-.775-2.841c-.516.129-1.162-.258-1.291-.775-.129-.645.258-1.162.775-1.291.645-.129 1.162.258 1.291.775v.387c0 .517-.258.775-.775.904zm3.874 2.712c-.129.645-.646 1.033-1.291.904-.646-.129-1.033-.646-.904-1.292.129-.645.646-1.033 1.291-.903.646.129 1.033.645.904 1.291.129 0 .129-.129 0 0zm-.775-2.712c-.645.129-1.162-.258-1.291-.904-.129-.645.258-1.162.904-1.291s1.162.258 1.291.904v.258c-.129.517-.516.904-.904 1.033zm-.774 6.457c-.388.516-1.033.645-1.55.258-.387-.258-.646-.904-.387-1.291.258-.517.904-.775 1.549-.388.388.258.646.646.517 1.033 0 .129-.129.258-.129.388zm-.517-9.943c-.516.258-1.162.129-1.549-.388-.259-.516-.13-1.162.387-1.549.516-.258 1.162-.129 1.549.387.13.129.13.388.13.646.129.387-.13.646-.517.904z" fill="#7F7F86"/><path d="M531.342 236.576a10.967 10.967 0 01-10.976-10.976 10.967 10.967 0 0110.976-10.976c2.453 0 4.777.775 6.714 2.325l-1.291 1.807c-3.486-2.711-8.522-2.324-11.621.775-3.487 3.357-3.616 8.91-.259 12.525 3.229 3.358 8.394 3.616 11.88.775l1.291 1.808c-1.937 1.162-4.39 1.937-6.714 1.937z" fill="#7F7F86"/><path d="M547.294 148.994c-1.8 0-3.6.4-5.3 1-5.4-9.5-17.5-12.8-27-7.4s-12.8 17.5-7.4 27c3.5 6.2 10.1 10 17.2 10h22.5c8.4 0 15.3-6.9 15.3-15.3s-6.9-15.2-15.3-15.3z" fill="url(#paint9_linear)"/><path d="M528.394 162.294c0 .2 0 .5.1.7l.3.6c0 .1.1.1.1.2s-.1.2-.2.2l-.5.4c-.1 0-.1.1-.2.1s-.2 0-.2-.1c-.1-.1-.2-.2-.3-.4-.1-.2-.2-.3-.3-.5-.6.7-1.5 1.2-2.4 1.1-.6 0-1.2-.2-1.7-.6-.9-1-.8-2.4.1-3.3.6-.5 1.3-.7 2-.6.3 0 .6 0 .9.1.3 0 .6.1 1 .2v-.6c0-.5-.1-1-.4-1.3-.4-.3-.9-.4-1.4-.4-.3 0-.6 0-.9.1l-.9.3c-.1 0-.2.1-.3.1h-.1c-.1 0-.2-.1-.2-.3v-.5c0-.1 0-.2.1-.3l.2-.2c.3-.2.7-.3 1-.4.4-.1.9-.2 1.3-.2.8-.1 1.6.2 2.2.7.5.6.8 1.3.7 2.1v2.8zm-3.5 1.3c.3 0 .6-.1.9-.1.3-.1.6-.3.8-.5.1-.2.2-.3.3-.5.1-.2.1-.5.1-.7v-.4c-.3-.1-.5-.1-.8-.1-.3 0-.5 0-.8-.1-.4 0-.9.1-1.2.3-.5.5-.5 1.3-.1 1.9.2.1.5.2.8.2zm6.7.9c-.1 0-.2 0-.3-.1-.1-.1-.2-.2-.2-.3l-2-6.4c0-.1-.1-.2-.1-.3 0-.1.1-.2.2-.2h.8c.1 0 .2 0 .3.1.1.1.1.2.2.3l1.4 5.5 1.3-5.5c0-.1.1-.2.2-.3.1-.1.2-.1.3-.1h.7c.1 0 .2 0 .3.1.1.1.1.2.2.3l1.3 5.6 1.4-5.6c0-.1.1-.2.2-.3.1-.1.2-.1.3-.1h.8c.1 0 .2.1.2.2v.1c0 .1 0 .1-.1.2l-2 6.4c0 .1-.1.2-.2.3-.1.1-.2.1-.3.1h-.7c-.1 0-.2 0-.3-.1-.1-.1-.1-.2-.2-.3l-1.3-5.4-1.2 5.4c0 .1-.1.2-.2.3-.1.1-.2.1-.3.1h-.7zm10.8.2c-.4 0-.9-.1-1.3-.1-.3-.1-.7-.2-1-.3-.1-.1-.2-.1-.3-.2 0-.1 0-.2-.1-.2v-.4c0-.2.1-.3.2-.3h.1l.2.1.9.3c.3.1.7.1 1 .1.4 0 .8-.1 1.2-.3.3-.2.4-.5.4-.8 0-.2-.1-.4-.2-.6-.2-.2-.5-.4-.8-.4l-1.2-.4c-.5-.1-1-.4-1.3-.9-.3-.3-.4-.8-.4-1.2 0-.3.1-.6.2-.9.1-.3.4-.5.6-.7.3-.2.6-.4.9-.4.3-.1.7-.1 1.1-.1h.6l.5.1.5.1c.1 0 .2.1.4.1.1.1.2.1.2.2.1.1.1.2.1.3v.4c0 .2-.1.3-.2.3s-.2 0-.3-.1c-.5-.2-1.1-.3-1.6-.3-.4 0-.8.1-1.1.2-.3.2-.4.4-.4.7 0 .2.1.4.2.6.3.2.6.4.9.4l1.2.4c.5.1 1 .4 1.3.8.3.3.4.7.4 1.2 0 .3-.1.7-.2 1-.1.3-.4.5-.6.7-.3.2-.6.4-.9.5-.4 0-.8.1-1.2.1zm1.5 4.1c-3 2-6.5 3.1-10.2 3.1-4.6 0-9-1.7-12.4-4.7-.3-.2 0-.6.3-.4 6.7 3.9 14.8 4.4 21.9 1.4.5-.3.9.2.4.6zm1.2-1.3c-.4-.4-2.3-.2-3.2-.1-.3 0-.3-.2-.1-.4 1.6-1.1 4.1-.8 4.4-.4.3.4-.1 3-1.6 4.2-.2.2-.4.1-.3-.2.4-.8 1.2-2.7.8-3.1z" fill="#7F7F86"/><rect x="361" y="258" width="28" height="28" rx="14" fill="#1D1E23"/><path d="M374.908 267.892c-.785.792-1.08 1.881-.785 2.871l-3.927 3.96c-.098 0-.098.099-.098.198l-.098 1.782c0 .099.098.297.196.297l2.356-.297c.098 0 .196-.099.196-.297v-.792h.884c.098 0 .294-.099.294-.297v-.891h.884c.098 0 .098 0 .196-.099l1.276-1.287c1.669.396 3.239-.594 3.632-2.277.392-1.683-.589-3.267-2.258-3.663-.981-.297-2.061.099-2.748.792z" fill="#BDBEC2"/><circle cx="377" cy="270" r="1" fill="#1D1E23"/><rect x="361" y="190" width="28" height="28" rx="14" fill="#1D1E23"/><path d="M374.908 199.892c-.785.792-1.08 1.881-.785 2.871l-3.927 3.96c-.098 0-.098.099-.098.198l-.098 1.782c0 .099.098.297.196.297l2.356-.297c.098 0 .196-.099.196-.297v-.792h.884c.098 0 .294-.099.294-.297v-.891h.884c.098 0 .098 0 .196-.099l1.276-1.287c1.669.396 3.239-.594 3.632-2.277.392-1.683-.589-3.267-2.258-3.663-.981-.297-2.061.099-2.748.792z" fill="#BDBEC2"/><circle cx="377" cy="202" r="1" fill="#1D1E23"/><rect x="361" y="122" width="28" height="28" rx="14" fill="#1D1E23"/><path d="M374.908 131.892c-.785.792-1.08 1.881-.785 2.871l-3.927 3.96c-.098 0-.098.099-.098.198l-.098 1.782c0 .099.098.297.196.297l2.356-.297c.098 0 .196-.099.196-.297v-.792h.884c.098 0 .294-.099.294-.297v-.891h.884c.098 0 .098 0 .196-.099l1.276-1.287c1.669.396 3.239-.594 3.632-2.277.392-1.683-.589-3.267-2.258-3.663-.981-.297-2.061.099-2.748.792z" fill="#BDBEC2"/><circle cx="377" cy="134" r="1" fill="#1D1E23"/><defs><linearGradient id="paint1_linear" x1="258.749" y1="145.945" x2="258.749" y2="67.89" gradientUnits="userSpaceOnUse"><stop/><stop offset="1" stop-opacity="0"/></linearGradient><linearGradient id="paint3_linear" x1="326.193" y1="194.307" x2="365.807" y2="125.693" gradientUnits="userSpaceOnUse"><stop stop-color="#1D1E23" stop-opacity=".85"/><stop offset=".25" stop-color="#222328" stop-opacity=".87"/><stop offset=".58" stop-color="#313137" stop-opacity=".91"/><stop offset=".95" stop-color="#48484F" stop-opacity=".99"/><stop offset="1" stop-color="#4C4C53"/></linearGradient><linearGradient id="paint4_linear" x1="326.193" y1="260.307" x2="365.807" y2="191.693" gradientUnits="userSpaceOnUse"><stop stop-color="#1D1E23" stop-opacity=".85"/><stop offset=".25" stop-color="#222328" stop-opacity=".87"/><stop offset=".58" stop-color="#313137" stop-opacity=".91"/><stop offset=".95" stop-color="#48484F" stop-opacity=".99"/><stop offset="1" stop-color="#4C4C53"/></linearGradient><linearGradient id="paint5_linear" x1="326.193" y1="330.307" x2="365.807" y2="261.693" gradientUnits="userSpaceOnUse"><stop stop-color="#1D1E23" stop-opacity=".85"/><stop offset=".25" stop-color="#222328" stop-opacity=".87"/><stop offset=".58" stop-color="#313137" stop-opacity=".91"/><stop offset=".95" stop-color="#48484F" stop-opacity=".99"/><stop offset="1" stop-color="#4C4C53"/></linearGradient><linearGradient id="paint6_linear" x1="508.397" y1="317.761" x2="538.807" y2="265.08" gradientUnits="userSpaceOnUse"><stop stop-color="#1D1E23" stop-opacity=".85"/><stop offset=".25" stop-color="#222328" stop-opacity=".87"/><stop offset=".58" stop-color="#313137" stop-opacity=".91"/><stop offset=".95" stop-color="#48484F" stop-opacity=".99"/><stop offset="1" stop-color="#4C4C53"/></linearGradient><linearGradient id="paint7_linear" x1="519.883" y1="326.36" x2="550.294" y2="273.679" gradientUnits="userSpaceOnUse"><stop stop-color="#1D1E23" stop-opacity=".76"/><stop offset=".25" stop-color="#313239" stop-opacity=".96"/><stop offset=".58" stop-color="#464650" stop-opacity=".91"/><stop offset=".95" stop-color="#48484F" stop-opacity=".99"/><stop offset="1" stop-color="#4C4C53"/></linearGradient><linearGradient id="paint8_linear" x1="506.661" y1="216.452" x2="556.642" y2="234.645" gradientUnits="userSpaceOnUse"><stop stop-color="#1D1E23" stop-opacity=".85"/><stop offset=".25" stop-color="#222328" stop-opacity=".87"/><stop offset=".58" stop-color="#313137" stop-opacity=".91"/><stop offset=".95" stop-color="#48484F" stop-opacity=".99"/><stop offset="1" stop-color="#4C4C53"/></linearGradient><linearGradient id="paint9_linear" x1="522.332" y1="181.322" x2="543.562" y2="144.551" gradientUnits="userSpaceOnUse"><stop stop-color="#1D1E23" stop-opacity=".85"/><stop offset=".25" stop-color="#222328" stop-opacity=".87"/><stop offset=".58" stop-color="#313137" stop-opacity=".91"/><stop offset=".95" stop-color="#48484F" stop-opacity=".99"/><stop offset="1" stop-color="#4C4C53"/></linearGradient><radialGradient id="paint0_radial" cx="0" cy="0" r="1" gradientUnits="userSpaceOnUse" gradientTransform="matrix(-281.99833 -229.00226 334.97167 -412.49136 410 298)"><stop stop-color="#2A2B30"/><stop offset="1" stop-color="#1D1E23" stop-opacity="0"/></radialGradient><radialGradient id="paint2_radial" cx="0" cy="0" r="1" gradientUnits="userSpaceOnUse" gradientTransform="rotate(163.397 176.945 52.491) scale(238.738 144.838)"><stop stop-color="#4C4C53"/><stop offset="1" stop-color="#18191B" stop-opacity="0"/></radialGradient><clipPath id="clip0"><path fill="#fff" transform="translate(302 68)" d="M0 0h45v52H0z"/></clipPath><filter id="filter0_f" x="227" y="55" width="440" height="356" filterUnits="userSpaceOnUse" color-interpolation-filters="sRGB"><feFlood flood-opacity="0" result="BackgroundImageFix"/><feBlend in="SourceGraphic" in2="BackgroundImageFix" result="shape"/><feGaussianBlur stdDeviation="28" result="effect1_foregroundBlur"/></filter></defs></svg>