<svg fill="none" height="411" viewBox="0 0 667 411" width="667" xmlns="http://www.w3.org/2000/svg" xmlns:xlink="http://www.w3.org/1999/xlink"><filter id="a" color-interpolation-filters="sRGB" filterUnits="userSpaceOnUse" height="356" width="440" x="227" y="55"><feFlood flood-opacity="0" result="BackgroundImageFix"/><feBlend in="SourceGraphic" in2="BackgroundImageFix" mode="normal" result="shape"/><feGaussianBlur result="effect1_foregroundBlur" stdDeviation="28"/></filter><radialGradient id="b" cx="0" cy="0" gradientTransform="matrix(-281.99833095 -229.00225816 334.97167099 -412.4913566 410 298)" gradientUnits="userSpaceOnUse" r="1"><stop offset="0" stop-color="#2a2b30"/><stop offset="1" stop-color="#1d1e23" stop-opacity="0"/></radialGradient><linearGradient id="c" gradientUnits="userSpaceOnUse" x1="326.999" x2="279.999" y1="60" y2="142"><stop offset="0" stop-color="#ffec6e" stop-opacity=".3"/><stop offset="1" stop-opacity="0"/></linearGradient><linearGradient id="d"><stop offset="0" stop-color="#1d1e23" stop-opacity=".85"/><stop offset=".25" stop-color="#222328" stop-opacity=".87"/><stop offset=".58" stop-color="#313137" stop-opacity=".91"/><stop offset=".95" stop-color="#48484f" stop-opacity=".99"/><stop offset="1" stop-color="#4c4c53"/></linearGradient><linearGradient id="e" gradientUnits="userSpaceOnUse" x1="326.193" x2="365.807" xlink:href="#d" y1="194.307" y2="125.693"/><linearGradient id="f" gradientUnits="userSpaceOnUse" x1="326.193" x2="365.807" xlink:href="#d" y1="260.307" y2="191.693"/><linearGradient id="g" gradientUnits="userSpaceOnUse" x1="326.193" x2="365.807" xlink:href="#d" y1="330.307" y2="261.693"/><linearGradient id="h" gradientUnits="userSpaceOnUse" x1="508.397" x2="538.807" xlink:href="#d" y1="317.761" y2="265.08"/><linearGradient id="i" gradientUnits="userSpaceOnUse" x1="519.883" x2="550.294" y1="326.36" y2="273.679"><stop offset="0" stop-color="#1d1e23" stop-opacity=".76"/><stop offset=".25" stop-color="#313239" stop-opacity=".96"/><stop offset=".58" stop-color="#464650" stop-opacity=".91"/><stop offset=".95" stop-color="#48484f" stop-opacity=".99"/><stop offset="1" stop-color="#4c4c53"/></linearGradient><linearGradient id="j" gradientUnits="userSpaceOnUse" x1="506.661" x2="556.642" xlink:href="#d" y1="216.452" y2="234.645"/><linearGradient id="k" gradientUnits="userSpaceOnUse" x1="522.332" x2="543.562" xlink:href="#d" y1="181.322" y2="144.551"/><clipPath id="l"><path d="m302 68h45v52h-45z"/></clipPath><rect fill="#1d1e23" height="368.91" rx="2" width="477.789"/><rect fill="url(#b)" height="326.639" rx="2" width="477.789" y="42.2705"/><path d="m0 42.2705h147.308v326.639h-147.308z" fill="#000" opacity=".8"/><path d="m0 2c0-1.104567.895431-2 2-2h473.789c1.105 0 2 .895431 2 2v40.2709h-477.789z" fill="#000"/><circle cx="30.5256" cy="21.0383" fill="#1d1e23" r="6.18775"/><circle cx="48.9788" cy="21.0383" fill="#1d1e23" r="6.18775"/><circle cx="66.9124" cy="21.0383" fill="#1d1e23" r="6.18775"/><rect fill="#1d1e23" height="11.5284" rx="5.76421" width="81.9799" x="24.3379" y="114.003"/><rect fill="#1d1e23" height="8.96656" rx="4.48328" width="66.6087" x="24.3379" y="138.341"/><rect fill="#1d1e23" height="11.5284" rx="5.76421" width="66.6087" x="178.05" y="114.003"/><path d="m32.5942 54.8359-6.7671 3.9032v.003 9.3742l2.5419 1.4676v-9.3772l4.2252-2.4385z" fill="#4c4c53"/><path d="m35.2955 54.8359v7.4675h-2.7014v-2.7865l-2.5433 1.4677v9.5671l2.5433 1.4707v-7.4461h2.7014v2.7682l2.5418-1.4677v-9.5732z" fill="#4c4c53"/><path d="m35.2959 72.0263 6.767-3.9031v-.003-9.3742l-2.5433-1.4677v9.3772l-4.2237 2.4385z" fill="#4c4c53"/><rect fill="#1d1e23" height="5.12375" rx="2.56187" width="65.3278" x="56.3613" y="324.077"/><circle cx="33.945" cy="327.279" fill="#1d1e23" r="13.4498"/><path d="m170.364 67.8896h176.769v98.6321h-176.769z" fill="#000"/><path d="m170.364 67.8896h176.769v98.6321h-176.769z" fill="url(#c)"/><g clip-path="url(#l)" fill="#ffec6e"><path d="m345.922 68-30.009 52h-.338l29.996-52zm-2.845 0-29.996 52h.338l29.995-52zm-2.495 0-29.995 52h.338l29.995-52zm-2.507 0-29.995 52h.337l29.996-52zm-2.494 0-29.996 52h.338l29.996-52zm-2.507 0-29.996 52h.338l29.996-52z"/><path d="m347 95.8721v.585l-13.588 23.5429h-.338zm-11.419 24.1279h.338l11.081-19.214v-.585zm2.495 0h.337l8.587-14.885v-.585zm2.507 0h.338l6.092-10.556v-.585zm2.494 0h.338l3.585-6.214v-.585zm2.494 0h.338l1.091-1.885v-.585z"/></g><path d="m189.209 93.8691 17.128 34.3829 17.255-34.3829zm19.149 6.9149h1.995v1.979h-1.995zm-3.968 7.979h-1.974v-2.011h1.99zm0-2.99h-1.974v-2.01h1.99zm0-2.989h-1.974v-2.011h1.99zm2.989 8.973h-1.973v-2.016h1.989zm0-2.994h-1.973v-2.011h1.989zm0-2.99h-1.973v-2.01h1.989zm0-2.989h-1.973v-2.011h1.989zm.979.979h1.995v1.989h-1.995zm0 4.978v-1.989h1.989v1.989z" fill="#fff"/><circle cx="206.483" cy="165.882" fill="#ffec6e" r="4.48328"/><g filter="url(#a)" opacity=".15"><path d="m283 111h328v244h-328z" fill="#000"/></g><path d="m278 114c0-1.105.895-2 2-2h323c1.105 0 2 .895 2 2v228c0 1.105-.895 2-2 2h-323c-1.105 0-2-.895-2-2z" fill="#000"/><path d="m493 167h-38.148v55s-13.497 0-68.852 0" stroke="#ffec6e" stroke-linecap="round" stroke-linejoin="round"/><path d="m386 230h108" stroke="#ffec6e" stroke-linecap="round" stroke-linejoin="round"/><path d="m386 300h108" stroke="#ffec6e" stroke-linecap="round" stroke-linejoin="round"/><path d="m386 159h108" stroke="#ffec6e" stroke-linecap="round" stroke-linejoin="round"/><path d="m493 292h-38.148v-54s-13.497 0-68.852 0" stroke="#ffec6e" stroke-linecap="round" stroke-linejoin="round"/><path d="m206.028 173.77v56.653h100.249" stroke="#ffec6e" stroke-dasharray="2 3" stroke-linecap="round" stroke-linejoin="round"/><path d="m258 231v66.654h49.249" stroke="#ffec6e" stroke-dasharray="2 3" stroke-linecap="round" stroke-linejoin="round"/><path d="m258 230v-73h49" stroke="#ffec6e" stroke-dasharray="2 3" stroke-linecap="round" stroke-linejoin="round"/><path d="m375 131h-58v58h58z" fill="url(#e)"/><path d="m357 152v6h-6" stroke="#fff" stroke-linecap="round" stroke-linejoin="round" stroke-width="1.5"/><path d="m335 168v-6h6" stroke="#fff" stroke-linecap="round" stroke-linejoin="round" stroke-width="1.5"/><path d="m337.51 157c1.031-2.913 3.484-5.094 6.498-5.776s6.167.23 8.352 2.416l4.64 4.36" stroke="#fff" stroke-linecap="round" stroke-linejoin="round" stroke-width="1.5"/><path d="m335 162 4.64 4.36c2.185 2.186 5.338 3.098 8.352 2.416s5.467-2.863 6.498-5.776" stroke="#fff" stroke-linecap="round" stroke-linejoin="round" stroke-width="1.5"/><path d="m375 197h-58v58h58z" fill="url(#f)"/><path d="m357 221v6h-6" stroke="#fff" stroke-linecap="round" stroke-linejoin="round" stroke-width="1.5"/><path d="m335 237v-6h6" stroke="#fff" stroke-linecap="round" stroke-linejoin="round" stroke-width="1.5"/><path d="m337.51 226c1.031-2.913 3.484-5.094 6.498-5.776s6.167.23 8.352 2.416l4.64 4.36" stroke="#fff" stroke-linecap="round" stroke-linejoin="round" stroke-width="1.5"/><path d="m335 231 4.64 4.36c2.185 2.186 5.338 3.098 8.352 2.416s5.467-2.863 6.498-5.776" stroke="#fff" stroke-linecap="round" stroke-linejoin="round" stroke-width="1.5"/><path d="m375 267h-58v58h58z" fill="url(#g)"/><path d="m357 288v6h-6" stroke="#fff" stroke-linecap="round" stroke-linejoin="round" stroke-width="1.5"/><path d="m335 304v-6h6" stroke="#fff" stroke-linecap="round" stroke-linejoin="round" stroke-width="1.5"/><path d="m337.51 293c1.031-2.913 3.484-5.094 6.498-5.776s6.167.23 8.352 2.416l4.64 4.36" stroke="#fff" stroke-linecap="round" stroke-linejoin="round" stroke-width="1.5"/><path d="m335 298 4.64 4.36c2.185 2.186 5.338 3.098 8.352 2.416s5.467-2.863 6.498-5.776" stroke="#fff" stroke-linecap="round" stroke-linejoin="round" stroke-width="1.5"/><path d="m542.262 267h-37.262v48.727h37.262z" fill="url(#h)"/><path d="m553.748 275.599h-37.262v48.726h37.262z" fill="url(#i)"/><path d="m545.149 284.197h-10.032" stroke="#000" stroke-linejoin="round" stroke-miterlimit="10" stroke-width="2"/><path d="m545.149 289.214h-10.032" stroke="#000" stroke-linejoin="round" stroke-miterlimit="10" stroke-width="2"/><path d="m545.149 294.229h-10.032" stroke="#000" stroke-linejoin="round" stroke-miterlimit="10" stroke-width="2"/><path d="m531.6 199c14.72 0 26.6 11.88 26.6 26.6s-11.88 26.6-26.6 26.6-26.6-11.88-26.6-26.6 12.009-26.6 26.6-26.6z" fill="url(#j)"/><g fill="#7f7f86"><path clip-rule="evenodd" d="m531.213 227.924c-1.291 0-2.324-1.033-2.324-2.324 0-1.292 1.033-2.325 2.324-2.325s2.324 1.033 2.324 2.325c.129 1.291-1.033 2.324-2.324 2.324z" fill-rule="evenodd"/><path clip-rule="evenodd" d="m535.861 226.633c-.645 0-1.033-.517-1.033-1.162 0-.646.517-1.033 1.033-1.033.646 0 1.033.516 1.033 1.033 0 .516-.387 1.162-1.033 1.162z" fill-rule="evenodd"/><path clip-rule="evenodd" d="m539.864 227.666c0 .516-.517 1.033-1.033 1.033-.517 0-1.033-.517-1.033-1.033 0-.517.516-1.033 1.033-1.033.645 0 1.033.387 1.033 1.033 0-.129 0-.129 0 0z" fill-rule="evenodd"/><path clip-rule="evenodd" d="m539.09 224.825c-.517.13-1.162-.258-1.292-.774-.129-.646.259-1.162.775-1.292.646-.129 1.162.259 1.291.775v.388c0 .516-.258.774-.774.903z" fill-rule="evenodd"/><path clip-rule="evenodd" d="m542.963 227.537c-.129.645-.646 1.033-1.291.904-.646-.13-1.033-.646-.904-1.292.129-.645.646-1.033 1.291-.904.646.13 1.033.646.904 1.292.129-.129.129 0 0 0z" fill-rule="evenodd"/><path clip-rule="evenodd" d="m542.188 224.825c-.646.129-1.162-.258-1.291-.904-.129-.645.258-1.162.904-1.291.645-.129 1.162.258 1.291.904v.258c-.129.517-.517.904-.904 1.033z" fill-rule="evenodd"/><path clip-rule="evenodd" d="m541.414 231.282c-.387.516-1.033.645-1.55.258-.387-.258-.645-.904-.387-1.291.258-.517.904-.775 1.55-.388.387.259.645.646.516 1.033 0 .129-.129.259-.129.388z" fill-rule="evenodd"/><path clip-rule="evenodd" d="m540.897 221.338c-.516.259-1.162.13-1.549-.387-.258-.516-.129-1.162.387-1.549.517-.259 1.162-.13 1.55.387.129.129.129.387.129.646.129.387-.129.645-.517.903z" fill-rule="evenodd"/><path d="m531.342 236.575c-6.069 0-10.976-4.906-10.976-10.975s4.907-10.976 10.976-10.976c2.453 0 4.778.775 6.714 2.324l-1.291 1.808c-3.486-2.712-8.522-2.324-11.621.775-3.487 3.357-3.616 8.91-.258 12.525 3.228 3.357 8.393 3.616 11.879.775l1.291 1.808c-1.936 1.162-4.39 1.936-6.714 1.936z"/></g><path d="m547.294 148.994c-1.8 0-3.6.4-5.3 1-5.4-9.5-17.5-12.8-27-7.4s-12.8 17.5-7.4 27c3.5 6.2 10.1 10 17.2 10h22.5c8.4 0 15.3-6.9 15.3-15.3s-6.9-15.2-15.3-15.3z" fill="url(#k)"/><path d="m528.394 162.294c0 .2 0 .5.1.7s.2.4.3.6c0 .1.1.1.1.2s-.1.2-.2.2l-.5.4c-.1 0-.1.1-.2.1s-.2 0-.2-.1c-.1-.1-.2-.2-.3-.4s-.2-.3-.3-.5c-.6.7-1.5 1.2-2.4 1.1-.6 0-1.2-.2-1.7-.6-.9-1-.8-2.4.1-3.3.6-.5 1.3-.7 2-.6.3 0 .6 0 .9.1.3 0 .6.1 1 .2v-.6c0-.5-.1-1-.4-1.3-.4-.3-.9-.4-1.4-.4-.3 0-.6 0-.9.1s-.6.2-.9.3c-.1 0-.2.1-.3.1h-.1c-.1 0-.2-.1-.2-.3v-.5c0-.1 0-.2.1-.3s.1-.1.2-.2c.3-.2.7-.3 1-.4.4-.1.9-.2 1.3-.2.8-.1 1.6.2 2.2.7.5.6.8 1.3.7 2.1zm-3.5 1.3c.3 0 .6-.1.9-.1.3-.1.6-.3.8-.5.1-.2.2-.3.3-.5s.1-.5.1-.7v-.4c-.3-.1-.5-.1-.8-.1s-.5 0-.8-.1c-.4 0-.9.1-1.2.3-.5.5-.5 1.3-.1 1.9.2.1.5.2.8.2zm6.7.9c-.1 0-.2 0-.3-.1s-.2-.2-.2-.3l-2-6.4c0-.1-.1-.2-.1-.3s.1-.2.2-.2h.8c.1 0 .2 0 .3.1s.1.2.2.3l1.4 5.5 1.3-5.5c0-.1.1-.2.2-.3s.2-.1.3-.1h.7c.1 0 .2 0 .3.1s.1.2.2.3l1.3 5.6 1.4-5.6c0-.1.1-.2.2-.3s.2-.1.3-.1h.8c.1 0 .2.1.2.2v.1c0 .1 0 .1-.1.2l-2 6.4c0 .1-.1.2-.2.3s-.2.1-.3.1h-.7c-.1 0-.2 0-.3-.1s-.1-.2-.2-.3l-1.3-5.4-1.2 5.4c0 .1-.1.2-.2.3s-.2.1-.3.1zm10.8.2c-.4 0-.9-.1-1.3-.1-.3-.1-.7-.2-1-.3-.1-.1-.2-.1-.3-.2 0-.1 0-.2-.1-.2v-.4c0-.2.1-.3.2-.3h.1l.2.1c.3.1.6.2.9.3s.7.1 1 .1c.4 0 .8-.1 1.2-.3.3-.2.4-.5.4-.8 0-.2-.1-.4-.2-.6-.2-.2-.5-.4-.8-.4l-1.2-.4c-.5-.1-1-.4-1.3-.9-.3-.3-.4-.8-.4-1.2 0-.3.1-.6.2-.9s.4-.5.6-.7c.3-.2.6-.4.9-.4.3-.1.7-.1 1.1-.1h.6l.5.1.5.1c.1 0 .2.1.4.1.1.1.2.1.2.2.1.1.1.2.1.3v.4c0 .2-.1.3-.2.3s-.2 0-.3-.1c-.5-.2-1.1-.3-1.6-.3-.4 0-.8.1-1.1.2-.3.2-.4.4-.4.7 0 .2.1.4.2.6.3.2.6.4.9.4l1.2.4c.5.1 1 .4 1.3.8.3.3.4.7.4 1.2 0 .3-.1.7-.2 1s-.4.5-.6.7c-.3.2-.6.4-.9.5-.4 0-.8.1-1.2.1z" fill="#7f7f86"/><path d="m543.894 168.794c-3 2-6.5 3.1-10.2 3.1-4.6 0-9-1.7-12.4-4.7-.3-.2 0-.6.3-.4 6.7 3.9 14.8 4.4 21.9 1.4.5-.3.9.2.4.6zm1.2-1.3c-.4-.4-2.3-.2-3.2-.1-.3 0-.3-.2-.1-.4 1.6-1.1 4.1-.8 4.4-.4s-.1 3-1.6 4.2c-.2.2-.4.1-.3-.2.4-.8 1.2-2.7.8-3.1z" fill="#7f7f86"/><rect fill="#1d1e23" height="28" rx="14" width="28" x="361" y="258"/><path d="m374.908 267.892c-.785.792-1.08 1.881-.785 2.871l-3.927 3.96c-.098 0-.098.099-.098.198l-.098 1.782c0 .099.098.297.196.297l2.356-.297c.098 0 .196-.099.196-.297v-.792h.884c.098 0 .294-.099.294-.297v-.891h.884c.098 0 .098 0 .196-.099l1.276-1.287c1.669.396 3.239-.594 3.632-2.277.392-1.683-.589-3.267-2.258-3.663-.981-.297-2.061.099-2.748.792z" fill="#bdbec2"/><circle cx="377" cy="270" fill="#1d1e23" r="1"/><rect fill="#1d1e23" height="28" rx="14" width="28" x="361" y="190"/><path d="m374.908 199.892c-.785.792-1.08 1.881-.785 2.871l-3.927 3.96c-.098 0-.098.099-.098.198l-.098 1.782c0 .099.098.297.196.297l2.356-.297c.098 0 .196-.099.196-.297v-.792h.884c.098 0 .294-.099.294-.297v-.891h.884c.098 0 .098 0 .196-.099l1.276-1.287c1.669.396 3.239-.594 3.632-2.277.392-1.683-.589-3.267-2.258-3.663-.981-.297-2.061.099-2.748.792z" fill="#bdbec2"/><circle cx="377" cy="202" fill="#1d1e23" r="1"/><rect fill="#1d1e23" height="28" rx="14" width="28" x="361" y="122"/><path d="m374.908 131.892c-.785.792-1.08 1.881-.785 2.871l-3.927 3.96c-.098 0-.098.099-.098.198l-.098 1.782c0 .099.098.297.196.297l2.356-.297c.098 0 .196-.099.196-.297v-.792h.884c.098 0 .294-.099.294-.297v-.891h.884c.098 0 .098 0 .196-.099l1.276-1.287c1.669.396 3.239-.594 3.632-2.277.392-1.683-.589-3.267-2.258-3.663-.981-.297-2.061.099-2.748.792z" fill="#bdbec2"/><circle cx="377" cy="134" fill="#1d1e23" r="1"/></svg>