<svg width="24" height="16" viewBox="0 0 24 16" xmlns="http://www.w3.org/2000/svg"><title>G+ Copy 3</title><path d="M.02 7.203C.086 3.297 3.696-.124 7.623.006c1.882-.087 3.65.728 5.091 1.872a27.061 27.061 0 0 1-1.932 1.991C9.05 2.68 6.586 2.338 4.853 3.713c-2.478 1.705-2.59 5.731-.207 7.567 2.318 2.092 6.7 1.053 7.34-2.15-1.451-.022-2.907 0-4.36-.048-.003-.861-.007-1.723-.003-2.585 2.427-.007 4.855-.01 7.286.008.145 2.027-.124 4.185-1.376 5.86-1.896 2.655-5.702 3.43-8.672 2.292-2.98-1.13-5.092-4.26-4.84-7.454m19.623-2.882h2.165c.004.721.007 1.445.015 2.165.724.008 1.452.008 2.176.015v2.154c-.724.007-1.448.011-2.176.018-.008.724-.011 1.445-.015 2.165H19.64c-.007-.72-.007-1.44-.014-2.161l-2.177-.022V6.501c.725-.007 1.449-.01 2.177-.015.003-.724.01-1.444.018-2.165" fill="#FFF" fill-rule="evenodd"/></svg>