<svg width="24" height="17" viewBox="0 0 24 17" xmlns="http://www.w3.org/2000/svg"><title>Path Copy 8</title><path d="M9.522 11.553V4.81l6.484 3.383-6.484 3.36zM23.76 3.641s-.235-1.654-.954-2.382C21.893.303 20.87.3 20.401.243 17.043 0 12.005 0 12.005 0h-.01S6.957 0 3.599.243c-.47.055-1.492.06-2.406 1.016C.474 1.987.24 3.641.24 3.641S0 5.584 0 7.525v1.821c0 1.943.24 3.885.24 3.885s.234 1.654.953 2.382c.914.956 2.113.926 2.647 1.026 1.92.184 8.16.241 8.16.241s5.043-.007 8.401-.25c.47-.057 1.492-.061 2.405-1.017.72-.728.954-2.382.954-2.382s.24-1.942.24-3.885v-1.82c0-1.942-.24-3.885-.24-3.885z" fill="#FFF" fill-rule="evenodd"/></svg>