<svg xmlns="http://www.w3.org/2000/svg" width="136" height="48" fill="none"><path fill-rule="evenodd" clip-rule="evenodd" d="M134.509 35.895c-.978.414-2.857.714-4.023.714-3.346 0-5.037-1.579-5.037-4.849V21.574h-2.744v-3.646h2.744v-4.549l4.586-.64v5.189h4.698l-.3 3.646h-4.398v9.585c0 .978.451 1.617 1.654 1.617.677 0 1.503-.15 2.293-.375l.527 3.495zm-18.269.338V10.446l4.586-.64v26.427h-4.586zm-14.773-18.306v12.78c0 .978.414 1.466 1.466 1.466 1.128 0 3.12-.676 4.774-1.54V17.926h4.586v18.306h-3.496l-.451-1.541c-2.293 1.128-5.187 1.917-7.33 1.917-3.044 0-4.135-2.143-4.135-5.413v-13.27h4.586zm-12.555 11.39H85.53c-1.503 0-1.917.414-1.917 1.805 0 1.278.414 1.84 1.841 1.84 1.354 0 2.595-.45 3.46-.939v-2.706zm4.586 6.916H89.74l-.338-1.24c-1.654 1.09-3.609 1.616-5.45 1.616-3.347 0-4.775-2.293-4.775-5.45 0-3.721 1.617-5.15 5.338-5.15h4.398V24.09c0-2.03-.564-2.744-3.496-2.744-1.654 0-3.458.226-5.074.564l-.564-3.496c1.728-.526 4.247-.865 6.277-.865 5.752 0 7.443 2.03 7.443 6.617v12.066zm-20.11-25.036h4.924l-7.48 25.036h-6.993l-7.48-25.036h4.924l6.052 20.864 6.053-20.864zm-45.96 9.567h2.782v-2.783h-2.782v2.783zm-.024-4.174h2.782v-2.783h-2.782v2.783zm-4.15-4.174h2.782V9.633h-2.783v2.783zm0 4.174h2.782v-2.783h-2.783v2.783zm0 4.174h2.782V17.98h-2.783v2.783zm0 4.174h2.782v-2.783h-2.783v2.782zM19.08 12.415h2.783V9.633H19.08v2.783zm0 4.174h2.783v-2.783H19.08v2.783zm0 4.174h2.783V17.98H19.08v2.783zm8.324-8.348h2.782V9.633h-2.782v2.783zM.645 0l23.913 48L48.645 0h-48z" fill="#000"/></svg>