<svg xmlns="http://www.w3.org/2000/svg" viewBox="0 0 512 199" preserveAspectRatio="xMidYMid"><path fill="#D52F2F" d="M348.444 20.348v133.588h40.127v-20.41h-13.258V0l-26.87.003.002 20.345zM0 133.525h13.64v-64.45H0V51.35l13.64-2.243V31.165C13.64 9.432 18.37 0 46.088 0c5.986 0 13.08.884 19.293 2.003L61.7 23.85c-4.208-.666-6.294-.785-8.953-.785-9.765 0-12.234.975-12.234 10.515v15.527h20.275v19.968H40.51v64.45h13.5v20.408L0 153.938v-20.413zm334.776-6.45c-4.203.887-7.88.78-10.54.845-11.052.272-10.097-3.362-10.097-13.785v-45.06h21.04V49.107h-21.04V0h-26.873v119.707c0 23.502 5.8 34.23 31.08 34.23 5.985 0 14.212-1.54 20.424-2.87l-3.994-23.992zM253.724 69.04v-3.576c-8.13-1.483-16.2-1.504-20.58-1.504-12.505 0-14.03 6.63-14.03 10.225 0 5.086 1.736 7.835 15.282 10.797 19.802 4.446 39.69 9.084 39.69 33.638 0 23.286-11.984 35.316-37.21 35.316-16.88 0-33.26-3.624-45.756-6.795v-20.065h20.348l-.012 3.565c8.756 1.69 17.938 1.522 22.73 1.522 13.34 0 15.497-7.17 15.497-10.984 0-5.29-3.825-7.832-16.328-10.368-23.555-4.024-42.25-12.067-42.25-35.994 0-22.648 15.148-31.532 40.374-31.532 17.09 0 30.084 2.65 42.587 5.823V69.04h-20.343zm-136.12 57.974v-3.16h-3.22v3.15c-14.42-.84-25.957-12.426-26.71-26.87h3.2v-3.22H87.69c.856-14.345 12.344-25.82 26.694-26.658v3.166h3.22v-3.175c14.144.756 25.538 11.85 26.77 25.865v.923h-3.226v3.22h3.226v.88c-1.225 14.02-12.62 25.123-26.77 25.88zm53.65.06l-.018-83.616h-26.87V51.3a54.923 54.923 0 0 0-18.27-6.912h.152V35.11h3.28v-6.824H102.47v6.824h3.278v9.28h.186c-25.7 4.73-45.175 27.235-45.175 54.303 0 30.505 24.728 55.234 55.232 55.234a54.974 54.974 0 0 0 28.46-7.892l4.84 7.902h28.383v-26.86h-6.423zm285.324-77.967H512v19.95h-13.25l-33.987 83.62c-9.74 23.488-25.742 45.596-50.107 45.596-5.993 0-13.97-.664-19.5-1.993l2.43-24.388c3.55.664 8.2 1.1 10.64 1.1 11.3 0 24.044-7 28.032-19.192l-34.44-84.744h-13.247v-19.95h55.45v19.95h-13.244l19.51 48 19.51-48h-13.218v-19.95zm-326.48 37.57l-2.046-2.046-10.385 9.05a4.93 4.93 0 0 0-1.67-.294c-2.803 0-5.07 2.335-5.07 5.212 0 2.882 2.267 5.216 5.07 5.216 2.8 0 5.074-2.334 5.074-5.216 0-.546-.08-1.072-.233-1.568l9.26-10.354"/></svg>