<svg xmlns="http://www.w3.org/2000/svg" viewBox="0 0 122 42">
  <path class="v" fill="#000000" d="M42 0L20.924 42 0 0"/>
  <path class="squares" fill="#FFFFFF" d="M16.13 10.864h2.435V8.43H16.13m3.653 2.434h2.435V8.43h-2.435m3.63 2.434h2.436V8.43h-2.44m-7.29 6.086h2.43V12.08h-2.43m3.65 2.436h2.434V12.08h-2.43m3.63 2.436h2.435V12.08H23.4m-7.283 6.088h2.434v-2.434h-2.43m3.656 2.434h2.43v-2.434h-2.43m0 6.086h2.436v-2.434h-2.43m3.654-1.218h2.434v-2.434h-2.44"/>
  <path class="text" fill="#000000" d="M63.75 28.392l5.233-18.037h4.257L66.772 32h-6.045L54.26 10.355h4.258l5.232 18.037zm21.767-6.825V32h-3.25l-.293-1.073c-1.43.943-3.12 1.398-4.712 1.398-2.893 0-4.128-1.983-4.128-4.713 0-3.217 1.398-4.452 4.615-4.452h3.8v-1.657c0-1.756-.49-2.373-3.025-2.373-1.43 0-2.99.195-4.388.488l-.49-3.023c1.496-.455 3.674-.747 5.43-.747 4.97 0 6.434 1.754 6.434 5.72zm-3.965 6.793v-2.34h-2.925c-1.3 0-1.658.358-1.658 1.56 0 1.105.353 1.593 1.59 1.593 1.17 0 2.24-.39 2.99-.813zm7.012-12.188v11.473c0 2.828.942 4.68 3.575 4.68 1.85 0 4.35-.683 6.332-1.658l.39 1.333h3.023V16.172H97.92v10.985c-1.43.748-3.152 1.333-4.127 1.333-.91 0-1.267-.422-1.267-1.267v-11.05H88.56zM109.388 32V9.152l-3.965.553V32h3.965zm11.497-3.315c-.683.195-1.398.325-1.983.325-1.04 0-1.43-.553-1.43-1.398v-8.287h3.803l.26-3.152h-4.063v-4.485l-3.965.552v3.932h-2.372v3.153h2.372v8.808c0 2.827 1.463 4.192 4.355 4.192 1.008 0 2.633-.26 3.478-.618l-.455-3.022z"/>
</svg>
