<svg width="89" height="25" fill="none" xmlns="http://www.w3.org/2000/svg"><path fill-rule="evenodd" clip-rule="evenodd" d="M17.79 24.084h-2.4V9.838h2.4v1.761c.86-1.21 2.268-1.915 3.942-1.915.308 0 .66.022.859.066l.176.022v2.554l-.242-.066c-.33-.088-.793-.132-1.277-.132-2.004 0-3.413 1.475-3.413 3.61v8.346h-.044ZM41.174 15.365c.242-2.092 2.158-3.744 4.382-3.744 2.07 0 3.765 1.652 3.875 3.744h-8.257Zm4.448 8.697c2.356 0 4.073-.727 5.526-2.378l.133-.132-1.542-1.586-.154.154c-1.079 1.145-2.092 1.806-3.985 1.806-2.664 0-4.404-1.695-4.58-4.47h10.79l.021-.198c.022-.396.022-.837.022-.859 0-1.937-.594-3.72-1.695-4.998-1.145-1.365-2.753-2.07-4.602-2.07-4.095 0-6.936 3.105-6.936 7.553v.11c0 4.227 2.819 7.068 7.002 7.068Z" fill="#fff"/><path d="M27.48 9.838h-2.4v14.246h2.4V9.838Z" fill="#fff"/><path fill-rule="evenodd" clip-rule="evenodd" d="M35.691 24.26c-.726 0-1.805-.067-2.664-.727-.924-.705-1.409-1.938-1.409-3.677V6.513h2.4v3.303h3.127v2.245h-3.127v7.795c0 1.805.639 2.158 1.651 2.158.375 0 .727 0 1.234-.088l.242-.044v2.201l-.154.044c-.507.11-.86.133-1.3.133ZM60.727 11.6c1.365 0 2.62.528 3.523 1.475.902.946 1.387 2.268 1.387 3.72 0 1.432-.485 2.753-1.388 3.722-.902.947-2.157 1.475-3.522 1.475-1.365 0-2.62-.528-3.523-1.475-.903-.947-1.388-2.268-1.388-3.721 0-1.454.485-2.775 1.388-3.721.902-.947 2.136-1.476 3.523-1.476Zm0 12.66c1.96 0 3.809-.749 5.174-2.114 1.387-1.387 2.158-3.28 2.158-5.35s-.77-3.964-2.158-5.35c-1.365-1.366-3.193-2.114-5.174-2.114-1.982 0-3.81.748-5.175 2.113-1.387 1.387-2.157 3.281-2.157 5.35 0 2.07.77 3.964 2.157 5.351 1.365 1.365 3.193 2.114 5.175 2.114ZM7.376 24.26c-1.982 0-3.831-.749-5.196-2.114C.77 20.76 0 18.866 0 16.818c0-2.048.77-3.964 2.158-5.35 1.365-1.366 3.214-2.114 5.196-2.114 2.092 0 3.897.726 5.24 2.091l.133.132-1.476 1.74-.154-.176c-.969-1.013-2.268-1.542-3.743-1.542-1.387 0-2.642.529-3.567 1.476-.903.946-1.409 2.268-1.409 3.72 0 1.432.506 2.753 1.41 3.722.902.947 2.179 1.475 3.566 1.475 1.497 0 2.774-.528 3.743-1.541l.154-.176 1.476 1.739-.133.132c-1.32 1.387-3.126 2.114-5.218 2.114ZM26.29 3.937a1.823 1.823 0 0 1-1.828-1.828c0-1.012.815-1.85 1.827-1.85 1.013 0 1.828.838 1.828 1.85a1.823 1.823 0 0 1-1.828 1.828ZM86.246 24.26c-1.013 0-1.828-.837-1.828-1.85 0-1.013.815-1.827 1.828-1.827 1.012 0 1.827.814 1.827 1.827s-.815 1.85-1.827 1.85Z" fill="#fff"/><path fill-rule="evenodd" clip-rule="evenodd" d="M81.027 21.552h-4.866c-1.255 0-2.29-1.013-2.29-2.268V4.972c0-2.048-1.673-3.721-3.743-3.721H31.53v1.651h38.378c1.255 0 2.29 1.013 2.29 2.268v14.312c0 2.048 1.673 3.721 3.743 3.721h5.086v-1.651Z" fill="#fff"/></svg>