<svg xmlns="http://www.w3.org/2000/svg" xmlns:xlink="http://www.w3.org/1999/xlink" viewBox="0 0 1183 790">
  <defs>
    <rect id="b" width="150" height="150" rx="2"/>
    <filter id="a" width="112.7%" height="112.7%" x="-6.3%" y="-5.7%" filterUnits="objectBoundingBox">
      <feOffset dy="1" in="SourceAlpha" result="shadowOffsetOuter1"/>
      <feGaussianBlur in="shadowOffsetOuter1" result="shadowBlurOuter1" stdDeviation="3"/>
      <feColorMatrix in="shadowBlurOuter1" values="0 0 0 0 0.37254902 0 0 0 0 0.388235294 0 0 0 0 0.407843137 0 0 0 0.5 0"/>
    </filter>
  </defs>
  <g fill="none" fill-rule="evenodd">
    <path fill="#3C4043" d="M53.592 216h-3.375v-25.594h3.375V216zm8.736-19.02l.106 2.391c1.453-1.828 3.351-2.742 5.695-2.742 4.02 0 6.047 2.267 6.082 6.803V216h-3.252v-12.586c-.012-1.371-.325-2.385-.94-3.041-.616-.656-1.574-.984-2.874-.984-1.055 0-1.98.28-2.778.843a5.73 5.73 0 0 0-1.863 2.215V216h-3.252v-19.02h3.076zm27.861 13.975c0-.879-.33-1.561-.993-2.048-.662-.486-1.816-.905-3.463-1.257-1.646-.351-2.953-.773-3.92-1.265-.966-.492-1.681-1.078-2.144-1.758-.463-.68-.694-1.488-.694-2.426 0-1.558.659-2.877 1.977-3.955 1.319-1.078 3.003-1.617 5.054-1.617 2.156 0 3.905.557 5.247 1.67s2.013 2.537 2.013 4.271h-3.27c0-.89-.378-1.658-1.134-2.302-.756-.645-1.708-.967-2.856-.967-1.184 0-2.11.258-2.777.773-.668.516-1.002 1.19-1.002 2.022 0 .785.31 1.377.931 1.775.621.399 1.743.78 3.366 1.143s2.939.797 3.947 1.3c1.008.504 1.755 1.11 2.24 1.82.487.709.73 1.573.73 2.593 0 1.699-.68 3.061-2.039 4.086-1.359 1.026-3.123 1.539-5.29 1.539-1.524 0-2.872-.27-4.044-.809-1.172-.54-2.089-1.292-2.75-2.259-.663-.967-.994-2.013-.994-3.138h3.252c.059 1.09.495 1.955 1.31 2.593.814.639 1.89.958 3.225.958 1.23 0 2.218-.249 2.962-.747.744-.498 1.116-1.163 1.116-1.995zm11.9-18.58v4.605h3.552v2.514h-3.551v11.795c0 .762.158 1.333.474 1.714.317.38.856.571 1.618.571.375 0 .89-.07 1.547-.21V216a9.428 9.428 0 0 1-2.497.352c-1.453 0-2.548-.44-3.287-1.319-.738-.879-1.107-2.127-1.107-3.744v-11.795h-3.463v-2.514h3.463v-4.605h3.252zM121.18 216c-.187-.375-.34-1.043-.456-2.004-1.512 1.57-3.317 2.356-5.414 2.356-1.875 0-3.413-.53-4.615-1.591-1.2-1.06-1.801-2.406-1.801-4.034 0-1.98.752-3.519 2.258-4.615 1.506-1.095 3.624-1.643 6.355-1.643h3.164v-1.494c0-1.137-.34-2.042-1.02-2.716-.68-.674-1.681-1.011-3.005-1.011-1.16 0-2.133.293-2.918.879-.786.586-1.178 1.295-1.178 2.127h-3.27c0-.95.337-1.866 1.011-2.751.674-.885 1.588-1.585 2.742-2.1 1.155-.516 2.423-.774 3.806-.774 2.191 0 3.908.548 5.15 1.643 1.242 1.096 1.887 2.605 1.934 4.527v8.754c0 1.746.223 3.134.668 4.166V216h-3.41zm-5.396-2.479c1.02 0 1.987-.263 2.9-.79.915-.528 1.577-1.213 1.987-2.057v-3.903h-2.549c-3.984 0-5.976 1.166-5.976 3.499 0 1.02.34 1.816 1.02 2.39.679.574 1.552.861 2.618.861zm16.313-16.54l.105 2.39c1.453-1.828 3.352-2.742 5.695-2.742 4.02 0 6.047 2.267 6.083 6.803V216h-3.252v-12.586c-.012-1.371-.326-2.385-.94-3.041-.616-.656-1.574-.984-2.875-.984-1.055 0-1.98.28-2.777.843a5.73 5.73 0 0 0-1.864 2.215V216h-3.251v-19.02h3.076zm24.416 16.716c1.16 0 2.174-.351 3.04-1.054.868-.704 1.348-1.582 1.442-2.637h3.076c-.058 1.09-.433 2.127-1.125 3.111-.691.985-1.614 1.77-2.768 2.356a7.988 7.988 0 0 1-3.665.879c-2.59 0-4.65-.865-6.179-2.593-1.53-1.729-2.294-4.093-2.294-7.093v-.545c0-1.851.34-3.498 1.02-4.94.68-1.44 1.655-2.56 2.926-3.357 1.272-.797 2.775-1.195 4.51-1.195 2.132 0 3.904.639 5.317 1.916 1.412 1.277 2.165 2.935 2.258 4.975h-3.076c-.094-1.23-.56-2.242-1.397-3.033-.838-.79-1.872-1.186-3.103-1.186-1.652 0-2.932.595-3.84 1.784-.909 1.19-1.363 2.91-1.363 5.16v.614c0 2.192.451 3.88 1.354 5.063.902 1.183 2.19 1.775 3.867 1.775zm19.107 2.655c-2.578 0-4.676-.847-6.293-2.54-1.617-1.694-2.426-3.958-2.426-6.794v-.598c0-1.887.36-3.571 1.081-5.054.721-1.482 1.729-2.642 3.024-3.48 1.295-.838 2.698-1.257 4.21-1.257 2.473 0 4.394.814 5.765 2.443 1.372 1.63 2.057 3.961 2.057 6.996v1.354h-12.885c.047 1.875.595 3.39 1.644 4.544 1.049 1.154 2.382 1.731 3.999 1.731 1.148 0 2.121-.234 2.918-.703a7.332 7.332 0 0 0 2.092-1.863l1.986 1.547c-1.594 2.449-3.984 3.674-7.172 3.674zm-.404-17.051c-1.313 0-2.414.477-3.305 1.432-.89.955-1.441 2.294-1.652 4.017h9.527v-.246c-.094-1.652-.539-2.933-1.336-3.84-.797-.91-1.875-1.363-3.234-1.363z"/>
    <g fill-rule="nonzero">
      <path fill="#4285F4" d="M1119.539 72.397L1085.53 13.25a14.948 14.948 0 0 0-12.75-7.603h-68.03A14.935 14.935 0 0 0 992 13.25l-34.022 58.991a14.845 14.845 0 0 0 0 14.793l34.01 59.483a15.22 15.22 0 0 0 12.75 7.875h68.03a15.168 15.168 0 0 0 12.762-7.836l34.009-59.147a15.168 15.168 0 0 0 0-15.012z"/>
      <path fill="#000" d="M1071.086 55.224l-50.43-1.086-3.88 44.612 2.935 10.086 45.517 45.517h7.54a15.168 15.168 0 0 0 12.762-7.836l28.06-48.789-42.504-42.504z" opacity=".07"/>
      <path fill="#FFF" d="M1038.759 40.858l-32.328 14.366V76.78c0 19.94 13.797 38.573 32.328 43.1 18.53-4.527 32.327-23.173 32.327-43.1V55.224l-32.327-14.366zm0 15.22c5.713 0 10.344 4.631 10.344 10.344 0 5.714-4.631 10.345-10.344 10.345-5.714 0-10.345-4.631-10.345-10.345 0-5.713 4.631-10.344 10.345-10.344zm19.396 42.775c0 .258-.076.51-.22.725-.232.349-.465.71-.724 1.047a36.039 36.039 0 0 1-18.452 13.228 36.039 36.039 0 0 1-18.453-13.163c-.259-.337-.491-.699-.724-1.048a1.293 1.293 0 0 1-.22-.724v-5.806c0-7.927 12.931-11.922 19.397-11.922 6.465 0 19.396 3.982 19.396 11.922v5.741z"/>
    </g>
    <path fill="#000" fill-rule="nonzero" d="M596.754 740.299h9.297l-14.126 48.09h-13.222l-14.119-48.09h9.294l11.451 40.007 11.425-40.007zm35.18 47.997h-7.102l-.629-2.288a18.661 18.661 0 0 1-10.279 3.092c-6.32 0-9.022-4.4-9.022-10.444 0-7.153 3.058-9.871 10.092-9.871h8.309v-3.687c0-3.891-1.054-5.267-6.61-5.267a47.72 47.72 0 0 0-9.582 1.07l-1.053-6.711a44.618 44.618 0 0 1 11.876-1.648c10.874 0 14.068 3.89 14.068 12.692v23.056l-.068.006zm-8.665-13.257h-6.406c-2.837 0-3.636.798-3.636 3.457 0 2.656.799 3.526 3.483 3.526a13.372 13.372 0 0 0 6.542-1.808l.034-5.175h-.017zm22.291-21.824v24.503c0 1.878.798 2.815 2.786 2.815a23.682 23.682 0 0 0 9.04-2.952v-24.364h8.664v35.101h-6.609l-.85-3.044a34.213 34.213 0 0 1-13.779 3.755c-5.742 0-7.798-4.098-7.798-10.373v-25.451h8.597l-.051.01zm25.078 35.081v-49.441l8.665-1.212v50.677l-8.665-.024zm34.524-.732a23.749 23.749 0 0 1-7.595 1.376c-6.32 0-9.514-3.024-9.514-9.298v-19.573h-5.182v-6.881h5.199v-8.716l8.648-1.24v9.956h8.869l-.544 6.864h-8.325v18.315a2.841 2.841 0 0 0 .798 2.345 2.687 2.687 0 0 0 2.328.747 16.99 16.99 0 0 0 4.332-.713l1.037 6.779-.051.04zM548 535l87.194 175L723 535H548zm97.572 35.13h10.15v10.085h-10.15V570.13zm-20.212 40.693h-10.15V600.56h10.15v10.263zm0-15.214h-10.15v-10.262h10.15v10.262zm0-15.214h-10.15v-10.262h10.15v10.262zm15.329 45.53h-10.262v-10.15h10.262v10.15zm0-15.215h-10.262v-10.143h10.262v10.16-.017zm0-15.206h-10.262v-10.143h10.262v10.16-.017zm0-15.274h-10.262v-10.075h10.262v10.092-.017zm4.995 5.063h10.152v10.16h-10.28l.102-10.143.026-.017zm0 25.366v-10.075h10.152v10.16l-10.16-.068.008-.017z"/>
    <g fill-rule="nonzero">
      <g transform="translate(41 5)">
        <use fill="#000" filter="url(#a)" xlink:href="#b"/>
        <use fill="#FFF" xlink:href="#b"/>
      </g>
      <path fill="#9AA0A6" d="M146.87 70.009a1.41 1.41 0 0 0 1.436-1.41v-2.302a1.41 1.41 0 0 0-1.41-1.409h-7.202v-6.75a1.578 1.578 0 0 0-1.565-1.565h-6.737V49.41a1.41 1.41 0 0 0-1.41-1.41h-2.3a1.41 1.41 0 0 0-1.359 1.41v7.202h-7.629V49.41a1.41 1.41 0 0 0-1.422-1.41h-2.276a1.41 1.41 0 0 0-1.41 1.41v7.202h-7.577V49.41a1.41 1.41 0 0 0-1.41-1.41h-2.302a1.41 1.41 0 0 0-1.409 1.41v7.202h-6.724c-.852 0-1.55.675-1.578 1.526v6.711H85.41A1.41 1.41 0 0 0 84 66.26v2.301a1.41 1.41 0 0 0 1.41 1.41h7.176v7.565H85.41A1.41 1.41 0 0 0 84 78.944v2.34a1.41 1.41 0 0 0 1.41 1.423h7.176v7.578H85.41A1.41 1.41 0 0 0 84 91.694v2.302a1.41 1.41 0 0 0 1.41 1.41h7.176v6.698a1.578 1.578 0 0 0 1.565 1.564h6.737v7.203c0 .778.631 1.41 1.41 1.41h2.301a1.41 1.41 0 0 0 1.41-1.41v-7.203h7.577v7.203c0 .778.631 1.41 1.41 1.41h2.276a1.41 1.41 0 0 0 1.41-1.41v-7.203h7.641v7.203c0 .778.631 1.41 1.41 1.41h2.302a1.41 1.41 0 0 0 1.409-1.41v-7.203h6.737a1.578 1.578 0 0 0 1.513-1.564v-6.712h7.177a1.41 1.41 0 0 0 1.435-1.41v-2.3a1.41 1.41 0 0 0-1.41-1.41h-7.202v-7.565h7.177a1.41 1.41 0 0 0 1.435-1.422v-2.29a1.41 1.41 0 0 0-1.435-1.46h-7.177v-7.526h7.177zm-12.478 28.448H97.875V61.888h36.517v36.569z"/>
    </g>
    <path stroke="#5F6368" stroke-linecap="square" stroke-width="5" d="M727.5 628.5h311"/>
    <path fill="#5F6368" fill-rule="nonzero" d="M1042 422h-5V288h-12l14.5-29 14.5 29h-12v134zm0 62v147h-5V484h5zM119 422h-5V248h5v174zm0 62v147h-5V484h5zM514 631H119v-5h395v-12l29 14.5-29 14.5z"/>
    <path fill="#3C4043" d="M12.647 464H.537v-1.688l6.398-7.11c.947-1.075 1.601-1.949 1.961-2.621.36-.673.54-1.37.54-2.089 0-.965-.292-1.756-.876-2.374-.584-.618-1.363-.927-2.336-.927-1.168 0-2.076.333-2.724.997-.647.664-.97 1.589-.97 2.774H.18c0-1.701.549-3.077 1.645-4.126 1.096-1.05 2.562-1.574 4.399-1.574 1.718 0 3.076.45 4.075 1.352.999.901 1.498 2.1 1.498 3.599 0 1.82-1.16 3.986-3.479 6.5l-4.95 5.37h9.28V464zm2.78-1.231c0-.407.121-.745.363-1.016.24-.27.603-.406 1.085-.406s.848.135 1.098.406c.25.27.375.61.375 1.016 0 .389-.125.715-.375.977s-.616.394-1.098.394c-.482 0-.844-.132-1.085-.394-.242-.262-.362-.588-.362-.977zm19.044-7.008c-2.09-.601-3.612-1.34-4.564-2.216-.952-.876-1.428-1.957-1.428-3.243 0-1.456.581-2.66 1.745-3.612 1.164-.952 2.677-1.428 4.539-1.428 1.27 0 2.401.245 3.396.736.994.49 1.764 1.168 2.31 2.031.546.864.82 1.807.82 2.831h-2.451c0-1.117-.356-1.995-1.067-2.634-.71-.639-1.713-.958-3.008-.958-1.202 0-2.14.264-2.812.793-.673.529-1.01 1.263-1.01 2.203 0 .753.32 1.39.959 1.91s1.726.997 3.263 1.429c1.536.431 2.738.907 3.605 1.428.868.52 1.51 1.128 1.93 1.822.419.694.628 1.51.628 2.45 0 1.498-.584 2.697-1.752 3.599-1.168.901-2.73 1.352-4.684 1.352a8.688 8.688 0 0 1-3.555-.73c-1.1-.487-1.949-1.153-2.545-2-.597-.846-.895-1.807-.895-2.881h2.45c0 1.117.412 2 1.238 2.647.825.647 1.927.97 3.307.97 1.286 0 2.272-.262 2.958-.786.685-.525 1.028-1.24 1.028-2.146 0-.905-.317-1.606-.952-2.1-.635-.496-1.786-.985-3.453-1.467zm15.31 8.493c-1.862 0-3.377-.612-4.545-1.835-1.168-1.223-1.752-2.858-1.752-4.906v-.432c0-1.363.26-2.58.781-3.65.52-1.07 1.249-1.908 2.184-2.514a5.49 5.49 0 0 1 3.04-.907c1.786 0 3.174.588 4.164 1.764.99 1.177 1.486 2.861 1.486 5.053v.978h-9.306c.034 1.354.43 2.448 1.187 3.281.758.834 1.72 1.25 2.888 1.25.83 0 1.532-.168 2.108-.507a5.295 5.295 0 0 0 1.51-1.346l1.435 1.118c-1.151 1.768-2.878 2.653-5.18 2.653zm-.292-12.315c-.948 0-1.743.345-2.386 1.035-.644.69-1.041 1.657-1.194 2.901h6.881v-.178c-.068-1.193-.39-2.118-.965-2.774-.575-.656-1.354-.984-2.336-.984zm10.588-1.675l.076 1.726c1.05-1.32 2.42-1.98 4.114-1.98 2.903 0 4.367 1.637 4.392 4.913V464h-2.348v-9.09c-.009-.99-.235-1.722-.68-2.196-.444-.474-1.136-.711-2.075-.711-.762 0-1.43.203-2.006.61a4.138 4.138 0 0 0-1.346 1.599V464h-2.349v-13.736h2.222zm11.553 6.754c0-2.108.5-3.803 1.498-5.085.999-1.282 2.306-1.923 3.923-1.923 1.608 0 2.882.55 3.821 1.65v-7.16h2.349V464h-2.159l-.114-1.473c-.94 1.151-2.247 1.727-3.923 1.727-1.59 0-2.888-.652-3.89-1.955-1.004-1.304-1.505-3.005-1.505-5.104v-.177zm2.349.266c0 1.557.321 2.776.964 3.656.644.88 1.532 1.32 2.666 1.32 1.49 0 2.578-.668 3.263-2.005v-6.31c-.702-1.295-1.781-1.942-3.237-1.942-1.151 0-2.048.444-2.692 1.333-.643.889-.964 2.205-.964 3.948zm25.136-1.523c-2.09-.601-3.612-1.34-4.564-2.216-.952-.876-1.428-1.957-1.428-3.243 0-1.456.582-2.66 1.746-3.612 1.163-.952 2.676-1.428 4.538-1.428 1.27 0 2.402.245 3.396.736.995.49 1.765 1.168 2.31 2.031.547.864.82 1.807.82 2.831h-2.45c0-1.117-.356-1.995-1.067-2.634-.71-.639-1.714-.958-3.009-.958-1.202 0-2.139.264-2.812.793s-1.01 1.263-1.01 2.203c0 .753.32 1.39.96 1.91.638.52 1.726.997 3.262 1.429 1.536.431 2.738.907 3.606 1.428.867.52 1.51 1.128 1.93 1.822.418.694.628 1.51.628 2.45 0 1.498-.584 2.697-1.752 3.599-1.168.901-2.73 1.352-4.685 1.352a8.688 8.688 0 0 1-3.555-.73c-1.1-.487-1.948-1.153-2.545-2-.597-.846-.895-1.807-.895-2.881h2.45c0 1.117.413 2 1.238 2.647.825.647 1.928.97 3.307.97 1.287 0 2.273-.262 2.958-.786.686-.525 1.029-1.24 1.029-2.146 0-.905-.318-1.606-.953-2.1-.634-.496-1.785-.985-3.453-1.467zM111.277 464h-2.348v-13.736h2.348V464zm-2.539-17.38c0-.38.117-.702.35-.965.232-.262.577-.393 1.034-.393.457 0 .804.13 1.041.393.237.263.356.584.356.965s-.119.698-.356.952-.584.381-1.04.381c-.458 0-.803-.127-1.036-.38-.232-.255-.349-.572-.349-.953zm5.739 10.398c0-2.142.495-3.845 1.485-5.11.99-1.266 2.302-1.898 3.935-1.898 1.676 0 2.984.592 3.923 1.777l.115-1.523h2.145v13.406c0 1.777-.527 3.178-1.58 4.202-1.054 1.024-2.47 1.536-4.247 1.536-.99 0-1.96-.211-2.907-.635-.948-.423-1.672-1.002-2.171-1.739l1.219-1.409c1.007 1.244 2.238 1.866 3.694 1.866 1.142 0 2.033-.321 2.672-.965.64-.643.959-1.548.959-2.716v-1.181c-.94 1.083-2.222 1.625-3.847 1.625-1.608 0-2.91-.648-3.904-1.942-.994-1.295-1.491-3.06-1.491-5.294zm2.36.266c0 1.549.318 2.766.953 3.65.635.885 1.523 1.327 2.666 1.327 1.481 0 2.569-.673 3.263-2.019v-6.271c-.72-1.312-1.799-1.968-3.238-1.968-1.142 0-2.035.444-2.678 1.333-.643.889-.965 2.205-.965 3.948zm15.007-7.02l.076 1.726c1.05-1.32 2.42-1.98 4.113-1.98 2.903 0 4.367 1.637 4.393 4.913V464h-2.349v-9.09c-.008-.99-.235-1.722-.68-2.196-.443-.474-1.135-.711-2.075-.711-.761 0-1.43.203-2.006.61a4.138 4.138 0 0 0-1.345 1.599V464h-2.349v-13.736h2.222zm17.824 13.99c-1.862 0-3.377-.612-4.545-1.835-1.168-1.223-1.752-2.858-1.752-4.906v-.432c0-1.363.26-2.58.78-3.65.521-1.07 1.25-1.908 2.184-2.514a5.49 5.49 0 0 1 3.041-.907c1.786 0 3.174.588 4.164 1.764.99 1.177 1.485 2.861 1.485 5.053v.978h-9.305c.034 1.354.43 2.448 1.187 3.281.757.834 1.72 1.25 2.888 1.25.83 0 1.532-.168 2.107-.507a5.295 5.295 0 0 0 1.511-1.346l1.435 1.118c-1.151 1.768-2.878 2.653-5.18 2.653zm-.292-12.315c-.948 0-1.744.345-2.387 1.035s-1.04 1.657-1.193 2.901h6.88v-.178c-.067-1.193-.389-2.118-.964-2.774-.576-.656-1.354-.984-2.336-.984zm7.795 5.079c0-2.108.5-3.803 1.498-5.085.999-1.282 2.306-1.923 3.923-1.923 1.608 0 2.882.55 3.821 1.65v-7.16h2.349V464h-2.158l-.115-1.473c-.94 1.151-2.247 1.727-3.923 1.727-1.59 0-2.888-.652-3.89-1.955-1.004-1.304-1.505-3.005-1.505-5.104v-.177zm2.349.266c0 1.557.321 2.776.964 3.656.644.88 1.532 1.32 2.666 1.32 1.49 0 2.578-.668 3.263-2.005v-6.31c-.702-1.295-1.781-1.942-3.237-1.942-1.151 0-2.048.444-2.692 1.333-.643.889-.964 2.205-.964 3.948zm27.434-11.768h2.45v13.088c0 1.77-.53 3.153-1.593 4.152-1.062.999-2.478 1.498-4.247 1.498-1.836 0-3.266-.47-4.29-1.41-1.025-.939-1.537-2.255-1.537-3.948h2.438c0 1.058.29 1.884.87 2.476.58.593 1.42.889 2.52.889 1.007 0 1.821-.318 2.443-.952.622-.635.938-1.524.946-2.666v-13.127zm10.588 12.657l.355 2.437.521-2.196 3.656-12.898h2.057l3.567 12.898.508 2.234.394-2.488 2.869-12.644h2.45L209.437 464h-2.221l-3.809-13.47-.292-1.409-.292 1.41L198.875 464h-2.222l-4.468-18.484h2.437l2.92 12.657zm32.03-10.652h-5.941V464h-2.425v-16.479h-5.929v-2.005h14.295v2.005z"/>
    <g fill-rule="nonzero">
      <path fill="#4285F4" d="M779.039 72.397L745.03 13.25a14.948 14.948 0 0 0-12.75-7.603h-68.03a14.935 14.935 0 0 0-12.75 7.603l-34.022 58.991a14.845 14.845 0 0 0 0 14.793l34.01 59.483a15.22 15.22 0 0 0 12.75 7.875h68.03a15.168 15.168 0 0 0 12.762-7.836l34.009-59.147a15.168 15.168 0 0 0 0-15.012z"/>
      <path fill="#000" d="M769.276 104.336L713.31 48.358l-4.008 8.69-8.742-8.729-4.034 8.65-8.612-8.624-2.147 10.448-7.68 1.293-1.591 6.828-9.931 2.38 8.896 8.896-8.806 3.879 8.806 8.806-8.858 3.866 59.613 59.612h6.051a15.168 15.168 0 0 0 12.763-7.836l24.246-42.18z" opacity=".07"/>
      <path fill="#FFF" d="M705.797 71.078h-14.754a1.578 1.578 0 0 0-1.565 1.564v14.755c0 .866.699 1.57 1.565 1.577h14.754a1.578 1.578 0 0 0 1.513-1.577V72.642a1.578 1.578 0 0 0-1.564-1.564"/>
      <path fill="#FFF" d="M729.15 69.888a1.41 1.41 0 0 0 1.436-1.41v-2.301a1.41 1.41 0 0 0-1.41-1.41h-7.202v-6.75a1.578 1.578 0 0 0-1.565-1.564h-6.737v-7.164a1.41 1.41 0 0 0-1.41-1.41h-2.3a1.41 1.41 0 0 0-1.359 1.41v7.202h-7.629V49.29a1.41 1.41 0 0 0-1.422-1.41h-2.276a1.41 1.41 0 0 0-1.41 1.41v7.202h-7.577V49.29a1.41 1.41 0 0 0-1.41-1.41h-2.301a1.41 1.41 0 0 0-1.41 1.41v7.202h-6.724c-.852 0-1.55.675-1.578 1.526v6.711h-7.176a1.41 1.41 0 0 0-1.41 1.41v2.302a1.41 1.41 0 0 0 1.41 1.41h7.176v7.564h-7.176a1.41 1.41 0 0 0-1.41 1.41v2.34a1.41 1.41 0 0 0 1.41 1.422h7.176v7.578h-7.176a1.41 1.41 0 0 0-1.41 1.41v2.301a1.41 1.41 0 0 0 1.41 1.41h7.176v6.698a1.578 1.578 0 0 0 1.565 1.564h6.737v7.203c0 .778.631 1.41 1.41 1.41h2.301a1.41 1.41 0 0 0 1.41-1.41v-7.203h7.577v7.203c0 .778.631 1.41 1.41 1.41h2.276a1.41 1.41 0 0 0 1.41-1.41v-7.203h7.641v7.203c0 .778.631 1.41 1.41 1.41h2.302a1.41 1.41 0 0 0 1.41-1.41v-7.203h6.736a1.578 1.578 0 0 0 1.513-1.564v-6.711h7.177a1.41 1.41 0 0 0 1.435-1.41V91.56a1.41 1.41 0 0 0-1.41-1.41h-7.202v-7.564h7.177a1.41 1.41 0 0 0 1.435-1.422v-2.289a1.41 1.41 0 0 0-1.435-1.461h-7.177v-7.526h7.177zm-12.478 28.448h-36.517V61.767h36.517v36.57z"/>
    </g>
    <path fill="#3C4043" d="M647.205 206.824c-.316 2.707-1.315 4.796-2.997 6.267-1.682 1.47-3.917 2.206-6.706 2.206-3.023 0-5.446-1.084-7.269-3.252-1.822-2.168-2.733-5.068-2.733-8.701v-2.461c0-2.38.425-4.47 1.274-6.276.85-1.804 2.054-3.19 3.613-4.157 1.558-.967 3.363-1.45 5.414-1.45 2.719 0 4.898.759 6.539 2.276 1.64 1.518 2.596 3.619 2.865 6.302h-3.393c-.292-2.039-.928-3.515-1.907-4.43-.978-.914-2.346-1.37-4.104-1.37-2.156 0-3.847.796-5.072 2.39-1.224 1.594-1.836 3.861-1.836 6.803v2.478c0 2.778.58 4.987 1.74 6.627 1.16 1.64 2.783 2.461 4.869 2.461 1.875 0 3.313-.425 4.315-1.274 1.002-.85 1.667-2.33 1.995-4.439h3.393zm3.234-1.564c0-1.864.367-3.54 1.1-5.028.732-1.488 1.751-2.636 3.058-3.445 1.306-.808 2.798-1.213 4.473-1.213 2.59 0 4.685.897 6.284 2.69 1.6 1.793 2.4 4.177 2.4 7.154v.228c0 1.852-.355 3.513-1.064 4.984-.709 1.47-1.722 2.616-3.04 3.436-1.319.82-2.834 1.23-4.545 1.23-2.578 0-4.667-.896-6.266-2.689-1.6-1.793-2.4-4.166-2.4-7.119v-.228zm3.27.386c0 2.11.49 3.803 1.468 5.08.978 1.278 2.288 1.917 3.928 1.917 1.653 0 2.965-.648 3.938-1.943.973-1.295 1.459-3.108 1.459-5.44 0-2.086-.495-3.777-1.485-5.072-.99-1.294-2.306-1.942-3.947-1.942-1.605 0-2.9.639-3.884 1.916-.985 1.277-1.477 3.106-1.477 5.484zm21.182-9.72l.088 2.11c1.394-1.641 3.275-2.462 5.642-2.462 2.66 0 4.47 1.02 5.432 3.059a7.205 7.205 0 0 1 2.47-2.215c1.013-.563 2.211-.844 3.594-.844 4.172 0 6.293 2.21 6.363 6.627v12.744h-3.251v-12.55c0-1.36-.311-2.376-.932-3.05-.621-.674-1.664-1.011-3.129-1.011-1.207 0-2.209.36-3.006 1.081-.797.72-1.26 1.69-1.389 2.91v12.62h-3.27v-12.463c0-2.765-1.353-4.148-4.06-4.148-2.132 0-3.591.908-4.377 2.725v13.886h-3.252v-19.02h3.077zm44.56 9.72c0 2.895-.662 5.227-1.986 6.997-1.324 1.77-3.117 2.654-5.38 2.654-2.308 0-4.124-.733-5.448-2.197v9.158h-3.252v-26.332h2.97l.159 2.11c1.324-1.641 3.164-2.462 5.52-2.462 2.284 0 4.092.862 5.422 2.584 1.33 1.723 1.995 4.12 1.995 7.19v.298zm-3.252-.369c0-2.144-.457-3.838-1.37-5.08-.915-1.242-2.169-1.863-3.763-1.863-1.968 0-3.445.873-4.43 2.62v9.087c.973 1.734 2.462 2.602 4.466 2.602 1.558 0 2.797-.619 3.717-1.855.92-1.236 1.38-3.073 1.38-5.51zm19.125 7.787c-1.265 1.489-3.123 2.233-5.572 2.233-2.027 0-3.571-.589-4.632-1.767-1.06-1.177-1.597-2.92-1.608-5.23v-12.374h3.252v12.287c0 2.883 1.172 4.324 3.515 4.324 2.485 0 4.137-.926 4.957-2.777v-13.834h3.252v19.02h-3.093l-.07-1.882zm12.516-21.744v4.606h3.55v2.513h-3.55v11.795c0 .762.158 1.333.474 1.714.317.381.856.572 1.618.572.375 0 .89-.07 1.547-.211v2.636a9.428 9.428 0 0 1-2.497.352c-1.453 0-2.548-.44-3.287-1.318-.738-.88-1.107-2.127-1.107-3.745V198.44h-3.463v-2.513h3.463v-4.606h3.252zm15.24 23.977c-2.578 0-4.676-.847-6.293-2.54-1.617-1.694-2.426-3.958-2.426-6.794v-.598c0-1.886.36-3.571 1.081-5.053.721-1.483 1.729-2.643 3.024-3.48 1.295-.839 2.698-1.258 4.21-1.258 2.472 0 4.394.815 5.765 2.444 1.372 1.628 2.057 3.96 2.057 6.996v1.353h-12.885c.047 1.875.595 3.39 1.644 4.544 1.049 1.154 2.382 1.732 3.999 1.732 1.148 0 2.12-.235 2.918-.704a7.332 7.332 0 0 0 2.092-1.863l1.986 1.547c-1.594 2.45-3.984 3.674-7.172 3.674zm-.404-17.05c-1.313 0-2.414.477-3.305 1.432-.89.955-1.441 2.294-1.652 4.016h9.527v-.246c-.094-1.652-.539-2.932-1.336-3.84-.797-.909-1.875-1.363-3.234-1.363zM965.584 204.03c0 2.507-.422 4.696-1.266 6.565-.843 1.869-2.039 3.296-3.586 4.28-1.546.984-3.351 1.477-5.414 1.477-2.015 0-3.802-.496-5.361-1.486-1.559-.99-2.769-2.402-3.63-4.236-.861-1.834-1.304-3.958-1.327-6.372v-1.846c0-2.46.428-4.635 1.283-6.521.856-1.887 2.066-3.331 3.63-4.333 1.565-1.002 3.355-1.503 5.37-1.503 2.051 0 3.859.495 5.423 1.485 1.565.99 2.769 2.426 3.612 4.307.844 1.88 1.266 4.069 1.266 6.565v1.617zm-3.357-1.653c0-3.035-.61-5.364-1.829-6.987-1.218-1.623-2.923-2.435-5.115-2.435-2.133 0-3.811.812-5.036 2.435-1.225 1.623-1.854 3.876-1.89 6.758v1.881c0 2.942.619 5.253 1.855 6.935 1.236 1.682 2.938 2.522 5.106 2.522 2.18 0 3.868-.794 5.063-2.382 1.195-1.587 1.81-3.864 1.846-6.829v-1.898zm22.183 6.943h-10.722l-2.409 6.68h-3.48l9.773-25.594h2.953L990.316 216h-3.462l-2.444-6.68zm-9.703-2.777h8.701l-4.36-11.97-4.341 11.97zm30.094 7.576c-1.266 1.488-3.123 2.233-5.572 2.233-2.028 0-3.572-.59-4.632-1.767-1.06-1.178-1.597-2.92-1.609-5.23V196.98h3.252v12.288c0 2.882 1.172 4.324 3.516 4.324 2.484 0 4.137-.926 4.957-2.778V196.98h3.252V216h-3.094l-.07-1.88zm12.515-21.744v4.605h3.551v2.514h-3.55v11.795c0 .762.158 1.333.474 1.714.316.38.855.571 1.617.571.375 0 .89-.07 1.547-.21V216a9.428 9.428 0 0 1-2.496.352c-1.453 0-2.549-.44-3.287-1.319s-1.108-2.127-1.108-3.744v-11.795h-3.462v-2.514h3.462v-4.605h3.252zm10.6 6.908c1.441-1.77 3.316-2.654 5.625-2.654 4.02 0 6.047 2.267 6.082 6.803V216h-3.252v-12.586c-.012-1.371-.325-2.385-.94-3.041-.616-.656-1.574-.984-2.874-.984-1.055 0-1.98.28-2.778.843a5.73 5.73 0 0 0-1.863 2.215V216h-3.252v-27h3.252v10.283zM1069.84 216h-16.77v-2.338l8.86-9.844c1.312-1.488 2.217-2.698 2.716-3.63.498-.931.747-1.895.747-2.891 0-1.336-.405-2.432-1.213-3.287-.809-.856-1.887-1.283-3.235-1.283-1.617 0-2.874.46-3.77 1.38-.897.92-1.345 2.2-1.345 3.84h-3.252c0-2.355.759-4.26 2.276-5.713 1.518-1.453 3.548-2.18 6.091-2.18 2.38 0 4.26.625 5.643 1.873s2.074 2.909 2.074 4.983c0 2.52-1.605 5.52-4.816 9l-6.856 7.436h12.85V216zm27.334-6.68h-10.723l-2.408 6.68h-3.48l9.773-25.594h2.953L1103.08 216h-3.463l-2.443-6.68zm-9.703-2.777h8.7l-4.359-11.97-4.341 11.97zm22.43-.563V216h-3.376v-25.594h9.44c2.8 0 4.995.715 6.583 2.145 1.588 1.43 2.382 3.322 2.382 5.678 0 2.484-.777 4.397-2.33 5.739-1.552 1.342-3.776 2.012-6.67 2.012h-6.03zm0-2.76h6.064c1.805 0 3.187-.424 4.148-1.274.961-.85 1.442-2.077 1.442-3.682 0-1.524-.48-2.743-1.442-3.657-.96-.914-2.279-1.388-3.955-1.423h-6.258v10.037zm22.956 12.78h-3.375v-25.594h3.375V216z"/>
    <path fill="#5F6368" fill-rule="nonzero" d="M295 85h-42v12l-29-14.5L253 68v12h42v5zm217 0v-5h50V68l29 14.5L562 97V85h-50z"/>
    <path fill="#3C4043" d="M326.255 92h-2.361V76.347l-4.736 1.739v-2.133l6.729-2.526h.368V92zm7.173-1.231c0-.407.12-.745.362-1.016.24-.27.603-.406 1.085-.406s.848.135 1.098.406c.25.27.375.61.375 1.016 0 .389-.125.715-.375.977s-.616.394-1.098.394c-.482 0-.844-.132-1.085-.394-.242-.262-.362-.588-.362-.977zm20.376-6.247h-4.342V92h-2.45V73.516h6.119c2.082 0 3.684.474 4.805 1.421 1.121.948 1.682 2.328 1.682 4.14 0 1.15-.31 2.153-.933 3.008-.622.855-1.487 1.494-2.596 1.917l4.342 7.846V92h-2.616l-4.011-7.478zm-4.342-1.993h3.745c1.21 0 2.173-.313 2.888-.94.715-.625 1.073-1.463 1.073-2.513 0-1.142-.34-2.018-1.022-2.628-.681-.61-1.665-.918-2.952-.927h-3.732v7.008zm18.903 9.725c-1.862 0-3.377-.612-4.545-1.835-1.168-1.223-1.752-2.858-1.752-4.906v-.432c0-1.363.26-2.58.781-3.65.52-1.07 1.248-1.908 2.184-2.514a5.49 5.49 0 0 1 3.04-.907c1.786 0 3.174.588 4.164 1.764.99 1.177 1.486 2.861 1.486 5.053v.978h-9.306c.034 1.354.43 2.448 1.187 3.281.757.834 1.72 1.25 2.888 1.25.83 0 1.532-.168 2.108-.507a5.295 5.295 0 0 0 1.51-1.346l1.435 1.118c-1.151 1.768-2.878 2.653-5.18 2.653zm-.292-12.315c-.948 0-1.743.345-2.386 1.035-.644.69-1.041 1.657-1.194 2.901h6.881v-.178c-.068-1.193-.39-2.118-.965-2.774-.575-.656-1.354-.984-2.336-.984zm11.553-5.001v3.326h2.564v1.815h-2.564v8.519c0 .55.114.962.343 1.237.228.276.618.413 1.168.413.27 0 .643-.05 1.117-.152V92a6.809 6.809 0 0 1-1.803.254c-1.05 0-1.84-.317-2.374-.952-.533-.635-.8-1.536-.8-2.704v-8.519h-2.5v-1.815h2.5v-3.326h2.349zm11.946 5.433a7.038 7.038 0 0 0-1.155-.089c-1.54 0-2.586.656-3.136 1.968V92h-2.348V78.264h2.285l.038 1.587c.77-1.228 1.862-1.841 3.275-1.841.457 0 .804.059 1.041.177v2.184zM396.282 92h-2.348V78.264h2.348V92zm-2.539-17.38c0-.38.117-.702.35-.965.232-.262.577-.393 1.034-.393.457 0 .804.13 1.041.393.237.263.355.584.355.965s-.118.698-.355.952-.584.381-1.041.381c-.457 0-.802-.127-1.035-.38-.232-.255-.349-.572-.349-.953zm11.997 17.634c-1.862 0-3.377-.612-4.545-1.835-1.168-1.223-1.752-2.858-1.752-4.906v-.432c0-1.363.26-2.58.781-3.65.52-1.07 1.248-1.908 2.184-2.514a5.49 5.49 0 0 1 3.04-.907c1.786 0 3.174.588 4.164 1.764.99 1.177 1.486 2.861 1.486 5.053v.978h-9.306c.034 1.354.43 2.448 1.187 3.281.757.834 1.72 1.25 2.888 1.25.83 0 1.532-.168 2.108-.507a5.295 5.295 0 0 0 1.51-1.346l1.435 1.118c-1.151 1.768-2.878 2.653-5.18 2.653zm-.292-12.315c-.948 0-1.743.345-2.386 1.035-.644.69-1.041 1.657-1.194 2.901h6.881v-.178c-.068-1.193-.39-2.118-.965-2.774-.575-.656-1.354-.984-2.336-.984zm12.734 8.874l3.402-10.55h2.4L419.057 92h-1.79l-4.977-13.736h2.4l3.49 10.55zm13.596 3.44c-1.862 0-3.377-.61-4.545-1.834-1.168-1.223-1.752-2.858-1.752-4.906v-.432c0-1.363.26-2.58.781-3.65.52-1.07 1.249-1.908 2.184-2.514a5.49 5.49 0 0 1 3.04-.907c1.786 0 3.174.588 4.164 1.764.99 1.177 1.486 2.861 1.486 5.053v.978h-9.306c.034 1.354.43 2.448 1.187 3.281.758.834 1.72 1.25 2.888 1.25.83 0 1.532-.168 2.108-.507a5.295 5.295 0 0 0 1.51-1.346l1.435 1.118c-1.151 1.768-2.878 2.653-5.18 2.653zm-.292-12.314c-.948 0-1.743.345-2.386 1.035-.644.69-1.041 1.657-1.194 2.901h6.881v-.178c-.068-1.193-.39-2.118-.965-2.774-.575-.656-1.354-.984-2.336-.984zm22.915-6.423h2.45v13.088c0 1.77-.53 3.153-1.593 4.152-1.062.999-2.477 1.498-4.246 1.498-1.837 0-3.267-.47-4.291-1.41-1.024-.939-1.536-2.255-1.536-3.948h2.437c0 1.058.29 1.884.87 2.476.58.593 1.42.889 2.52.889 1.007 0 1.821-.318 2.444-.952.622-.635.937-1.524.945-2.666V73.516zm10.588 12.657l.356 2.437.52-2.196 3.656-12.898h2.057l3.568 12.898.507 2.234.394-2.488 2.869-12.644h2.45L476.885 92h-2.222l-3.809-13.47-.291-1.409-.292 1.41L466.322 92h-2.221l-4.47-18.484h2.438l2.92 12.657zm32.03-10.652h-5.94V92h-2.426V75.521h-5.928v-2.005h14.295v2.005zM930.951 453.163h1.765c1.109-.017 1.98-.309 2.615-.876.635-.567.952-1.333.952-2.298 0-2.166-1.079-3.25-3.237-3.25-1.016 0-1.826.29-2.431.87-.605.58-.908 1.348-.908 2.304h-2.349c0-1.464.536-2.68 1.606-3.65 1.071-.969 2.431-1.453 4.082-1.453 1.743 0 3.11.46 4.1 1.383.99.923 1.486 2.205 1.486 3.847 0 .804-.26 1.583-.78 2.336-.521.753-1.23 1.316-2.127 1.688 1.015.322 1.8.855 2.355 1.6.554.745.831 1.655.831 2.73 0 1.658-.542 2.974-1.625 3.948-1.083.973-2.492 1.46-4.227 1.46-1.735 0-3.147-.47-4.234-1.41-1.088-.939-1.632-2.179-1.632-3.72h2.362c0 .974.317 1.753.952 2.337.635.584 1.485.876 2.552.876 1.134 0 2.001-.296 2.602-.889.601-.592.902-1.443.902-2.552 0-1.075-.33-1.9-.99-2.475-.66-.576-1.613-.872-2.857-.889h-1.765v-1.917zm11.477 9.153c0-.406.12-.744.362-1.015.24-.271.603-.406 1.085-.406s.848.135 1.098.406c.25.27.375.61.375 1.015 0 .39-.125.716-.375.978s-.616.394-1.098.394c-.482 0-.844-.132-1.085-.394-.242-.262-.362-.588-.362-.978zm19.716-2.005l5.28-15.248h2.667l-6.856 18.485h-2.158l-6.843-18.485h2.654l5.256 15.248zm15.196 3.49c-1.862 0-3.377-.61-4.545-1.834-1.168-1.223-1.752-2.858-1.752-4.906v-.432c0-1.363.26-2.58.78-3.65.521-1.07 1.25-1.909 2.184-2.514a5.49 5.49 0 0 1 3.04-.907c1.787 0 3.175.588 4.165 1.764.99 1.177 1.485 2.86 1.485 5.053v.978h-9.305c.033 1.354.43 2.448 1.187 3.281.757.834 1.72 1.25 2.888 1.25.83 0 1.532-.169 2.107-.507a5.295 5.295 0 0 0 1.511-1.346l1.435 1.117c-1.152 1.77-2.878 2.654-5.18 2.654zm-.292-12.314c-.948 0-1.744.345-2.387 1.035s-1.04 1.657-1.193 2.9h6.88v-.177c-.067-1.193-.389-2.118-.964-2.774-.576-.656-1.354-.984-2.336-.984zm15.006.432a7.038 7.038 0 0 0-1.156-.089c-1.54 0-2.585.656-3.135 1.968v9.75h-2.349v-13.736h2.285l.038 1.586c.77-1.227 1.862-1.84 3.276-1.84.457 0 .804.059 1.04.177v2.184zm4.71 11.629h-2.349v-13.736h2.349v13.736zm-2.54-17.38c0-.38.117-.703.35-.965.232-.262.577-.393 1.034-.393.457 0 .804.13 1.041.393.237.262.356.584.356.965 0 .38-.119.698-.356.952s-.584.381-1.04.381c-.458 0-.803-.127-1.035-.38-.233-.255-.35-.572-.35-.953zm7.453 17.38v-11.921h-2.171v-1.815h2.17v-1.41c0-1.472.394-2.61 1.181-3.415.788-.804 1.9-1.206 3.34-1.206.541 0 1.078.072 1.612.216l-.127 1.904a6.745 6.745 0 0 0-1.27-.114c-.762 0-1.35.222-1.765.667-.414.444-.622 1.08-.622 1.91v1.448h2.933v1.815h-2.933v11.92h-2.348zm12.365-3.44l3.2-10.296h2.513l-5.523 15.856c-.854 2.285-2.213 3.428-4.075 3.428l-.444-.038-.876-.165v-1.905l.635.051c.795 0 1.415-.16 1.86-.482.444-.322.81-.91 1.098-1.765l.52-1.396-4.9-13.584h2.564l3.428 10.295zm17.05-3.796v7.236h-2.438v-18.485h6.818c2.022 0 3.607.517 4.754 1.55 1.147 1.032 1.72 2.399 1.72 4.1 0 1.794-.56 3.176-1.682 4.145-1.121.969-2.727 1.454-4.818 1.454h-4.354zm0-1.994h4.38c1.303 0 2.302-.306 2.996-.92.694-.614 1.04-1.5 1.04-2.66 0-1.1-.346-1.98-1.04-2.64-.694-.66-1.646-1.003-2.857-1.029h-4.52v7.25zm22.077 7.871c-.914 1.075-2.256 1.613-4.024 1.613-1.465 0-2.58-.426-3.346-1.276-.766-.85-1.153-2.11-1.161-3.777v-8.937h2.348v8.874c0 2.082.847 3.123 2.54 3.123 1.794 0 2.987-.669 3.58-2.006v-9.991h2.348v13.736h-2.234l-.051-1.359zm17.481-5.357c0 2.099-.482 3.785-1.447 5.06-.965 1.273-2.26 1.91-3.885 1.91-1.735 0-3.076-.614-4.024-1.841l-.114 1.587h-2.159v-19.5h2.35v7.274c.947-1.176 2.255-1.764 3.922-1.764 1.667 0 2.977.63 3.93 1.891.951 1.261 1.427 2.988 1.427 5.18v.203zm-2.348-.267c0-1.6-.31-2.835-.927-3.707-.618-.871-1.506-1.307-2.666-1.307-1.549 0-2.662.72-3.339 2.158v5.941c.72 1.44 1.84 2.159 3.364 2.159 1.126 0 2.002-.436 2.628-1.308.627-.872.94-2.184.94-3.936zm7.858 6.983h-2.348v-19.5h2.348v19.5zm6.31 0h-2.349v-13.736h2.349v13.736zm-2.54-17.38c0-.38.117-.703.35-.965.233-.262.577-.393 1.034-.393.457 0 .804.13 1.041.393.237.262.356.584.356.965 0 .38-.119.698-.356.952s-.584.381-1.04.381c-.458 0-.802-.127-1.035-.38-.233-.255-.35-.572-.35-.953zm11.807 15.717c.838 0 1.57-.254 2.197-.762.626-.508.973-1.143 1.04-1.904h2.222c-.042.787-.313 1.536-.812 2.247-.5.71-1.166 1.278-2 1.701a5.77 5.77 0 0 1-2.647.635c-1.87 0-3.358-.624-4.462-1.873-1.105-1.248-1.657-2.956-1.657-5.122v-.394c0-1.337.246-2.526.736-3.567.491-1.041 1.196-1.85 2.114-2.425.919-.576 2.004-.863 3.257-.863 1.54 0 2.82.46 3.84 1.383s1.564 2.12 1.631 3.593h-2.221c-.068-.888-.405-1.618-1.01-2.19-.605-.571-1.352-.857-2.24-.857-1.194 0-2.118.43-2.774 1.289-.656.859-.984 2.1-.984 3.726v.444c0 1.583.326 2.802.977 3.657.652.854 1.583 1.282 2.793 1.282zm28.501-4.202c-.228 1.955-.95 3.463-2.164 4.525-1.215 1.063-2.83 1.594-4.844 1.594-2.183 0-3.933-.783-5.249-2.349-1.316-1.566-1.974-3.66-1.974-6.284v-1.777c0-1.719.307-3.23.92-4.533.614-1.303 1.483-2.304 2.61-3.002 1.125-.698 2.428-1.047 3.91-1.047 1.963 0 3.537.548 4.722 1.644 1.185 1.096 1.875 2.613 2.07 4.55h-2.45c-.213-1.472-.672-2.538-1.378-3.198-.707-.66-1.695-.99-2.965-.99-1.557 0-2.778.575-3.662 1.726-.885 1.151-1.327 2.789-1.327 4.913v1.79c0 2.006.419 3.601 1.257 4.786.838 1.185 2.01 1.778 3.516 1.778 1.355 0 2.394-.307 3.117-.92.724-.614 1.204-1.683 1.441-3.206h2.45zm8.658 6.119c-1.861 0-3.376-.612-4.544-1.835-1.168-1.223-1.752-2.858-1.752-4.906v-.432c0-1.363.26-2.58.78-3.65.52-1.07 1.249-1.909 2.184-2.514a5.49 5.49 0 0 1 3.04-.907c1.786 0 3.174.588 4.165 1.764.99 1.177 1.485 2.86 1.485 5.053v.978h-9.306c.034 1.354.43 2.448 1.187 3.281.758.834 1.72 1.25 2.888 1.25.83 0 1.532-.169 2.108-.507a5.295 5.295 0 0 0 1.51-1.346l1.435 1.117c-1.15 1.77-2.877 2.654-5.18 2.654zm-.292-12.315c-.947 0-1.743.345-2.386 1.035s-1.041 1.657-1.194 2.9h6.881v-.177c-.067-1.193-.389-2.118-.965-2.774-.575-.656-1.354-.984-2.336-.984zm15.006.432a7.038 7.038 0 0 0-1.155-.089c-1.54 0-2.586.656-3.136 1.968v9.75h-2.348v-13.736h2.285l.038 1.586c.77-1.227 1.862-1.84 3.275-1.84.457 0 .804.059 1.041.177v2.184zm5.98-5.434v3.327h2.564v1.815h-2.564v8.519c0 .55.114.962.343 1.237.228.275.617.413 1.168.413.27 0 .643-.05 1.117-.152v1.904a6.809 6.809 0 0 1-1.803.254c-1.05 0-1.84-.318-2.374-.952-.533-.635-.8-1.537-.8-2.704v-8.519h-2.5v-1.815h2.5v-3.327h2.349z"/>
  </g>
</svg>
