<svg xmlns="http://www.w3.org/2000/svg" viewBox="0 0 669 497">
  <g fill="none" fill-rule="evenodd">
    <path fill="#000" fill-rule="nonzero" d="M311.695 294.833h5.472l-8.314 28.304h-7.782l-8.31-28.304h5.47l6.74 23.547m27.43 4.703h-4.18l-.37-1.347c-1.8 1.187-3.9 1.82-6.05 1.82-3.72 0-5.31-2.59-5.31-6.147 0-4.21 1.8-5.81 5.94-5.81h4.89v-2.17c0-2.29-.62-3.1-3.89-3.1-1.9.02-3.79.23-5.64.63l-.62-3.95c2.28-.64 4.63-.96 6.99-.97 6.4 0 8.28 2.29 8.28 7.47v13.57zm-5.1-7.803h-3.77c-1.67 0-2.14.47-2.14 2.035 0 1.563.47 2.075 2.05 2.075 1.35-.017 2.68-.384 3.85-1.064l.02-3.046zm13.12-12.845v14.422c0 1.105.47 1.657 1.64 1.657 1.87-.213 3.68-.804 5.32-1.738v-14.34h5.1v20.66h-3.89l-.5-1.792c-2.52 1.3-5.29 2.054-8.11 2.21-3.38 0-4.59-2.412-4.59-6.105v-14.98h5.06zm14.76 20.648v-29.1l5.1-.713v29.827m15.22-.445c-1.44.513-2.95.786-4.47.81-3.72 0-5.6-1.78-5.6-5.473v-11.52h-3.05v-4.05h3.06v-5.13l5.09-.73v5.86h5.22l-.32 4.04h-4.9v10.78c-.06.51.11 1.02.47 1.38.36.36.87.52 1.37.44.87-.03 1.72-.17 2.55-.42l.61 3.99zM283 174l51.32 103L386 174H283zm57.428 20.677h5.974v5.935h-5.974v-5.935zm-11.896 23.95h-5.974v-6.04h5.974v6.04zm0-8.954h-5.974v-6.04h5.974v6.04zm0-8.955h-5.974v-6.04h5.974v6.04zm9.022 26.798h-6.04v-5.974h6.04v5.974zm0-8.955h-6.04v-5.97h6.04v5.98zm0-8.95h-6.04v-5.97h6.04v5.98zm0-8.99h-6.04v-5.93h6.04v5.94zm2.94 2.98h5.975v5.98h-6.05l.06-5.97zm0 14.93v-5.93h5.975v5.98l-5.98-.04z"/>
    <g fill="#000">
      <g fill-rule="nonzero">
        <path d="M616.97 98.466v4.257c0 5.17-12.29 10.743-30.47 10.743s-30.47-5.574-30.47-10.743v-4.257c-1.014-1.013-1.624-1.723-1.928-3.75H554v8.007c0 7.196 14.32 12.77 32.5 12.77s32.5-5.574 32.5-12.77v-8.007h-.102c-.304 2.027-.914 2.737-1.93 3.75z"/>
        <path d="M616.97 82.25v4.257c0 5.17-12.29 10.743-30.47 10.743s-30.47-5.574-30.47-10.743V82.25c-1.014-1.014-1.624-1.723-1.928-3.75H554v8.007c0 7.196 14.32 12.77 32.5 12.77s32.5-5.574 32.5-12.77V78.5h-.102c-.304 2.027-.914 2.736-1.93 3.75z"/>
        <path d="M616.97 66.034v4.257c0 5.17-12.29 10.75-30.47 10.75s-30.47-5.57-30.47-10.74v-4.26c-1.014-1.01-1.624-1.72-1.928-3.75H554v8.01c0 7.2 14.32 12.77 32.5 12.77S619 77.49 619 70.29v-8.006h-.102c-.304 2.027-.914 2.736-1.93 3.75z"/>
        <path d="M586.5 67.15c-18.18 0-32.5-5.677-32.5-12.772 0-7.094 14.32-12.77 32.5-12.77S619 47.08 619 54.278c0 7.195-14.32 12.87-32.5 12.87zm0-23.616c-18.18 0-30.47 5.574-30.47 10.743 0 5.17 12.29 10.743 30.47 10.743s30.47-5.574 30.47-10.743c0-5.17-12.29-10.743-30.47-10.743z"/>
      </g>
      <path d="M566.66 130.68h-1.72V144h7.5v-1.54h-5.78v-11.78zm8.28 0h4.66c3.26 0 4.28 1.7 4.28 3.82v5.68c0 2.12-1.02 3.82-4.28 3.82h-4.66v-13.32zm1.72 1.54v10.24h2.88c2.02 0 2.62-.84 2.62-2.4v-5.44c0-1.56-.6-2.4-2.62-2.4h-2.88zm15.9-1.54l4.5 13.32h-1.74l-1.1-3.2h-5.66l-1.08 3.2h-1.74l4.5-13.32h2.32zm1.22 8.62l-2.38-7.38-2.38 7.38h4.76zm5.54 4.7v-13.32h4.82c2.86 0 3.86 1.24 3.86 3.28v1.98c0 2.06-1 3.3-3.86 3.3h-3.1V144h-1.72zm6.96-10.02c0-1.32-.56-1.76-2.2-1.76h-3.04v5.48h3.04c1.64 0 2.2-.46 2.2-1.76v-1.96z"/>
    </g>
    <g fill="#000">
      <path d="M576.72 437.68v9.48c0 1.64-.9 2.5-3 2.5s-3-.86-3-2.5v-9.48H569v9.58c0 2.18 1.26 3.94 4.72 3.94s4.72-1.76 4.72-3.94v-9.58h-1.72zm10.98 10.7c0-1.94-.22-2.28-3.02-2.98-1.64-.4-1.66-.6-1.66-1.68 0-.88.2-1.22 1.64-1.22.8 0 1.88.12 2.7.28l.12-1.38c-.8-.22-1.82-.34-2.76-.34-2.56 0-3.36.82-3.36 2.62 0 2.02.22 2.52 2.64 3.12 1.96.48 2.04.6 2.04 1.64s-.26 1.32-1.8 1.32c-.84 0-1.94-.16-2.78-.4l-.22 1.32c.78.3 2.1.52 3.1.52 2.78 0 3.36-.92 3.36-2.82zm3.9-.78c0 1.54.42 2.16 2.32 2.16.96 0 2.02-.18 3.08-.46l.22 1.34c-.92.34-2.22.56-3.44.56-2.88 0-3.86-1.38-3.86-3.58v-2.92c0-2.02.92-3.64 3.82-3.64 2.88 0 3.66 1.66 3.66 3.68v2.04h-5.8v.82zm0-3.02v.8h4.18v-.8c0-1.36-.46-2.12-2.04-2.12s-2.14.76-2.14 2.12zm12.68-3.52c-.96.4-1.96 1-2.68 1.56l-.1-1.36h-1.46V451h1.68v-6.72c.8-.56 1.86-1.24 2.78-1.68l-.22-1.54z"/>
      <g fill-rule="nonzero">
        <path d="M601.854 385.5h-8.096c7.26-2.917 12.284-9.86 12.284-18.056 0-10.694-8.794-19.444-19.542-19.444-10.748 0-19.542 8.75-19.542 19.444 0 8.195 5.165 15.14 12.284 18.056h-8.096c-10.05 0-18.146 8.056-18.146 18.056V423h2.792v-19.444c0-8.473 6.84-15.278 15.354-15.278h30.708c8.515 0 15.354 6.805 15.354 15.278V423H620v-19.444c0-10-8.096-18.056-18.146-18.056zm-32.104-18.056c0-9.166 7.538-16.666 16.75-16.666s16.75 7.5 16.75 16.666c0 9.167-7.538 16.667-16.75 16.667s-16.75-7.5-16.75-16.66z"/>
        <path d="M568.354 409.11h2.792V423h-2.792zm33.5 0h2.792V423h-2.792z"/>
      </g>
    </g>
    <g fill="#000">
      <path d="M42.22 451h2.32l4.4-13.32h-1.66l-3.9 11.82-3.9-11.82h-1.66l4.4 13.32zm15.58-6.78V451h-1.42l-.1-.72c-.86.6-1.98.92-3.16.92-1.82 0-2.58-1.08-2.58-2.8 0-2.02 1.02-2.74 2.98-2.74h2.6v-1.52c0-1.22-.54-1.64-2.12-1.64-.94 0-2.16.16-2.92.32l-.18-1.34c.92-.24 2.16-.42 3.2-.42 2.78 0 3.7 1.08 3.7 3.16zm-1.68 4.74v-1.9h-2.48c-1.04 0-1.42.32-1.42 1.3 0 1 .18 1.4 1.38 1.4.84 0 1.78-.32 2.52-.8zm4.54-7.7v7.46c0 1.5.56 2.48 2.12 2.48 1.16 0 2.84-.52 3.92-1.04l.16.84h1.36v-9.74h-1.68v7.36c-1.04.54-2.54.98-3.26.98-.62 0-.94-.26-.94-.9v-7.44h-1.68zM73.1 451v-13.96l-1.68.24V451h1.68zm8.06-1.46c-.62.16-1.1.24-1.56.24-.9 0-1-.36-1-1.08v-6.04h2.62l.14-1.4H78.6v-2.64l-1.68.24v2.4H75.2v1.4h1.72v6.32c0 1.62.78 2.22 2.42 2.22.72 0 1.44-.14 2.04-.36l-.22-1.3zm6.92 1.46v-13.32h4.82c2.86 0 3.86 1.24 3.86 3.28v1.98c0 2.06-1 3.3-3.86 3.3h-3.1V451h-1.72zm6.96-10.02c0-1.32-.56-1.76-2.2-1.76H89.8v5.48h3.04c1.64 0 2.2-.46 2.2-1.76v-1.96zm11.5 6.56c0 2.04-1.12 3.66-3.96 3.66s-3.96-1.62-3.96-3.66v-2.82c0-2.04 1.12-3.66 3.96-3.66s3.96 1.62 3.96 3.66v2.82zm-1.68-2.88c0-1.42-.76-2.14-2.28-2.14-1.52 0-2.28.72-2.28 2.14v2.94c0 1.42.76 2.14 2.28 2.14 1.52 0 2.28-.72 2.28-2.14v-2.94zm6.06 6.34v-13.96l-1.68.24V451h1.68zm4.88 0v-9.74h-1.68V451h1.68zm0-11.3v-2.42h-1.68v2.42h1.68zm6.48 11.5c.86 0 1.84-.14 2.34-.3l-.16-1.4c-.76.16-1.46.22-2.14.22-1.68 0-2.24-.48-2.24-2v-3.18c0-1.52.56-2 2.24-2 .68 0 1.38.06 2.14.22l.14-1.4c-.5-.16-1.46-.3-2.32-.3-3.04 0-3.88 1.3-3.88 3.54v3.06c0 2.24.76 3.54 3.88 3.54zm5.96 3.74h1.58l1.38-3.94 3.22-9.74h-1.66l-2.7 8.4-2.66-8.4h-1.66l3.16 9.74h.7l-1.36 3.94z"/>
      <g fill-rule="nonzero">
        <path d="M113 423H58v-70.11h12.132v1.632H59.618v66.848h51.764v-66.848h-10.514v-1.63H113"/>
        <path d="M68.272 379.467l-2.265-3.913 1.375-.815 1.456 2.52 9.22-5.38.81 1.46M68.272 392.5l-2.265-3.912 1.375-.815 1.456 2.526 9.22-5.38.81 1.46m-10.596 19.16l-2.265-3.92 1.375-.81 1.456 2.52 9.22-5.38.81 1.46m16.985-43.78h-1.618v-5.22c0-.41-.323-.66-.647-.66H77.412c-.405 0-.647.33-.647.66v5.13h-1.618v-5.14c0-1.3 1.052-2.28 2.265-2.28h16.176c1.294 0 2.265 1.06 2.265 2.28v5.21zm-13.588 20.38h24.265v1.63H82.265zm0 13.04h24.265v1.63H82.265zm0 13.04h24.265v1.63H82.265z"/>
      </g>
    </g>
    <path stroke="#575757" d="M344.5 343.5v53M535 396H344"/>
    <path fill="#575757" d="M344.5 342l3.5 7h-7"/>
    <path stroke="#575757" d="M324.5 343.5v53m0-.5H131"/>
    <path fill="#575757" d="M324.5 342l3.5 7h-7"/>
    <path fill="#FFF" d="M167 384h126v22H167z"/>
    <path fill="#000" d="M179.912 393.54c0 .457-.128.83-.383 1.12-.26.29-.62.483-1.09.58v.04c.57.07 1 .253 1.27.546.27.293.41.677.41 1.153 0 .68-.24 1.2-.71 1.56s-1.15.55-2.02.55c-.38 0-.72-.03-1.04-.09-.32-.06-.62-.16-.92-.3v-.77c.3.15.63.27.98.35.35.08.68.12.99.12 1.23 0 1.85-.49 1.85-1.45 0-.87-.68-1.3-2.04-1.3h-.71v-.7h.71c.56 0 1-.13 1.32-.37.33-.25.49-.59.49-1.02 0-.35-.12-.62-.36-.82-.24-.2-.56-.3-.97-.3-.32 0-.61.04-.89.12-.28.08-.59.24-.95.47l-.41-.55c.29-.23.63-.42 1.01-.55.38-.13.783-.2 1.21-.2.69 0 1.23.16 1.612.47.38.32.57.75.57 1.3zm1.548 4.942c0-.218.05-.383.15-.495.098-.112.24-.17.426-.17.19 0 .336.058.442.17.106.112.16.277.16.495 0 .212-.055.375-.162.49-.108.113-.254.17-.44.17-.166 0-.303-.052-.412-.154-.11-.103-.164-.27-.164-.506zm9.985.518l-.888-2.27h-2.862l-.88 2.27h-.838l2.822-7.168h.69L192.3 399h-.86zm-1.147-3.018l-.83-2.21c-.108-.28-.218-.625-.332-1.032-.072.313-.174.656-.308 1.03l-.84 2.212h2.31zm4.595 2.447c.143 0 .28-.02.415-.04.133-.02.24-.05.317-.07v.62c-.088.04-.217.07-.388.1-.17.03-.325.04-.462.04-1.035 0-1.552-.55-1.552-1.64v-3.19h-.767v-.39l.767-.34.34-1.14h.47v1.24h1.553v.63h-1.553v3.15c0 .32.077.57.23.74.153.17.363.26.63.26zm3.53 0c.143 0 .28-.02.415-.04.133-.02.24-.05.317-.07v.62c-.088.04-.217.07-.388.1-.17.03-.325.04-.46.04-1.036 0-1.554-.55-1.554-1.64v-3.19h-.767v-.39l.767-.34.342-1.14h.468v1.24h1.553v.63h-1.553v3.15c0 .32.077.57.23.74.153.17.363.26.63.26zm5.093.57l-.162-.77h-.04c-.265.33-.532.56-.797.68s-.596.18-.994.18c-.53 0-.946-.14-1.247-.41-.3-.28-.452-.67-.452-1.17 0-1.08.864-1.65 2.593-1.7l.908-.03v-.33c0-.42-.09-.73-.27-.93-.18-.2-.47-.3-.867-.3-.446 0-.95.13-1.514.41l-.25-.62c.264-.15.553-.26.868-.34.314-.09.63-.13.944-.13.638 0 1.11.14 1.42.42.306.28.46.74.46 1.36V399h-.6zm-1.83-.57c.503 0 .9-.14 1.188-.42.288-.28.432-.67.432-1.16v-.49l-.81.03c-.645.02-1.11.12-1.395.3-.28.18-.42.45-.42.83 0 .29.09.51.27.67.18.15.43.23.75.23zm6.24.66c-.776 0-1.376-.24-1.8-.72-.425-.48-.638-1.15-.638-2.03 0-.9.216-1.59.647-2.08.432-.49 1.046-.73 1.844-.73.25 0 .51.02.77.08.25.05.46.12.6.19l-.25.68c-.18-.07-.38-.13-.59-.18-.21-.05-.4-.07-.56-.07-1.09 0-1.64.69-1.64 2.08 0 .66.13 1.16.4 1.51.26.35.66.53 1.18.53.44 0 .9-.1 1.37-.29v.72c-.36.18-.81.28-1.35.28zm6.283-.1v-3.47c0-.44-.1-.76-.3-.98-.2-.22-.51-.33-.93-.33-.57 0-.98.15-1.24.46-.26.3-.39.81-.39 1.5v2.8h-.81v-7.6h.81v2.3c0 .28-.01.51-.04.69h.05c.16-.26.38-.46.68-.61.29-.15.63-.22 1.01-.22.65 0 1.14.15 1.47.47.33.31.49.8.49 1.48v3.5h-.81zm6.8-.57c.14 0 .28-.02.41-.04.13-.02.24-.05.31-.07v.62c-.09.04-.22.08-.39.1-.17.03-.33.04-.46.04-1.04 0-1.56-.55-1.56-1.64v-3.19h-.77v-.39l.76-.34.34-1.14h.46v1.24h1.56v.63h-1.56v3.15c0 .32.08.57.23.74.15.17.36.26.63.26zm6.42-2.11c0 .87-.22 1.55-.66 2.04-.44.49-1.05.73-1.82.73-.48 0-.91-.12-1.28-.34-.37-.23-.66-.55-.86-.97-.2-.42-.3-.91-.3-1.48 0-.88.22-1.56.65-2.04.43-.49 1.04-.73 1.81-.73.75 0 1.34.25 1.78.74.44.49.66 1.17.66 2.02zm-4.08 0c0 .68.13 1.2.41 1.56.27.36.67.54 1.2.54.53 0 .93-.18 1.21-.54.27-.36.41-.88.41-1.57 0-.68-.14-1.2-.41-1.55-.28-.36-.69-.53-1.22-.53s-.93.17-1.2.52c-.27.35-.41.86-.41 1.55zm12.29-4.46h.89l-2.57 7.14h-.82l-2.56-7.14h.88l1.64 4.62c.19.53.34 1.04.45 1.55.11-.53.27-1.06.46-1.58l1.63-4.59zm5.04 7.14l-.16-.77h-.04c-.27.33-.54.56-.8.68-.27.12-.6.18-1 .18-.53 0-.95-.14-1.25-.41-.3-.28-.46-.67-.46-1.17 0-1.08.86-1.65 2.59-1.7l.9-.03v-.34c0-.42-.09-.73-.27-.93-.18-.2-.47-.3-.87-.3-.45 0-.95.13-1.51.41l-.25-.62c.26-.15.55-.26.87-.34.31-.08.63-.12.94-.12.64 0 1.11.14 1.42.42.3.28.46.74.46 1.36V399h-.6zm-1.83-.57c.5 0 .9-.14 1.19-.42.29-.28.43-.67.43-1.16v-.49l-.81.03c-.65.02-1.11.12-1.4.3-.29.18-.43.45-.43.83 0 .29.08.51.26.67.17.15.42.23.74.23zm4.86-4.79v3.47c0 .43.1.76.29.97.2.21.51.32.93.32.56 0 .97-.16 1.22-.46.26-.31.39-.81.39-1.5v-2.81h.81V399h-.67l-.12-.718h-.05c-.16.264-.4.466-.69.606-.29.14-.63.21-1.01.21-.65 0-1.14-.155-1.46-.464-.32-.31-.49-.804-.49-1.485v-3.51h.82zm6.19 5.35h-.81v-7.6h.81v7.6zm3.44-.57c.14 0 .28-.02.41-.04.14-.02.24-.05.32-.07v.62c-.09.04-.22.07-.39.1s-.32.04-.46.04c-1.03 0-1.55-.55-1.55-1.64v-3.19h-.77v-.39l.76-.34.34-1.14h.47v1.24h1.55v.63h-1.55v3.15c0 .32.08.57.23.74.15.18.36.26.63.26zm6.72.57h-.83v-6.4h-2.26v-.74h5.35v.74h-2.26v6.4zm7.83-2.68c0 .87-.22 1.55-.66 2.04-.44.49-1.05.73-1.82.73-.48 0-.91-.12-1.28-.34-.37-.23-.66-.55-.86-.97-.2-.42-.3-.92-.3-1.48 0-.88.21-1.56.65-2.04.43-.49 1.04-.73 1.81-.73.75 0 1.34.25 1.79.74.44.49.66 1.17.66 2.02zm-4.08 0c0 .68.13 1.2.41 1.56.27.36.67.53 1.2.53s.93-.18 1.21-.54c.27-.36.41-.88.41-1.57 0-.68-.14-1.2-.41-1.55-.28-.36-.68-.53-1.22-.53-.53 0-.93.17-1.2.52-.27.34-.41.86-.41 1.55zm6.3-.06c.14-.2.35-.46.63-.78l1.73-1.84h.96l-2.17 2.28 2.32 3.07h-.98l-1.89-2.53-.61.52V399h-.8v-7.598h.8v4.03c0 .178-.02.454-.04.83h.04zm6.7 2.83c-.79 0-1.42-.24-1.87-.73-.46-.48-.69-1.15-.69-2.01 0-.87.21-1.55.63-2.06.43-.51 1-.76 1.71-.76.67 0 1.2.22 1.59.66.39.44.58 1.02.58 1.75v.51h-3.69c.02.63.18 1.11.48 1.43.3.33.72.49 1.27.49.57 0 1.14-.12 1.71-.36v.72c-.29.13-.56.21-.82.27-.256.05-.565.08-.926.08zm-.22-4.87c-.43 0-.77.14-1.03.42-.25.28-.4.67-.45 1.16h2.8c0-.51-.11-.9-.34-1.17-.23-.27-.56-.41-.98-.41zm7.23 4.78v-3.47c0-.44-.1-.77-.3-.98-.2-.21-.51-.32-.93-.32-.56 0-.97.15-1.23.46-.26.3-.39.8-.39 1.5v2.8h-.82v-5.35h.66l.13.73h.04c.16-.26.4-.46.7-.61.29-.14.63-.21 1-.21.64 0 1.13.15 1.45.46.32.31.49.8.49 1.49v3.5h-.81z"/>
    <path stroke="#575757" d="M586 223.5v105m.5-104.5H396"/>
    <path fill="#575757" d="M586 330l3.5-7h-7"/>
    <path fill="#FFF" d="M449 213h86v22h-86z"/>
    <path fill="#000" d="M460.518 225.36h-1.06V227h-.776v-1.64h-3.472v-.71l3.39-4.828h.858v4.8h1.06v.737zm-1.836-.738v-2.373c0-.47.016-1 .048-1.58h-.04c-.155.31-.3.57-.438.77l-2.23 3.17h2.66zm2.778 1.86c0-.218.05-.383.15-.495.098-.112.24-.17.426-.17.19 0 .336.058.442.17.106.112.16.277.16.495 0 .212-.055.375-.162.49-.108.113-.254.17-.44.17-.166 0-.303-.052-.412-.154-.11-.103-.164-.27-.164-.506zm6.328-2.45V227h-.83v-7.14h1.958c.876 0 1.523.17 1.94.504.42.336.628.84.628 1.514 0 .944-.478 1.582-1.435 1.914l1.93 3.208H471l-1.73-2.97h-1.49zm0-.714h1.138c.586 0 1.015-.116 1.29-.35.272-.232.41-.58.41-1.046 0-.472-.14-.812-.418-1.02-.28-.21-.726-.313-1.34-.313h-1.08v2.72zm7.49 3.78c-.79 0-1.415-.24-1.872-.723-.458-.482-.686-1.15-.686-2.007 0-.862.212-1.548.637-2.055.425-.508.995-.762 1.71-.762.672 0 1.203.22 1.593.67.39.44.586 1.03.586 1.75v.52h-3.686c.016.63.175 1.11.476 1.43.3.33.725.49 1.272.49.576 0 1.145-.12 1.71-.36v.73c-.288.13-.56.22-.814.27-.256.06-.564.08-.926.08zm-.22-4.87c-.43 0-.772.14-1.027.42-.25.28-.4.67-.45 1.164h2.8c0-.512-.11-.903-.34-1.175-.23-.272-.55-.408-.97-.408zm5.298 4.2c.144 0 .282-.01.415-.03.14-.022.24-.044.32-.067v.62c-.09.05-.21.08-.39.11-.17.03-.32.04-.46.04-1.03 0-1.55-.54-1.55-1.63v-3.18h-.76v-.39l.77-.34.34-1.14h.47v1.24h1.56v.63h-1.56v3.15c0 .32.08.57.23.74.16.18.37.26.63.26zm2.564-4.78v3.472c0 .436.1.762.298.977.198.215.51.322.932.322.56 0 .97-.16 1.228-.46.26-.31.39-.81.39-1.5v-2.82h.81V227h-.67l-.117-.718h-.04c-.16.264-.39.466-.69.606-.29.14-.63.21-1.01.21-.65 0-1.14-.155-1.46-.464-.32-.31-.48-.804-.48-1.485v-3.51h.82zm7.817-.097c.238 0 .45.02.64.06l-.112.75c-.222-.04-.417-.07-.586-.07-.44 0-.81.18-1.12.53-.31.35-.46.79-.46 1.32V227h-.81v-5.352h.67l.09.992h.04c.19-.35.43-.617.71-.806.28-.19.59-.283.92-.283zm5.303 5.45v-3.46c0-.43-.1-.76-.298-.97-.198-.21-.51-.32-.932-.32-.56 0-.97.15-1.23.46-.26.31-.392.81-.392 1.5v2.8h-.81v-5.35h.66l.13.73h.04c.166-.26.4-.46.698-.61.3-.14.633-.21 1-.21.646 0 1.13.16 1.456.47.326.31.49.81.49 1.49V227h-.812zm7.393 0h-.83v-6.4h-2.26v-.74h5.35v.74h-2.26v6.4zm7.832-2.68c0 .88-.22 1.56-.66 2.05-.44.49-1.046.74-1.82.74-.48 0-.904-.11-1.275-.33-.37-.22-.658-.54-.86-.96-.2-.42-.302-.91-.302-1.47 0-.87.218-1.55.654-2.04.436-.48 1.042-.73 1.816-.73.75 0 1.344.25 1.785.75.44.5.662 1.17.662 2.02zm-4.077 0c0 .69.136 1.21.41 1.57.273.36.675.54 1.206.54.53 0 .933-.18 1.208-.53.275-.35.413-.88.413-1.56s-.138-1.2-.413-1.55c-.275-.35-.68-.53-1.218-.53-.53 0-.93.17-1.2.52-.27.35-.406.87-.406 1.56zm6.298-.06c.14-.19.354-.45.64-.78l1.728-1.83h.962l-2.168 2.28 2.32 3.07h-.982l-1.89-2.53-.61.53v2h-.8v-7.59h.8v4.03c0 .18-.013.46-.04.83h.04zm6.71 2.84c-.792 0-1.416-.24-1.873-.72-.458-.48-.686-1.15-.686-2 0-.86.212-1.55.637-2.05.425-.51.995-.76 1.71-.76.672 0 1.203.22 1.593.67.39.44.586 1.02.586 1.75v.52h-3.686c.016.63.175 1.11.476 1.43.3.33.725.49 1.272.49.576 0 1.145-.12 1.71-.36v.73c-.288.13-.56.21-.814.27-.25.06-.56.08-.92.08zm-.22-4.87c-.43 0-.773.14-1.028.42-.256.28-.406.67-.452 1.17h2.798c0-.51-.114-.9-.342-1.17-.228-.27-.553-.41-.976-.41zm7.23 4.77v-3.46c0-.43-.098-.76-.297-.97-.2-.21-.51-.32-.94-.32-.56 0-.97.15-1.23.46-.26.31-.39.81-.39 1.5v2.8h-.81v-5.35h.66l.13.73h.04c.16-.26.4-.46.7-.61.3-.14.63-.21 1-.21.64 0 1.13.16 1.45.47.32.31.49.81.49 1.49V227h-.81z"/>
    <path fill="#FFF" d="M380 384h125v22H380z"/>
    <path fill="#000" d="M390.49 399h-.79v-5.088c0-.423.013-.823.04-1.2-.07.067-.146.14-.23.214-.085.075-.472.392-1.162.952l-.43-.557 1.89-1.46h.683V399zm2.97-.518c0-.218.05-.383.15-.495.098-.112.24-.17.426-.17.19 0 .336.058.442.17.106.112.16.277.16.495 0 .212-.055.375-.162.49-.108.113-.254.17-.44.17-.166 0-.303-.052-.412-.154-.11-.103-.164-.27-.164-.506zm9.985.518l-.888-2.27h-2.862l-.88 2.27h-.838l2.822-7.168h.69L404.3 399h-.86zm-1.147-3.018l-.83-2.21c-.108-.28-.218-.625-.332-1.032-.072.313-.174.656-.308 1.03l-.84 2.212h2.31zm3.628-2.334v3.472c0 .436.1.762.298.977.198.215.51.322.932.322.56 0 .97-.16 1.228-.46.26-.31.388-.81.388-1.5v-2.82h.81V399h-.668l-.117-.718h-.044c-.166.264-.396.466-.69.606-.296.14-.632.21-1.01.21-.65 0-1.138-.155-1.462-.464-.32-.31-.48-.804-.48-1.485v-3.51h.82zm7.104 4.78c.144 0 .282-.01.415-.03.134-.022.24-.044.318-.067v.62c-.088.05-.218.08-.388.11s-.325.04-.462.04c-1.035 0-1.553-.54-1.553-1.63v-3.18h-.766v-.39l.766-.34.342-1.14h.47v1.24h1.552v.63h-1.553v3.15c0 .32.08.57.23.74.16.18.37.26.63.26zm5.464.572v-3.462c0-.436-.1-.762-.298-.976-.198-.215-.51-.323-.932-.323-.563 0-.974.15-1.233.45-.25.3-.38.81-.38 1.5v2.8h-.81v-7.6h.81v2.3c0 .28-.01.5-.04.69h.05c.16-.26.39-.46.68-.61.3-.15.63-.22 1.01-.22.66 0 1.15.15 1.47.46.33.31.49.8.49 1.48v3.5h-.81zm9.443 0l-.98-3.14c-.063-.192-.178-.628-.348-1.308h-.04c-.13.57-.25 1.01-.34 1.318l-1.02 3.13h-.94l-1.46-5.352h.85l.78 3.072c.18.703.28 1.176.31 1.42h.04c.03-.185.09-.425.17-.72.08-.294.15-.528.21-.7l.98-3.072h.88l.95 3.072c.18.56.3 1.03.37 1.41h.04c.01-.116.05-.297.1-.54.06-.245.39-1.56 1.02-3.942h.84L428.9 399h-.962zm4.22 0h-.81v-5.352h.81V399zm-.88-6.802c0-.185.046-.32.137-.407.09-.08.205-.13.342-.13.13 0 .242.05.337.14.094.09.14.23.14.41 0 .19-.046.32-.14.41-.095.09-.207.14-.337.14-.137 0-.25-.04-.342-.13-.09-.09-.137-.22-.137-.4zm4.327 6.23c.143 0 .28-.01.415-.03.13-.022.23-.044.31-.067v.62c-.09.05-.22.08-.39.11s-.33.04-.46.04c-1.04 0-1.55-.54-1.55-1.63v-3.18h-.77v-.39l.76-.34.34-1.14h.47v1.24h1.55v.63h-1.56v3.15c0 .32.08.57.23.74.15.18.36.26.63.26zm5.463.572v-3.462c0-.436-.1-.762-.297-.976-.2-.215-.51-.323-.933-.323-.563 0-.974.15-1.233.45-.26.3-.388.81-.388 1.5v2.8h-.81v-7.6h.81v2.3c0 .28-.013.5-.04.69h.05c.16-.26.386-.46.68-.61.295-.15.63-.22 1.01-.22.653 0 1.144.15 1.47.46.328.31.492.8.492 1.48v3.5h-.81zm5.196 0v-7.14h.83v6.388h3.15V399h-3.98zm10.888-3.638c0 1.18-.31 2.08-.95 2.703-.64.623-1.56.935-2.76.935h-1.98v-7.14h2.19c1.11 0 1.97.31 2.59.924.62.615.92 1.475.92 2.578zm-.87.03c0-.93-.23-1.633-.7-2.105-.46-.472-1.16-.708-2.08-.708h-1.2v5.7h1.01c.99 0 1.74-.25 2.23-.73.5-.49.75-1.21.75-2.16zm6.95 3.608l-.88-2.27h-2.86l-.87 2.27h-.84l2.82-7.168h.7l2.8 7.168h-.86zm-1.14-3.018l-.83-2.21c-.1-.28-.22-.625-.33-1.032-.07.313-.17.656-.3 1.03l-.84 2.212h2.31zm7.52-2.04c0 .722-.24 1.278-.74 1.667-.49.38-1.2.58-2.11.58h-.84V399h-.83v-7.14h1.86c1.79 0 2.68.695 2.68 2.08zm-3.69 1.537h.75c.74 0 1.27-.12 1.6-.36.33-.24.5-.62.5-1.15 0-.48-.15-.83-.46-1.06-.31-.23-.79-.35-1.44-.35h-.93v2.9zm10.85-2.98c-.78 0-1.4.26-1.86.78-.45.52-.68 1.23-.68 2.14 0 .93.22 1.65.66 2.16.44.51 1.06.76 1.87.76.5 0 1.07-.09 1.71-.27v.73c-.49.18-1.1.27-1.83.27-1.05 0-1.86-.32-2.43-.96-.57-.64-.85-1.55-.85-2.72 0-.74.14-1.38.42-1.94.27-.55.67-.98 1.19-1.28.52-.3 1.13-.45 1.83-.45.75 0 1.41.13 1.97.41l-.35.71c-.54-.26-1.08-.38-1.62-.38zm5.57 1.05c.24 0 .45.02.64.06l-.11.75c-.22-.05-.42-.08-.58-.08-.43 0-.8.17-1.11.52-.31.35-.46.79-.46 1.31V399h-.81v-5.352h.67l.09.992h.04c.2-.35.44-.617.72-.806.28-.19.59-.283.93-.283zm3.91 5.54c-.79 0-1.41-.24-1.87-.73-.45-.48-.68-1.15-.68-2.01 0-.86.22-1.55.64-2.06.43-.51 1-.76 1.72-.76.67 0 1.2.22 1.59.66.39.44.59 1.02.59 1.74v.51h-3.69c.02.63.18 1.1.48 1.43.3.32.73.49 1.27.49.58 0 1.15-.12 1.71-.37v.72c-.29.12-.56.21-.81.27-.25.05-.56.08-.92.08zm-.22-4.87c-.43 0-.77.14-1.03.42-.25.28-.4.67-.45 1.16h2.8c0-.51-.11-.91-.34-1.18-.23-.27-.55-.41-.97-.41zm7.21 4.05h-.04c-.37.54-.93.81-1.68.81-.7 0-1.24-.24-1.63-.72-.39-.48-.58-1.16-.58-2.04 0-.89.2-1.57.59-2.06.39-.49.94-.73 1.63-.73.73 0 1.29.26 1.67.79h.07l-.03-.39-.02-.38v-2.18h.81v7.6h-.66l-.1-.72zm-1.62.13c.56 0 .96-.15 1.21-.46.25-.3.37-.79.37-1.46v-.17c0-.76-.12-1.3-.37-1.63-.25-.33-.66-.49-1.21-.49-.47 0-.84.18-1.09.55-.25.37-.38.89-.38 1.56 0 .68.13 1.2.38 1.54.25.35.62.52 1.11.52zm7.56-.88c0 .5-.18.88-.55 1.15-.37.27-.89.4-1.56.4-.71 0-1.26-.12-1.66-.34V398c.26.13.53.23.83.305.3.074.58.112.85.112.43 0 .75-.07.98-.205.23-.134.34-.34.34-.617 0-.21-.09-.387-.27-.535-.18-.148-.53-.323-1.06-.525-.5-.186-.85-.35-1.06-.486-.21-.14-.36-.3-.47-.47-.1-.18-.15-.39-.15-.63 0-.44.18-.79.54-1.04.36-.26.84-.38 1.46-.38.58 0 1.14.11 1.69.35l-.29.66c-.53-.22-1.02-.34-1.46-.34-.38 0-.67.06-.87.18-.19.12-.29.28-.29.49 0 .14.04.26.11.36.07.1.19.19.36.29.17.09.48.22.94.39.64.23 1.07.46 1.29.7.22.23.33.53.33.88z"/>
    <path fill="#575757" d="M130 396l7-3.5v7"/>
    <path stroke="#575757" d="M334.5 78.5v78m-.5-78h201.5"/>
    <path fill="#575757" d="M537 78.5l-7 3.5v-7"/>
    <path fill="#FFF" d="M372 67h125v22H372z"/>
    <path fill="#000" d="M384.18 82h-4.692v-.698l1.88-1.89c.573-.58.95-.993 1.133-1.24.19-.248.32-.488.41-.723.1-.24.14-.49.14-.76 0-.38-.11-.68-.34-.91-.23-.23-.55-.34-.96-.34-.29 0-.58.05-.84.14-.26.09-.56.27-.88.53l-.43-.55c.66-.55 1.38-.82 2.15-.82.67 0 1.2.17 1.58.51.38.34.57.8.57 1.38 0 .45-.12.9-.38 1.34-.25.44-.73 1-1.42 1.68l-1.56 1.53v.03h3.67V82zm1.28-.518c0-.218.05-.383.15-.495.098-.112.24-.17.426-.17.19 0 .336.058.442.17.106.112.16.277.16.495 0 .212-.055.375-.162.49-.108.113-.254.17-.44.17-.166 0-.303-.052-.412-.154-.11-.103-.164-.27-.164-.506zm9.575-6.62h.894L393.35 82h-.82l-2.558-7.14h.878l1.64 4.62c.19.53.34 1.047.45 1.548.118-.527.27-1.053.46-1.577l1.63-4.59zm4.014 7.236c-.8 0-1.42-.24-1.88-.723-.46-.482-.69-1.15-.69-2.007 0-.862.21-1.548.63-2.055.42-.508.99-.762 1.71-.762.67 0 1.2.22 1.59.67.39.44.58 1.03.58 1.75v.52h-3.69c.01.63.17 1.11.47 1.43.3.33.72.49 1.27.49.57 0 1.14-.12 1.71-.36v.73c-.29.13-.56.22-.82.27-.26.06-.57.08-.93.08zm-.22-4.87c-.43 0-.78.14-1.03.42-.26.28-.41.67-.45 1.164h2.79c0-.512-.12-.903-.34-1.175-.23-.272-.56-.408-.98-.408zm6.01-.677c.23 0 .45.02.64.06l-.12.75c-.22-.04-.42-.07-.59-.07-.44 0-.81.18-1.11.53-.31.35-.46.79-.46 1.32V82h-.82v-5.352h.67l.09.992h.04c.19-.35.43-.617.71-.806.28-.19.59-.283.92-.283zm2.45 5.45h-.81v-5.35h.81V82zm-.88-6.8c0-.18.04-.32.13-.4.09-.08.2-.13.34-.13.13 0 .24.05.34.14.09.09.14.23.14.41 0 .19-.05.32-.14.41-.1.09-.21.14-.34.14-.14 0-.25-.04-.34-.13-.1-.09-.14-.22-.14-.41zm5.01 2.08h-1.36V82h-.81v-4.722h-.96v-.366l.95-.293v-.3c0-1.32.57-1.97 1.72-1.97.28 0 .61.05.99.17l-.21.65c-.32-.11-.58-.16-.8-.16-.31 0-.53.1-.68.3-.15.2-.22.53-.22.98v.34h1.36v.63zm.12-.63h.87l1.17 3.05c.25.7.41 1.2.48 1.51h.04c.04-.16.13-.45.26-.85.13-.4.57-1.64 1.32-3.71h.87l-2.3 6.1c-.23.6-.49 1.03-.8 1.28-.31.25-.68.38-1.12.38-.25 0-.49-.02-.74-.08v-.65c.18.04.38.06.6.06.56 0 .96-.31 1.19-.94l.29-.76-2.16-5.38zm11.66-1.14c-.79 0-1.41.26-1.86.79-.46.52-.68 1.24-.68 2.15 0 .94.21 1.66.65 2.17.43.51 1.06.77 1.87.77.5 0 1.06-.09 1.7-.27v.73c-.5.19-1.11.28-1.83.28-1.06 0-1.87-.32-2.44-.95-.57-.64-.86-1.54-.86-2.72 0-.74.13-1.38.41-1.93.27-.55.67-.98 1.19-1.28.52-.3 1.13-.45 1.83-.45.75 0 1.41.14 1.97.41l-.35.71c-.54-.25-1.08-.38-1.62-.38zm5.57 1.05c.24 0 .45.02.64.06l-.11.75c-.23-.05-.42-.07-.59-.07-.44 0-.81.18-1.11.53-.31.36-.47.79-.47 1.32V82h-.81v-5.352h.67l.09.992h.04c.2-.35.44-.617.72-.806.28-.19.59-.283.92-.283zm3.9 5.55c-.79 0-1.42-.24-1.88-.72-.46-.48-.69-1.15-.69-2 0-.86.21-1.54.63-2.05.42-.51.99-.76 1.71-.76.67 0 1.2.22 1.59.66.39.44.58 1.02.58 1.75v.52h-3.69c.01.63.17 1.1.47 1.43.3.32.73.49 1.27.49.58 0 1.15-.12 1.71-.36v.73c-.29.13-.56.22-.81.27-.25.06-.56.08-.92.08zm-.22-4.87c-.43 0-.77.14-1.03.42-.26.28-.41.67-.46 1.17h2.79c0-.51-.11-.9-.34-1.17-.23-.27-.56-.41-.98-.41zm7.21 4.06h-.05c-.38.55-.93.82-1.68.82-.7 0-1.24-.24-1.63-.71-.39-.48-.59-1.16-.59-2.04 0-.88.19-1.57.58-2.05.39-.49.93-.73 1.63-.73.73 0 1.28.27 1.67.79h.06l-.04-.38-.02-.37v-2.18h.81V82h-.66l-.11-.718zm-1.63.14c.55 0 .95-.15 1.2-.45.25-.3.37-.78.37-1.45v-.17c0-.76-.13-1.3-.38-1.62-.25-.32-.66-.48-1.21-.48-.48 0-.84.19-1.09.56-.26.37-.38.89-.38 1.57s.12 1.2.37 1.55c.25.35.62.52 1.1.52zm7.56-.88c0 .5-.19.89-.56 1.16-.38.27-.9.41-1.57.41-.71 0-1.27-.11-1.66-.33v-.75c.25.13.53.23.83.31.29.08.58.11.85.11.42 0 .74-.07.97-.2.22-.13.34-.34.34-.62 0-.21-.09-.38-.27-.53-.18-.15-.54-.32-1.06-.52-.5-.18-.85-.35-1.06-.48-.21-.14-.36-.29-.47-.47-.1-.18-.15-.39-.15-.63 0-.44.18-.78.53-1.03.35-.25.84-.38 1.46-.38.58 0 1.14.12 1.69.35l-.29.66c-.54-.22-1.03-.33-1.46-.33-.39 0-.68.06-.87.18-.2.12-.29.29-.29.5 0 .148.03.27.11.37.07.1.19.2.35.29.16.09.47.22.93.398.63.23 1.06.465 1.29.7.22.234.33.53.33.883zM453.9 82l-.98-3.14c-.064-.19-.18-.627-.35-1.307h-.04c-.13.57-.242 1.01-.34 1.318L451.18 82h-.94l-1.46-5.35h.85l.79 3.07c.18.704.284 1.177.31 1.42h.04c.035-.184.093-.424.173-.72.08-.293.15-.527.207-.7l.982-3.07h.88l.956 3.07c.183.56.307 1.03.372 1.41h.04c.012-.115.047-.296.104-.54.057-.244.396-1.56 1.018-3.94h.84L454.864 82h-.962zm4.22 0h-.81v-5.35h.81V82zm-.88-6.8c0-.186.045-.32.136-.408.09-.086.204-.13.34-.13.13 0 .243.045.338.133.094.088.14.223.14.405 0 .183-.046.318-.14.408-.095.09-.207.134-.337.134-.136 0-.25-.045-.34-.134-.092-.09-.138-.225-.138-.408zm4.325 6.23c.144 0 .282-.01.415-.03.134-.023.24-.045.318-.068v.62c-.087.043-.217.078-.387.106-.17.028-.32.042-.46.042-1.03 0-1.55-.546-1.55-1.636V77.28h-.76v-.39l.77-.337.34-1.142h.47v1.24h1.55v.63h-1.55v3.15c0 .33.08.57.23.75.16.17.37.26.63.26zm5.464.57v-3.46c0-.437-.1-.763-.3-.977-.2-.215-.51-.323-.93-.323-.57 0-.98.152-1.24.458-.26.306-.39.808-.39 1.504V82h-.81v-7.598h.81v2.3c0 .277-.01.506-.04.69h.05c.16-.26.38-.46.68-.61.29-.147.63-.22 1.01-.22.65 0 1.14.154 1.47.465.32.31.49.805.49 1.482V82h-.81zm9.68 0l-.89-2.27h-2.86l-.88 2.27h-.84l2.82-7.167h.7L477.57 82h-.86zm-1.15-3.017l-.83-2.21c-.11-.28-.22-.625-.33-1.032-.07.32-.18.66-.31 1.03l-.84 2.22h2.31zm3.63-2.334v3.47c0 .43.1.76.3.97.2.21.51.32.93.32.56 0 .97-.16 1.23-.46.26-.31.39-.81.39-1.5v-2.81h.81V82h-.67l-.12-.718h-.05c-.17.264-.4.466-.69.606-.3.14-.63.21-1.01.21-.65 0-1.14-.155-1.46-.464-.33-.31-.49-.804-.49-1.485v-3.51h.82zm7.1 4.78c.14 0 .28-.01.41-.03.13-.03.24-.05.32-.07v.62c-.09.04-.22.08-.39.1-.17.03-.33.04-.46.04-1.04 0-1.56-.55-1.56-1.64v-3.18h-.77v-.39l.76-.34.34-1.15h.47v1.24h1.55v.63h-1.55v3.15c0 .32.07.57.23.74.15.17.36.26.63.26zm5.46.57v-3.46c0-.44-.1-.77-.3-.98-.2-.22-.51-.33-.94-.33-.57 0-.98.15-1.24.45-.26.3-.39.81-.39 1.5V82h-.81v-7.598h.81v2.3c0 .277-.02.506-.04.69h.05c.16-.26.38-.46.68-.61.29-.147.63-.22 1.01-.22.65 0 1.14.154 1.47.465.33.31.49.805.49 1.482V82h-.81z"/>
  </g>
</svg>
