<svg version="1.1" viewBox="0.0 0.0 757.0 468.0" fill="none" stroke="none" stroke-linecap="square" stroke-miterlimit="10" width="757" height="468" xmlns:xlink="http://www.w3.org/1999/xlink" xmlns="http://www.w3.org/2000/svg"><path fill="#ffffff" d="M0 0L757.0 0L757.0 468.0L0 468.0L0 0Z" fill-rule="nonzero"/><path stroke="#cccccc" stroke-width="1.0" stroke-linecap="butt" d="M106.5 70.5L106.5 392.5" fill-rule="nonzero"/><path stroke="#cccccc" stroke-width="1.0" stroke-linecap="butt" d="M210.5 70.5L210.5 392.5" fill-rule="nonzero"/><path stroke="#cccccc" stroke-width="1.0" stroke-linecap="butt" d="M315.5 70.5L315.5 392.5" fill-rule="nonzero"/><path stroke="#cccccc" stroke-width="1.0" stroke-linecap="butt" d="M419.5 70.5L419.5 392.5" fill-rule="nonzero"/><path stroke="#cccccc" stroke-width="1.0" stroke-linecap="butt" d="M524.5 70.5L524.5 392.5" fill-rule="nonzero"/><path stroke="#cccccc" stroke-width="1.0" stroke-linecap="butt" d="M629.5 70.5L629.5 392.5" fill-rule="nonzero"/><path stroke="#cccccc" stroke-width="1.0" stroke-linecap="butt" d="M733.5 70.5L733.5 392.5" fill-rule="nonzero"/><path stroke="#333333" stroke-width="1.0" stroke-linecap="butt" d="M85.5 392.5L733.5 392.5" fill-rule="nonzero"/><path stroke="#cccccc" stroke-width="1.0" stroke-linecap="butt" d="M85.5 311.5L733.5 311.5" fill-rule="nonzero"/><path stroke="#cccccc" stroke-width="1.0" stroke-linecap="butt" d="M85.5 231.5L733.5 231.5" fill-rule="nonzero"/><path stroke="#cccccc" stroke-width="1.0" stroke-linecap="butt" d="M85.5 150.5L733.5 150.5" fill-rule="nonzero"/><path stroke="#cccccc" stroke-width="1.0" stroke-linecap="butt" d="M85.5 70.5L733.5 70.5" fill-rule="nonzero"/><clipPath id="id_0"><path d="M85.4 70.0L733.6 70.0L733.6 392.6L85.4 392.6L85.4 70.0Z" clip-rule="nonzero"/></clipPath><path stroke="#4285f4" stroke-width="2.0" stroke-linecap="butt" clip-path="url(#id_0)" d="M85.4 228.8176L95.854836 208.90689L106.30968 191.52L116.76452 176.42986L127.21935 163.36752L137.6742 152.06392L148.12903 142.27042L158.58388 133.76714L169.03871 126.36464L179.49355 119.90208L189.94838 114.24402L200.40323 109.27682L210.85806 104.90512L221.3129 101.0488L231.76775 97.640236L242.22258 94.622154L252.67741 91.94577L263.13226 89.569336L273.5871 87.45691L284.04193 85.577446L294.49677 83.90395L304.9516 82.41292L315.40646 81.083725L325.8613 79.8983L336.31613 78.8407L346.77097 77.896866L357.2258 77.054344L367.68063 76.302124L378.1355 75.63041L388.59033 75.0305L399.04517 74.49467L409.5 74.01602L419.95483 73.58843L430.40967 73.20643L440.8645 72.865135L451.31937 72.560196L461.7742 72.287735L472.22903 72.04429L482.68387 71.82676L493.1387 71.63239L503.59354 71.4587L514.0484 71.303505L524.50323 71.16482L534.95807 71.04089L545.4129 70.93015L555.86774 70.83119L566.3226 70.74277L576.7774 70.66374L587.23224 70.59313L597.6871 70.53003L608.1419 70.47364L618.5968 70.423256L629.05164 70.37823L639.5065 70.33799L649.9613 70.30203L660.41614 70.269905L670.871 70.24119L681.3258 70.21553L691.78064 70.192604L702.2355 70.17211L712.6903 70.1538L723.14514 70.13744L733.6 70.12282" fill-rule="nonzero"/><path fill="#000000" fill-opacity="0.0" clip-path="url(#id_0)" d="M88.4 228.8176C88.4 230.47446 87.056854 231.8176 85.4 231.8176C83.74315 231.8176 82.4 230.47446 82.4 228.8176C82.4 227.16075 83.74315 225.8176 85.4 225.8176C87.056854 225.8176 88.4 227.16075 88.4 228.8176Z" fill-rule="nonzero"/><path fill="#000000" fill-opacity="0.0" clip-path="url(#id_0)" d="M98.854836 208.90689C98.854836 210.56375 97.511696 211.90689 95.854836 211.90689C94.19798 211.90689 92.854836 210.56375 92.854836 208.90689C92.854836 207.25005 94.19798 205.90689 95.854836 205.90689C97.511696 205.90689 98.854836 207.25005 98.854836 208.90689Z" fill-rule="nonzero"/><path fill="#000000" fill-opacity="0.0" clip-path="url(#id_0)" d="M109.30968 191.52C109.30968 193.17686 107.96653 194.52 106.30968 194.52C104.652824 194.52 103.30968 193.17686 103.30968 191.52C103.30968 189.86314 104.652824 188.52 106.30968 188.52C107.96653 188.52 109.30968 189.86314 109.30968 191.52Z" fill-rule="nonzero"/><path fill="#000000" fill-opacity="0.0" clip-path="url(#id_0)" d="M119.76452 176.42986C119.76452 178.08672 118.42137 179.42986 116.76452 179.42986C115.10766 179.42986 113.76452 178.08672 113.76452 176.42986C113.76452 174.773 115.10766 173.42986 116.76452 173.42986C118.42137 173.42986 119.76452 174.773 119.76452 176.42986Z" fill-rule="nonzero"/><path fill="#000000" fill-opacity="0.0" clip-path="url(#id_0)" d="M130.21936 163.36752C130.21936 165.02438 128.8762 166.36752 127.21935 166.36752C125.5625 166.36752 124.21935 165.02438 124.21935 163.36752C124.21935 161.71068 125.5625 160.36752 127.21935 160.36752C128.8762 160.36752 130.21936 161.71068 130.21936 163.36752Z" fill-rule="nonzero"/><path fill="#000000" fill-opacity="0.0" clip-path="url(#id_0)" d="M140.6742 152.06392C140.6742 153.72078 139.33105 155.06392 137.6742 155.06392C136.01733 155.06392 134.6742 153.72078 134.6742 152.06392C134.6742 150.40707 136.01733 149.06392 137.6742 149.06392C139.33105 149.06392 140.6742 150.40707 140.6742 152.06392Z" fill-rule="nonzero"/><path fill="#000000" fill-opacity="0.0" clip-path="url(#id_0)" d="M151.12903 142.27042C151.12903 143.92726 149.78589 145.27042 148.12903 145.27042C146.47218 145.27042 145.12903 143.92726 145.12903 142.27042C145.12903 140.61356 146.47218 139.27042 148.12903 139.27042C149.78589 139.27042 151.12903 140.61356 151.12903 142.27042Z" fill-rule="nonzero"/><path fill="#000000" fill-opacity="0.0" clip-path="url(#id_0)" d="M161.58388 133.76714C161.58388 135.424 160.24072 136.76714 158.58388 136.76714C156.92702 136.76714 155.58388 135.424 155.58388 133.76714C155.58388 132.11029 156.92702 130.76714 158.58388 130.76714C160.24072 130.76714 161.58388 132.11029 161.58388 133.76714Z" fill-rule="nonzero"/><path fill="#000000" fill-opacity="0.0" clip-path="url(#id_0)" d="M172.03871 126.36464C172.03871 128.0215 170.69556 129.36464 169.03871 129.36464C167.38185 129.36464 166.03871 128.0215 166.03871 126.36464C166.03871 124.70779 167.38185 123.36464 169.03871 123.36464C170.69556 123.36464 172.03871 124.70779 172.03871 126.36464Z" fill-rule="nonzero"/><path fill="#000000" fill-opacity="0.0" clip-path="url(#id_0)" d="M182.49355 119.90208C182.49355 121.55893 181.1504 122.90208 179.49355 122.90208C177.8367 122.90208 176.49355 121.55893 176.49355 119.90208C176.49355 118.245224 177.8367 116.90208 179.49355 116.90208C181.1504 116.90208 182.49355 118.245224 182.49355 119.90208Z" fill-rule="nonzero"/><path fill="#000000" fill-opacity="0.0" clip-path="url(#id_0)" d="M192.94838 114.24402C192.94838 115.90087 191.60524 117.24402 189.94838 117.24402C188.29153 117.24402 186.94838 115.90087 186.94838 114.24402C186.94838 112.587166 188.29153 111.24402 189.94838 111.24402C191.60524 111.24402 192.94838 112.587166 192.94838 114.24402Z" fill-rule="nonzero"/><path fill="#000000" fill-opacity="0.0" clip-path="url(#id_0)" d="M203.40323 109.27682C203.40323 110.93367 202.06007 112.27682 200.40323 112.27682C198.74637 112.27682 197.40323 110.93367 197.40323 109.27682C197.40323 107.61996 198.74637 106.27682 200.40323 106.27682C202.06007 106.27682 203.40323 107.61996 203.40323 109.27682Z" fill-rule="nonzero"/><path fill="#000000" fill-opacity="0.0" clip-path="url(#id_0)" d="M213.85806 104.90512C213.85806 106.56197 212.51492 107.90512 210.85806 107.90512C209.20122 107.90512 207.85806 106.56197 207.85806 104.90512C207.85806 103.24827 209.20122 101.90512 210.85806 101.90512C212.51492 101.90512 213.85806 103.24827 213.85806 104.90512Z" fill-rule="nonzero"/><path fill="#000000" fill-opacity="0.0" clip-path="url(#id_0)" d="M224.3129 101.0488C224.3129 102.70565 222.96976 104.0488 221.3129 104.0488C219.65605 104.0488 218.3129 102.70565 218.3129 101.0488C218.3129 99.391945 219.65605 98.0488 221.3129 98.0488C222.96976 98.0488 224.3129 99.391945 224.3129 101.0488Z" fill-rule="nonzero"/><path fill="#000000" fill-opacity="0.0" clip-path="url(#id_0)" d="M234.76775 97.640236C234.76775 99.2971 233.42459 100.640236 231.76775 100.640236C230.11089 100.640236 228.76775 99.2971 228.76775 97.640236C228.76775 95.98338 230.11089 94.640236 231.76775 94.640236C233.42459 94.640236 234.76775 95.98338 234.76775 97.640236Z" fill-rule="nonzero"/><path fill="#000000" fill-opacity="0.0" clip-path="url(#id_0)" d="M245.22258 94.622154C245.22258 96.27901 243.87944 97.622154 242.22258 97.622154C240.56572 97.622154 239.22258 96.27901 239.22258 94.622154C239.22258 92.9653 240.56572 91.622154 242.22258 91.622154C243.87944 91.622154 245.22258 92.9653 245.22258 94.622154Z" fill-rule="nonzero"/><path fill="#000000" fill-opacity="0.0" clip-path="url(#id_0)" d="M255.67741 91.94577C255.67741 93.60262 254.33427 94.94577 252.67741 94.94577C251.02057 94.94577 249.67741 93.60262 249.67741 91.94577C249.67741 90.28892 251.02057 88.94577 252.67741 88.94577C254.33427 88.94577 255.67741 90.28892 255.67741 91.94577Z" fill-rule="nonzero"/><path fill="#000000" fill-opacity="0.0" clip-path="url(#id_0)" d="M266.13226 89.569336C266.13226 91.22619 264.78912 92.569336 263.13226 92.569336C261.4754 92.569336 260.13226 91.22619 260.13226 89.569336C260.13226 87.912476 261.4754 86.569336 263.13226 86.569336C264.78912 86.569336 266.13226 87.912476 266.13226 89.569336Z" fill-rule="nonzero"/><path fill="#000000" fill-opacity="0.0" clip-path="url(#id_0)" d="M276.5871 87.45691C276.5871 89.11376 275.24396 90.45691 273.5871 90.45691C271.93024 90.45691 270.5871 89.11376 270.5871 87.45691C270.5871 85.80006 271.93024 84.45691 273.5871 84.45691C275.24396 84.45691 276.5871 85.80006 276.5871 87.45691Z" fill-rule="nonzero"/><path fill="#000000" fill-opacity="0.0" clip-path="url(#id_0)" d="M287.04193 85.577446C287.04193 87.2343 285.6988 88.577446 284.04193 88.577446C282.38507 88.577446 281.04193 87.2343 281.04193 85.577446C281.04193 83.92059 282.38507 82.577446 284.04193 82.577446C285.6988 82.577446 287.04193 83.92059 287.04193 85.577446Z" fill-rule="nonzero"/><path fill="#000000" fill-opacity="0.0" clip-path="url(#id_0)" d="M297.49677 83.90395C297.49677 85.560814 296.15363 86.90395 294.49677 86.90395C292.8399 86.90395 291.49677 85.560814 291.49677 83.90395C291.49677 82.2471 292.8399 80.90395 294.49677 80.90395C296.15363 80.90395 297.49677 82.2471 297.49677 83.90395Z" fill-rule="nonzero"/><path fill="#000000" fill-opacity="0.0" clip-path="url(#id_0)" d="M307.9516 82.41292C307.9516 84.06977 306.60846 85.41292 304.9516 85.41292C303.29477 85.41292 301.9516 84.06977 301.9516 82.41292C301.9516 80.756065 303.29477 79.41292 304.9516 79.41292C306.60846 79.41292 307.9516 80.756065 307.9516 82.41292Z" fill-rule="nonzero"/><path fill="#000000" fill-opacity="0.0" clip-path="url(#id_0)" d="M318.40646 81.083725C318.40646 82.74058 317.0633 84.083725 315.40646 84.083725C313.7496 84.083725 312.40646 82.74058 312.40646 81.083725C312.40646 79.42687 313.7496 78.083725 315.40646 78.083725C317.0633 78.083725 318.40646 79.42687 318.40646 81.083725Z" fill-rule="nonzero"/><path fill="#000000" fill-opacity="0.0" clip-path="url(#id_0)" d="M328.8613 79.8983C328.8613 81.55515 327.51816 82.8983 325.8613 82.8983C324.20444 82.8983 322.8613 81.55515 322.8613 79.8983C322.8613 78.24145 324.20444 76.8983 325.8613 76.8983C327.51816 76.8983 328.8613 78.24145 328.8613 79.8983Z" fill-rule="nonzero"/><path fill="#000000" fill-opacity="0.0" clip-path="url(#id_0)" d="M339.31613 78.8407C339.31613 80.49755 337.973 81.8407 336.31613 81.8407C334.65927 81.8407 333.31613 80.49755 333.31613 78.8407C333.31613 77.183846 334.65927 75.8407 336.31613 75.8407C337.973 75.8407 339.31613 77.183846 339.31613 78.8407Z" fill-rule="nonzero"/><path fill="#000000" fill-opacity="0.0" clip-path="url(#id_0)" d="M349.77097 77.896866C349.77097 79.55372 348.42783 80.896866 346.77097 80.896866C345.1141 80.896866 343.77097 79.55372 343.77097 77.896866C343.77097 76.240005 345.1141 74.896866 346.77097 74.896866C348.42783 74.896866 349.77097 76.240005 349.77097 77.896866Z" fill-rule="nonzero"/><path fill="#000000" fill-opacity="0.0" clip-path="url(#id_0)" d="M360.2258 77.054344C360.2258 78.711205 358.88266 80.054344 357.2258 80.054344C355.56894 80.054344 354.2258 78.711205 354.2258 77.054344C354.2258 75.39749 355.56894 74.054344 357.2258 74.054344C358.88266 74.054344 360.2258 75.39749 360.2258 77.054344Z" fill-rule="nonzero"/><path fill="#000000" fill-opacity="0.0" clip-path="url(#id_0)" d="M370.68063 76.302124C370.68063 77.95898 369.3375 79.302124 367.68063 79.302124C366.0238 79.302124 364.68063 77.95898 364.68063 76.302124C364.68063 74.64527 366.0238 73.302124 367.68063 73.302124C369.3375 73.302124 370.68063 74.64527 370.68063 76.302124Z" fill-rule="nonzero"/><path fill="#000000" fill-opacity="0.0" clip-path="url(#id_0)" d="M381.1355 75.63041C381.1355 77.28726 379.79233 78.63041 378.1355 78.63041C376.47864 78.63041 375.1355 77.28726 375.1355 75.63041C375.1355 73.97356 376.47864 72.63041 378.1355 72.63041C379.79233 72.63041 381.1355 73.97356 381.1355 75.63041Z" fill-rule="nonzero"/><path fill="#000000" fill-opacity="0.0" clip-path="url(#id_0)" d="M391.59033 75.0305C391.59033 76.687355 390.24716 78.0305 388.59033 78.0305C386.93347 78.0305 385.59033 76.687355 385.59033 75.0305C385.59033 73.37365 386.93347 72.0305 388.59033 72.0305C390.24716 72.0305 391.59033 73.37365 391.59033 75.0305Z" fill-rule="nonzero"/><path fill="#000000" fill-opacity="0.0" clip-path="url(#id_0)" d="M402.04517 74.49467C402.04517 76.15152 400.70203 77.49467 399.04517 77.49467C397.3883 77.49467 396.04517 76.15152 396.04517 74.49467C396.04517 72.837814 397.3883 71.49467 399.04517 71.49467C400.70203 71.49467 402.04517 72.837814 402.04517 74.49467Z" fill-rule="nonzero"/><path fill="#000000" fill-opacity="0.0" clip-path="url(#id_0)" d="M412.5 74.01602C412.5 75.672874 411.15686 77.01602 409.5 77.01602C407.84314 77.01602 406.5 75.672874 406.5 74.01602C406.5 72.35917 407.84314 71.01602 409.5 71.01602C411.15686 71.01602 412.5 72.35917 412.5 74.01602Z" fill-rule="nonzero"/><path fill="#000000" fill-opacity="0.0" clip-path="url(#id_0)" d="M422.95483 73.58843C422.95483 75.245285 421.6117 76.58843 419.95483 76.58843C418.29797 76.58843 416.95483 75.245285 416.95483 73.58843C416.95483 71.93158 418.29797 70.58843 419.95483 70.58843C421.6117 70.58843 422.95483 71.93158 422.95483 73.58843Z" fill-rule="nonzero"/><path fill="#000000" fill-opacity="0.0" clip-path="url(#id_0)" d="M433.40967 73.20643C433.40967 74.86328 432.06653 76.20643 430.40967 76.20643C428.75284 76.20643 427.40967 74.86328 427.40967 73.20643C427.40967 71.549576 428.75284 70.20643 430.40967 70.20643C432.06653 70.20643 433.40967 71.549576 433.40967 73.20643Z" fill-rule="nonzero"/><path fill="#000000" fill-opacity="0.0" clip-path="url(#id_0)" d="M443.8645 72.865135C443.8645 74.52199 442.52136 75.865135 440.8645 75.865135C439.20767 75.865135 437.8645 74.52199 437.8645 72.865135C437.8645 71.20828 439.20767 69.865135 440.8645 69.865135C442.52136 69.865135 443.8645 71.20828 443.8645 72.865135Z" fill-rule="nonzero"/><path fill="#000000" fill-opacity="0.0" clip-path="url(#id_0)" d="M454.31937 72.560196C454.31937 74.21705 452.9762 75.560196 451.31937 75.560196C449.6625 75.560196 448.31937 74.21705 448.31937 72.560196C448.31937 70.90334 449.6625 69.560196 451.31937 69.560196C452.9762 69.560196 454.31937 70.90334 454.31937 72.560196Z" fill-rule="nonzero"/><path fill="#000000" fill-opacity="0.0" clip-path="url(#id_0)" d="M464.7742 72.287735C464.7742 73.944595 463.43106 75.287735 461.7742 75.287735C460.11734 75.287735 458.7742 73.944595 458.7742 72.287735C458.7742 70.63088 460.11734 69.287735 461.7742 69.287735C463.43106 69.287735 464.7742 70.63088 464.7742 72.287735Z" fill-rule="nonzero"/><path fill="#000000" fill-opacity="0.0" clip-path="url(#id_0)" d="M475.22903 72.04429C475.22903 73.70115 473.8859 75.04429 472.22903 75.04429C470.57217 75.04429 469.22903 73.70115 469.22903 72.04429C469.22903 70.387436 470.57217 69.04429 472.22903 69.04429C473.8859 69.04429 475.22903 70.387436 475.22903 72.04429Z" fill-rule="nonzero"/><path fill="#000000" fill-opacity="0.0" clip-path="url(#id_0)" d="M485.68387 71.82676C485.68387 73.48362 484.34073 74.82676 482.68387 74.82676C481.027 74.82676 479.68387 73.48362 479.68387 71.82676C479.68387 70.16991 481.027 68.82676 482.68387 68.82676C484.34073 68.82676 485.68387 70.16991 485.68387 71.82676Z" fill-rule="nonzero"/><path fill="#000000" fill-opacity="0.0" clip-path="url(#id_0)" d="M496.1387 71.63239C496.1387 73.289246 494.79556 74.63239 493.1387 74.63239C491.48184 74.63239 490.1387 73.289246 490.1387 71.63239C490.1387 69.97553 491.48184 68.63239 493.1387 68.63239C494.79556 68.63239 496.1387 69.97553 496.1387 71.63239Z" fill-rule="nonzero"/><path fill="#000000" fill-opacity="0.0" clip-path="url(#id_0)" d="M506.59354 71.4587C506.59354 73.115555 505.2504 74.4587 503.59354 74.4587C501.9367 74.4587 500.59354 73.115555 500.59354 71.4587C500.59354 69.80185 501.9367 68.4587 503.59354 68.4587C505.2504 68.4587 506.59354 69.80185 506.59354 71.4587Z" fill-rule="nonzero"/><path fill="#000000" fill-opacity="0.0" clip-path="url(#id_0)" d="M517.0484 71.303505C517.0484 72.96036 515.70526 74.303505 514.0484 74.303505C512.39154 74.303505 511.0484 72.96036 511.0484 71.303505C511.0484 69.64665 512.39154 68.303505 514.0484 68.303505C515.70526 68.303505 517.0484 69.64665 517.0484 71.303505Z" fill-rule="nonzero"/><path fill="#000000" fill-opacity="0.0" clip-path="url(#id_0)" d="M527.50323 71.16482C527.50323 72.82167 526.1601 74.16482 524.50323 74.16482C522.8464 74.16482 521.50323 72.82167 521.50323 71.16482C521.50323 69.507965 522.8464 68.16482 524.50323 68.16482C526.1601 68.16482 527.50323 69.507965 527.50323 71.16482Z" fill-rule="nonzero"/><path fill="#000000" fill-opacity="0.0" clip-path="url(#id_0)" d="M537.95807 71.04089C537.95807 72.69775 536.6149 74.04089 534.95807 74.04089C533.3012 74.04089 531.95807 72.69775 531.95807 71.04089C531.95807 69.38404 533.3012 68.04089 534.95807 68.04089C536.6149 68.04089 537.95807 69.38404 537.95807 71.04089Z" fill-rule="nonzero"/><path fill="#000000" fill-opacity="0.0" clip-path="url(#id_0)" d="M548.4129 70.93015C548.4129 72.587006 547.06976 73.93015 545.4129 73.93015C543.75604 73.93015 542.4129 72.587006 542.4129 70.93015C542.4129 69.2733 543.75604 67.93015 545.4129 67.93015C547.06976 67.93015 548.4129 69.2733 548.4129 70.93015Z" fill-rule="nonzero"/><path fill="#000000" fill-opacity="0.0" clip-path="url(#id_0)" d="M558.86774 70.83119C558.86774 72.488045 557.5246 73.83119 555.86774 73.83119C554.2109 73.83119 552.86774 72.488045 552.86774 70.83119C552.86774 69.17434 554.2109 67.83119 555.86774 67.83119C557.5246 67.83119 558.86774 69.17434 558.86774 70.83119Z" fill-rule="nonzero"/><path fill="#000000" fill-opacity="0.0" clip-path="url(#id_0)" d="M569.3226 70.74277C569.3226 72.39962 567.97943 73.74277 566.3226 73.74277C564.6657 73.74277 563.3226 72.39962 563.3226 70.74277C563.3226 69.08591 564.6657 67.74277 566.3226 67.74277C567.97943 67.74277 569.3226 69.08591 569.3226 70.74277Z" fill-rule="nonzero"/><path fill="#000000" fill-opacity="0.0" clip-path="url(#id_0)" d="M579.7774 70.66374C579.7774 72.3206 578.43427 73.66374 576.7774 73.66374C575.12054 73.66374 573.7774 72.3206 573.7774 70.66374C573.7774 69.00689 575.12054 67.66374 576.7774 67.66374C578.43427 67.66374 579.7774 69.00689 579.7774 70.66374Z" fill-rule="nonzero"/><path fill="#000000" fill-opacity="0.0" clip-path="url(#id_0)" d="M590.23224 70.59313C590.23224 72.249985 588.8891 73.59313 587.23224 73.59313C585.5754 73.59313 584.23224 72.249985 584.23224 70.59313C584.23224 68.93628 585.5754 67.59313 587.23224 67.59313C588.8891 67.59313 590.23224 68.93628 590.23224 70.59313Z" fill-rule="nonzero"/><path fill="#000000" fill-opacity="0.0" clip-path="url(#id_0)" d="M600.6871 70.53003C600.6871 72.18688 599.34393 73.53003 597.6871 73.53003C596.0302 73.53003 594.6871 72.18688 594.6871 70.53003C594.6871 68.87318 596.0302 67.53003 597.6871 67.53003C599.34393 67.53003 600.6871 68.87318 600.6871 70.53003Z" fill-rule="nonzero"/><path fill="#000000" fill-opacity="0.0" clip-path="url(#id_0)" d="M611.1419 70.47364C611.1419 72.1305 609.79877 73.47364 608.1419 73.47364C606.4851 73.47364 605.1419 72.1305 605.1419 70.47364C605.1419 68.81679 606.4851 67.47364 608.1419 67.47364C609.79877 67.47364 611.1419 68.81679 611.1419 70.47364Z" fill-rule="nonzero"/><path fill="#000000" fill-opacity="0.0" clip-path="url(#id_0)" d="M621.5968 70.423256C621.5968 72.08011 620.2536 73.423256 618.5968 73.423256C616.93994 73.423256 615.5968 72.08011 615.5968 70.423256C615.5968 68.7664 616.93994 67.423256 618.5968 67.423256C620.2536 67.423256 621.5968 68.7664 621.5968 70.423256Z" fill-rule="nonzero"/><path fill="#000000" fill-opacity="0.0" clip-path="url(#id_0)" d="M632.05164 70.37823C632.05164 72.03508 630.7085 73.37823 629.05164 73.37823C627.3948 73.37823 626.05164 72.03508 626.05164 70.37823C626.05164 68.721375 627.3948 67.37823 629.05164 67.37823C630.7085 67.37823 632.05164 68.721375 632.05164 70.37823Z" fill-rule="nonzero"/><path fill="#000000" fill-opacity="0.0" clip-path="url(#id_0)" d="M642.5065 70.33799C642.5065 71.99484 641.1633 73.33799 639.5065 73.33799C637.8496 73.33799 636.5065 71.99484 636.5065 70.33799C636.5065 68.68114 637.8496 67.33799 639.5065 67.33799C641.1633 67.33799 642.5065 68.68114 642.5065 70.33799Z" fill-rule="nonzero"/><path fill="#000000" fill-opacity="0.0" clip-path="url(#id_0)" d="M652.9613 70.30203C652.9613 71.958885 651.61816 73.30203 649.9613 73.30203C648.30444 73.30203 646.9613 71.958885 646.9613 70.30203C646.9613 68.64518 648.30444 67.30203 649.9613 67.30203C651.61816 67.30203 652.9613 68.64518 652.9613 70.30203Z" fill-rule="nonzero"/><path fill="#000000" fill-opacity="0.0" clip-path="url(#id_0)" d="M663.41614 70.269905C663.41614 71.92676 662.073 73.269905 660.41614 73.269905C658.7593 73.269905 657.41614 71.92676 657.41614 70.269905C657.41614 68.613045 658.7593 67.269905 660.41614 67.269905C662.073 67.269905 663.41614 68.613045 663.41614 70.269905Z" fill-rule="nonzero"/><path fill="#000000" fill-opacity="0.0" clip-path="url(#id_0)" d="M673.871 70.24119C673.871 71.89804 672.52783 73.24119 670.871 73.24119C669.2141 73.24119 667.871 71.89804 667.871 70.24119C667.871 68.584335 669.2141 67.24119 670.871 67.24119C672.52783 67.24119 673.871 68.584335 673.871 70.24119Z" fill-rule="nonzero"/><path fill="#000000" fill-opacity="0.0" clip-path="url(#id_0)" d="M684.3258 70.21553C684.3258 71.87238 682.98267 73.21553 681.3258 73.21553C679.66895 73.21553 678.3258 71.87238 678.3258 70.21553C678.3258 68.55868 679.66895 67.21553 681.3258 67.21553C682.98267 67.21553 684.3258 68.55868 684.3258 70.21553Z" fill-rule="nonzero"/><path fill="#000000" fill-opacity="0.0" clip-path="url(#id_0)" d="M694.78064 70.192604C694.78064 71.84946 693.4375 73.192604 691.78064 73.192604C690.1238 73.192604 688.78064 71.84946 688.78064 70.192604C688.78064 68.53574 690.1238 67.192604 691.78064 67.192604C693.4375 67.192604 694.78064 68.53574 694.78064 70.192604Z" fill-rule="nonzero"/><path fill="#000000" fill-opacity="0.0" clip-path="url(#id_0)" d="M705.2355 70.17211C705.2355 71.828964 703.89233 73.17211 702.2355 73.17211C700.5786 73.17211 699.2355 71.828964 699.2355 70.17211C699.2355 68.51526 700.5786 67.17211 702.2355 67.17211C703.89233 67.17211 705.2355 68.51526 705.2355 70.17211Z" fill-rule="nonzero"/><path fill="#000000" fill-opacity="0.0" clip-path="url(#id_0)" d="M715.6903 70.1538C715.6903 71.81065 714.34717 73.1538 712.6903 73.1538C711.03345 73.1538 709.6903 71.81065 709.6903 70.1538C709.6903 68.49695 711.03345 67.1538 712.6903 67.1538C714.34717 67.1538 715.6903 68.49695 715.6903 70.1538Z" fill-rule="nonzero"/><path fill="#000000" fill-opacity="0.0" clip-path="url(#id_0)" d="M726.14514 70.13744C726.14514 71.7943 724.802 73.13744 723.14514 73.13744C721.4883 73.13744 720.14514 71.7943 720.14514 70.13744C720.14514 68.48058 721.4883 67.13744 723.14514 67.13744C724.802 67.13744 726.14514 68.48058 726.14514 70.13744Z" fill-rule="nonzero"/><path fill="#000000" fill-opacity="0.0" clip-path="url(#id_0)" d="M736.6 70.12282C736.6 71.77967 735.25684 73.12282 733.6 73.12282C731.9431 73.12282 730.6 71.77967 730.6 70.12282C730.6 68.465965 731.9431 67.12282 733.6 67.12282C735.25684 67.12282 736.6 68.465965 736.6 70.12282Z" fill-rule="nonzero"/><path fill="#000000" d="M362.92188 441.6L362.92188 433.00626L366.17188 433.00626Q367.01562 433.00626 367.46875 433.08438Q368.10938 433.19376 368.53125 433.49063Q368.96875 433.7875 369.21875 434.31876Q369.48438 434.85 369.48438 435.49063Q369.48438 436.58438 368.78125 437.35Q368.09375 438.1 366.26562 438.1L364.0625 438.1L364.0625 441.6L362.92188 441.6ZM364.0625 437.1L366.28125 437.1Q367.39062 437.1 367.84375 436.69376Q368.3125 436.27188 368.3125 435.52188Q368.3125 434.99063 368.03125 434.61563Q367.76562 434.225 367.32812 434.1Q367.03125 434.02188 366.26562 434.02188L364.0625 434.02188L364.0625 437.1ZM374.85938 440.83438Q374.26562 441.33438 373.71875 441.5375Q373.1875 441.74063 372.5625 441.74063Q371.53125 441.74063 370.98438 441.24063Q370.4375 440.74063 370.4375 439.95938Q370.4375 439.50626 370.64062 439.13126Q370.84375 438.74063 371.1875 438.52188Q371.53125 438.2875 371.95312 438.17813Q372.25 438.08438 372.89062 438.00626Q374.15625 437.86563 374.76562 437.64688Q374.76562 437.42813 374.76562 437.38126Q374.76562 436.725 374.46875 436.45938Q374.0625 436.11563 373.26562 436.11563Q372.53125 436.11563 372.17188 436.38126Q371.8125 436.63126 371.64062 437.2875L370.60938 437.14688Q370.75 436.49063 371.07812 436.08438Q371.40625 435.67813 372.01562 435.45938Q372.625 435.24063 373.42188 435.24063Q374.21875 435.24063 374.71875 435.42813Q375.21875 435.61563 375.45312 435.89688Q375.6875 436.17813 375.78125 436.61563Q375.82812 436.88126 375.82812 437.58438L375.82812 438.99063Q375.82812 440.45938 375.89062 440.85Q375.96875 441.24063 376.17188 441.6L375.0625 441.6Q374.90625 441.27188 374.85938 440.83438ZM374.76562 438.475Q374.1875 438.70938 373.04688 438.88126Q372.39062 438.975 372.125 439.1Q371.85938 439.20938 371.70312 439.42813Q371.5625 439.64688 371.5625 439.92813Q371.5625 440.35 371.875 440.63126Q372.20312 440.9125 372.8125 440.9125Q373.42188 440.9125 373.89062 440.64688Q374.375 440.38126 374.59375 439.9125Q374.76562 439.55313 374.76562 438.86563L374.76562 438.475ZM377.375 439.74063L378.40625 439.58438Q378.5 440.20938 378.89062 440.5375Q379.29688 440.86563 380.03125 440.86563Q380.75 440.86563 381.09375 440.58438Q381.45312 440.2875 381.45312 439.88126Q381.45312 439.52188 381.14062 439.31876Q380.92188 439.17813 380.0625 438.95938Q378.90625 438.6625 378.45312 438.45938Q378.01562 438.24063 377.78125 437.86563Q377.54688 437.49063 377.54688 437.02188Q377.54688 436.61563 377.73438 436.25626Q377.92188 435.89688 378.25 435.6625Q378.5 435.49063 378.92188 435.36563Q379.34375 435.24063 379.84375 435.24063Q380.5625 435.24063 381.10938 435.45938Q381.67188 435.6625 381.9375 436.02188Q382.20312 436.38126 382.29688 436.975L381.26562 437.11563Q381.20312 436.64688 380.85938 436.38126Q380.53125 436.1 379.90625 436.1Q379.1875 436.1 378.875 436.35Q378.5625 436.58438 378.5625 436.9125Q378.5625 437.11563 378.6875 437.27188Q378.82812 437.44376 379.09375 437.55313Q379.25 437.61563 380.03125 437.81876Q381.15625 438.13126 381.59375 438.31876Q382.03125 438.50626 382.28125 438.86563Q382.53125 439.225 382.53125 439.77188Q382.53125 440.30313 382.21875 440.77188Q381.92188 441.225 381.34375 441.49063Q380.76562 441.74063 380.03125 441.74063Q378.8125 441.74063 378.17188 441.24063Q377.54688 440.725 377.375 439.74063ZM383.375 439.74063L384.40625 439.58438Q384.5 440.20938 384.89062 440.5375Q385.29688 440.86563 386.03125 440.86563Q386.75 440.86563 387.09375 440.58438Q387.45312 440.2875 387.45312 439.88126Q387.45312 439.52188 387.14062 439.31876Q386.92188 439.17813 386.0625 438.95938Q384.90625 438.6625 384.45312 438.45938Q384.01562 438.24063 383.78125 437.86563Q383.54688 437.49063 383.54688 437.02188Q383.54688 436.61563 383.73438 436.25626Q383.92188 435.89688 384.25 435.6625Q384.5 435.49063 384.92188 435.36563Q385.34375 435.24063 385.84375 435.24063Q386.5625 435.24063 387.10938 435.45938Q387.67188 435.6625 387.9375 436.02188Q388.20312 436.38126 388.29688 436.975L387.26562 437.11563Q387.20312 436.64688 386.85938 436.38126Q386.53125 436.1 385.90625 436.1Q385.1875 436.1 384.875 436.35Q384.5625 436.58438 384.5625 436.9125Q384.5625 437.11563 384.6875 437.27188Q384.82812 437.44376 385.09375 437.55313Q385.25 437.61563 386.03125 437.81876Q387.15625 438.13126 387.59375 438.31876Q388.03125 438.50626 388.28125 438.86563Q388.53125 439.225 388.53125 439.77188Q388.53125 440.30313 388.21875 440.77188Q387.92188 441.225 387.34375 441.49063Q386.76562 441.74063 386.03125 441.74063Q384.8125 441.74063 384.17188 441.24063Q383.54688 440.725 383.375 439.74063ZM390.9375 441.6L389.03125 435.38126L390.125 435.38126L391.10938 438.975L391.48438 440.30313Q391.51562 440.20938 391.8125 439.02188L392.79688 435.38126L393.875 435.38126L394.8125 438.99063L395.125 440.17813L395.48438 438.975L396.54688 435.38126L397.57812 435.38126L395.625 441.6L394.53125 441.6L393.54688 437.86563L393.29688 436.81876L392.04688 441.6L390.9375 441.6ZM398.40625 438.49063Q398.40625 436.75626 399.35938 435.92813Q400.15625 435.24063 401.3125 435.24063Q402.59375 435.24063 403.40625 436.08438Q404.23438 436.9125 404.23438 438.39688Q404.23438 439.6 403.875 440.2875Q403.51562 440.975 402.8125 441.36563Q402.125 441.74063 401.3125 441.74063Q400.01562 441.74063 399.20312 440.9125Q398.40625 440.06876 398.40625 438.49063ZM399.48438 438.49063Q399.48438 439.67813 400.0 440.27188Q400.53125 440.86563 401.3125 440.86563Q402.10938 440.86563 402.625 440.27188Q403.14062 439.67813 403.14062 438.45938Q403.14062 437.30313 402.60938 436.70938Q402.09375 436.11563 401.3125 436.11563Q400.53125 436.11563 400.0 436.70938Q399.48438 437.2875 399.48438 438.49063ZM405.78125 441.6L405.78125 435.38126L406.73438 435.38126L406.73438 436.31876Q407.09375 435.6625 407.39062 435.45938Q407.70312 435.24063 408.07812 435.24063Q408.60938 435.24063 409.15625 435.56876L408.79688 436.55313Q408.40625 436.31876 408.03125 436.31876Q407.67188 436.31876 407.39062 436.5375Q407.125 436.74063 407.01562 437.11563Q406.82812 437.67813 406.82812 438.33438L406.82812 441.6L405.78125 441.6ZM413.82812 441.6L413.82812 440.81876Q413.23438 441.74063 412.09375 441.74063Q411.34375 441.74063 410.71875 441.33438Q410.09375 440.9125 409.75 440.17813Q409.40625 439.44376 409.40625 438.49063Q409.40625 437.56876 409.71875 436.80313Q410.03125 436.0375 410.65625 435.64688Q411.28125 435.24063 412.04688 435.24063Q412.60938 435.24063 413.04688 435.475Q413.48438 435.70938 413.76562 436.08438L413.76562 433.00626L414.8125 433.00626L414.8125 441.6L413.82812 441.6ZM410.5 438.49063Q410.5 439.69376 411.0 440.2875Q411.5 440.86563 412.1875 440.86563Q412.875 440.86563 413.35938 440.30313Q413.84375 439.74063 413.84375 438.58438Q413.84375 437.30313 413.34375 436.70938Q412.85938 436.11563 412.14062 436.11563Q411.4375 436.11563 410.96875 436.69376Q410.5 437.25626 410.5 438.49063ZM419.875 441.6L419.875 433.00626L421.01562 433.00626L421.01562 440.58438L425.25 440.58438L425.25 441.6L419.875 441.6ZM431.04688 439.6L432.14062 439.725Q431.89062 440.67813 431.1875 441.20938Q430.48438 441.74063 429.40625 441.74063Q428.04688 441.74063 427.23438 440.89688Q426.4375 440.05313 426.4375 438.5375Q426.4375 436.975 427.25 436.11563Q428.0625 435.24063 429.34375 435.24063Q430.59375 435.24063 431.375 436.08438Q432.17188 436.92813 432.17188 438.475Q432.17188 438.56876 432.17188 438.75626L427.53125 438.75626Q427.59375 439.7875 428.10938 440.33438Q428.625 440.86563 429.40625 440.86563Q429.98438 440.86563 430.39062 440.56876Q430.8125 440.25626 431.04688 439.6ZM427.59375 437.89688L431.0625 437.89688Q431.0 437.1 430.67188 436.70938Q430.15625 436.1 429.35938 436.1Q428.625 436.1 428.125 436.58438Q427.64062 437.06876 427.59375 437.89688ZM433.79688 441.6L433.79688 435.38126L434.73438 435.38126L434.73438 436.25626Q435.42188 435.24063 436.71875 435.24063Q437.28125 435.24063 437.75 435.44376Q438.23438 435.64688 438.46875 435.975Q438.70312 436.30313 438.79688 436.74063Q438.84375 437.0375 438.84375 437.77188L438.84375 441.6L437.79688 441.6L437.79688 437.81876Q437.79688 437.1625 437.67188 436.85Q437.54688 436.5375 437.23438 436.35Q436.92188 436.14688 436.5 436.14688Q435.82812 436.14688 435.32812 436.58438Q434.84375 437.00626 434.84375 438.19376L434.84375 441.6L433.79688 441.6ZM440.59375 442.11563L441.625 442.27188Q441.6875 442.74063 441.98438 442.95938Q442.375 443.25626 443.04688 443.25626Q443.78125 443.25626 444.17188 442.95938Q444.57812 442.6625 444.71875 442.14688Q444.8125 441.81876 444.79688 440.7875Q444.10938 441.6 443.07812 441.6Q441.79688 441.6 441.09375 440.67813Q440.39062 439.74063 440.39062 438.45938Q440.39062 437.56876 440.70312 436.81876Q441.03125 436.05313 441.64062 435.64688Q442.25 435.24063 443.07812 435.24063Q444.1875 435.24063 444.90625 436.13126L444.90625 435.38126L445.875 435.38126L445.875 440.75626Q445.875 442.20938 445.57812 442.81876Q445.28125 443.42813 444.64062 443.77188Q444.0 444.13126 443.0625 444.13126Q441.95312 444.13126 441.26562 443.63126Q440.57812 443.13126 440.59375 442.11563ZM441.46875 438.38126Q441.46875 439.6 441.95312 440.1625Q442.4375 440.725 443.17188 440.725Q443.90625 440.725 444.39062 440.1625Q444.89062 439.6 444.89062 438.4125Q444.89062 437.27188 444.375 436.69376Q443.875 436.11563 443.15625 436.11563Q442.45312 436.11563 441.95312 436.69376Q441.46875 437.25626 441.46875 438.38126ZM450.09375 440.6625L450.25 441.58438Q449.79688 441.67813 449.45312 441.67813Q448.875 441.67813 448.5625 441.50626Q448.25 441.31876 448.10938 441.02188Q447.98438 440.725 447.98438 439.77188L447.98438 436.19376L447.21875 436.19376L447.21875 435.38126L447.98438 435.38126L447.98438 433.83438L449.03125 433.20938L449.03125 435.38126L450.09375 435.38126L450.09375 436.19376L449.03125 436.19376L449.03125 439.83438Q449.03125 440.2875 449.07812 440.4125Q449.14062 440.5375 449.26562 440.61563Q449.39062 440.69376 449.625 440.69376Q449.8125 440.69376 450.09375 440.6625ZM450.79688 441.6L450.79688 433.00626L451.84375 433.00626L451.84375 436.08438Q452.57812 435.24063 453.70312 435.24063Q454.40625 435.24063 454.90625 435.52188Q455.42188 435.7875 455.64062 436.27188Q455.85938 436.74063 455.85938 437.6625L455.85938 441.6L454.8125 441.6L454.8125 437.6625Q454.8125 436.86563 454.46875 436.50626Q454.125 436.14688 453.5 436.14688Q453.03125 436.14688 452.60938 436.39688Q452.20312 436.63126 452.01562 437.05313Q451.84375 437.45938 451.84375 438.19376L451.84375 441.6L450.79688 441.6Z" fill-rule="nonzero"/><path fill="#000000" d="M34.400005 265.8781L25.806255 265.8781L25.806255 262.6281Q25.806255 261.78436 25.88438 261.33124Q25.993755 260.6906 26.29063 260.26874Q26.587505 259.83124 27.118755 259.58124Q27.650005 259.3156 28.29063 259.3156Q29.38438 259.3156 30.150005 260.01874Q30.900005 260.70624 30.900005 262.53436L30.900005 264.7375L34.400005 264.7375L34.400005 265.8781ZM29.900005 264.7375L29.900005 262.51874Q29.900005 261.40936 29.493755 260.95624Q29.07188 260.4875 28.32188 260.4875Q27.79063 260.4875 27.41563 260.76874Q27.025005 261.03436 26.900005 261.47186Q26.82188 261.76874 26.82188 262.53436L26.82188 264.7375L29.900005 264.7375ZM34.400005 258.01874L28.181255 258.01874L28.181255 257.0656L29.118755 257.0656Q28.462505 256.70624 28.25938 256.40936Q28.04063 256.09686 28.04063 255.72188Q28.04063 255.19063 28.368755 254.64375L29.35313 255.00313Q29.118755 255.39375 29.118755 255.76875Q29.118755 256.1281 29.337505 256.40936Q29.54063 256.675 29.91563 256.78436Q30.47813 256.97186 31.13438 256.97186L34.400005 256.97186L34.400005 258.01874ZM31.29063 254.39375Q29.556255 254.39375 28.72813 253.44063Q28.04063 252.64375 28.04063 251.4875Q28.04063 250.20625 28.88438 249.39375Q29.712505 248.56563 31.19688 248.56563Q32.400005 248.56563 33.087505 248.925Q33.775005 249.28438 34.16563 249.9875Q34.54063 250.675 34.54063 251.4875Q34.54063 252.78438 33.712505 253.59688Q32.868755 254.39375 31.29063 254.39375ZM31.29063 253.31563Q32.47813 253.31563 33.07188 252.8Q33.66563 252.26875 33.66563 251.4875Q33.66563 250.69063 33.07188 250.175Q32.47813 249.65938 31.25938 249.65938Q30.10313 249.65938 29.50938 250.19063Q28.91563 250.70625 28.91563 251.4875Q28.91563 252.26875 29.50938 252.8Q30.087505 253.31563 31.29063 253.31563ZM34.400005 246.03438L34.400005 247.01875L25.806255 247.01875L25.806255 245.95625L28.868755 245.95625Q28.04063 245.28438 28.04063 244.25313Q28.04063 243.675 28.275005 243.175Q28.493755 242.65938 28.91563 242.33125Q29.337505 241.9875 29.931255 241.8Q30.525005 241.6125 31.19688 241.6125Q32.79063 241.6125 33.66563 242.40938Q34.54063 243.20625 34.54063 244.3Q34.54063 245.40938 33.618755 246.03438L34.400005 246.03438ZM31.243755 246.05Q32.35313 246.05 32.85313 245.7375Q33.66563 245.2375 33.66563 244.39375Q33.66563 243.70625 33.07188 243.20625Q32.47813 242.69063 31.275005 242.69063Q30.056255 242.69063 29.47813 243.175Q28.900005 243.65938 28.900005 244.34688Q28.900005 245.03438 29.50938 245.55Q30.10313 246.05 31.243755 246.05ZM33.63438 235.94063Q34.13438 236.53438 34.337505 237.08125Q34.54063 237.6125 34.54063 238.2375Q34.54063 239.26875 34.04063 239.81563Q33.54063 240.3625 32.75938 240.3625Q32.306255 240.3625 31.931255 240.15938Q31.54063 239.95625 31.32188 239.6125Q31.087505 239.26875 30.97813 238.84688Q30.88438 238.55 30.806255 237.90938Q30.66563 236.64375 30.44688 236.03438Q30.22813 236.03438 30.181255 236.03438Q29.525005 236.03438 29.25938 236.33125Q28.91563 236.7375 28.91563 237.53438Q28.91563 238.26875 29.181255 238.62813Q29.431255 238.9875 30.087505 239.15938L29.94688 240.19063Q29.29063 240.05 28.88438 239.72188Q28.47813 239.39375 28.25938 238.78438Q28.04063 238.175 28.04063 237.37813Q28.04063 236.58125 28.22813 236.08125Q28.41563 235.58125 28.69688 235.34688Q28.97813 235.1125 29.41563 235.01875Q29.681255 234.97188 30.38438 234.97188L31.79063 234.97188Q33.25938 234.97188 33.650005 234.90938Q34.04063 234.83125 34.400005 234.62813L34.400005 235.7375Q34.07188 235.89375 33.63438 235.94063ZM31.275005 236.03438Q31.50938 236.6125 31.681255 237.75313Q31.775005 238.40938 31.900005 238.675Q32.00938 238.94063 32.22813 239.09688Q32.44688 239.2375 32.72813 239.2375Q33.150005 239.2375 33.431255 238.925Q33.712505 238.59688 33.712505 237.9875Q33.712505 237.37813 33.44688 236.90938Q33.181255 236.425 32.712505 236.20625Q32.35313 236.03438 31.66563 236.03438L31.275005 236.03438ZM34.400005 232.03438L34.400005 233.01875L25.806255 233.01875L25.806255 231.95625L28.868755 231.95625Q28.04063 231.28438 28.04063 230.25313Q28.04063 229.675 28.275005 229.175Q28.493755 228.65938 28.91563 228.33125Q29.337505 227.9875 29.931255 227.8Q30.525005 227.6125 31.19688 227.6125Q32.79063 227.6125 33.66563 228.40938Q34.54063 229.20625 34.54063 230.3Q34.54063 231.40938 33.618755 232.03438L34.400005 232.03438ZM31.243755 232.05Q32.35313 232.05 32.85313 231.7375Q33.66563 231.2375 33.66563 230.39375Q33.66563 229.70625 33.07188 229.20625Q32.47813 228.69063 31.275005 228.69063Q30.056255 228.69063 29.47813 229.175Q28.900005 229.65938 28.900005 230.34688Q28.900005 231.03438 29.50938 231.55Q30.10313 232.05 31.243755 232.05ZM27.025005 226.00313L25.806255 226.00313L25.806255 224.94063L27.025005 224.94063L27.025005 226.00313ZM34.400005 226.00313L28.181255 226.00313L28.181255 224.94063L34.400005 224.94063L34.400005 226.00313ZM34.400005 223.03438L25.806255 223.03438L25.806255 221.97188L34.400005 221.97188L34.400005 223.03438ZM27.025005 220.00313L25.806255 220.00313L25.806255 218.94063L27.025005 218.94063L27.025005 220.00313ZM34.400005 220.00313L28.181255 220.00313L28.181255 218.94063L34.400005 218.94063L34.400005 220.00313ZM33.462505 214.70625L34.38438 214.55Q34.47813 215.00313 34.47813 215.34688Q34.47813 215.925 34.306255 216.2375Q34.118755 216.55 33.82188 216.69063Q33.525005 216.81563 32.57188 216.81563L28.993755 216.81563L28.993755 217.58125L28.181255 217.58125L28.181255 216.81563L26.63438 216.81563L26.00938 215.76875L28.181255 215.76875L28.181255 214.70625L28.993755 214.70625L28.993755 215.76875L32.63438 215.76875Q33.087505 215.76875 33.212505 215.72188Q33.337505 215.65938 33.41563 215.53438Q33.493755 215.40938 33.493755 215.175Q33.493755 214.9875 33.462505 214.70625ZM36.79063 214.05L35.806255 214.175Q35.900005 213.83125 35.900005 213.56563Q35.900005 213.22188 35.775005 213.01875Q35.66563 212.8 35.462505 212.65938Q35.29063 212.56563 34.66563 212.33125Q34.587505 212.31563 34.41563 212.2375L28.181255 214.6125L28.181255 213.47188L31.775005 212.175Q32.462505 211.925 33.22813 211.72188Q32.493755 211.53438 31.806255 211.28438L28.181255 209.95625L28.181255 208.90938L34.50938 211.26875Q35.525005 211.65938 35.91563 211.8625Q36.44688 212.14375 36.681255 212.51875Q36.931255 212.87813 36.931255 213.37813Q36.931255 213.675 36.79063 214.05Z" fill-rule="nonzero"/><path fill="#000000" d="M55.9 392.36563Q55.9 390.83438 56.2125 389.9125Q56.525 388.975 57.134377 388.475Q57.759377 387.975 58.696877 387.975Q59.384377 387.975 59.9 388.25626Q60.43125 388.5375 60.775 389.06876Q61.11875 389.58438 61.30625 390.33438Q61.49375 391.08438 61.49375 392.36563Q61.49375 393.88126 61.18125 394.80313Q60.884377 395.725 60.259377 396.24063Q59.65 396.74063 58.696877 396.74063Q57.4625 396.74063 56.74375 395.85Q55.9 394.7875 55.9 392.36563ZM56.978127 392.36563Q56.978127 394.475 57.478127 395.17813Q57.978127 395.88126 58.696877 395.88126Q59.43125 395.88126 59.915627 395.17813Q60.415627 394.475 60.415627 392.36563Q60.415627 390.24063 59.915627 389.55313Q59.43125 388.85 58.68125 388.85Q57.9625 388.85 57.525 389.45938Q56.978127 390.24063 56.978127 392.36563ZM63.49375 396.6L63.49375 395.39688L64.69688 395.39688L64.69688 396.6L63.49375 396.6ZM65.9 392.36563Q65.9 390.83438 66.2125 389.9125Q66.525 388.975 67.13438 388.475Q67.75938 387.975 68.69688 387.975Q69.38438 387.975 69.9 388.25626Q70.43125 388.5375 70.775 389.06876Q71.11875 389.58438 71.30625 390.33438Q71.49375 391.08438 71.49375 392.36563Q71.49375 393.88126 71.18125 394.80313Q70.88438 395.725 70.25938 396.24063Q69.65 396.74063 68.69688 396.74063Q67.4625 396.74063 66.74375 395.85Q65.9 394.7875 65.9 392.36563ZM66.97813 392.36563Q66.97813 394.475 67.47813 395.17813Q67.97813 395.88126 68.69688 395.88126Q69.43125 395.88126 69.91563 395.17813Q70.41563 394.475 70.41563 392.36563Q70.41563 390.24063 69.91563 389.55313Q69.43125 388.85 68.68125 388.85Q67.9625 388.85 67.525 389.45938Q66.97813 390.24063 66.97813 392.36563ZM72.9 392.36563Q72.9 390.83438 73.2125 389.9125Q73.525 388.975 74.13438 388.475Q74.75938 387.975 75.69688 387.975Q76.38438 387.975 76.9 388.25626Q77.43125 388.5375 77.775 389.06876Q78.11875 389.58438 78.30625 390.33438Q78.49375 391.08438 78.49375 392.36563Q78.49375 393.88126 78.18125 394.80313Q77.88438 395.725 77.25938 396.24063Q76.65 396.74063 75.69688 396.74063Q74.4625 396.74063 73.74375 395.85Q72.9 394.7875 72.9 392.36563ZM73.97813 392.36563Q73.97813 394.475 74.47813 395.17813Q74.97813 395.88126 75.69688 395.88126Q76.43125 395.88126 76.91563 395.17813Q77.41563 394.475 77.41563 392.36563Q77.41563 390.24063 76.91563 389.55313Q76.43125 388.85 75.68125 388.85Q74.9625 388.85 74.525 389.45938Q73.97813 390.24063 73.97813 392.36563Z" fill-rule="nonzero"/><path fill="#000000" d="M55.9 311.71564Q55.9 310.1844 56.2125 309.2625Q56.525 308.325 57.134377 307.825Q57.759377 307.325 58.696877 307.325Q59.384377 307.325 59.9 307.60626Q60.43125 307.8875 60.775 308.41876Q61.11875 308.9344 61.30625 309.6844Q61.49375 310.4344 61.49375 311.71564Q61.49375 313.23126 61.18125 314.15314Q60.884377 315.075 60.259377 315.59064Q59.65 316.09064 58.696877 316.09064Q57.4625 316.09064 56.74375 315.2Q55.9 314.1375 55.9 311.71564ZM56.978127 311.71564Q56.978127 313.825 57.478127 314.52814Q57.978127 315.23126 58.696877 315.23126Q59.43125 315.23126 59.915627 314.52814Q60.415627 313.825 60.415627 311.71564Q60.415627 309.59064 59.915627 308.90314Q59.43125 308.2 58.68125 308.2Q57.9625 308.2 57.525 308.8094Q56.978127 309.59064 56.978127 311.71564ZM63.49375 315.95L63.49375 314.7469L64.69688 314.7469L64.69688 315.95L63.49375 315.95ZM71.44688 314.9344L71.44688 315.95L65.75938 315.95Q65.75938 315.575 65.88438 315.21564Q66.10313 314.6375 66.57188 314.075Q67.05625 313.5125 67.9625 312.77814Q69.36875 311.6219 69.85313 310.95Q70.35313 310.27814 70.35313 309.6844Q70.35313 309.0594 69.9 308.6375Q69.44688 308.2 68.72813 308.2Q67.9625 308.2 67.50938 308.65314Q67.05625 309.10626 67.04063 309.91876L65.9625 309.8094Q66.07188 308.59064 66.79063 307.96564Q67.525 307.325 68.75938 307.325Q69.99375 307.325 70.7125 308.0125Q71.43125 308.7 71.43125 309.71564Q71.43125 310.23126 71.2125 310.73126Q71.00938 311.21564 70.50938 311.77814Q70.025 312.325 68.9 313.27814Q67.94688 314.075 67.66563 314.3719Q67.4 314.65314 67.22813 314.9344L71.44688 314.9344ZM72.9 313.7L74.00938 313.60626Q74.13438 314.41876 74.57188 314.825Q75.025 315.23126 75.66563 315.23126Q76.41563 315.23126 76.94688 314.65314Q77.47813 314.075 77.47813 313.1375Q77.47813 312.23126 76.9625 311.71564Q76.4625 311.1844 75.63438 311.1844Q75.13438 311.1844 74.7125 311.41876Q74.30625 311.65314 74.07188 312.0125L73.0875 311.8875L73.91563 307.48126L78.19688 307.48126L78.19688 308.48126L74.75938 308.48126L74.30625 310.79376Q75.07188 310.2469 75.91563 310.2469Q77.04063 310.2469 77.80625 311.02814Q78.5875 311.8094 78.5875 313.04376Q78.5875 314.2 77.91563 315.0594Q77.0875 316.09064 75.66563 316.09064Q74.49375 316.09064 73.74375 315.4344Q73.00938 314.77814 72.9 313.7Z" fill-rule="nonzero"/><path fill="#000000" d="M55.9 231.06563Q55.9 229.53438 56.2125 228.6125Q56.525 227.675 57.134377 227.175Q57.759377 226.675 58.696877 226.675Q59.384377 226.675 59.9 226.95625Q60.43125 227.2375 60.775 227.76875Q61.11875 228.28438 61.30625 229.03438Q61.49375 229.78438 61.49375 231.06563Q61.49375 232.58125 61.18125 233.50313Q60.884377 234.425 60.259377 234.94063Q59.65 235.44063 58.696877 235.44063Q57.4625 235.44063 56.74375 234.55Q55.9 233.4875 55.9 231.06563ZM56.978127 231.06563Q56.978127 233.175 57.478127 233.87813Q57.978127 234.58125 58.696877 234.58125Q59.43125 234.58125 59.915627 233.87813Q60.415627 233.175 60.415627 231.06563Q60.415627 228.94063 59.915627 228.25313Q59.43125 227.55 58.68125 227.55Q57.9625 227.55 57.525 228.15938Q56.978127 228.94063 56.978127 231.06563ZM63.49375 235.3L63.49375 234.09688L64.69688 234.09688L64.69688 235.3L63.49375 235.3ZM65.9 233.05L67.00938 232.95625Q67.13438 233.76875 67.57188 234.175Q68.025 234.58125 68.66563 234.58125Q69.41563 234.58125 69.94688 234.00313Q70.47813 233.425 70.47813 232.4875Q70.47813 231.58125 69.9625 231.06563Q69.4625 230.53438 68.63438 230.53438Q68.13438 230.53438 67.7125 230.76875Q67.30625 231.00313 67.07188 231.3625L66.0875 231.2375L66.91563 226.83125L71.19688 226.83125L71.19688 227.83125L67.75938 227.83125L67.30625 230.14375Q68.07188 229.59688 68.91563 229.59688Q70.04063 229.59688 70.80625 230.37813Q71.5875 231.15938 71.5875 232.39375Q71.5875 233.55 70.91563 234.40938Q70.0875 235.44063 68.66563 235.44063Q67.49375 235.44063 66.74375 234.78438Q66.00938 234.12813 65.9 233.05ZM72.9 231.06563Q72.9 229.53438 73.2125 228.6125Q73.525 227.675 74.13438 227.175Q74.75938 226.675 75.69688 226.675Q76.38438 226.675 76.9 226.95625Q77.43125 227.2375 77.775 227.76875Q78.11875 228.28438 78.30625 229.03438Q78.49375 229.78438 78.49375 231.06563Q78.49375 232.58125 78.18125 233.50313Q77.88438 234.425 77.25938 234.94063Q76.65 235.44063 75.69688 235.44063Q74.4625 235.44063 73.74375 234.55Q72.9 233.4875 72.9 231.06563ZM73.97813 231.06563Q73.97813 233.175 74.47813 233.87813Q74.97813 234.58125 75.69688 234.58125Q76.43125 234.58125 76.91563 233.87813Q77.41563 233.175 77.41563 231.06563Q77.41563 228.94063 76.91563 228.25313Q76.43125 227.55 75.68125 227.55Q74.9625 227.55 74.525 228.15938Q73.97813 228.94063 73.97813 231.06563Z" fill-rule="nonzero"/><path fill="#000000" d="M55.9 150.41562Q55.9 148.88437 56.2125 147.9625Q56.525 147.025 57.134377 146.525Q57.759377 146.025 58.696877 146.025Q59.384377 146.025 59.9 146.30624Q60.43125 146.5875 60.775 147.11874Q61.11875 147.63437 61.30625 148.38437Q61.49375 149.13437 61.49375 150.41562Q61.49375 151.93124 61.18125 152.85312Q60.884377 153.775 60.259377 154.29062Q59.65 154.79062 58.696877 154.79062Q57.4625 154.79062 56.74375 153.9Q55.9 152.8375 55.9 150.41562ZM56.978127 150.41562Q56.978127 152.525 57.478127 153.22812Q57.978127 153.93124 58.696877 153.93124Q59.43125 153.93124 59.915627 153.22812Q60.415627 152.525 60.415627 150.41562Q60.415627 148.29062 59.915627 147.60312Q59.43125 146.9 58.68125 146.9Q57.9625 146.9 57.525 147.50937Q56.978127 148.29062 56.978127 150.41562ZM63.49375 154.65L63.49375 153.44687L64.69688 153.44687L64.69688 154.65L63.49375 154.65ZM65.9625 147.18124L65.9625 146.16562L71.525 146.16562L71.525 146.99374Q70.7125 147.86874 69.9 149.32187Q69.10313 150.75937 68.66563 152.29062Q68.3375 153.36874 68.25938 154.65L67.16563 154.65Q67.18125 153.63437 67.55625 152.19687Q67.94688 150.75937 68.65 149.43124Q69.36875 148.10312 70.18125 147.18124L65.9625 147.18124ZM72.9 152.4L74.00938 152.30624Q74.13438 153.11874 74.57188 153.525Q75.025 153.93124 75.66563 153.93124Q76.41563 153.93124 76.94688 153.35312Q77.47813 152.775 77.47813 151.8375Q77.47813 150.93124 76.9625 150.41562Q76.4625 149.88437 75.63438 149.88437Q75.13438 149.88437 74.7125 150.11874Q74.30625 150.35312 74.07188 150.7125L73.0875 150.5875L73.91563 146.18124L78.19688 146.18124L78.19688 147.18124L74.75938 147.18124L74.30625 149.49374Q75.07188 148.94687 75.91563 148.94687Q77.04063 148.94687 77.80625 149.72812Q78.5875 150.50937 78.5875 151.74374Q78.5875 152.9 77.91563 153.75937Q77.0875 154.79062 75.66563 154.79062Q74.49375 154.79062 73.74375 154.13437Q73.00938 153.47812 72.9 152.4Z" fill-rule="nonzero"/><path fill="#000000" d="M59.86875 74.0L58.821877 74.0L58.821877 67.28125Q58.43125 67.640625 57.80625 68.015625Q57.196877 68.375 56.7125 68.546875L56.7125 67.53125Q57.5875 67.109375 58.24375 66.53125Q58.915627 65.9375 59.196877 65.375L59.86875 65.375L59.86875 74.0ZM63.49375 74.0L63.49375 72.796875L64.69688 72.796875L64.69688 74.0L63.49375 74.0ZM65.9 69.765625Q65.9 68.234375 66.2125 67.3125Q66.525 66.375 67.13438 65.875Q67.75938 65.375 68.69688 65.375Q69.38438 65.375 69.9 65.65625Q70.43125 65.9375 70.775 66.46875Q71.11875 66.984375 71.30625 67.734375Q71.49375 68.484375 71.49375 69.765625Q71.49375 71.28125 71.18125 72.203125Q70.88438 73.125 70.25938 73.640625Q69.65 74.140625 68.69688 74.140625Q67.4625 74.140625 66.74375 73.25Q65.9 72.1875 65.9 69.765625ZM66.97813 69.765625Q66.97813 71.875 67.47813 72.578125Q67.97813 73.28125 68.69688 73.28125Q69.43125 73.28125 69.91563 72.578125Q70.41563 71.875 70.41563 69.765625Q70.41563 67.640625 69.91563 66.953125Q69.43125 66.25 68.68125 66.25Q67.9625 66.25 67.525 66.859375Q66.97813 67.640625 66.97813 69.765625ZM72.9 69.765625Q72.9 68.234375 73.2125 67.3125Q73.525 66.375 74.13438 65.875Q74.75938 65.375 75.69688 65.375Q76.38438 65.375 76.9 65.65625Q77.43125 65.9375 77.775 66.46875Q78.11875 66.984375 78.30625 67.734375Q78.49375 68.484375 78.49375 69.765625Q78.49375 71.28125 78.18125 72.203125Q77.88438 73.125 77.25938 73.640625Q76.65 74.140625 75.69688 74.140625Q74.4625 74.140625 73.74375 73.25Q72.9 72.1875 72.9 69.765625ZM73.97813 69.765625Q73.97813 71.875 74.47813 72.578125Q74.97813 73.28125 75.69688 73.28125Q76.43125 73.28125 76.91563 72.578125Q77.41563 71.875 77.41563 69.765625Q77.41563 67.640625 76.91563 66.953125Q76.43125 66.25 75.68125 66.25Q74.9625 66.25 74.525 66.859375Q73.97813 67.640625 73.97813 69.765625Z" fill-rule="nonzero"/><path fill="#000000" d="M103.77843 409.6L102.73155 409.6L102.73155 402.88126Q102.34093 403.24063 101.71593 403.61563Q101.10655 403.975 100.62218 404.14688L100.62218 403.13126Q101.49718 402.70938 102.15343 402.13126Q102.8253 401.5375 103.10655 400.975L103.77843 400.975L103.77843 409.6ZM106.80968 405.36563Q106.80968 403.83438 107.12218 402.9125Q107.43468 401.975 108.04405 401.475Q108.66905 400.975 109.60655 400.975Q110.29405 400.975 110.80968 401.25626Q111.34093 401.5375 111.68468 402.06876Q112.02843 402.58438 112.21593 403.33438Q112.40343 404.08438 112.40343 405.36563Q112.40343 406.88126 112.09093 407.80313Q111.79405 408.725 111.16905 409.24063Q110.55968 409.74063 109.60655 409.74063Q108.37218 409.74063 107.65343 408.85Q106.80968 407.7875 106.80968 405.36563ZM107.8878 405.36563Q107.8878 407.475 108.3878 408.17813Q108.8878 408.88126 109.60655 408.88126Q110.34093 408.88126 110.8253 408.17813Q111.3253 407.475 111.3253 405.36563Q111.3253 403.24063 110.8253 402.55313Q110.34093 401.85 109.59093 401.85Q108.87218 401.85 108.43468 402.45938Q107.8878 403.24063 107.8878 405.36563Z" fill-rule="nonzero"/><path fill="#000000" d="M209.90494 408.58438L209.90494 409.6L204.21744 409.6Q204.21744 409.225 204.34244 408.86563Q204.56119 408.2875 205.02994 407.725Q205.51431 407.1625 206.42056 406.42813Q207.82681 405.27188 208.31119 404.6Q208.81119 403.92813 208.81119 403.33438Q208.81119 402.70938 208.35806 402.2875Q207.90494 401.85 207.18619 401.85Q206.42056 401.85 205.96744 402.30313Q205.51431 402.75626 205.49869 403.56876L204.42056 403.45938Q204.52994 402.24063 205.24869 401.61563Q205.98306 400.975 207.21744 400.975Q208.45181 400.975 209.17056 401.6625Q209.88931 402.35 209.88931 403.36563Q209.88931 403.88126 209.67056 404.38126Q209.46744 404.86563 208.96744 405.42813Q208.48306 405.975 207.35806 406.92813Q206.40494 407.725 206.12369 408.02188Q205.85806 408.30313 205.68619 408.58438L209.90494 408.58438ZM211.35806 405.36563Q211.35806 403.83438 211.67056 402.9125Q211.98306 401.975 212.59244 401.475Q213.21744 400.975 214.15494 400.975Q214.84244 400.975 215.35806 401.25626Q215.88931 401.5375 216.23306 402.06876Q216.57681 402.58438 216.76431 403.33438Q216.95181 404.08438 216.95181 405.36563Q216.95181 406.88126 216.63931 407.80313Q216.34244 408.725 215.71744 409.24063Q215.10806 409.74063 214.15494 409.74063Q212.92056 409.74063 212.20181 408.85Q211.35806 407.7875 211.35806 405.36563ZM212.43619 405.36563Q212.43619 407.475 212.93619 408.17813Q213.43619 408.88126 214.15494 408.88126Q214.88931 408.88126 215.37369 408.17813Q215.87369 407.475 215.87369 405.36563Q215.87369 403.24063 215.37369 402.55313Q214.88931 401.85 214.13931 401.85Q213.42056 401.85 212.98306 402.45938Q212.43619 403.24063 212.43619 405.36563Z" fill-rule="nonzero"/><path fill="#000000" d="M308.90646 407.33438L309.96896 407.19376Q310.14084 408.08438 310.57834 408.49063Q311.01584 408.88126 311.64084 408.88126Q312.39084 408.88126 312.90646 408.36563Q313.4221 407.85 313.4221 407.08438Q313.4221 406.36563 312.9377 405.89688Q312.46896 405.4125 311.7346 405.4125Q311.4377 405.4125 310.9846 405.5375L311.1096 404.6Q311.21896 404.61563 311.28146 404.61563Q311.95334 404.61563 312.4846 404.27188Q313.03146 403.9125 313.03146 403.17813Q313.03146 402.6 312.64084 402.225Q312.2502 401.83438 311.6252 401.83438Q311.01584 401.83438 310.59396 402.225Q310.1877 402.61563 310.07834 403.38126L309.01584 403.19376Q309.20334 402.14688 309.89084 401.56876Q310.57834 400.975 311.59396 400.975Q312.2971 400.975 312.89084 401.2875Q313.4846 401.58438 313.7971 402.1Q314.1096 402.61563 314.1096 403.20938Q314.1096 403.75626 313.8127 404.225Q313.51584 404.67813 312.9377 404.94376Q313.6877 405.11563 314.1096 405.67813Q314.53146 406.225 314.53146 407.06876Q314.53146 408.19376 313.70334 408.975Q312.89084 409.75626 311.64084 409.75626Q310.51584 409.75626 309.76584 409.08438Q309.01584 408.39688 308.90646 407.33438ZM315.90646 405.36563Q315.90646 403.83438 316.21896 402.9125Q316.53146 401.975 317.14084 401.475Q317.76584 400.975 318.70334 400.975Q319.39084 400.975 319.90646 401.25626Q320.4377 401.5375 320.78146 402.06876Q321.1252 402.58438 321.3127 403.33438Q321.5002 404.08438 321.5002 405.36563Q321.5002 406.88126 321.1877 407.80313Q320.89084 408.725 320.26584 409.24063Q319.65646 409.74063 318.70334 409.74063Q317.46896 409.74063 316.7502 408.85Q315.90646 407.7875 315.90646 405.36563ZM316.9846 405.36563Q316.9846 407.475 317.4846 408.17813Q317.9846 408.88126 318.70334 408.88126Q319.4377 408.88126 319.9221 408.17813Q320.4221 407.475 320.4221 405.36563Q320.4221 403.24063 319.9221 402.55313Q319.4377 401.85 318.6877 401.85Q317.96896 401.85 317.53146 402.45938Q316.9846 403.24063 316.9846 405.36563Z" fill-rule="nonzero"/><path fill="#000000" d="M416.82983 409.6L416.82983 407.5375L413.11108 407.5375L413.11108 406.56876L417.03296 401.00626L417.89233 401.00626L417.89233 406.56876L419.04858 406.56876L419.04858 407.5375L417.89233 407.5375L417.89233 409.6L416.82983 409.6ZM416.82983 406.56876L416.82983 402.70938L414.14233 406.56876L416.82983 406.56876ZM420.45483 405.36563Q420.45483 403.83438 420.76733 402.9125Q421.07983 401.975 421.6892 401.475Q422.3142 400.975 423.2517 400.975Q423.9392 400.975 424.45483 401.25626Q424.98608 401.5375 425.32983 402.06876Q425.67358 402.58438 425.86108 403.33438Q426.04858 404.08438 426.04858 405.36563Q426.04858 406.88126 425.73608 407.80313Q425.4392 408.725 424.8142 409.24063Q424.20483 409.74063 423.2517 409.74063Q422.01733 409.74063 421.29858 408.85Q420.45483 407.7875 420.45483 405.36563ZM421.53296 405.36563Q421.53296 407.475 422.03296 408.17813Q422.53296 408.88126 423.2517 408.88126Q423.98608 408.88126 424.47046 408.17813Q424.97046 407.475 424.97046 405.36563Q424.97046 403.24063 424.47046 402.55313Q423.98608 401.85 423.23608 401.85Q422.51733 401.85 422.07983 402.45938Q421.53296 403.24063 421.53296 405.36563Z" fill-rule="nonzero"/><path fill="#000000" d="M518.00323 407.35L519.1126 407.25626Q519.2376 408.06876 519.6751 408.475Q520.12823 408.88126 520.76886 408.88126Q521.51886 408.88126 522.0501 408.30313Q522.58136 407.725 522.58136 406.7875Q522.58136 405.88126 522.06573 405.36563Q521.56573 404.83438 520.7376 404.83438Q520.2376 404.83438 519.81573 405.06876Q519.4095 405.30313 519.1751 405.6625L518.19073 405.5375L519.01886 401.13126L523.3001 401.13126L523.3001 402.13126L519.8626 402.13126L519.4095 404.44376Q520.1751 403.89688 521.01886 403.89688Q522.14386 403.89688 522.9095 404.67813Q523.69073 405.45938 523.69073 406.69376Q523.69073 407.85 523.01886 408.70938Q522.19073 409.74063 520.76886 409.74063Q519.597 409.74063 518.847 409.08438Q518.1126 408.42813 518.00323 407.35ZM525.00323 405.36563Q525.00323 403.83438 525.31573 402.9125Q525.62823 401.975 526.2376 401.475Q526.8626 400.975 527.8001 400.975Q528.4876 400.975 529.00323 401.25626Q529.5345 401.5375 529.87823 402.06876Q530.222 402.58438 530.4095 403.33438Q530.597 404.08438 530.597 405.36563Q530.597 406.88126 530.2845 407.80313Q529.9876 408.725 529.3626 409.24063Q528.75323 409.74063 527.8001 409.74063Q526.56573 409.74063 525.847 408.85Q525.00323 407.7875 525.00323 405.36563ZM526.08136 405.36563Q526.08136 407.475 526.58136 408.17813Q527.08136 408.88126 527.8001 408.88126Q528.5345 408.88126 529.01886 408.17813Q529.51886 407.475 529.51886 405.36563Q529.51886 403.24063 529.01886 402.55313Q528.5345 401.85 527.7845 401.85Q527.06573 401.85 526.62823 402.45938Q526.08136 403.24063 526.08136 405.36563Z" fill-rule="nonzero"/><path fill="#000000" d="M628.0204 403.11563L626.9735 403.19376Q626.8329 402.56876 626.5829 402.2875Q626.1454 401.83438 625.5204 401.83438Q625.0204 401.83438 624.62976 402.11563Q624.1454 402.49063 623.8485 403.19376Q623.56726 403.88126 623.55164 405.1625Q623.92664 404.58438 624.4735 404.30313Q625.036 404.02188 625.6454 404.02188Q626.69226 404.02188 627.42664 404.80313Q628.17664 405.58438 628.17664 406.80313Q628.17664 407.61563 627.81726 408.31876Q627.4735 409.00626 626.86414 409.38126Q626.25476 409.74063 625.48914 409.74063Q624.161 409.74063 623.3329 408.77188Q622.50476 407.80313 622.50476 405.58438Q622.50476 403.08438 623.42664 401.95938Q624.2235 400.975 625.5829 400.975Q626.5985 400.975 627.23914 401.55313Q627.8954 402.11563 628.0204 403.11563ZM623.7235 406.81876Q623.7235 407.36563 623.94226 407.86563Q624.17664 408.35 624.5829 408.61563Q625.00476 408.88126 625.4735 408.88126Q626.12976 408.88126 626.61414 408.35Q627.0985 407.80313 627.0985 406.88126Q627.0985 405.99063 626.61414 405.475Q626.1454 404.95938 625.42664 404.95938Q624.7079 404.95938 624.2079 405.475Q623.7235 405.99063 623.7235 406.81876ZM629.55164 405.36563Q629.55164 403.83438 629.86414 402.9125Q630.17664 401.975 630.786 401.475Q631.411 400.975 632.3485 400.975Q633.036 400.975 633.55164 401.25626Q634.0829 401.5375 634.42664 402.06876Q634.7704 402.58438 634.9579 403.33438Q635.1454 404.08438 635.1454 405.36563Q635.1454 406.88126 634.8329 407.80313Q634.536 408.725 633.911 409.24063Q633.30164 409.74063 632.3485 409.74063Q631.11414 409.74063 630.3954 408.85Q629.55164 407.7875 629.55164 405.36563ZM630.62976 405.36563Q630.62976 407.475 631.12976 408.17813Q631.62976 408.88126 632.3485 408.88126Q633.0829 408.88126 633.56726 408.17813Q634.06726 407.475 634.06726 405.36563Q634.06726 403.24063 633.56726 402.55313Q633.0829 401.85 632.3329 401.85Q631.61414 401.85 631.17664 402.45938Q630.62976 403.24063 630.62976 405.36563Z" fill-rule="nonzero"/><path fill="#000000" d="M727.1625 402.13126L727.1625 401.11563L732.725 401.11563L732.725 401.94376Q731.9125 402.81876 731.1 404.27188Q730.3031 405.70938 729.8656 407.24063Q729.5375 408.31876 729.45935 409.6L728.3656 409.6Q728.3812 408.58438 728.7562 407.14688Q729.14685 405.70938 729.85 404.38126Q730.5687 403.05313 731.3812 402.13126L727.1625 402.13126ZM734.1 405.36563Q734.1 403.83438 734.4125 402.9125Q734.725 401.975 735.33435 401.475Q735.95935 400.975 736.89685 400.975Q737.58435 400.975 738.1 401.25626Q738.6312 401.5375 738.975 402.06876Q739.3187 402.58438 739.5062 403.33438Q739.6937 404.08438 739.6937 405.36563Q739.6937 406.88126 739.3812 407.80313Q739.08435 408.725 738.45935 409.24063Q737.85 409.74063 736.89685 409.74063Q735.6625 409.74063 734.9437 408.85Q734.1 407.7875 734.1 405.36563ZM735.1781 405.36563Q735.1781 407.475 735.6781 408.17813Q736.1781 408.88126 736.89685 408.88126Q737.6312 408.88126 738.1156 408.17813Q738.6156 407.475 738.6156 405.36563Q738.6156 403.24063 738.1156 402.55313Q737.6312 401.85 736.8812 401.85Q736.1625 401.85 735.725 402.45938Q735.1781 403.24063 735.1781 405.36563Z" fill-rule="nonzero"/><path fill="#757575" d="M24.946875 42.4L24.946875 28.087502L30.3375 28.087502Q31.775 28.087502 32.525 28.212502Q33.571877 28.400002 34.290627 28.900002Q35.009377 29.384377 35.43125 30.275002Q35.86875 31.165627 35.86875 32.228127Q35.86875 34.05625 34.696877 35.321877Q33.540627 36.571877 30.509375 36.571877L26.8375 36.571877L26.8375 42.4L24.946875 42.4ZM26.8375 34.884377L30.540625 34.884377Q32.36875 34.884377 33.134377 34.2125Q33.915627 33.525 33.915627 32.275Q33.915627 31.384377 33.4625 30.743752Q33.009377 30.103127 32.275 29.900002Q31.790625 29.775002 30.49375 29.775002L26.8375 29.775002L26.8375 34.884377ZM37.696877 42.4L37.696877 32.025L39.275 32.025L39.275 33.603127Q39.884377 32.49375 40.4 32.15Q40.915627 31.790627 41.525 31.790627Q42.415627 31.790627 43.3375 32.353127L42.728127 33.99375Q42.0875 33.603127 41.446877 33.603127Q40.86875 33.603127 40.4 33.9625Q39.946877 34.30625 39.74375 34.915627Q39.4625 35.853127 39.4625 36.9625L39.4625 42.4L37.696877 42.4ZM44.071877 37.2125Q44.071877 34.3375 45.665627 32.946877Q47.009377 31.790627 48.93125 31.790627Q51.071877 31.790627 52.415627 33.196877Q53.775 34.603127 53.775 37.071877Q53.775 39.071877 53.18125 40.228127Q52.5875 41.36875 51.43125 42.009377Q50.290627 42.634377 48.93125 42.634377Q46.74375 42.634377 45.4 41.24375Q44.071877 39.8375 44.071877 37.2125ZM45.86875 37.2125Q45.86875 39.2125 46.728127 40.196877Q47.603127 41.18125 48.93125 41.18125Q50.24375 41.18125 51.103127 40.196877Q51.978127 39.196877 51.978127 37.15Q51.978127 35.228127 51.103127 34.24375Q50.228127 33.24375 48.93125 33.24375Q47.603127 33.24375 46.728127 34.24375Q45.86875 35.228127 45.86875 37.2125ZM57.3375 42.4L55.7125 42.4L55.7125 28.087502L57.4625 28.087502L57.4625 33.196877Q58.5875 31.790627 60.30625 31.790627Q61.259377 31.790627 62.11875 32.18125Q62.978127 32.571877 63.525 33.275Q64.07188 33.9625 64.38438 34.946877Q64.69688 35.93125 64.69688 37.05625Q64.69688 39.728127 63.384377 41.18125Q62.071877 42.634377 60.228127 42.634377Q58.384377 42.634377 57.3375 41.103127L57.3375 42.4ZM57.321877 37.134377Q57.321877 38.99375 57.821877 39.8375Q58.665627 41.18125 60.071877 41.18125Q61.228127 41.18125 62.05625 40.18125Q62.9 39.18125 62.9 37.196877Q62.9 35.165627 62.0875 34.2125Q61.290627 33.24375 60.15 33.24375Q58.99375 33.24375 58.15 34.24375Q57.321877 35.24375 57.321877 37.134377ZM73.49375 41.11875Q72.50938 41.946877 71.60313 42.290627Q70.69688 42.634377 69.66563 42.634377Q67.9625 42.634377 67.04063 41.80625Q66.11875 40.9625 66.11875 39.665627Q66.11875 38.9 66.4625 38.275Q66.82188 37.65 67.38438 37.275Q67.94688 36.884377 68.65 36.68125Q69.16563 36.55625 70.2125 36.415627Q72.3375 36.165627 73.3375 35.821877Q73.35313 35.4625 73.35313 35.353127Q73.35313 34.290627 72.85313 33.8375Q72.18125 33.24375 70.85313 33.24375Q69.60313 33.24375 69.00938 33.68125Q68.43125 34.11875 68.15 35.228127L66.43125 34.99375Q66.66563 33.884377 67.19688 33.2125Q67.72813 32.525 68.74375 32.165627Q69.75938 31.790627 71.10313 31.790627Q72.43125 31.790627 73.25938 32.103127Q74.0875 32.415627 74.47813 32.9Q74.86875 33.36875 75.025 34.0875Q75.11875 34.540627 75.11875 35.7125L75.11875 38.05625Q75.11875 40.509377 75.22813 41.165627Q75.3375 41.80625 75.68125 42.4L73.8375 42.4Q73.57188 41.853127 73.49375 41.11875ZM73.3375 37.196877Q72.38438 37.5875 70.4625 37.853127Q69.38438 38.009377 68.93125 38.2125Q68.49375 38.4 68.24375 38.775Q67.99375 39.15 67.99375 39.61875Q67.99375 40.321877 68.525 40.790627Q69.05625 41.259377 70.0875 41.259377Q71.10313 41.259377 71.88438 40.821877Q72.68125 40.36875 73.05625 39.603127Q73.3375 38.99375 73.3375 37.8375L73.3375 37.196877ZM79.3375 42.4L77.7125 42.4L77.7125 28.087502L79.4625 28.087502L79.4625 33.196877Q80.5875 31.790627 82.30625 31.790627Q83.25938 31.790627 84.11875 32.18125Q84.97813 32.571877 85.525 33.275Q86.07188 33.9625 86.38438 34.946877Q86.69688 35.93125 86.69688 37.05625Q86.69688 39.728127 85.38438 41.18125Q84.07188 42.634377 82.22813 42.634377Q80.38438 42.634377 79.3375 41.103127L79.3375 42.4ZM79.32188 37.134377Q79.32188 38.99375 79.82188 39.8375Q80.66563 41.18125 82.07188 41.18125Q83.22813 41.18125 84.05625 40.18125Q84.9 39.18125 84.9 37.196877Q84.9 35.165627 84.0875 34.2125Q83.29063 33.24375 82.15 33.24375Q80.99375 33.24375 80.15 34.24375Q79.32188 35.24375 79.32188 37.134377ZM88.72813 30.103127L88.72813 28.087502L90.49375 28.087502L90.49375 30.103127L88.72813 30.103127ZM88.72813 42.4L88.72813 32.025L90.49375 32.025L90.49375 42.4L88.72813 42.4ZM92.68125 42.4L92.68125 28.087502L94.43125 28.087502L94.43125 42.4L92.68125 42.4ZM96.72813 30.103127L96.72813 28.087502L98.49375 28.087502L98.49375 30.103127L96.72813 30.103127ZM96.72813 42.4L96.72813 32.025L98.49375 32.025L98.49375 42.4L96.72813 42.4ZM104.55625 40.821877L104.80625 42.384377Q104.07188 42.540627 103.47813 42.540627Q102.525 42.540627 101.99375 42.24375Q101.47813 41.93125 101.25938 41.446877Q101.04063 40.946877 101.04063 39.36875L101.04063 33.4L99.75938 33.4L99.75938 32.025L101.04063 32.025L101.04063 29.462502L102.79063 28.400002L102.79063 32.025L104.55625 32.025L104.55625 33.4L102.79063 33.4L102.79063 39.4625Q102.79063 40.2125 102.88438 40.43125Q102.97813 40.634377 103.18125 40.775Q103.4 40.9 103.79063 40.9Q104.07188 40.9 104.55625 40.821877ZM106.63438 46.4L106.44688 44.74375Q107.025 44.9 107.44688 44.9Q108.04063 44.9 108.38438 44.696877Q108.74375 44.509377 108.9625 44.165627Q109.13438 43.9 109.50938 42.853127Q109.55625 42.696877 109.66563 42.415627L105.72813 32.025L107.61875 32.025L109.775 38.040627Q110.19688 39.18125 110.525 40.43125Q110.8375 39.228127 111.24375 38.071877L113.4625 32.025L115.22813 32.025L111.275 42.571877Q110.65 44.290627 110.29063 44.93125Q109.82188 45.80625 109.2125 46.196877Q108.61875 46.603127 107.775 46.603127Q107.25938 46.603127 106.63438 46.4ZM122.07188 37.2125Q122.07188 34.3375 123.66563 32.946877Q125.00938 31.790627 126.93125 31.790627Q129.07187 31.790627 130.41562 33.196877Q131.775 34.603127 131.775 37.071877Q131.775 39.071877 131.18124 40.228127Q130.5875 41.36875 129.43124 42.009377Q128.29062 42.634377 126.93125 42.634377Q124.74375 42.634377 123.4 41.24375Q122.07188 39.8375 122.07188 37.2125ZM123.86875 37.2125Q123.86875 39.2125 124.72813 40.196877Q125.60313 41.18125 126.93125 41.18125Q128.24374 41.18125 129.10312 40.196877Q129.97812 39.196877 129.97812 37.15Q129.97812 35.228127 129.10312 34.24375Q128.22812 33.24375 126.93125 33.24375Q125.60313 33.24375 124.72813 34.24375Q123.86875 35.228127 123.86875 37.2125ZM134.13437 42.4L134.13437 33.4L132.5875 33.4L132.5875 32.025L134.13437 32.025L134.13437 30.931252Q134.13437 29.884377 134.32187 29.368752Q134.57187 28.681252 135.2125 28.259377Q135.85312 27.837502 137.00937 27.837502Q137.75937 27.837502 138.65 28.009377L138.38437 29.540627Q137.8375 29.446877 137.35312 29.446877Q136.55624 29.446877 136.2125 29.790627Q135.88437 30.134377 135.88437 31.071877L135.88437 32.025L137.91562 32.025L137.91562 33.4L135.88437 33.4L135.88437 42.4L134.13437 42.4ZM152.49374 41.11875Q151.50937 41.946877 150.60312 42.290627Q149.69687 42.634377 148.66562 42.634377Q146.9625 42.634377 146.04062 41.80625Q145.11874 40.9625 145.11874 39.665627Q145.11874 38.9 145.4625 38.275Q145.82187 37.65 146.38437 37.275Q146.94687 36.884377 147.65 36.68125Q148.16562 36.55625 149.2125 36.415627Q151.3375 36.165627 152.3375 35.821877Q152.35312 35.4625 152.35312 35.353127Q152.35312 34.290627 151.85312 33.8375Q151.18124 33.24375 149.85312 33.24375Q148.60312 33.24375 148.00937 33.68125Q147.43124 34.11875 147.15 35.228127L145.43124 34.99375Q145.66562 33.884377 146.19687 33.2125Q146.72812 32.525 147.74374 32.165627Q148.75937 31.790627 150.10312 31.790627Q151.43124 31.790627 152.25937 32.103127Q153.0875 32.415627 153.47812 32.9Q153.86874 33.36875 154.025 34.0875Q154.11874 34.540627 154.11874 35.7125L154.11874 38.05625Q154.11874 40.509377 154.22812 41.165627Q154.3375 41.80625 154.68124 42.4L152.8375 42.4Q152.57187 41.853127 152.49374 41.11875ZM152.3375 37.196877Q151.38437 37.5875 149.4625 37.853127Q148.38437 38.009377 147.93124 38.2125Q147.49374 38.4 147.24374 38.775Q146.99374 39.15 146.99374 39.61875Q146.99374 40.321877 147.525 40.790627Q148.05624 41.259377 149.0875 41.259377Q150.10312 41.259377 150.88437 40.821877Q151.68124 40.36875 152.05624 39.603127Q152.3375 38.99375 152.3375 37.8375L152.3375 37.196877ZM173.16562 37.384377L175.05624 37.853127Q174.4625 40.196877 172.91562 41.43125Q171.36874 42.65 169.11874 42.65Q166.80624 42.65 165.35312 41.7125Q163.91562 40.759377 163.15 38.978127Q162.4 37.18125 162.4 35.134377Q162.4 32.9 163.24374 31.243752Q164.10312 29.571877 165.68124 28.712502Q167.25937 27.837502 169.15 27.837502Q171.30624 27.837502 172.75937 28.931252Q174.22812 30.025002 174.80624 32.009377L172.94687 32.446877Q172.44687 30.884377 171.49374 30.181252Q170.55624 29.462502 169.11874 29.462502Q167.4625 29.462502 166.35312 30.259377Q165.24374 31.040627 164.79062 32.384377Q164.35312 33.7125 164.35312 35.11875Q164.35312 36.946877 164.88437 38.321877Q165.41562 39.68125 166.54062 40.353127Q167.66562 41.025 168.9625 41.025Q170.55624 41.025 171.66562 40.103127Q172.775 39.18125 173.16562 37.384377ZM183.49374 41.11875Q182.50937 41.946877 181.60312 42.290627Q180.69687 42.634377 179.66562 42.634377Q177.9625 42.634377 177.04062 41.80625Q176.11874 40.9625 176.11874 39.665627Q176.11874 38.9 176.4625 38.275Q176.82187 37.65 177.38437 37.275Q177.94687 36.884377 178.65 36.68125Q179.16562 36.55625 180.2125 36.415627Q182.3375 36.165627 183.3375 35.821877Q183.35312 35.4625 183.35312 35.353127Q183.35312 34.290627 182.85312 33.8375Q182.18124 33.24375 180.85312 33.24375Q179.60312 33.24375 179.00937 33.68125Q178.43124 34.11875 178.15 35.228127L176.43124 34.99375Q176.66562 33.884377 177.19687 33.2125Q177.72812 32.525 178.74374 32.165627Q179.75937 31.790627 181.10312 31.790627Q182.43124 31.790627 183.25937 32.103127Q184.0875 32.415627 184.47812 32.9Q184.86874 33.36875 185.025 34.0875Q185.11874 34.540627 185.11874 35.7125L185.11874 38.05625Q185.11874 40.509377 185.22812 41.165627Q185.3375 41.80625 185.68124 42.4L183.8375 42.4Q183.57187 41.853127 183.49374 41.11875ZM183.3375 37.196877Q182.38437 37.5875 180.4625 37.853127Q179.38437 38.009377 178.93124 38.2125Q178.49374 38.4 178.24374 38.775Q177.99374 39.15 177.99374 39.61875Q177.99374 40.321877 178.525 40.790627Q179.05624 41.259377 180.0875 41.259377Q181.10312 41.259377 181.88437 40.821877Q182.68124 40.36875 183.05624 39.603127Q183.3375 38.99375 183.3375 37.8375L183.3375 37.196877ZM187.7125 42.4L187.7125 32.025L189.30624 32.025L189.30624 33.509377Q190.44687 31.790627 192.60312 31.790627Q193.54062 31.790627 194.32187 32.134377Q195.11874 32.4625 195.50937 33.009377Q195.9 33.55625 196.05624 34.30625Q196.15 34.80625 196.15 36.025L196.15 42.4L194.38437 42.4L194.38437 36.0875Q194.38437 35.009377 194.18124 34.478127Q193.97812 33.946877 193.44687 33.634377Q192.93124 33.321877 192.22812 33.321877Q191.10312 33.321877 190.29062 34.040627Q189.47812 34.74375 189.47812 36.728127L189.47812 42.4L187.7125 42.4ZM205.44687 42.4L205.44687 41.0875Q204.4625 42.634377 202.54062 42.634377Q201.30624 42.634377 200.25937 41.946877Q199.22812 41.259377 198.65 40.040627Q198.0875 38.821877 198.0875 37.228127Q198.0875 35.665627 198.60312 34.4Q199.11874 33.134377 200.15 32.4625Q201.19687 31.790627 202.4625 31.790627Q203.4 31.790627 204.13437 32.196877Q204.86874 32.5875 205.3375 33.2125L205.3375 28.087502L207.07187 28.087502L207.07187 42.4L205.44687 42.4ZM199.88437 37.228127Q199.88437 39.2125 200.72812 40.196877Q201.57187 41.18125 202.7125 41.18125Q203.86874 41.18125 204.66562 40.24375Q205.47812 39.30625 205.47812 37.36875Q205.47812 35.24375 204.65 34.24375Q203.8375 33.24375 202.63437 33.24375Q201.4625 33.24375 200.66562 34.2125Q199.88437 35.165627 199.88437 37.228127ZM209.72812 30.103127L209.72812 28.087502L211.49374 28.087502L211.49374 30.103127L209.72812 30.103127ZM209.72812 42.4L209.72812 32.025L211.49374 32.025L211.49374 42.4L209.72812 42.4ZM220.44687 42.4L220.44687 41.0875Q219.4625 42.634377 217.54062 42.634377Q216.30624 42.634377 215.25937 41.946877Q214.22812 41.259377 213.65 40.040627Q213.0875 38.821877 213.0875 37.228127Q213.0875 35.665627 213.60312 34.4Q214.11874 33.134377 215.15 32.4625Q216.19687 31.790627 217.4625 31.790627Q218.4 31.790627 219.13437 32.196877Q219.86874 32.5875 220.3375 33.2125L220.3375 28.087502L222.07187 28.087502L222.07187 42.4L220.44687 42.4ZM214.88437 37.228127Q214.88437 39.2125 215.72812 40.196877Q216.57187 41.18125 217.7125 41.18125Q218.86874 41.18125 219.66562 40.24375Q220.47812 39.30625 220.47812 37.36875Q220.47812 35.24375 219.65 34.24375Q218.8375 33.24375 217.63437 33.24375Q216.4625 33.24375 215.66562 34.2125Q214.88437 35.165627 214.88437 37.228127ZM231.49374 41.11875Q230.50937 41.946877 229.60312 42.290627Q228.69687 42.634377 227.66562 42.634377Q225.9625 42.634377 225.04062 41.80625Q224.11874 40.9625 224.11874 39.665627Q224.11874 38.9 224.4625 38.275Q224.82187 37.65 225.38437 37.275Q225.94687 36.884377 226.65 36.68125Q227.16562 36.55625 228.2125 36.415627Q230.3375 36.165627 231.3375 35.821877Q231.35312 35.4625 231.35312 35.353127Q231.35312 34.290627 230.85312 33.8375Q230.18124 33.24375 228.85312 33.24375Q227.60312 33.24375 227.00937 33.68125Q226.43124 34.11875 226.15 35.228127L224.43124 34.99375Q224.66562 33.884377 225.19687 33.2125Q225.72812 32.525 226.74374 32.165627Q227.75937 31.790627 229.10312 31.790627Q230.43124 31.790627 231.25937 32.103127Q232.0875 32.415627 232.47812 32.9Q232.86874 33.36875 233.025 34.0875Q233.11874 34.540627 233.11874 35.7125L233.11874 38.05625Q233.11874 40.509377 233.22812 41.165627Q233.3375 41.80625 233.68124 42.4L231.8375 42.4Q231.57187 41.853127 231.49374 41.11875ZM231.3375 37.196877Q230.38437 37.5875 228.4625 37.853127Q227.38437 38.009377 226.93124 38.2125Q226.49374 38.4 226.24374 38.775Q225.99374 39.15 225.99374 39.61875Q225.99374 40.321877 226.525 40.790627Q227.05624 41.259377 228.0875 41.259377Q229.10312 41.259377 229.88437 40.821877Q230.68124 40.36875 231.05624 39.603127Q231.3375 38.99375 231.3375 37.8375L231.3375 37.196877ZM239.55624 40.821877L239.80624 42.384377Q239.07187 42.540627 238.47812 42.540627Q237.525 42.540627 236.99374 42.24375Q236.47812 41.93125 236.25937 41.446877Q236.04062 40.946877 236.04062 39.36875L236.04062 33.4L234.75937 33.4L234.75937 32.025L236.04062 32.025L236.04062 29.462502L237.79062 28.400002L237.79062 32.025L239.55624 32.025L239.55624 33.4L237.79062 33.4L237.79062 39.4625Q237.79062 40.2125 237.88437 40.43125Q237.97812 40.634377 238.18124 40.775Q238.4 40.9 238.79062 40.9Q239.07187 40.9 239.55624 40.821877ZM248.82187 39.05625L250.63437 39.290627Q250.2125 40.86875 249.04062 41.759377Q247.88437 42.634377 246.07187 42.634377Q243.80624 42.634377 242.4625 41.24375Q241.13437 39.8375 241.13437 37.30625Q241.13437 34.68125 242.47812 33.24375Q243.82187 31.790627 245.97812 31.790627Q248.05624 31.790627 249.36874 33.2125Q250.69687 34.61875 250.69687 37.196877Q250.69687 37.353127 250.68124 37.665627L242.94687 37.665627Q243.04062 39.36875 243.91562 40.275Q244.79062 41.18125 246.0875 41.18125Q247.05624 41.18125 247.72812 40.68125Q248.41562 40.165627 248.82187 39.05625ZM243.04062 36.2125L248.8375 36.2125Q248.72812 34.915627 248.18124 34.259377Q247.3375 33.24375 245.99374 33.24375Q244.79062 33.24375 243.9625 34.05625Q243.13437 34.853127 243.04062 36.2125ZM258.94687 42.4L258.94687 28.087502L264.3375 28.087502Q265.775 28.087502 266.525 28.212502Q267.57187 28.400002 268.29062 28.900002Q269.00937 29.384377 269.43124 30.275002Q269.86874 31.165627 269.86874 32.228127Q269.86874 34.05625 268.69687 35.321877Q267.54062 36.571877 264.50937 36.571877L260.8375 36.571877L260.8375 42.4L258.94687 42.4ZM260.8375 34.884377L264.54062 34.884377Q266.36874 34.884377 267.13437 34.2125Q267.91562 33.525 267.91562 32.275Q267.91562 31.384377 267.4625 30.743752Q267.00937 30.103127 266.275 29.900002Q265.79062 29.775002 264.49374 29.775002L260.8375 29.775002L260.8375 34.884377ZM278.49374 41.11875Q277.50937 41.946877 276.60312 42.290627Q275.69687 42.634377 274.66562 42.634377Q272.9625 42.634377 272.04062 41.80625Q271.11874 40.9625 271.11874 39.665627Q271.11874 38.9 271.4625 38.275Q271.82187 37.65 272.38437 37.275Q272.94687 36.884377 273.65 36.68125Q274.16562 36.55625 275.2125 36.415627Q277.3375 36.165627 278.3375 35.821877Q278.35312 35.4625 278.35312 35.353127Q278.35312 34.290627 277.85312 33.8375Q277.18124 33.24375 275.85312 33.24375Q274.60312 33.24375 274.00937 33.68125Q273.43124 34.11875 273.15 35.228127L271.43124 34.99375Q271.66562 33.884377 272.19687 33.2125Q272.72812 32.525 273.74374 32.165627Q274.75937 31.790627 276.10312 31.790627Q277.43124 31.790627 278.25937 32.103127Q279.0875 32.415627 279.47812 32.9Q279.86874 33.36875 280.025 34.0875Q280.11874 34.540627 280.11874 35.7125L280.11874 38.05625Q280.11874 40.509377 280.22812 41.165627Q280.3375 41.80625 280.68124 42.4L278.8375 42.4Q278.57187 41.853127 278.49374 41.11875ZM278.3375 37.196877Q277.38437 37.5875 275.4625 37.853127Q274.38437 38.009377 273.93124 38.2125Q273.49374 38.4 273.24374 38.775Q272.99374 39.15 272.99374 39.61875Q272.99374 40.321877 273.525 40.790627Q274.05624 41.259377 275.0875 41.259377Q276.10312 41.259377 276.88437 40.821877Q277.68124 40.36875 278.05624 39.603127Q278.3375 38.99375 278.3375 37.8375L278.3375 37.196877ZM282.00937 39.30625L283.75937 39.025Q283.9 40.071877 284.57187 40.634377Q285.24374 41.18125 286.44687 41.18125Q287.65 41.18125 288.22812 40.696877Q288.82187 40.196877 288.82187 39.540627Q288.82187 38.946877 288.30624 38.603127Q287.94687 38.36875 286.50937 38.009377Q284.57187 37.509377 283.82187 37.165627Q283.0875 36.80625 282.69687 36.18125Q282.30624 35.540627 282.30624 34.775Q282.30624 34.0875 282.61874 33.49375Q282.94687 32.9 283.49374 32.509377Q283.9 32.2125 284.60312 32.009377Q285.32187 31.790627 286.13437 31.790627Q287.35312 31.790627 288.275 32.15Q289.19687 32.49375 289.63437 33.103127Q290.07187 33.696877 290.24374 34.696877L288.525 34.93125Q288.4 34.134377 287.8375 33.696877Q287.275 33.24375 286.25937 33.24375Q285.04062 33.24375 284.525 33.65Q284.00937 34.040627 284.00937 34.571877Q284.00937 34.915627 284.22812 35.196877Q284.43124 35.478127 284.9 35.665627Q285.16562 35.759377 286.44687 36.103127Q288.32187 36.603127 289.05624 36.93125Q289.79062 37.24375 290.2125 37.853127Q290.63437 38.446877 290.63437 39.353127Q290.63437 40.228127 290.11874 41.009377Q289.60312 41.790627 288.63437 42.2125Q287.66562 42.634377 286.44687 42.634377Q284.43124 42.634377 283.36874 41.790627Q282.30624 40.946877 282.00937 39.30625ZM292.00937 39.30625L293.75937 39.025Q293.9 40.071877 294.57187 40.634377Q295.24374 41.18125 296.44687 41.18125Q297.65 41.18125 298.22812 40.696877Q298.82187 40.196877 298.82187 39.540627Q298.82187 38.946877 298.30624 38.603127Q297.94687 38.36875 296.50937 38.009377Q294.57187 37.509377 293.82187 37.165627Q293.0875 36.80625 292.69687 36.18125Q292.30624 35.540627 292.30624 34.775Q292.30624 34.0875 292.61874 33.49375Q292.94687 32.9 293.49374 32.509377Q293.9 32.2125 294.60312 32.009377Q295.32187 31.790627 296.13437 31.790627Q297.35312 31.790627 298.275 32.15Q299.19687 32.49375 299.63437 33.103127Q300.07187 33.696877 300.24374 34.696877L298.525 34.93125Q298.4 34.134377 297.8375 33.696877Q297.275 33.24375 296.25937 33.24375Q295.04062 33.24375 294.525 33.65Q294.00937 34.040627 294.00937 34.571877Q294.00937 34.915627 294.22812 35.196877Q294.43124 35.478127 294.9 35.665627Q295.16562 35.759377 296.44687 36.103127Q298.32187 36.603127 299.05624 36.93125Q299.79062 37.24375 300.2125 37.853127Q300.63437 38.446877 300.63437 39.353127Q300.63437 40.228127 300.11874 41.009377Q299.60312 41.790627 298.63437 42.2125Q297.66562 42.634377 296.44687 42.634377Q294.43124 42.634377 293.36874 41.790627Q292.30624 40.946877 292.00937 39.30625ZM304.63437 42.4L301.4625 32.025L303.275 32.025L304.93124 38.009377L305.54062 40.24375Q305.5875 40.071877 306.07187 38.103127L307.72812 32.025L309.54062 32.025L311.0875 38.040627L311.60312 40.025L312.19687 38.025L313.97812 32.025L315.68124 32.025L312.44687 42.4L310.61874 42.4L308.9625 36.18125L308.57187 34.415627L306.4625 42.4L304.63437 42.4ZM316.07187 37.2125Q316.07187 34.3375 317.66562 32.946877Q319.00937 31.790627 320.93124 31.790627Q323.07187 31.790627 324.41562 33.196877Q325.775 34.603127 325.775 37.071877Q325.775 39.071877 325.18124 40.228127Q324.5875 41.36875 323.43124 42.009377Q322.29062 42.634377 320.93124 42.634377Q318.74374 42.634377 317.4 41.24375Q316.07187 39.8375 316.07187 37.2125ZM317.86874 37.2125Q317.86874 39.2125 318.72812 40.196877Q319.60312 41.18125 320.93124 41.18125Q322.24374 41.18125 323.10312 40.196877Q323.97812 39.196877 323.97812 37.15Q323.97812 35.228127 323.10312 34.24375Q322.22812 33.24375 320.93124 33.24375Q319.60312 33.24375 318.72812 34.24375Q317.86874 35.228127 317.86874 37.2125ZM327.69687 42.4L327.69687 32.025L329.275 32.025L329.275 33.603127Q329.88437 32.49375 330.4 32.15Q330.91562 31.790627 331.525 31.790627Q332.41562 31.790627 333.3375 32.353127L332.72812 33.99375Q332.0875 33.603127 331.44687 33.603127Q330.86874 33.603127 330.4 33.9625Q329.94687 34.30625 329.74374 34.915627Q329.4625 35.853127 329.4625 36.9625L329.4625 42.4L327.69687 42.4ZM341.44687 42.4L341.44687 41.0875Q340.4625 42.634377 338.54062 42.634377Q337.30624 42.634377 336.25937 41.946877Q335.22812 41.259377 334.65 40.040627Q334.0875 38.821877 334.0875 37.228127Q334.0875 35.665627 334.60312 34.4Q335.11874 33.134377 336.15 32.4625Q337.19687 31.790627 338.4625 31.790627Q339.4 31.790627 340.13437 32.196877Q340.86874 32.5875 341.3375 33.2125L341.3375 28.087502L343.07187 28.087502L343.07187 42.4L341.44687 42.4ZM335.88437 37.228127Q335.88437 39.2125 336.72812 40.196877Q337.57187 41.18125 338.7125 41.18125Q339.86874 41.18125 340.66562 40.24375Q341.47812 39.30625 341.47812 37.36875Q341.47812 35.24375 340.65 34.24375Q339.8375 33.24375 338.63437 33.24375Q337.4625 33.24375 336.66562 34.2125Q335.88437 35.165627 335.88437 37.228127ZM351.94687 42.4L351.94687 28.087502L357.3375 28.087502Q358.775 28.087502 359.525 28.212502Q360.57187 28.400002 361.29062 28.900002Q362.00937 29.384377 362.43124 30.275002Q362.86874 31.165627 362.86874 32.228127Q362.86874 34.05625 361.69687 35.321877Q360.54062 36.571877 357.50937 36.571877L353.8375 36.571877L353.8375 42.4L351.94687 42.4ZM353.8375 34.884377L357.54062 34.884377Q359.36874 34.884377 360.13437 34.2125Q360.91562 33.525 360.91562 32.275Q360.91562 31.384377 360.4625 30.743752Q360.00937 30.103127 359.275 29.900002Q358.79062 29.775002 357.49374 29.775002L353.8375 29.775002L353.8375 34.884377ZM371.49374 41.11875Q370.50937 41.946877 369.60312 42.290627Q368.69687 42.634377 367.66562 42.634377Q365.9625 42.634377 365.04062 41.80625Q364.11874 40.9625 364.11874 39.665627Q364.11874 38.9 364.4625 38.275Q364.82187 37.65 365.38437 37.275Q365.94687 36.884377 366.65 36.68125Q367.16562 36.55625 368.2125 36.415627Q370.3375 36.165627 371.3375 35.821877Q371.35312 35.4625 371.35312 35.353127Q371.35312 34.290627 370.85312 33.8375Q370.18124 33.24375 368.85312 33.24375Q367.60312 33.24375 367.00937 33.68125Q366.43124 34.11875 366.15 35.228127L364.43124 34.99375Q364.66562 33.884377 365.19687 33.2125Q365.72812 32.525 366.74374 32.165627Q367.75937 31.790627 369.10312 31.790627Q370.43124 31.790627 371.25937 32.103127Q372.0875 32.415627 372.47812 32.9Q372.86874 33.36875 373.025 34.0875Q373.11874 34.540627 373.11874 35.7125L373.11874 38.05625Q373.11874 40.509377 373.22812 41.165627Q373.3375 41.80625 373.68124 42.4L371.8375 42.4Q371.57187 41.853127 371.49374 41.11875ZM371.3375 37.196877Q370.38437 37.5875 368.4625 37.853127Q367.38437 38.009377 366.93124 38.2125Q366.49374 38.4 366.24374 38.775Q365.99374 39.15 365.99374 39.61875Q365.99374 40.321877 366.525 40.790627Q367.05624 41.259377 368.0875 41.259377Q369.10312 41.259377 369.88437 40.821877Q370.68124 40.36875 371.05624 39.603127Q371.3375 38.99375 371.3375 37.8375L371.3375 37.196877ZM375.00937 39.30625L376.75937 39.025Q376.9 40.071877 377.57187 40.634377Q378.24374 41.18125 379.44687 41.18125Q380.65 41.18125 381.22812 40.696877Q381.82187 40.196877 381.82187 39.540627Q381.82187 38.946877 381.30624 38.603127Q380.94687 38.36875 379.50937 38.009377Q377.57187 37.509377 376.82187 37.165627Q376.0875 36.80625 375.69687 36.18125Q375.30624 35.540627 375.30624 34.775Q375.30624 34.0875 375.61874 33.49375Q375.94687 32.9 376.49374 32.509377Q376.9 32.2125 377.60312 32.009377Q378.32187 31.790627 379.13437 31.790627Q380.35312 31.790627 381.275 32.15Q382.19687 32.49375 382.63437 33.103127Q383.07187 33.696877 383.24374 34.696877L381.525 34.93125Q381.4 34.134377 380.8375 33.696877Q380.275 33.24375 379.25937 33.24375Q378.04062 33.24375 377.525 33.65Q377.00937 34.040627 377.00937 34.571877Q377.00937 34.915627 377.22812 35.196877Q377.43124 35.478127 377.9 35.665627Q378.16562 35.759377 379.44687 36.103127Q381.32187 36.603127 382.05624 36.93125Q382.79062 37.24375 383.2125 37.853127Q383.63437 38.446877 383.63437 39.353127Q383.63437 40.228127 383.11874 41.009377Q382.60312 41.790627 381.63437 42.2125Q380.66562 42.634377 379.44687 42.634377Q377.43124 42.634377 376.36874 41.790627Q375.30624 40.946877 375.00937 39.30625ZM385.00937 39.30625L386.75937 39.025Q386.9 40.071877 387.57187 40.634377Q388.24374 41.18125 389.44687 41.18125Q390.65 41.18125 391.22812 40.696877Q391.82187 40.196877 391.82187 39.540627Q391.82187 38.946877 391.30624 38.603127Q390.94687 38.36875 389.50937 38.009377Q387.57187 37.509377 386.82187 37.165627Q386.0875 36.80625 385.69687 36.18125Q385.30624 35.540627 385.30624 34.775Q385.30624 34.0875 385.61874 33.49375Q385.94687 32.9 386.49374 32.509377Q386.9 32.2125 387.60312 32.009377Q388.32187 31.790627 389.13437 31.790627Q390.35312 31.790627 391.275 32.15Q392.19687 32.49375 392.63437 33.103127Q393.07187 33.696877 393.24374 34.696877L391.525 34.93125Q391.4 34.134377 390.8375 33.696877Q390.275 33.24375 389.25937 33.24375Q388.04062 33.24375 387.525 33.65Q387.00937 34.040627 387.00937 34.571877Q387.00937 34.915627 387.22812 35.196877Q387.43124 35.478127 387.9 35.665627Q388.16562 35.759377 389.44687 36.103127Q391.32187 36.603127 392.05624 36.93125Q392.79062 37.24375 393.2125 37.853127Q393.63437 38.446877 393.63437 39.353127Q393.63437 40.228127 393.11874 41.009377Q392.60312 41.790627 391.63437 42.2125Q390.66562 42.634377 389.44687 42.634377Q387.43124 42.634377 386.36874 41.790627Q385.30624 40.946877 385.00937 39.30625ZM395.72812 30.103127L395.72812 28.087502L397.49374 28.087502L397.49374 30.103127L395.72812 30.103127ZM395.72812 42.4L395.72812 32.025L397.49374 32.025L397.49374 42.4L395.72812 42.4ZM399.7125 42.4L399.7125 32.025L401.30624 32.025L401.30624 33.509377Q402.44687 31.790627 404.60312 31.790627Q405.54062 31.790627 406.32187 32.134377Q407.11874 32.4625 407.50937 33.009377Q407.9 33.55625 408.05624 34.30625Q408.15 34.80625 408.15 36.025L408.15 42.4L406.38437 42.4L406.38437 36.0875Q406.38437 35.009377 406.18124 34.478127Q405.97812 33.946877 405.44687 33.634377Q404.93124 33.321877 404.22812 33.321877Q403.10312 33.321877 402.29062 34.040627Q401.47812 34.74375 401.47812 36.728127L401.47812 42.4L399.7125 42.4ZM410.4 43.259377L412.10312 43.509377Q412.2125 44.30625 412.69687 44.665627Q413.35312 45.15 414.49374 45.15Q415.7125 45.15 416.36874 44.665627Q417.04062 44.18125 417.275 43.30625Q417.41562 42.759377 417.4 41.040627Q416.24374 42.4 414.525 42.4Q412.38437 42.4 411.2125 40.853127Q410.04062 39.30625 410.04062 37.15Q410.04062 35.665627 410.57187 34.415627Q411.11874 33.165627 412.13437 32.478127Q413.16562 31.790627 414.54062 31.790627Q416.36874 31.790627 417.57187 33.275L417.57187 32.025L419.18124 32.025L419.18124 40.99375Q419.18124 43.415627 418.68124 44.415627Q418.19687 45.43125 417.11874 46.009377Q416.05624 46.603127 414.49374 46.603127Q412.65 46.603127 411.49374 45.775Q410.35312 44.946877 410.4 43.259377ZM411.85312 37.025Q411.85312 39.071877 412.66562 40.009377Q413.47812 40.946877 414.69687 40.946877Q415.9 40.946877 416.7125 40.009377Q417.54062 39.071877 417.54062 37.0875Q417.54062 35.18125 416.69687 34.2125Q415.85312 33.24375 414.66562 33.24375Q413.49374 33.24375 412.66562 34.196877Q411.85312 35.15 411.85312 37.025ZM426.36874 42.4L431.86874 28.087502L433.91562 28.087502L439.775 42.4L437.61874 42.4L435.94687 38.05625L429.9625 38.05625L428.38437 42.4L426.36874 42.4ZM430.50937 36.525L435.35312 36.525L433.86874 32.55625Q433.18124 30.743752 432.85312 29.587502Q432.57187 30.962502 432.07187 32.321877L430.50937 36.525ZM440.68124 42.4L440.68124 28.087502L442.43124 28.087502L442.43124 42.4L440.68124 42.4ZM444.68124 42.4L444.68124 28.087502L446.43124 28.087502L446.43124 42.4L444.68124 42.4ZM454.97812 42.4L454.97812 28.087502L461.32187 28.087502Q463.22812 28.087502 464.22812 28.478127Q465.22812 28.853127 465.82187 29.837502Q466.41562 30.806252 466.41562 31.993752Q466.41562 33.509377 465.43124 34.55625Q464.44687 35.603127 462.38437 35.884377Q463.13437 36.24375 463.525 36.603127Q464.35312 37.353127 465.10312 38.509377L467.5875 42.4L465.2125 42.4L463.30624 39.415627Q462.47812 38.134377 461.94687 37.446877Q461.41562 36.759377 460.97812 36.49375Q460.55624 36.2125 460.11874 36.103127Q459.79062 36.040627 459.07187 36.040627L456.86874 36.040627L456.86874 42.4L454.97812 42.4ZM456.86874 34.4L460.94687 34.4Q462.24374 34.4 462.9625 34.134377Q463.69687 33.86875 464.07187 33.275Q464.4625 32.68125 464.4625 31.993752Q464.4625 30.978127 463.72812 30.321877Q462.99374 29.665627 461.4 29.665627L456.86874 29.665627L456.86874 34.4ZM475.50937 42.4L475.50937 40.86875Q474.30624 42.634377 472.22812 42.634377Q471.30624 42.634377 470.50937 42.290627Q469.7125 41.93125 469.32187 41.4Q468.94687 40.86875 468.79062 40.0875Q468.68124 39.571877 468.68124 38.446877L468.68124 32.025L470.43124 32.025L470.43124 37.775Q470.43124 39.15 470.54062 39.634377Q470.7125 40.321877 471.24374 40.728127Q471.79062 41.11875 472.57187 41.11875Q473.36874 41.11875 474.05624 40.7125Q474.75937 40.30625 475.04062 39.61875Q475.3375 38.915627 475.3375 37.5875L475.3375 32.025L477.0875 32.025L477.0875 42.4L475.50937 42.4ZM479.68124 42.4L479.68124 28.087502L481.43124 28.087502L481.43124 42.4L479.68124 42.4ZM490.82187 39.05625L492.63437 39.290627Q492.2125 40.86875 491.04062 41.759377Q489.88437 42.634377 488.07187 42.634377Q485.80624 42.634377 484.4625 41.24375Q483.13437 39.8375 483.13437 37.30625Q483.13437 34.68125 484.47812 33.24375Q485.82187 31.790627 487.97812 31.790627Q490.05624 31.790627 491.36874 33.2125Q492.69687 34.61875 492.69687 37.196877Q492.69687 37.353127 492.68124 37.665627L484.94687 37.665627Q485.04062 39.36875 485.91562 40.275Q486.79062 41.18125 488.0875 41.18125Q489.05624 41.18125 489.72812 40.68125Q490.41562 40.165627 490.82187 39.05625ZM485.04062 36.2125L490.8375 36.2125Q490.72812 34.915627 490.18124 34.259377Q489.3375 33.24375 487.99374 33.24375Q486.79062 33.24375 485.9625 34.05625Q485.13437 34.853127 485.04062 36.2125ZM494.00937 39.30625L495.75937 39.025Q495.9 40.071877 496.57187 40.634377Q497.24374 41.18125 498.44687 41.18125Q499.65 41.18125 500.22812 40.696877Q500.82187 40.196877 500.82187 39.540627Q500.82187 38.946877 500.30624 38.603127Q499.94687 38.36875 498.50937 38.009377Q496.57187 37.509377 495.82187 37.165627Q495.0875 36.80625 494.69687 36.18125Q494.30624 35.540627 494.30624 34.775Q494.30624 34.0875 494.61874 33.49375Q494.94687 32.9 495.49374 32.509377Q495.9 32.2125 496.60312 32.009377Q497.32187 31.790627 498.13437 31.790627Q499.35312 31.790627 500.275 32.15Q501.19687 32.49375 501.63437 33.103127Q502.07187 33.696877 502.24374 34.696877L500.525 34.93125Q500.4 34.134377 499.8375 33.696877Q499.275 33.24375 498.25937 33.24375Q497.04062 33.24375 496.525 33.65Q496.00937 34.040627 496.00937 34.571877Q496.00937 34.915627 496.22812 35.196877Q496.43124 35.478127 496.9 35.665627Q497.16562 35.759377 498.44687 36.103127Q500.32187 36.603127 501.05624 36.93125Q501.79062 37.24375 502.2125 37.853127Q502.63437 38.446877 502.63437 39.353127Q502.63437 40.228127 502.11874 41.009377Q501.60312 41.790627 500.63437 42.2125Q499.66562 42.634377 498.44687 42.634377Q496.43124 42.634377 495.36874 41.790627Q494.30624 40.946877 494.00937 39.30625Z" fill-rule="nonzero"/></svg>