<svg xmlns="http://www.w3.org/2000/svg" xmlns:xlink="http://www.w3.org/1999/xlink" viewBox="0 0 1182 790">
  <defs>
    <rect id="b" width="150" height="150" rx="2"/>
    <filter id="a" width="112.7%" height="112.7%" x="-6.3%" y="-5.7%" filterUnits="objectBoundingBox">
      <feOffset dy="1" in="SourceAlpha" result="shadowOffsetOuter1"/>
      <feGaussianBlur in="shadowOffsetOuter1" result="shadowBlurOuter1" stdDeviation="3"/>
      <feColorMatrix in="shadowBlurOuter1" values="0 0 0 0 0.37254902 0 0 0 0 0.388235294 0 0 0 0 0.407843137 0 0 0 0.5 0"/>
    </filter>
  </defs>
  <g fill="none" fill-rule="evenodd">
    <path fill="#3C4043" d="M91.797 207.879c-.317 2.707-1.316 4.796-2.997 6.267-1.682 1.47-3.917 2.206-6.706 2.206-3.024 0-5.447-1.084-7.269-3.252-1.822-2.168-2.733-5.069-2.733-8.702v-2.46c0-2.38.425-4.471 1.274-6.276.85-1.805 2.054-3.19 3.613-4.157 1.558-.967 3.363-1.45 5.414-1.45 2.718 0 4.898.758 6.539 2.276 1.64 1.518 2.595 3.618 2.865 6.302h-3.393c-.293-2.04-.928-3.516-1.907-4.43-.978-.914-2.347-1.371-4.104-1.371-2.157 0-3.847.797-5.072 2.39-1.224 1.594-1.837 3.862-1.837 6.803v2.479c0 2.777.58 4.986 1.74 6.627 1.16 1.64 2.784 2.46 4.87 2.46 1.875 0 3.313-.424 4.315-1.274 1.002-.85 1.667-2.329 1.995-4.438h3.393zM99.426 216h-3.252v-27h3.252v27zm8.736 0h-3.252v-19.02h3.252V216zm-3.516-24.064c0-.528.162-.973.484-1.336.322-.364.8-.545 1.433-.545.632 0 1.113.181 1.44.545.329.363.493.808.493 1.336 0 .527-.164.966-.492 1.318-.328.351-.809.527-1.442.527-.632 0-1.11-.176-1.432-.527-.322-.352-.484-.791-.484-1.318zm16.612 24.416c-2.578 0-4.676-.847-6.293-2.54-1.617-1.694-2.426-3.958-2.426-6.794v-.598c0-1.887.36-3.571 1.081-5.054.72-1.482 1.729-2.642 3.024-3.48 1.294-.838 2.698-1.257 4.21-1.257 2.472 0 4.394.814 5.765 2.443 1.371 1.63 2.057 3.961 2.057 6.996v1.354H115.79c.047 1.875.595 3.39 1.644 4.544 1.048 1.154 2.381 1.731 3.999 1.731 1.148 0 2.12-.234 2.918-.703a7.332 7.332 0 0 0 2.091-1.863l1.987 1.547c-1.594 2.449-3.985 3.674-7.172 3.674zm-.404-17.051c-1.313 0-2.415.477-3.305 1.432-.89.955-1.442 2.294-1.653 4.017h9.528v-.246c-.094-1.652-.54-2.933-1.336-3.84-.797-.91-1.875-1.363-3.234-1.363zm14.66-2.32l.105 2.39c1.453-1.828 3.352-2.742 5.695-2.742 4.02 0 6.047 2.267 6.082 6.803V216h-3.251v-12.586c-.012-1.371-.326-2.385-.94-3.041-.616-.656-1.574-.984-2.875-.984-1.055 0-1.98.28-2.777.843a5.73 5.73 0 0 0-1.864 2.215V216h-3.251v-19.02h3.076zm21.199-4.606v4.605h3.55v2.514h-3.55v11.795c0 .762.158 1.333.475 1.714.316.38.855.571 1.617.571.375 0 .89-.07 1.547-.21V216a9.428 9.428 0 0 1-2.497.352c-1.453 0-2.548-.44-3.287-1.319-.738-.879-1.107-2.127-1.107-3.744v-11.795h-3.463v-2.514h3.463v-4.605h3.252zM977.797 207.879c-.317 2.707-1.316 4.796-2.997 6.267-1.682 1.47-3.917 2.206-6.706 2.206-3.024 0-5.447-1.084-7.269-3.252-1.822-2.168-2.733-5.069-2.733-8.702v-2.46c0-2.38.425-4.471 1.274-6.276.85-1.805 2.054-3.19 3.613-4.157 1.558-.967 3.363-1.45 5.414-1.45 2.718 0 4.898.758 6.539 2.276 1.64 1.518 2.595 3.618 2.865 6.302h-3.393c-.293-2.04-.928-3.516-1.907-4.43-.978-.914-2.347-1.371-4.104-1.371-2.157 0-3.847.797-5.072 2.39-1.224 1.594-1.837 3.862-1.837 6.803v2.479c0 2.777.58 4.986 1.74 6.627 1.16 1.64 2.784 2.46 4.87 2.46 1.875 0 3.313-.424 4.315-1.274 1.002-.85 1.667-2.329 1.995-4.438h3.393zm7.629 8.121h-3.252v-27h3.252v27zm4.342-9.686c0-1.863.366-3.539 1.098-5.027.733-1.488 1.752-2.637 3.059-3.445 1.306-.809 2.798-1.213 4.473-1.213 2.59 0 4.685.896 6.285 2.69 1.6 1.792 2.399 4.177 2.399 7.154v.228c0 1.852-.354 3.513-1.063 4.984-.71 1.47-1.723 2.616-3.041 3.436-1.319.82-2.833 1.23-4.544 1.23-2.579 0-4.667-.896-6.267-2.689-1.6-1.793-2.4-4.166-2.4-7.119v-.229zm3.27.387c0 2.11.488 3.803 1.467 5.08.978 1.278 2.288 1.916 3.929 1.916 1.652 0 2.964-.647 3.937-1.942.973-1.295 1.46-3.109 1.46-5.44 0-2.086-.496-3.777-1.486-5.072s-2.306-1.942-3.947-1.942c-1.605 0-2.9.638-3.884 1.916-.985 1.277-1.477 3.105-1.477 5.484zm29.864 7.418c-1.265 1.488-3.123 2.233-5.572 2.233-2.027 0-3.571-.59-4.632-1.767-1.06-1.178-1.596-2.92-1.608-5.23V196.98h3.252v12.288c0 2.882 1.172 4.324 3.515 4.324 2.485 0 4.137-.926 4.957-2.778V196.98h3.252V216h-3.093l-.07-1.88zm7.313-7.787c0-2.918.691-5.265 2.074-7.04 1.383-1.775 3.193-2.663 5.432-2.663 2.226 0 3.99.762 5.29 2.285V189h3.253v27h-2.989l-.158-2.04c-1.3 1.595-3.111 2.392-5.431 2.392-2.204 0-4-.903-5.388-2.707-1.389-1.805-2.083-4.16-2.083-7.067v-.246zm3.252.37c0 2.155.445 3.843 1.336 5.062.89 1.218 2.12 1.828 3.691 1.828 2.063 0 3.569-.926 4.518-2.778v-8.736c-.973-1.793-2.467-2.69-4.483-2.69-1.593 0-2.836.616-3.726 1.846-.89 1.23-1.336 3.053-1.336 5.467zm30.885 9.298h-3.375v-25.594h3.375V216zm20.619-6.68h-10.723l-2.408 6.68h-3.48l9.773-25.594h2.953l9.791 25.594h-3.463l-2.443-6.68zm-9.703-2.777h8.7l-4.359-11.97-4.341 11.97zm23.414-16.137l8.367 20.883 8.367-20.883h4.377V216h-3.375v-9.967l.316-10.758-8.402 20.725h-2.584l-8.385-20.672.334 10.705V216h-3.375v-25.594h4.36z"/>
    <g fill-rule="nonzero">
      <path fill="#4285F4" d="M1119.539 72.397L1085.53 13.25a14.948 14.948 0 0 0-12.75-7.603h-68.03A14.935 14.935 0 0 0 992 13.25l-34.022 58.991a14.845 14.845 0 0 0 0 14.793l34.01 59.483a15.22 15.22 0 0 0 12.75 7.875h68.03a15.168 15.168 0 0 0 12.762-7.836l34.009-59.147a15.168 15.168 0 0 0 0-15.012z"/>
      <path fill="#000" d="M1071.086 55.224l-50.43-1.086-3.88 44.612 2.935 10.086 45.517 45.517h7.54a15.168 15.168 0 0 0 12.762-7.836l28.06-48.789-42.504-42.504z" opacity=".07"/>
      <path fill="#FFF" d="M1038.759 40.858l-32.328 14.366V76.78c0 19.94 13.797 38.573 32.328 43.1 18.53-4.527 32.327-23.173 32.327-43.1V55.224l-32.327-14.366zm0 15.22c5.713 0 10.344 4.631 10.344 10.344 0 5.714-4.631 10.345-10.344 10.345-5.714 0-10.345-4.631-10.345-10.345 0-5.713 4.631-10.344 10.345-10.344zm19.396 42.775c0 .258-.076.51-.22.725-.232.349-.465.71-.724 1.047a36.039 36.039 0 0 1-18.452 13.228 36.039 36.039 0 0 1-18.453-13.163c-.259-.337-.491-.699-.724-1.048a1.293 1.293 0 0 1-.22-.724v-5.806c0-7.927 12.931-11.922 19.397-11.922 6.465 0 19.396 3.982 19.396 11.922v5.741z"/>
    </g>
    <path fill="#000" fill-rule="nonzero" d="M596.754 740.299h9.297l-14.126 48.09h-13.222l-14.119-48.09h9.294l11.451 40.007 11.425-40.007zm35.18 47.997h-7.102l-.629-2.288a18.661 18.661 0 0 1-10.279 3.092c-6.32 0-9.022-4.4-9.022-10.444 0-7.153 3.058-9.871 10.092-9.871h8.309v-3.687c0-3.891-1.054-5.267-6.61-5.267a47.72 47.72 0 0 0-9.582 1.07l-1.053-6.711a44.618 44.618 0 0 1 11.876-1.648c10.874 0 14.068 3.89 14.068 12.692v23.056l-.068.006zm-8.665-13.257h-6.406c-2.837 0-3.636.798-3.636 3.457 0 2.656.799 3.526 3.483 3.526a13.372 13.372 0 0 0 6.542-1.808l.034-5.175h-.017zm22.291-21.824v24.503c0 1.878.798 2.815 2.786 2.815a23.682 23.682 0 0 0 9.04-2.952v-24.364h8.664v35.101h-6.609l-.85-3.044a34.213 34.213 0 0 1-13.779 3.755c-5.742 0-7.798-4.098-7.798-10.373v-25.451h8.597l-.051.01zm25.078 35.081v-49.441l8.665-1.212v50.677l-8.665-.024zm34.524-.732a23.749 23.749 0 0 1-7.595 1.376c-6.32 0-9.514-3.024-9.514-9.298v-19.573h-5.182v-6.881h5.199v-8.716l8.648-1.24v9.956h8.869l-.544 6.864h-8.325v18.315a2.841 2.841 0 0 0 .798 2.345 2.687 2.687 0 0 0 2.328.747 16.99 16.99 0 0 0 4.332-.713l1.037 6.779-.051.04zM548 535l87.194 175L723 535H548zm97.572 35.13h10.15v10.085h-10.15V570.13zm-20.212 40.693h-10.15V600.56h10.15v10.263zm0-15.214h-10.15v-10.262h10.15v10.262zm0-15.214h-10.15v-10.262h10.15v10.262zm15.329 45.53h-10.262v-10.15h10.262v10.15zm0-15.215h-10.262v-10.143h10.262v10.16-.017zm0-15.206h-10.262v-10.143h10.262v10.16-.017zm0-15.274h-10.262v-10.075h10.262v10.092-.017zm4.995 5.063h10.152v10.16h-10.28l.102-10.143.026-.017zm0 25.366v-10.075h10.152v10.16l-10.16-.068.008-.017z"/>
    <g fill-rule="nonzero">
      <g transform="translate(41 5)">
        <use fill="#000" filter="url(#a)" xlink:href="#b"/>
        <use fill="#FFF" xlink:href="#b"/>
      </g>
      <path fill="#9AA0A6" d="M95.418 75.588c-9.259 0-16.765-7.506-16.765-16.764 0-9.26 7.506-16.765 16.765-16.765s16.765 7.506 16.765 16.765c0 9.258-7.506 16.764-16.765 16.764zm42.353 0c-9.259 0-16.765-7.506-16.765-16.764 0-9.26 7.506-16.765 16.765-16.765s16.765 7.506 16.765 16.765c0 9.258-7.506 16.764-16.765 16.764zm-79.124 40.87v-16.161c6.602-9.804 18.77-14.706 36.507-14.706s29.906 4.902 36.508 14.706v16.16H58.647zm84.406.6c.022-10.111-.547-16.913-1.709-20.404-1.161-3.492-4.076-7.166-8.744-11.022 8.827-.005 16.767 1.004 23.818 3.027 7.052 2.023 13.235 5.99 18.547 11.9v16.499h-31.912z"/>
    </g>
    <path fill="#5F6368" fill-rule="nonzero" d="M413 82.75H261v12l-29-14.5 29-14.5v12h152v5zm324 0v-5h159v-12l29 14.5-29 14.5v-12H737z"/>
    <path stroke="#5F6368" stroke-linecap="square" stroke-width="5" d="M727.5 628.5h311"/>
    <path fill="#5F6368" fill-rule="nonzero" d="M1042 422h-5V288h-12l14.5-29 14.5 29h-12v134zm0 62v147h-5V484h5z"/>
    <path fill="#3C4043" d="M449.255 89h-2.361V73.347l-4.736 1.739v-2.133l6.729-2.526h.368V89zm7.173-1.231c0-.407.12-.745.362-1.016.24-.27.603-.406 1.085-.406s.848.135 1.098.406c.25.27.375.61.375 1.016 0 .389-.125.715-.375.977s-.616.394-1.098.394c-.482 0-.844-.132-1.085-.394-.242-.262-.362-.588-.362-.977zm27.244-1.194c-.626.897-1.5 1.568-2.622 2.012-1.121.445-2.427.667-3.916.667-1.507 0-2.844-.353-4.012-1.06-1.168-.707-2.071-1.712-2.71-3.015-.64-1.304-.967-2.814-.984-4.533v-1.612c0-2.784.65-4.943 1.948-6.474 1.3-1.532 3.126-2.298 5.478-2.298 1.93 0 3.483.493 4.66 1.479 1.176.986 1.896 2.384 2.158 4.196h-2.438c-.457-2.446-1.912-3.67-4.367-3.67-1.633 0-2.871.574-3.713 1.72-.842 1.148-1.268 2.809-1.276 4.984v1.51c0 2.074.474 3.722 1.422 4.945.948 1.223 2.23 1.835 3.846 1.835.915 0 1.714-.102 2.4-.305.685-.203 1.252-.546 1.701-1.028v-4.152h-4.278v-1.98h6.703v6.78zm9.394 2.679c-1.862 0-3.377-.612-4.545-1.835-1.167-1.223-1.751-2.858-1.751-4.906v-.432c0-1.363.26-2.58.78-3.65.52-1.07 1.249-1.908 2.184-2.514a5.49 5.49 0 0 1 3.04-.907c1.786 0 3.174.588 4.164 1.764.99 1.177 1.486 2.861 1.486 5.053v.978h-9.306c.034 1.354.43 2.448 1.187 3.281.758.834 1.72 1.25 2.888 1.25.83 0 1.532-.168 2.108-.507a5.295 5.295 0 0 0 1.51-1.346l1.435 1.118c-1.151 1.768-2.877 2.653-5.18 2.653zm-.292-12.315c-.948 0-1.743.345-2.386 1.035-.644.69-1.041 1.657-1.194 2.901h6.881v-.178c-.068-1.193-.39-2.118-.965-2.774-.575-.656-1.354-.984-2.336-.984zm10.588-1.675l.076 1.726c1.05-1.32 2.421-1.98 4.114-1.98 2.903 0 4.367 1.637 4.392 4.913V89h-2.348v-9.09c-.009-.99-.235-1.722-.68-2.196-.444-.474-1.136-.711-2.075-.711-.762 0-1.43.203-2.006.61a4.138 4.138 0 0 0-1.346 1.599V89h-2.348V75.264h2.221zm17.825 13.99c-1.862 0-3.377-.612-4.545-1.835-1.168-1.223-1.752-2.858-1.752-4.906v-.432c0-1.363.26-2.58.78-3.65.52-1.07 1.249-1.908 2.184-2.514a5.49 5.49 0 0 1 3.04-.907c1.786 0 3.174.588 4.165 1.764.99 1.177 1.485 2.861 1.485 5.053v.978h-9.306c.034 1.354.43 2.448 1.187 3.281.758.834 1.72 1.25 2.888 1.25.83 0 1.532-.168 2.108-.507a5.295 5.295 0 0 0 1.51-1.346l1.435 1.118c-1.15 1.768-2.877 2.653-5.18 2.653zm-.292-12.315c-.948 0-1.744.345-2.387 1.035s-1.041 1.657-1.194 2.901h6.881v-.178c-.067-1.193-.389-2.118-.965-2.774-.575-.656-1.354-.984-2.335-.984zm15.005.432a7.038 7.038 0 0 0-1.155-.089c-1.54 0-2.585.656-3.136 1.968V89h-2.348V75.264h2.285l.038 1.587c.77-1.228 1.862-1.841 3.275-1.841.457 0 .804.059 1.041.177v2.184zM546.031 89c-.135-.27-.245-.753-.33-1.447-1.092 1.134-2.395 1.7-3.91 1.7-1.354 0-2.465-.382-3.333-1.148-.867-.766-1.3-1.737-1.3-2.914 0-1.43.543-2.54 1.63-3.332 1.088-.791 2.618-1.187 4.59-1.187h2.285v-1.08c0-.82-.245-1.474-.736-1.96-.491-.487-1.215-.73-2.171-.73-.838 0-1.54.211-2.108.634-.567.423-.85.935-.85 1.536h-2.361c0-.685.243-1.348.73-1.987.486-.639 1.146-1.144 1.98-1.517.834-.372 1.75-.558 2.749-.558 1.582 0 2.822.395 3.72 1.187.896.791 1.362 1.88 1.396 3.269v6.322c0 1.261.16 2.264.482 3.009V89h-2.463zm-3.897-1.79c.736 0 1.434-.19 2.095-.571.66-.381 1.138-.876 1.434-1.486v-2.818h-1.84c-2.878 0-4.317.842-4.317 2.526 0 .737.245 1.312.736 1.727.491.415 1.122.622 1.892.622zm12.746-15.272v3.326h2.564v1.815h-2.564v8.519c0 .55.114.962.343 1.237.228.276.617.413 1.168.413.27 0 .643-.05 1.117-.152V89a6.809 6.809 0 0 1-1.803.254c-1.05 0-1.84-.317-2.374-.952-.533-.635-.8-1.536-.8-2.704v-8.519h-2.5v-1.815h2.5v-3.326h2.349zm11.007 17.316c-1.862 0-3.377-.612-4.545-1.835-1.168-1.223-1.752-2.858-1.752-4.906v-.432c0-1.363.26-2.58.78-3.65.521-1.07 1.249-1.908 2.184-2.514a5.49 5.49 0 0 1 3.04-.907c1.787 0 3.175.588 4.165 1.764.99 1.177 1.485 2.861 1.485 5.053v.978h-9.306c.034 1.354.43 2.448 1.187 3.281.758.834 1.72 1.25 2.889 1.25.83 0 1.532-.168 2.107-.507a5.295 5.295 0 0 0 1.51-1.346l1.435 1.118c-1.15 1.768-2.877 2.653-5.18 2.653zm-.292-12.315c-.948 0-1.744.345-2.387 1.035s-1.041 1.657-1.193 2.901h6.88v-.178c-.067-1.193-.389-2.118-.964-2.774-.576-.656-1.354-.984-2.336-.984zm20.617 3.822c-2.09-.601-3.612-1.34-4.564-2.216-.952-.876-1.428-1.957-1.428-3.243 0-1.456.582-2.66 1.745-3.612 1.164-.952 2.677-1.428 4.539-1.428 1.27 0 2.401.245 3.396.736.994.49 1.765 1.168 2.31 2.031.546.864.82 1.807.82 2.831h-2.45c0-1.117-.356-1.995-1.067-2.634-.711-.639-1.714-.958-3.01-.958-1.2 0-2.138.264-2.811.793s-1.01 1.263-1.01 2.203c0 .753.32 1.39.96 1.91.638.52 1.726.997 3.262 1.429 1.536.431 2.738.907 3.605 1.428.868.52 1.511 1.128 1.93 1.822.419.694.628 1.51.628 2.45 0 1.498-.584 2.697-1.752 3.599-1.168.901-2.73 1.352-4.684 1.352a8.688 8.688 0 0 1-3.555-.73c-1.1-.487-1.949-1.153-2.545-2-.597-.846-.895-1.807-.895-2.881h2.45c0 1.117.413 2 1.238 2.647.825.647 1.927.97 3.307.97 1.286 0 2.272-.262 2.958-.786.685-.525 1.028-1.24 1.028-2.146 0-.905-.317-1.606-.952-2.1-.635-.496-1.786-.985-3.453-1.467zM598.374 89h-2.349V75.264h2.349V89zm-2.539-17.38c0-.38.116-.702.35-.965.232-.262.577-.393 1.034-.393.457 0 .804.13 1.04.393.238.263.356.584.356.965s-.118.698-.355.952-.584.381-1.041.381c-.457 0-.802-.127-1.035-.38-.233-.255-.349-.572-.349-.953zm5.738 10.398c0-2.142.495-3.845 1.486-5.11.99-1.266 2.302-1.898 3.935-1.898 1.676 0 2.984.592 3.923 1.777l.114-1.523h2.146V88.67c0 1.777-.527 3.178-1.58 4.202-1.055 1.024-2.47 1.536-4.247 1.536-.99 0-1.96-.211-2.908-.635-.948-.423-1.671-1.002-2.17-1.739l1.218-1.409c1.007 1.244 2.239 1.866 3.695 1.866 1.142 0 2.033-.321 2.672-.965.639-.643.958-1.548.958-2.716v-1.181c-.939 1.083-2.221 1.625-3.846 1.625-1.608 0-2.91-.648-3.904-1.942-.995-1.295-1.492-3.06-1.492-5.294zm2.362.266c0 1.549.317 2.766.952 3.65.634.885 1.523 1.327 2.666 1.327 1.48 0 2.568-.673 3.262-2.019v-6.271c-.719-1.312-1.798-1.968-3.237-1.968-1.142 0-2.035.444-2.679 1.333-.643.889-.964 2.205-.964 3.948zm15.005-7.02l.077 1.726c1.05-1.32 2.42-1.98 4.113-1.98 2.903 0 4.367 1.637 4.392 4.913V89h-2.348v-9.09c-.009-.99-.235-1.722-.68-2.196-.444-.474-1.136-.711-2.075-.711-.762 0-1.43.203-2.006.61a4.138 4.138 0 0 0-1.346 1.599V89h-2.348V75.264h2.221zm17.825 13.99c-1.862 0-3.377-.612-4.545-1.835-1.168-1.223-1.752-2.858-1.752-4.906v-.432c0-1.363.26-2.58.78-3.65.521-1.07 1.249-1.908 2.184-2.514a5.49 5.49 0 0 1 3.04-.907c1.786 0 3.174.588 4.165 1.764.99 1.177 1.485 2.861 1.485 5.053v.978h-9.306c.034 1.354.43 2.448 1.187 3.281.758.834 1.72 1.25 2.889 1.25.829 0 1.531-.168 2.107-.507a5.295 5.295 0 0 0 1.51-1.346l1.435 1.118c-1.15 1.768-2.877 2.653-5.18 2.653zm-.292-12.315c-.948 0-1.744.345-2.387 1.035s-1.041 1.657-1.193 2.901h6.88v-.178c-.067-1.193-.389-2.118-.964-2.774-.576-.656-1.355-.984-2.336-.984zm7.795 5.079c0-2.108.499-3.803 1.498-5.085.998-1.282 2.306-1.923 3.922-1.923 1.609 0 2.882.55 3.822 1.65V69.5h2.348V89H653.7l-.114-1.473c-.94 1.151-2.247 1.727-3.923 1.727-1.591 0-2.888-.652-3.891-1.955-1.003-1.304-1.504-3.005-1.504-5.104v-.177zm2.348.266c0 1.557.322 2.776.965 3.656.643.88 1.532 1.32 2.666 1.32 1.49 0 2.577-.668 3.263-2.005v-6.31c-.703-1.295-1.782-1.942-3.238-1.942-1.15 0-2.048.444-2.69 1.333-.644.889-.966 2.205-.966 3.948zm27.435-11.768h2.45v13.088c0 1.77-.531 3.153-1.593 4.152-1.062.999-2.478 1.498-4.247 1.498-1.836 0-3.267-.47-4.29-1.41-1.025-.939-1.537-2.255-1.537-3.948h2.437c0 1.058.29 1.884.87 2.476.58.593 1.42.889 2.52.889 1.007 0 1.822-.318 2.444-.952.622-.635.937-1.524.946-2.666V70.516zm10.588 12.657l.355 2.437.52-2.196 3.657-12.898h2.057l3.567 12.898.508 2.234.393-2.488 2.87-12.644h2.45L696.534 89h-2.221l-3.81-13.47-.291-1.409-.292 1.41L685.972 89h-2.222l-4.469-18.484h2.438l2.92 12.657zm32.03-10.652h-5.941V89h-2.425V72.521h-5.929v-2.005h14.295v2.005z"/>
    <path fill="#5F6368" fill-rule="nonzero" d="M119 422h-5V248h5v174zm0 62v147h-5V484h5zM514 631H119v-5h395v-12l29 14.5-29 14.5z"/>
    <path fill="#3C4043" d="M12.647 464H.537v-1.688l6.398-7.11c.947-1.075 1.601-1.949 1.961-2.621.36-.673.54-1.37.54-2.089 0-.965-.292-1.756-.876-2.374-.584-.618-1.363-.927-2.336-.927-1.168 0-2.076.333-2.724.997-.647.664-.97 1.589-.97 2.774H.18c0-1.701.549-3.077 1.645-4.126 1.096-1.05 2.562-1.574 4.399-1.574 1.718 0 3.076.45 4.075 1.352.999.901 1.498 2.1 1.498 3.599 0 1.82-1.16 3.986-3.479 6.5l-4.95 5.37h9.28V464zm2.78-1.231c0-.407.121-.745.363-1.016.24-.27.603-.406 1.085-.406s.848.135 1.098.406c.25.27.375.61.375 1.016 0 .389-.125.715-.375.977s-.616.394-1.098.394c-.482 0-.844-.132-1.085-.394-.242-.262-.362-.588-.362-.977zm19.044-7.008c-2.09-.601-3.612-1.34-4.564-2.216-.952-.876-1.428-1.957-1.428-3.243 0-1.456.581-2.66 1.745-3.612 1.164-.952 2.677-1.428 4.539-1.428 1.27 0 2.401.245 3.396.736.994.49 1.764 1.168 2.31 2.031.546.864.82 1.807.82 2.831h-2.451c0-1.117-.356-1.995-1.067-2.634-.71-.639-1.713-.958-3.008-.958-1.202 0-2.14.264-2.812.793-.673.529-1.01 1.263-1.01 2.203 0 .753.32 1.39.959 1.91s1.726.997 3.263 1.429c1.536.431 2.738.907 3.605 1.428.868.52 1.51 1.128 1.93 1.822.419.694.628 1.51.628 2.45 0 1.498-.584 2.697-1.752 3.599-1.168.901-2.73 1.352-4.684 1.352a8.688 8.688 0 0 1-3.555-.73c-1.1-.487-1.949-1.153-2.545-2-.597-.846-.895-1.807-.895-2.881h2.45c0 1.117.412 2 1.238 2.647.825.647 1.927.97 3.307.97 1.286 0 2.272-.262 2.958-.786.685-.525 1.028-1.24 1.028-2.146 0-.905-.317-1.606-.952-2.1-.635-.496-1.786-.985-3.453-1.467zm15.31 8.493c-1.862 0-3.377-.612-4.545-1.835-1.168-1.223-1.752-2.858-1.752-4.906v-.432c0-1.363.26-2.58.781-3.65.52-1.07 1.249-1.908 2.184-2.514a5.49 5.49 0 0 1 3.04-.907c1.786 0 3.174.588 4.164 1.764.99 1.177 1.486 2.861 1.486 5.053v.978h-9.306c.034 1.354.43 2.448 1.187 3.281.758.834 1.72 1.25 2.888 1.25.83 0 1.532-.168 2.108-.507a5.295 5.295 0 0 0 1.51-1.346l1.435 1.118c-1.151 1.768-2.878 2.653-5.18 2.653zm-.292-12.315c-.948 0-1.743.345-2.386 1.035-.644.69-1.041 1.657-1.194 2.901h6.881v-.178c-.068-1.193-.39-2.118-.965-2.774-.575-.656-1.354-.984-2.336-.984zm10.588-1.675l.076 1.726c1.05-1.32 2.42-1.98 4.114-1.98 2.903 0 4.367 1.637 4.392 4.913V464h-2.348v-9.09c-.009-.99-.235-1.722-.68-2.196-.444-.474-1.136-.711-2.075-.711-.762 0-1.43.203-2.006.61a4.138 4.138 0 0 0-1.346 1.599V464h-2.349v-13.736h2.222zm11.553 6.754c0-2.108.5-3.803 1.498-5.085.999-1.282 2.306-1.923 3.923-1.923 1.608 0 2.882.55 3.821 1.65v-7.16h2.349V464h-2.159l-.114-1.473c-.94 1.151-2.247 1.727-3.923 1.727-1.59 0-2.888-.652-3.89-1.955-1.004-1.304-1.505-3.005-1.505-5.104v-.177zm2.349.266c0 1.557.321 2.776.964 3.656.644.88 1.532 1.32 2.666 1.32 1.49 0 2.578-.668 3.263-2.005v-6.31c-.702-1.295-1.781-1.942-3.237-1.942-1.151 0-2.048.444-2.692 1.333-.643.889-.964 2.205-.964 3.948zm25.136-1.523c-2.09-.601-3.612-1.34-4.564-2.216-.952-.876-1.428-1.957-1.428-3.243 0-1.456.582-2.66 1.746-3.612 1.163-.952 2.676-1.428 4.538-1.428 1.27 0 2.402.245 3.396.736.995.49 1.765 1.168 2.31 2.031.547.864.82 1.807.82 2.831h-2.45c0-1.117-.356-1.995-1.067-2.634-.71-.639-1.714-.958-3.009-.958-1.202 0-2.139.264-2.812.793s-1.01 1.263-1.01 2.203c0 .753.32 1.39.96 1.91.638.52 1.726.997 3.262 1.429 1.536.431 2.738.907 3.606 1.428.867.52 1.51 1.128 1.93 1.822.418.694.628 1.51.628 2.45 0 1.498-.584 2.697-1.752 3.599-1.168.901-2.73 1.352-4.685 1.352a8.688 8.688 0 0 1-3.555-.73c-1.1-.487-1.948-1.153-2.545-2-.597-.846-.895-1.807-.895-2.881h2.45c0 1.117.413 2 1.238 2.647.825.647 1.928.97 3.307.97 1.287 0 2.273-.262 2.958-.786.686-.525 1.029-1.24 1.029-2.146 0-.905-.318-1.606-.953-2.1-.634-.496-1.785-.985-3.453-1.467zM111.277 464h-2.348v-13.736h2.348V464zm-2.539-17.38c0-.38.117-.702.35-.965.232-.262.577-.393 1.034-.393.457 0 .804.13 1.041.393.237.263.356.584.356.965s-.119.698-.356.952-.584.381-1.04.381c-.458 0-.803-.127-1.036-.38-.232-.255-.349-.572-.349-.953zm5.739 10.398c0-2.142.495-3.845 1.485-5.11.99-1.266 2.302-1.898 3.935-1.898 1.676 0 2.984.592 3.923 1.777l.115-1.523h2.145v13.406c0 1.777-.527 3.178-1.58 4.202-1.054 1.024-2.47 1.536-4.247 1.536-.99 0-1.96-.211-2.907-.635-.948-.423-1.672-1.002-2.171-1.739l1.219-1.409c1.007 1.244 2.238 1.866 3.694 1.866 1.142 0 2.033-.321 2.672-.965.64-.643.959-1.548.959-2.716v-1.181c-.94 1.083-2.222 1.625-3.847 1.625-1.608 0-2.91-.648-3.904-1.942-.994-1.295-1.491-3.06-1.491-5.294zm2.36.266c0 1.549.318 2.766.953 3.65.635.885 1.523 1.327 2.666 1.327 1.481 0 2.569-.673 3.263-2.019v-6.271c-.72-1.312-1.799-1.968-3.238-1.968-1.142 0-2.035.444-2.678 1.333-.643.889-.965 2.205-.965 3.948zm15.007-7.02l.076 1.726c1.05-1.32 2.42-1.98 4.113-1.98 2.903 0 4.367 1.637 4.393 4.913V464h-2.349v-9.09c-.008-.99-.235-1.722-.68-2.196-.443-.474-1.135-.711-2.075-.711-.761 0-1.43.203-2.006.61a4.138 4.138 0 0 0-1.345 1.599V464h-2.349v-13.736h2.222zm17.824 13.99c-1.862 0-3.377-.612-4.545-1.835-1.168-1.223-1.752-2.858-1.752-4.906v-.432c0-1.363.26-2.58.78-3.65.521-1.07 1.25-1.908 2.184-2.514a5.49 5.49 0 0 1 3.041-.907c1.786 0 3.174.588 4.164 1.764.99 1.177 1.485 2.861 1.485 5.053v.978h-9.305c.034 1.354.43 2.448 1.187 3.281.757.834 1.72 1.25 2.888 1.25.83 0 1.532-.168 2.107-.507a5.295 5.295 0 0 0 1.511-1.346l1.435 1.118c-1.151 1.768-2.878 2.653-5.18 2.653zm-.292-12.315c-.948 0-1.744.345-2.387 1.035s-1.04 1.657-1.193 2.901h6.88v-.178c-.067-1.193-.389-2.118-.964-2.774-.576-.656-1.354-.984-2.336-.984zm7.795 5.079c0-2.108.5-3.803 1.498-5.085.999-1.282 2.306-1.923 3.923-1.923 1.608 0 2.882.55 3.821 1.65v-7.16h2.349V464h-2.158l-.115-1.473c-.94 1.151-2.247 1.727-3.923 1.727-1.59 0-2.888-.652-3.89-1.955-1.004-1.304-1.505-3.005-1.505-5.104v-.177zm2.349.266c0 1.557.321 2.776.964 3.656.644.88 1.532 1.32 2.666 1.32 1.49 0 2.578-.668 3.263-2.005v-6.31c-.702-1.295-1.781-1.942-3.237-1.942-1.151 0-2.048.444-2.692 1.333-.643.889-.964 2.205-.964 3.948zm27.434-11.768h2.45v13.088c0 1.77-.53 3.153-1.593 4.152-1.062.999-2.478 1.498-4.247 1.498-1.836 0-3.266-.47-4.29-1.41-1.025-.939-1.537-2.255-1.537-3.948h2.438c0 1.058.29 1.884.87 2.476.58.593 1.42.889 2.52.889 1.007 0 1.821-.318 2.443-.952.622-.635.938-1.524.946-2.666v-13.127zm10.588 12.657l.355 2.437.521-2.196 3.656-12.898h2.057l3.567 12.898.508 2.234.394-2.488 2.869-12.644h2.45L209.437 464h-2.221l-3.809-13.47-.292-1.409-.292 1.41L198.875 464h-2.222l-4.468-18.484h2.437l2.92 12.657zm32.03-10.652h-5.941V464h-2.425v-16.479h-5.929v-2.005h14.295v2.005zM899.951 453.615h1.765c1.109-.017 1.98-.309 2.615-.876.635-.567.952-1.333.952-2.298 0-2.166-1.079-3.25-3.237-3.25-1.016 0-1.826.29-2.431.87-.605.58-.908 1.348-.908 2.304h-2.349c0-1.464.536-2.68 1.606-3.65 1.071-.969 2.431-1.453 4.082-1.453 1.743 0 3.11.461 4.1 1.384.99.922 1.486 2.204 1.486 3.846 0 .804-.26 1.583-.78 2.336-.521.753-1.23 1.316-2.127 1.689 1.015.321 1.8.854 2.355 1.6.554.744.831 1.654.831 2.729 0 1.659-.542 2.975-1.625 3.948-1.083.973-2.492 1.46-4.227 1.46-1.735 0-3.147-.47-4.234-1.41-1.088-.939-1.632-2.179-1.632-3.719h2.362c0 .973.317 1.752.952 2.336.635.584 1.485.876 2.552.876 1.134 0 2.001-.296 2.602-.889.601-.592.902-1.443.902-2.552 0-1.074-.33-1.9-.99-2.475-.66-.576-1.613-.872-2.857-.889h-1.765v-1.917zm11.477 9.154c0-.407.12-.745.362-1.016.24-.27.603-.406 1.085-.406s.848.135 1.098.406c.25.27.375.61.375 1.016 0 .389-.125.715-.375.977s-.616.394-1.098.394c-.482 0-.844-.132-1.085-.394-.242-.262-.362-.588-.362-.977zm19.716-2.006l5.28-15.247h2.667L932.235 464h-2.158l-6.843-18.484h2.654l5.256 15.247zm15.196 3.49c-1.862 0-3.377-.61-4.545-1.834-1.168-1.223-1.752-2.858-1.752-4.906v-.432c0-1.363.26-2.58.78-3.65.521-1.07 1.25-1.908 2.184-2.514a5.49 5.49 0 0 1 3.04-.907c1.787 0 3.175.588 4.165 1.764.99 1.177 1.485 2.861 1.485 5.053v.978h-9.305c.033 1.354.43 2.448 1.187 3.281.757.834 1.72 1.25 2.888 1.25.83 0 1.532-.168 2.107-.507a5.295 5.295 0 0 0 1.511-1.346l1.435 1.118c-1.152 1.768-2.878 2.653-5.18 2.653zm-.292-12.314c-.948 0-1.744.345-2.387 1.035s-1.04 1.657-1.193 2.901h6.88v-.178c-.067-1.193-.389-2.118-.964-2.774-.576-.656-1.354-.984-2.336-.984zm15.006.432a7.038 7.038 0 0 0-1.156-.089c-1.54 0-2.585.656-3.135 1.968V464h-2.349v-13.736h2.285l.038 1.587c.77-1.228 1.862-1.841 3.276-1.841.457 0 .804.059 1.04.178v2.183zm4.71 11.629h-2.349v-13.736h2.349V464zm-2.54-17.38c0-.38.117-.702.35-.965.232-.262.577-.393 1.034-.393.457 0 .804.13 1.041.393.237.263.356.584.356.965s-.119.698-.356.952-.584.381-1.04.381c-.458 0-.803-.127-1.035-.38-.233-.255-.35-.572-.35-.953zm7.453 17.38v-11.92h-2.171v-1.816h2.17v-1.41c0-1.472.394-2.61 1.181-3.415.788-.804 1.9-1.206 3.34-1.206.541 0 1.078.072 1.612.216l-.127 1.905a6.745 6.745 0 0 0-1.27-.115c-.762 0-1.35.222-1.765.667-.414.444-.622 1.081-.622 1.91v1.448h2.933v1.815h-2.933V464h-2.348zm12.365-3.44l3.2-10.296h2.513l-5.523 15.856c-.854 2.285-2.213 3.428-4.075 3.428l-.444-.038-.876-.165v-1.905l.635.051c.795 0 1.415-.16 1.86-.482.444-.322.81-.91 1.098-1.765l.52-1.396-4.9-13.584h2.564l3.428 10.296zm20.059-4.8c-2.09-.6-3.612-1.339-4.564-2.215-.953-.876-1.429-1.957-1.429-3.243 0-1.456.582-2.66 1.746-3.612 1.164-.952 2.677-1.428 4.539-1.428 1.27 0 2.401.245 3.396.736.994.49 1.764 1.168 2.31 2.031.546.864.819 1.807.819 2.831h-2.45c0-1.117-.356-1.995-1.067-2.634-.71-.639-1.713-.958-3.008-.958-1.202 0-2.14.264-2.812.793-.673.529-1.01 1.263-1.01 2.203 0 .753.32 1.39.959 1.91s1.726.997 3.262 1.429c1.537.431 2.738.907 3.606 1.428.867.52 1.51 1.128 1.93 1.822.419.694.628 1.51.628 2.45 0 1.498-.584 2.697-1.752 3.599-1.168.901-2.73 1.352-4.684 1.352a8.688 8.688 0 0 1-3.555-.73c-1.1-.487-1.949-1.153-2.546-2-.596-.846-.895-1.807-.895-2.881h2.45c0 1.117.413 2 1.238 2.647.826.647 1.928.97 3.308.97 1.286 0 2.272-.262 2.958-.786.685-.525 1.028-1.24 1.028-2.146 0-.905-.318-1.606-.952-2.1-.635-.496-1.786-.985-3.453-1.467zm15.31 8.494c-1.862 0-3.377-.612-4.545-1.835-1.168-1.223-1.752-2.858-1.752-4.906v-.432c0-1.363.26-2.58.781-3.65.52-1.07 1.248-1.908 2.184-2.514a5.49 5.49 0 0 1 3.04-.907c1.786 0 3.174.588 4.164 1.764.99 1.177 1.486 2.861 1.486 5.053v.978h-9.306c.034 1.354.43 2.448 1.187 3.281.757.834 1.72 1.25 2.888 1.25.83 0 1.532-.168 2.108-.507a5.295 5.295 0 0 0 1.51-1.346l1.435 1.118c-1.151 1.768-2.878 2.653-5.18 2.653zm-.292-12.315c-.948 0-1.743.345-2.387 1.035-.643.69-1.04 1.657-1.193 2.901h6.88v-.178c-.067-1.193-.388-2.118-.964-2.774-.575-.656-1.354-.984-2.336-.984zm15.006.432a7.038 7.038 0 0 0-1.155-.089c-1.54 0-2.586.656-3.136 1.968V464h-2.349v-13.736h2.286l.038 1.587c.77-1.228 1.862-1.841 3.275-1.841.457 0 .804.059 1.041.178v2.183zm6.919 8.442l3.402-10.55h2.4L1040.92 464h-1.79l-4.977-13.736h2.4l3.49 10.55zm10.613 3.187h-2.348v-13.736h2.348V464zm-2.539-17.38c0-.38.117-.702.35-.965.232-.262.577-.393 1.034-.393.457 0 .804.13 1.041.393.237.263.355.584.355.965s-.118.698-.355.952-.584.381-1.041.381c-.457 0-.802-.127-1.035-.38-.232-.255-.349-.572-.349-.953zm11.807 15.717c.838 0 1.57-.254 2.196-.762.626-.508.973-1.142 1.041-1.904h2.222c-.043.787-.313 1.536-.813 2.247-.5.71-1.166 1.278-2 1.701a5.77 5.77 0 0 1-2.646.635c-1.87 0-3.358-.624-4.463-1.873-1.104-1.248-1.656-2.956-1.656-5.122v-.394c0-1.337.245-2.526.736-3.567.49-1.041 1.195-1.85 2.114-2.425.918-.575 2.004-.863 3.256-.863 1.54 0 2.82.461 3.84 1.384 1.02.922 1.564 2.12 1.632 3.592h-2.222c-.068-.888-.404-1.618-1.01-2.19-.604-.57-1.351-.857-2.24-.857-1.193 0-2.118.43-2.774 1.289-.656.86-.984 2.101-.984 3.726v.444c0 1.583.326 2.802.978 3.657.652.855 1.583 1.282 2.793 1.282zm13.8 1.917c-1.862 0-3.377-.612-4.545-1.835-1.168-1.223-1.752-2.858-1.752-4.906v-.432c0-1.363.26-2.58.78-3.65.521-1.07 1.249-1.908 2.184-2.514a5.49 5.49 0 0 1 3.04-.907c1.786 0 3.174.588 4.165 1.764.99 1.177 1.485 2.861 1.485 5.053v.978h-9.306c.034 1.354.43 2.448 1.187 3.281.758.834 1.72 1.25 2.889 1.25.829 0 1.531-.168 2.107-.507a5.295 5.295 0 0 0 1.51-1.346l1.435 1.118c-1.15 1.768-2.877 2.653-5.18 2.653zm-.292-12.315c-.948 0-1.744.345-2.387 1.035s-1.041 1.657-1.193 2.901h6.88v-.178c-.067-1.193-.389-2.118-.964-2.774-.576-.656-1.355-.984-2.336-.984zm25.378 7.237h-7.745l-1.739 4.824h-2.514l7.06-18.484h2.132l7.071 18.484h-2.5l-1.765-4.824zm-7.008-2.006h6.284l-3.149-8.646-3.135 8.646zm18.903 5.167c.838 0 1.57-.254 2.196-.762.627-.508.974-1.142 1.041-1.904h2.222c-.042.787-.313 1.536-.812 2.247-.5.71-1.166 1.278-2 1.701a5.77 5.77 0 0 1-2.647.635c-1.87 0-3.358-.624-4.462-1.873-1.105-1.248-1.657-2.956-1.657-5.122v-.394c0-1.337.245-2.526.736-3.567.491-1.041 1.196-1.85 2.114-2.425.918-.575 2.004-.863 3.256-.863 1.54 0 2.82.461 3.84 1.384 1.02.922 1.564 2.12 1.632 3.592h-2.222c-.067-.888-.404-1.618-1.009-2.19-.605-.57-1.352-.857-2.24-.857-1.194 0-2.119.43-2.775 1.289-.655.86-.983 2.101-.983 3.726v.444c0 1.583.325 2.802.977 3.657.652.855 1.583 1.282 2.793 1.282zm13.61 0c.837 0 1.57-.254 2.196-.762.626-.508.973-1.142 1.04-1.904h2.222c-.042.787-.313 1.536-.812 2.247-.5.71-1.166 1.278-2 1.701a5.77 5.77 0 0 1-2.647.635c-1.87 0-3.357-.624-4.462-1.873-1.104-1.248-1.657-2.956-1.657-5.122v-.394c0-1.337.246-2.526.737-3.567.49-1.041 1.195-1.85 2.113-2.425.919-.575 2.004-.863 3.257-.863 1.54 0 2.82.461 3.84 1.384 1.02.922 1.564 2.12 1.631 3.592h-2.221c-.068-.888-.404-1.618-1.01-2.19-.605-.57-1.352-.857-2.24-.857-1.194 0-2.118.43-2.774 1.289-.656.86-.984 2.101-.984 3.726v.444c0 1.583.326 2.802.977 3.657.652.855 1.583 1.282 2.793 1.282zm7.477-5.332c0-1.346.264-2.556.793-3.631.53-1.075 1.266-1.904 2.21-2.488.943-.584 2.02-.876 3.23-.876 1.87 0 3.384.647 4.539 1.942 1.155 1.295 1.733 3.017 1.733 5.167v.165c0 1.337-.256 2.537-.768 3.6-.512 1.061-1.244 1.889-2.197 2.481-.952.593-2.046.889-3.281.889-1.862 0-3.37-.648-4.526-1.942-1.155-1.295-1.733-3.01-1.733-5.142v-.165zm2.361.28c0 1.523.354 2.746 1.06 3.668.707.923 1.653 1.384 2.838 1.384 1.193 0 2.141-.468 2.844-1.403.702-.935 1.053-2.245 1.053-3.93 0-1.506-.357-2.726-1.073-3.662-.715-.935-1.665-1.403-2.85-1.403-1.16 0-2.094.462-2.805 1.384-.711.923-1.067 2.243-1.067 3.961zm21.57 5.357c-.914 1.074-2.256 1.612-4.025 1.612-1.464 0-2.579-.425-3.345-1.276-.766-.85-1.153-2.11-1.162-3.777v-8.937h2.349v8.874c0 2.082.846 3.123 2.54 3.123 1.793 0 2.987-.669 3.58-2.006v-9.991h2.348V464h-2.235l-.05-1.358zm8.074-12.378l.076 1.726c1.05-1.32 2.42-1.98 4.113-1.98 2.903 0 4.367 1.637 4.393 4.913V464h-2.349v-9.09c-.008-.99-.235-1.722-.679-2.196-.444-.474-1.136-.711-2.076-.711-.761 0-1.43.203-2.005.61a4.138 4.138 0 0 0-1.346 1.599V464h-2.349v-13.736h2.222zm15.31-3.327v3.327h2.565v1.815h-2.565v8.519c0 .55.115.962.343 1.237.229.276.618.413 1.168.413.271 0 .643-.05 1.117-.152V464a6.809 6.809 0 0 1-1.802.254c-1.05 0-1.841-.317-2.374-.952-.534-.635-.8-1.536-.8-2.704v-8.519h-2.501v-1.815h2.5v-3.327h2.35z"/>
  </g>
</svg>
