<svg version="1.1" viewBox="0.0 0.0 757.0 468.0" fill="none" stroke="none" stroke-linecap="square" stroke-miterlimit="10" width="757" height="468" xmlns:xlink="http://www.w3.org/1999/xlink" xmlns="http://www.w3.org/2000/svg"><path fill="#ffffff" d="M0 0L757.0 0L757.0 468.0L0 468.0L0 0Z" fill-rule="nonzero"/><path stroke="#cccccc" stroke-width="1.0" stroke-linecap="butt" d="M144.5 70.5L144.5 392.5" fill-rule="nonzero"/><path stroke="#cccccc" stroke-width="1.0" stroke-linecap="butt" d="M291.5 70.5L291.5 392.5" fill-rule="nonzero"/><path stroke="#cccccc" stroke-width="1.0" stroke-linecap="butt" d="M438.5 70.5L438.5 392.5" fill-rule="nonzero"/><path stroke="#cccccc" stroke-width="1.0" stroke-linecap="butt" d="M586.5 70.5L586.5 392.5" fill-rule="nonzero"/><path stroke="#cccccc" stroke-width="1.0" stroke-linecap="butt" d="M733.5 70.5L733.5 392.5" fill-rule="nonzero"/><path stroke="#333333" stroke-width="1.0" stroke-linecap="butt" d="M85.5 392.5L733.5 392.5" fill-rule="nonzero"/><path stroke="#cccccc" stroke-width="1.0" stroke-linecap="butt" d="M85.5 311.5L733.5 311.5" fill-rule="nonzero"/><path stroke="#cccccc" stroke-width="1.0" stroke-linecap="butt" d="M85.5 231.5L733.5 231.5" fill-rule="nonzero"/><path stroke="#cccccc" stroke-width="1.0" stroke-linecap="butt" d="M85.5 150.5L733.5 150.5" fill-rule="nonzero"/><path stroke="#cccccc" stroke-width="1.0" stroke-linecap="butt" d="M85.5 70.5L733.5 70.5" fill-rule="nonzero"/><clipPath id="id_0"><path d="M85.4 70.0L733.6 70.0L733.6 392.6L85.4 392.6L85.4 70.0Z" clip-rule="nonzero"/></clipPath><path stroke="#4285f4" stroke-width="2.0" stroke-linecap="butt" clip-path="url(#id_0)" d="M85.4 228.8176L114.86364 208.90689L144.32727 191.52L173.79091 176.42986L203.25455 163.36752L232.71819 152.06392L262.18182 142.27042L291.64545 133.76714L321.1091 126.36464L350.57272 119.90208L380.03638 114.24402L409.5 109.27682L438.96362 104.90512L468.42728 101.0488L497.8909 97.640236L527.35455 94.622154L556.8182 91.94577L586.2818 89.569336L615.7455 87.45691L645.2091 85.577446L674.6727 83.90395L704.13635 82.41292L733.6 81.083725" fill-rule="nonzero"/><path fill="#000000" fill-opacity="0.0" clip-path="url(#id_0)" d="M88.4 228.8176C88.4 230.47446 87.056854 231.8176 85.4 231.8176C83.74315 231.8176 82.4 230.47446 82.4 228.8176C82.4 227.16075 83.74315 225.8176 85.4 225.8176C87.056854 225.8176 88.4 227.16075 88.4 228.8176Z" fill-rule="nonzero"/><path fill="#000000" fill-opacity="0.0" clip-path="url(#id_0)" d="M117.86364 208.90689C117.86364 210.56375 116.52049 211.90689 114.86364 211.90689C113.20678 211.90689 111.86364 210.56375 111.86364 208.90689C111.86364 207.25005 113.20678 205.90689 114.86364 205.90689C116.52049 205.90689 117.86364 207.25005 117.86364 208.90689Z" fill-rule="nonzero"/><path fill="#000000" fill-opacity="0.0" clip-path="url(#id_0)" d="M147.32727 191.52C147.32727 193.17686 145.98413 194.52 144.32727 194.52C142.67043 194.52 141.32727 193.17686 141.32727 191.52C141.32727 189.86314 142.67043 188.52 144.32727 188.52C145.98413 188.52 147.32727 189.86314 147.32727 191.52Z" fill-rule="nonzero"/><path fill="#000000" fill-opacity="0.0" clip-path="url(#id_0)" d="M176.79091 176.42986C176.79091 178.08672 175.44777 179.42986 173.79091 179.42986C172.13405 179.42986 170.79091 178.08672 170.79091 176.42986C170.79091 174.773 172.13405 173.42986 173.79091 173.42986C175.44777 173.42986 176.79091 174.773 176.79091 176.42986Z" fill-rule="nonzero"/><path fill="#000000" fill-opacity="0.0" clip-path="url(#id_0)" d="M206.25455 163.36752C206.25455 165.02438 204.91139 166.36752 203.25455 166.36752C201.59769 166.36752 200.25455 165.02438 200.25455 163.36752C200.25455 161.71068 201.59769 160.36752 203.25455 160.36752C204.91139 160.36752 206.25455 161.71068 206.25455 163.36752Z" fill-rule="nonzero"/><path fill="#000000" fill-opacity="0.0" clip-path="url(#id_0)" d="M235.71819 152.06392C235.71819 153.72078 234.37503 155.06392 232.71819 155.06392C231.06133 155.06392 229.71819 153.72078 229.71819 152.06392C229.71819 150.40707 231.06133 149.06392 232.71819 149.06392C234.37503 149.06392 235.71819 150.40707 235.71819 152.06392Z" fill-rule="nonzero"/><path fill="#000000" fill-opacity="0.0" clip-path="url(#id_0)" d="M265.18182 142.27042C265.18182 143.92726 263.83868 145.27042 262.18182 145.27042C260.52496 145.27042 259.18182 143.92726 259.18182 142.27042C259.18182 140.61356 260.52496 139.27042 262.18182 139.27042C263.83868 139.27042 265.18182 140.61356 265.18182 142.27042Z" fill-rule="nonzero"/><path fill="#000000" fill-opacity="0.0" clip-path="url(#id_0)" d="M294.64545 133.76714C294.64545 135.424 293.3023 136.76714 291.64545 136.76714C289.9886 136.76714 288.64545 135.424 288.64545 133.76714C288.64545 132.11029 289.9886 130.76714 291.64545 130.76714C293.3023 130.76714 294.64545 132.11029 294.64545 133.76714Z" fill-rule="nonzero"/><path fill="#000000" fill-opacity="0.0" clip-path="url(#id_0)" d="M324.1091 126.36464C324.1091 128.0215 322.76593 129.36464 321.1091 129.36464C319.45224 129.36464 318.1091 128.0215 318.1091 126.36464C318.1091 124.70779 319.45224 123.36464 321.1091 123.36464C322.76593 123.36464 324.1091 124.70779 324.1091 126.36464Z" fill-rule="nonzero"/><path fill="#000000" fill-opacity="0.0" clip-path="url(#id_0)" d="M353.57272 119.90208C353.57272 121.55893 352.22958 122.90208 350.57272 122.90208C348.91586 122.90208 347.57272 121.55893 347.57272 119.90208C347.57272 118.245224 348.91586 116.90208 350.57272 116.90208C352.22958 116.90208 353.57272 118.245224 353.57272 119.90208Z" fill-rule="nonzero"/><path fill="#000000" fill-opacity="0.0" clip-path="url(#id_0)" d="M383.03638 114.24402C383.03638 115.90087 381.6932 117.24402 380.03638 117.24402C378.37952 117.24402 377.03638 115.90087 377.03638 114.24402C377.03638 112.587166 378.37952 111.24402 380.03638 111.24402C381.6932 111.24402 383.03638 112.587166 383.03638 114.24402Z" fill-rule="nonzero"/><path fill="#000000" fill-opacity="0.0" clip-path="url(#id_0)" d="M412.5 109.27682C412.5 110.93367 411.15686 112.27682 409.5 112.27682C407.84314 112.27682 406.5 110.93367 406.5 109.27682C406.5 107.61996 407.84314 106.27682 409.5 106.27682C411.15686 106.27682 412.5 107.61996 412.5 109.27682Z" fill-rule="nonzero"/><path fill="#000000" fill-opacity="0.0" clip-path="url(#id_0)" d="M441.96362 104.90512C441.96362 106.56197 440.62048 107.90512 438.96362 107.90512C437.3068 107.90512 435.96362 106.56197 435.96362 104.90512C435.96362 103.24827 437.3068 101.90512 438.96362 101.90512C440.62048 101.90512 441.96362 103.24827 441.96362 104.90512Z" fill-rule="nonzero"/><path fill="#000000" fill-opacity="0.0" clip-path="url(#id_0)" d="M471.42728 101.0488C471.42728 102.70565 470.08414 104.0488 468.42728 104.0488C466.77042 104.0488 465.42728 102.70565 465.42728 101.0488C465.42728 99.391945 466.77042 98.0488 468.42728 98.0488C470.08414 98.0488 471.42728 99.391945 471.42728 101.0488Z" fill-rule="nonzero"/><path fill="#000000" fill-opacity="0.0" clip-path="url(#id_0)" d="M500.8909 97.640236C500.8909 99.2971 499.54776 100.640236 497.8909 100.640236C496.23407 100.640236 494.8909 99.2971 494.8909 97.640236C494.8909 95.98338 496.23407 94.640236 497.8909 94.640236C499.54776 94.640236 500.8909 95.98338 500.8909 97.640236Z" fill-rule="nonzero"/><path fill="#000000" fill-opacity="0.0" clip-path="url(#id_0)" d="M530.35455 94.622154C530.35455 96.27901 529.0114 97.622154 527.35455 97.622154C525.6977 97.622154 524.35455 96.27901 524.35455 94.622154C524.35455 92.9653 525.6977 91.622154 527.35455 91.622154C529.0114 91.622154 530.35455 92.9653 530.35455 94.622154Z" fill-rule="nonzero"/><path fill="#000000" fill-opacity="0.0" clip-path="url(#id_0)" d="M559.8182 91.94577C559.8182 93.60262 558.47504 94.94577 556.8182 94.94577C555.1613 94.94577 553.8182 93.60262 553.8182 91.94577C553.8182 90.28892 555.1613 88.94577 556.8182 88.94577C558.47504 88.94577 559.8182 90.28892 559.8182 91.94577Z" fill-rule="nonzero"/><path fill="#000000" fill-opacity="0.0" clip-path="url(#id_0)" d="M589.2818 89.569336C589.2818 91.22619 587.93866 92.569336 586.2818 92.569336C584.62494 92.569336 583.2818 91.22619 583.2818 89.569336C583.2818 87.912476 584.62494 86.569336 586.2818 86.569336C587.93866 86.569336 589.2818 87.912476 589.2818 89.569336Z" fill-rule="nonzero"/><path fill="#000000" fill-opacity="0.0" clip-path="url(#id_0)" d="M618.7455 87.45691C618.7455 89.11376 617.4023 90.45691 615.7455 90.45691C614.0886 90.45691 612.7455 89.11376 612.7455 87.45691C612.7455 85.80006 614.0886 84.45691 615.7455 84.45691C617.4023 84.45691 618.7455 85.80006 618.7455 87.45691Z" fill-rule="nonzero"/><path fill="#000000" fill-opacity="0.0" clip-path="url(#id_0)" d="M648.2091 85.577446C648.2091 87.2343 646.86597 88.577446 645.2091 88.577446C643.55225 88.577446 642.2091 87.2343 642.2091 85.577446C642.2091 83.92059 643.55225 82.577446 645.2091 82.577446C646.86597 82.577446 648.2091 83.92059 648.2091 85.577446Z" fill-rule="nonzero"/><path fill="#000000" fill-opacity="0.0" clip-path="url(#id_0)" d="M677.6727 83.90395C677.6727 85.560814 676.3296 86.90395 674.6727 86.90395C673.01587 86.90395 671.6727 85.560814 671.6727 83.90395C671.6727 82.2471 673.01587 80.90395 674.6727 80.90395C676.3296 80.90395 677.6727 82.2471 677.6727 83.90395Z" fill-rule="nonzero"/><path fill="#000000" fill-opacity="0.0" clip-path="url(#id_0)" d="M707.13635 82.41292C707.13635 84.06977 705.7932 85.41292 704.13635 85.41292C702.4795 85.41292 701.13635 84.06977 701.13635 82.41292C701.13635 80.756065 702.4795 79.41292 704.13635 79.41292C705.7932 79.41292 707.13635 80.756065 707.13635 82.41292Z" fill-rule="nonzero"/><path fill="#000000" fill-opacity="0.0" clip-path="url(#id_0)" d="M736.6 81.083725C736.6 82.74058 735.25684 84.083725 733.6 84.083725C731.9431 84.083725 730.6 82.74058 730.6 81.083725C730.6 79.42687 731.9431 78.083725 733.6 78.083725C735.25684 78.083725 736.6 79.42687 736.6 81.083725Z" fill-rule="nonzero"/><path fill="#000000" d="M362.92188 441.6L362.92188 433.00626L366.17188 433.00626Q367.01562 433.00626 367.46875 433.08438Q368.10938 433.19376 368.53125 433.49063Q368.96875 433.7875 369.21875 434.31876Q369.48438 434.85 369.48438 435.49063Q369.48438 436.58438 368.78125 437.35Q368.09375 438.1 366.26562 438.1L364.0625 438.1L364.0625 441.6L362.92188 441.6ZM364.0625 437.1L366.28125 437.1Q367.39062 437.1 367.84375 436.69376Q368.3125 436.27188 368.3125 435.52188Q368.3125 434.99063 368.03125 434.61563Q367.76562 434.225 367.32812 434.1Q367.03125 434.02188 366.26562 434.02188L364.0625 434.02188L364.0625 437.1ZM374.85938 440.83438Q374.26562 441.33438 373.71875 441.5375Q373.1875 441.74063 372.5625 441.74063Q371.53125 441.74063 370.98438 441.24063Q370.4375 440.74063 370.4375 439.95938Q370.4375 439.50626 370.64062 439.13126Q370.84375 438.74063 371.1875 438.52188Q371.53125 438.2875 371.95312 438.17813Q372.25 438.08438 372.89062 438.00626Q374.15625 437.86563 374.76562 437.64688Q374.76562 437.42813 374.76562 437.38126Q374.76562 436.725 374.46875 436.45938Q374.0625 436.11563 373.26562 436.11563Q372.53125 436.11563 372.17188 436.38126Q371.8125 436.63126 371.64062 437.2875L370.60938 437.14688Q370.75 436.49063 371.07812 436.08438Q371.40625 435.67813 372.01562 435.45938Q372.625 435.24063 373.42188 435.24063Q374.21875 435.24063 374.71875 435.42813Q375.21875 435.61563 375.45312 435.89688Q375.6875 436.17813 375.78125 436.61563Q375.82812 436.88126 375.82812 437.58438L375.82812 438.99063Q375.82812 440.45938 375.89062 440.85Q375.96875 441.24063 376.17188 441.6L375.0625 441.6Q374.90625 441.27188 374.85938 440.83438ZM374.76562 438.475Q374.1875 438.70938 373.04688 438.88126Q372.39062 438.975 372.125 439.1Q371.85938 439.20938 371.70312 439.42813Q371.5625 439.64688 371.5625 439.92813Q371.5625 440.35 371.875 440.63126Q372.20312 440.9125 372.8125 440.9125Q373.42188 440.9125 373.89062 440.64688Q374.375 440.38126 374.59375 439.9125Q374.76562 439.55313 374.76562 438.86563L374.76562 438.475ZM377.375 439.74063L378.40625 439.58438Q378.5 440.20938 378.89062 440.5375Q379.29688 440.86563 380.03125 440.86563Q380.75 440.86563 381.09375 440.58438Q381.45312 440.2875 381.45312 439.88126Q381.45312 439.52188 381.14062 439.31876Q380.92188 439.17813 380.0625 438.95938Q378.90625 438.6625 378.45312 438.45938Q378.01562 438.24063 377.78125 437.86563Q377.54688 437.49063 377.54688 437.02188Q377.54688 436.61563 377.73438 436.25626Q377.92188 435.89688 378.25 435.6625Q378.5 435.49063 378.92188 435.36563Q379.34375 435.24063 379.84375 435.24063Q380.5625 435.24063 381.10938 435.45938Q381.67188 435.6625 381.9375 436.02188Q382.20312 436.38126 382.29688 436.975L381.26562 437.11563Q381.20312 436.64688 380.85938 436.38126Q380.53125 436.1 379.90625 436.1Q379.1875 436.1 378.875 436.35Q378.5625 436.58438 378.5625 436.9125Q378.5625 437.11563 378.6875 437.27188Q378.82812 437.44376 379.09375 437.55313Q379.25 437.61563 380.03125 437.81876Q381.15625 438.13126 381.59375 438.31876Q382.03125 438.50626 382.28125 438.86563Q382.53125 439.225 382.53125 439.77188Q382.53125 440.30313 382.21875 440.77188Q381.92188 441.225 381.34375 441.49063Q380.76562 441.74063 380.03125 441.74063Q378.8125 441.74063 378.17188 441.24063Q377.54688 440.725 377.375 439.74063ZM383.375 439.74063L384.40625 439.58438Q384.5 440.20938 384.89062 440.5375Q385.29688 440.86563 386.03125 440.86563Q386.75 440.86563 387.09375 440.58438Q387.45312 440.2875 387.45312 439.88126Q387.45312 439.52188 387.14062 439.31876Q386.92188 439.17813 386.0625 438.95938Q384.90625 438.6625 384.45312 438.45938Q384.01562 438.24063 383.78125 437.86563Q383.54688 437.49063 383.54688 437.02188Q383.54688 436.61563 383.73438 436.25626Q383.92188 435.89688 384.25 435.6625Q384.5 435.49063 384.92188 435.36563Q385.34375 435.24063 385.84375 435.24063Q386.5625 435.24063 387.10938 435.45938Q387.67188 435.6625 387.9375 436.02188Q388.20312 436.38126 388.29688 436.975L387.26562 437.11563Q387.20312 436.64688 386.85938 436.38126Q386.53125 436.1 385.90625 436.1Q385.1875 436.1 384.875 436.35Q384.5625 436.58438 384.5625 436.9125Q384.5625 437.11563 384.6875 437.27188Q384.82812 437.44376 385.09375 437.55313Q385.25 437.61563 386.03125 437.81876Q387.15625 438.13126 387.59375 438.31876Q388.03125 438.50626 388.28125 438.86563Q388.53125 439.225 388.53125 439.77188Q388.53125 440.30313 388.21875 440.77188Q387.92188 441.225 387.34375 441.49063Q386.76562 441.74063 386.03125 441.74063Q384.8125 441.74063 384.17188 441.24063Q383.54688 440.725 383.375 439.74063ZM390.9375 441.6L389.03125 435.38126L390.125 435.38126L391.10938 438.975L391.48438 440.30313Q391.51562 440.20938 391.8125 439.02188L392.79688 435.38126L393.875 435.38126L394.8125 438.99063L395.125 440.17813L395.48438 438.975L396.54688 435.38126L397.57812 435.38126L395.625 441.6L394.53125 441.6L393.54688 437.86563L393.29688 436.81876L392.04688 441.6L390.9375 441.6ZM398.40625 438.49063Q398.40625 436.75626 399.35938 435.92813Q400.15625 435.24063 401.3125 435.24063Q402.59375 435.24063 403.40625 436.08438Q404.23438 436.9125 404.23438 438.39688Q404.23438 439.6 403.875 440.2875Q403.51562 440.975 402.8125 441.36563Q402.125 441.74063 401.3125 441.74063Q400.01562 441.74063 399.20312 440.9125Q398.40625 440.06876 398.40625 438.49063ZM399.48438 438.49063Q399.48438 439.67813 400.0 440.27188Q400.53125 440.86563 401.3125 440.86563Q402.10938 440.86563 402.625 440.27188Q403.14062 439.67813 403.14062 438.45938Q403.14062 437.30313 402.60938 436.70938Q402.09375 436.11563 401.3125 436.11563Q400.53125 436.11563 400.0 436.70938Q399.48438 437.2875 399.48438 438.49063ZM405.78125 441.6L405.78125 435.38126L406.73438 435.38126L406.73438 436.31876Q407.09375 435.6625 407.39062 435.45938Q407.70312 435.24063 408.07812 435.24063Q408.60938 435.24063 409.15625 435.56876L408.79688 436.55313Q408.40625 436.31876 408.03125 436.31876Q407.67188 436.31876 407.39062 436.5375Q407.125 436.74063 407.01562 437.11563Q406.82812 437.67813 406.82812 438.33438L406.82812 441.6L405.78125 441.6ZM413.82812 441.6L413.82812 440.81876Q413.23438 441.74063 412.09375 441.74063Q411.34375 441.74063 410.71875 441.33438Q410.09375 440.9125 409.75 440.17813Q409.40625 439.44376 409.40625 438.49063Q409.40625 437.56876 409.71875 436.80313Q410.03125 436.0375 410.65625 435.64688Q411.28125 435.24063 412.04688 435.24063Q412.60938 435.24063 413.04688 435.475Q413.48438 435.70938 413.76562 436.08438L413.76562 433.00626L414.8125 433.00626L414.8125 441.6L413.82812 441.6ZM410.5 438.49063Q410.5 439.69376 411.0 440.2875Q411.5 440.86563 412.1875 440.86563Q412.875 440.86563 413.35938 440.30313Q413.84375 439.74063 413.84375 438.58438Q413.84375 437.30313 413.34375 436.70938Q412.85938 436.11563 412.14062 436.11563Q411.4375 436.11563 410.96875 436.69376Q410.5 437.25626 410.5 438.49063ZM419.875 441.6L419.875 433.00626L421.01562 433.00626L421.01562 440.58438L425.25 440.58438L425.25 441.6L419.875 441.6ZM431.04688 439.6L432.14062 439.725Q431.89062 440.67813 431.1875 441.20938Q430.48438 441.74063 429.40625 441.74063Q428.04688 441.74063 427.23438 440.89688Q426.4375 440.05313 426.4375 438.5375Q426.4375 436.975 427.25 436.11563Q428.0625 435.24063 429.34375 435.24063Q430.59375 435.24063 431.375 436.08438Q432.17188 436.92813 432.17188 438.475Q432.17188 438.56876 432.17188 438.75626L427.53125 438.75626Q427.59375 439.7875 428.10938 440.33438Q428.625 440.86563 429.40625 440.86563Q429.98438 440.86563 430.39062 440.56876Q430.8125 440.25626 431.04688 439.6ZM427.59375 437.89688L431.0625 437.89688Q431.0 437.1 430.67188 436.70938Q430.15625 436.1 429.35938 436.1Q428.625 436.1 428.125 436.58438Q427.64062 437.06876 427.59375 437.89688ZM433.79688 441.6L433.79688 435.38126L434.73438 435.38126L434.73438 436.25626Q435.42188 435.24063 436.71875 435.24063Q437.28125 435.24063 437.75 435.44376Q438.23438 435.64688 438.46875 435.975Q438.70312 436.30313 438.79688 436.74063Q438.84375 437.0375 438.84375 437.77188L438.84375 441.6L437.79688 441.6L437.79688 437.81876Q437.79688 437.1625 437.67188 436.85Q437.54688 436.5375 437.23438 436.35Q436.92188 436.14688 436.5 436.14688Q435.82812 436.14688 435.32812 436.58438Q434.84375 437.00626 434.84375 438.19376L434.84375 441.6L433.79688 441.6ZM440.59375 442.11563L441.625 442.27188Q441.6875 442.74063 441.98438 442.95938Q442.375 443.25626 443.04688 443.25626Q443.78125 443.25626 444.17188 442.95938Q444.57812 442.6625 444.71875 442.14688Q444.8125 441.81876 444.79688 440.7875Q444.10938 441.6 443.07812 441.6Q441.79688 441.6 441.09375 440.67813Q440.39062 439.74063 440.39062 438.45938Q440.39062 437.56876 440.70312 436.81876Q441.03125 436.05313 441.64062 435.64688Q442.25 435.24063 443.07812 435.24063Q444.1875 435.24063 444.90625 436.13126L444.90625 435.38126L445.875 435.38126L445.875 440.75626Q445.875 442.20938 445.57812 442.81876Q445.28125 443.42813 444.64062 443.77188Q444.0 444.13126 443.0625 444.13126Q441.95312 444.13126 441.26562 443.63126Q440.57812 443.13126 440.59375 442.11563ZM441.46875 438.38126Q441.46875 439.6 441.95312 440.1625Q442.4375 440.725 443.17188 440.725Q443.90625 440.725 444.39062 440.1625Q444.89062 439.6 444.89062 438.4125Q444.89062 437.27188 444.375 436.69376Q443.875 436.11563 443.15625 436.11563Q442.45312 436.11563 441.95312 436.69376Q441.46875 437.25626 441.46875 438.38126ZM450.09375 440.6625L450.25 441.58438Q449.79688 441.67813 449.45312 441.67813Q448.875 441.67813 448.5625 441.50626Q448.25 441.31876 448.10938 441.02188Q447.98438 440.725 447.98438 439.77188L447.98438 436.19376L447.21875 436.19376L447.21875 435.38126L447.98438 435.38126L447.98438 433.83438L449.03125 433.20938L449.03125 435.38126L450.09375 435.38126L450.09375 436.19376L449.03125 436.19376L449.03125 439.83438Q449.03125 440.2875 449.07812 440.4125Q449.14062 440.5375 449.26562 440.61563Q449.39062 440.69376 449.625 440.69376Q449.8125 440.69376 450.09375 440.6625ZM450.79688 441.6L450.79688 433.00626L451.84375 433.00626L451.84375 436.08438Q452.57812 435.24063 453.70312 435.24063Q454.40625 435.24063 454.90625 435.52188Q455.42188 435.7875 455.64062 436.27188Q455.85938 436.74063 455.85938 437.6625L455.85938 441.6L454.8125 441.6L454.8125 437.6625Q454.8125 436.86563 454.46875 436.50626Q454.125 436.14688 453.5 436.14688Q453.03125 436.14688 452.60938 436.39688Q452.20312 436.63126 452.01562 437.05313Q451.84375 437.45938 451.84375 438.19376L451.84375 441.6L450.79688 441.6Z" fill-rule="nonzero"/><path fill="#000000" d="M34.400005 248.19063L26.82188 248.19063L26.82188 251.01875L25.806255 251.01875L25.806255 244.20625L26.82188 244.20625L26.82188 247.05L34.400005 247.05L34.400005 248.19063ZM31.29063 243.89375Q29.556255 243.89375 28.72813 242.94063Q28.04063 242.14375 28.04063 240.9875Q28.04063 239.70625 28.88438 238.89375Q29.712505 238.06563 31.19688 238.06563Q32.400005 238.06563 33.087505 238.425Q33.775005 238.78438 34.16563 239.4875Q34.54063 240.175 34.54063 240.9875Q34.54063 242.28438 33.712505 243.09688Q32.868755 243.89375 31.29063 243.89375ZM31.29063 242.81563Q32.47813 242.81563 33.07188 242.3Q33.66563 241.76875 33.66563 240.9875Q33.66563 240.19063 33.07188 239.675Q32.47813 239.15938 31.25938 239.15938Q30.10313 239.15938 29.50938 239.69063Q28.91563 240.20625 28.91563 240.9875Q28.91563 241.76875 29.50938 242.3Q30.087505 242.81563 31.29063 242.81563ZM33.462505 234.20625L34.38438 234.05Q34.47813 234.50313 34.47813 234.84688Q34.47813 235.425 34.306255 235.7375Q34.118755 236.05 33.82188 236.19063Q33.525005 236.31563 32.57188 236.31563L28.993755 236.31563L28.993755 237.08125L28.181255 237.08125L28.181255 236.31563L26.63438 236.31563L26.00938 235.26875L28.181255 235.26875L28.181255 234.20625L28.993755 234.20625L28.993755 235.26875L32.63438 235.26875Q33.087505 235.26875 33.212505 235.22188Q33.337505 235.15938 33.41563 235.03438Q33.493755 234.90938 33.493755 234.675Q33.493755 234.4875 33.462505 234.20625ZM33.63438 229.44063Q34.13438 230.03438 34.337505 230.58125Q34.54063 231.1125 34.54063 231.7375Q34.54063 232.76875 34.04063 233.31563Q33.54063 233.8625 32.75938 233.8625Q32.306255 233.8625 31.931255 233.65938Q31.54063 233.45625 31.32188 233.1125Q31.087505 232.76875 30.97813 232.34688Q30.88438 232.05 30.806255 231.40938Q30.66563 230.14375 30.44688 229.53438Q30.22813 229.53438 30.181255 229.53438Q29.525005 229.53438 29.25938 229.83125Q28.91563 230.2375 28.91563 231.03438Q28.91563 231.76875 29.181255 232.12813Q29.431255 232.4875 30.087505 232.65938L29.94688 233.69063Q29.29063 233.55 28.88438 233.22188Q28.47813 232.89375 28.25938 232.28438Q28.04063 231.675 28.04063 230.87813Q28.04063 230.08125 28.22813 229.58125Q28.41563 229.08125 28.69688 228.84688Q28.97813 228.6125 29.41563 228.51875Q29.681255 228.47188 30.38438 228.47188L31.79063 228.47188Q33.25938 228.47188 33.650005 228.40938Q34.04063 228.33125 34.400005 228.12813L34.400005 229.2375Q34.07188 229.39375 33.63438 229.44063ZM31.275005 229.53438Q31.50938 230.1125 31.681255 231.25313Q31.775005 231.90938 31.900005 232.175Q32.00938 232.44063 32.22813 232.59688Q32.44688 232.7375 32.72813 232.7375Q33.150005 232.7375 33.431255 232.425Q33.712505 232.09688 33.712505 231.4875Q33.712505 230.87813 33.44688 230.40938Q33.181255 229.925 32.712505 229.70625Q32.35313 229.53438 31.66563 229.53438L31.275005 229.53438ZM34.400005 226.53438L25.806255 226.53438L25.806255 225.47188L34.400005 225.47188L34.400005 226.53438Z" fill-rule="nonzero"/><path fill="#000000" d="M55.9 392.36563Q55.9 390.83438 56.2125 389.9125Q56.525 388.975 57.134377 388.475Q57.759377 387.975 58.696877 387.975Q59.384377 387.975 59.9 388.25626Q60.43125 388.5375 60.775 389.06876Q61.11875 389.58438 61.30625 390.33438Q61.49375 391.08438 61.49375 392.36563Q61.49375 393.88126 61.18125 394.80313Q60.884377 395.725 60.259377 396.24063Q59.65 396.74063 58.696877 396.74063Q57.4625 396.74063 56.74375 395.85Q55.9 394.7875 55.9 392.36563ZM56.978127 392.36563Q56.978127 394.475 57.478127 395.17813Q57.978127 395.88126 58.696877 395.88126Q59.43125 395.88126 59.915627 395.17813Q60.415627 394.475 60.415627 392.36563Q60.415627 390.24063 59.915627 389.55313Q59.43125 388.85 58.68125 388.85Q57.9625 388.85 57.525 389.45938Q56.978127 390.24063 56.978127 392.36563ZM63.49375 396.6L63.49375 395.39688L64.69688 395.39688L64.69688 396.6L63.49375 396.6ZM65.9 392.36563Q65.9 390.83438 66.2125 389.9125Q66.525 388.975 67.13438 388.475Q67.75938 387.975 68.69688 387.975Q69.38438 387.975 69.9 388.25626Q70.43125 388.5375 70.775 389.06876Q71.11875 389.58438 71.30625 390.33438Q71.49375 391.08438 71.49375 392.36563Q71.49375 393.88126 71.18125 394.80313Q70.88438 395.725 70.25938 396.24063Q69.65 396.74063 68.69688 396.74063Q67.4625 396.74063 66.74375 395.85Q65.9 394.7875 65.9 392.36563ZM66.97813 392.36563Q66.97813 394.475 67.47813 395.17813Q67.97813 395.88126 68.69688 395.88126Q69.43125 395.88126 69.91563 395.17813Q70.41563 394.475 70.41563 392.36563Q70.41563 390.24063 69.91563 389.55313Q69.43125 388.85 68.68125 388.85Q67.9625 388.85 67.525 389.45938Q66.97813 390.24063 66.97813 392.36563ZM72.9 392.36563Q72.9 390.83438 73.2125 389.9125Q73.525 388.975 74.13438 388.475Q74.75938 387.975 75.69688 387.975Q76.38438 387.975 76.9 388.25626Q77.43125 388.5375 77.775 389.06876Q78.11875 389.58438 78.30625 390.33438Q78.49375 391.08438 78.49375 392.36563Q78.49375 393.88126 78.18125 394.80313Q77.88438 395.725 77.25938 396.24063Q76.65 396.74063 75.69688 396.74063Q74.4625 396.74063 73.74375 395.85Q72.9 394.7875 72.9 392.36563ZM73.97813 392.36563Q73.97813 394.475 74.47813 395.17813Q74.97813 395.88126 75.69688 395.88126Q76.43125 395.88126 76.91563 395.17813Q77.41563 394.475 77.41563 392.36563Q77.41563 390.24063 76.91563 389.55313Q76.43125 388.85 75.68125 388.85Q74.9625 388.85 74.525 389.45938Q73.97813 390.24063 73.97813 392.36563Z" fill-rule="nonzero"/><path fill="#000000" d="M55.9 311.71564Q55.9 310.1844 56.2125 309.2625Q56.525 308.325 57.134377 307.825Q57.759377 307.325 58.696877 307.325Q59.384377 307.325 59.9 307.60626Q60.43125 307.8875 60.775 308.41876Q61.11875 308.9344 61.30625 309.6844Q61.49375 310.4344 61.49375 311.71564Q61.49375 313.23126 61.18125 314.15314Q60.884377 315.075 60.259377 315.59064Q59.65 316.09064 58.696877 316.09064Q57.4625 316.09064 56.74375 315.2Q55.9 314.1375 55.9 311.71564ZM56.978127 311.71564Q56.978127 313.825 57.478127 314.52814Q57.978127 315.23126 58.696877 315.23126Q59.43125 315.23126 59.915627 314.52814Q60.415627 313.825 60.415627 311.71564Q60.415627 309.59064 59.915627 308.90314Q59.43125 308.2 58.68125 308.2Q57.9625 308.2 57.525 308.8094Q56.978127 309.59064 56.978127 311.71564ZM63.49375 315.95L63.49375 314.7469L64.69688 314.7469L64.69688 315.95L63.49375 315.95ZM71.44688 314.9344L71.44688 315.95L65.75938 315.95Q65.75938 315.575 65.88438 315.21564Q66.10313 314.6375 66.57188 314.075Q67.05625 313.5125 67.9625 312.77814Q69.36875 311.6219 69.85313 310.95Q70.35313 310.27814 70.35313 309.6844Q70.35313 309.0594 69.9 308.6375Q69.44688 308.2 68.72813 308.2Q67.9625 308.2 67.50938 308.65314Q67.05625 309.10626 67.04063 309.91876L65.9625 309.8094Q66.07188 308.59064 66.79063 307.96564Q67.525 307.325 68.75938 307.325Q69.99375 307.325 70.7125 308.0125Q71.43125 308.7 71.43125 309.71564Q71.43125 310.23126 71.2125 310.73126Q71.00938 311.21564 70.50938 311.77814Q70.025 312.325 68.9 313.27814Q67.94688 314.075 67.66563 314.3719Q67.4 314.65314 67.22813 314.9344L71.44688 314.9344ZM72.9 313.7L74.00938 313.60626Q74.13438 314.41876 74.57188 314.825Q75.025 315.23126 75.66563 315.23126Q76.41563 315.23126 76.94688 314.65314Q77.47813 314.075 77.47813 313.1375Q77.47813 312.23126 76.9625 311.71564Q76.4625 311.1844 75.63438 311.1844Q75.13438 311.1844 74.7125 311.41876Q74.30625 311.65314 74.07188 312.0125L73.0875 311.8875L73.91563 307.48126L78.19688 307.48126L78.19688 308.48126L74.75938 308.48126L74.30625 310.79376Q75.07188 310.2469 75.91563 310.2469Q77.04063 310.2469 77.80625 311.02814Q78.5875 311.8094 78.5875 313.04376Q78.5875 314.2 77.91563 315.0594Q77.0875 316.09064 75.66563 316.09064Q74.49375 316.09064 73.74375 315.4344Q73.00938 314.77814 72.9 313.7Z" fill-rule="nonzero"/><path fill="#000000" d="M55.9 231.06563Q55.9 229.53438 56.2125 228.6125Q56.525 227.675 57.134377 227.175Q57.759377 226.675 58.696877 226.675Q59.384377 226.675 59.9 226.95625Q60.43125 227.2375 60.775 227.76875Q61.11875 228.28438 61.30625 229.03438Q61.49375 229.78438 61.49375 231.06563Q61.49375 232.58125 61.18125 233.50313Q60.884377 234.425 60.259377 234.94063Q59.65 235.44063 58.696877 235.44063Q57.4625 235.44063 56.74375 234.55Q55.9 233.4875 55.9 231.06563ZM56.978127 231.06563Q56.978127 233.175 57.478127 233.87813Q57.978127 234.58125 58.696877 234.58125Q59.43125 234.58125 59.915627 233.87813Q60.415627 233.175 60.415627 231.06563Q60.415627 228.94063 59.915627 228.25313Q59.43125 227.55 58.68125 227.55Q57.9625 227.55 57.525 228.15938Q56.978127 228.94063 56.978127 231.06563ZM63.49375 235.3L63.49375 234.09688L64.69688 234.09688L64.69688 235.3L63.49375 235.3ZM65.9 233.05L67.00938 232.95625Q67.13438 233.76875 67.57188 234.175Q68.025 234.58125 68.66563 234.58125Q69.41563 234.58125 69.94688 234.00313Q70.47813 233.425 70.47813 232.4875Q70.47813 231.58125 69.9625 231.06563Q69.4625 230.53438 68.63438 230.53438Q68.13438 230.53438 67.7125 230.76875Q67.30625 231.00313 67.07188 231.3625L66.0875 231.2375L66.91563 226.83125L71.19688 226.83125L71.19688 227.83125L67.75938 227.83125L67.30625 230.14375Q68.07188 229.59688 68.91563 229.59688Q70.04063 229.59688 70.80625 230.37813Q71.5875 231.15938 71.5875 232.39375Q71.5875 233.55 70.91563 234.40938Q70.0875 235.44063 68.66563 235.44063Q67.49375 235.44063 66.74375 234.78438Q66.00938 234.12813 65.9 233.05ZM72.9 231.06563Q72.9 229.53438 73.2125 228.6125Q73.525 227.675 74.13438 227.175Q74.75938 226.675 75.69688 226.675Q76.38438 226.675 76.9 226.95625Q77.43125 227.2375 77.775 227.76875Q78.11875 228.28438 78.30625 229.03438Q78.49375 229.78438 78.49375 231.06563Q78.49375 232.58125 78.18125 233.50313Q77.88438 234.425 77.25938 234.94063Q76.65 235.44063 75.69688 235.44063Q74.4625 235.44063 73.74375 234.55Q72.9 233.4875 72.9 231.06563ZM73.97813 231.06563Q73.97813 233.175 74.47813 233.87813Q74.97813 234.58125 75.69688 234.58125Q76.43125 234.58125 76.91563 233.87813Q77.41563 233.175 77.41563 231.06563Q77.41563 228.94063 76.91563 228.25313Q76.43125 227.55 75.68125 227.55Q74.9625 227.55 74.525 228.15938Q73.97813 228.94063 73.97813 231.06563Z" fill-rule="nonzero"/><path fill="#000000" d="M55.9 150.41562Q55.9 148.88437 56.2125 147.9625Q56.525 147.025 57.134377 146.525Q57.759377 146.025 58.696877 146.025Q59.384377 146.025 59.9 146.30624Q60.43125 146.5875 60.775 147.11874Q61.11875 147.63437 61.30625 148.38437Q61.49375 149.13437 61.49375 150.41562Q61.49375 151.93124 61.18125 152.85312Q60.884377 153.775 60.259377 154.29062Q59.65 154.79062 58.696877 154.79062Q57.4625 154.79062 56.74375 153.9Q55.9 152.8375 55.9 150.41562ZM56.978127 150.41562Q56.978127 152.525 57.478127 153.22812Q57.978127 153.93124 58.696877 153.93124Q59.43125 153.93124 59.915627 153.22812Q60.415627 152.525 60.415627 150.41562Q60.415627 148.29062 59.915627 147.60312Q59.43125 146.9 58.68125 146.9Q57.9625 146.9 57.525 147.50937Q56.978127 148.29062 56.978127 150.41562ZM63.49375 154.65L63.49375 153.44687L64.69688 153.44687L64.69688 154.65L63.49375 154.65ZM65.9625 147.18124L65.9625 146.16562L71.525 146.16562L71.525 146.99374Q70.7125 147.86874 69.9 149.32187Q69.10313 150.75937 68.66563 152.29062Q68.3375 153.36874 68.25938 154.65L67.16563 154.65Q67.18125 153.63437 67.55625 152.19687Q67.94688 150.75937 68.65 149.43124Q69.36875 148.10312 70.18125 147.18124L65.9625 147.18124ZM72.9 152.4L74.00938 152.30624Q74.13438 153.11874 74.57188 153.525Q75.025 153.93124 75.66563 153.93124Q76.41563 153.93124 76.94688 153.35312Q77.47813 152.775 77.47813 151.8375Q77.47813 150.93124 76.9625 150.41562Q76.4625 149.88437 75.63438 149.88437Q75.13438 149.88437 74.7125 150.11874Q74.30625 150.35312 74.07188 150.7125L73.0875 150.5875L73.91563 146.18124L78.19688 146.18124L78.19688 147.18124L74.75938 147.18124L74.30625 149.49374Q75.07188 148.94687 75.91563 148.94687Q77.04063 148.94687 77.80625 149.72812Q78.5875 150.50937 78.5875 151.74374Q78.5875 152.9 77.91563 153.75937Q77.0875 154.79062 75.66563 154.79062Q74.49375 154.79062 73.74375 154.13437Q73.00938 153.47812 72.9 152.4Z" fill-rule="nonzero"/><path fill="#000000" d="M59.86875 74.0L58.821877 74.0L58.821877 67.28125Q58.43125 67.640625 57.80625 68.015625Q57.196877 68.375 56.7125 68.546875L56.7125 67.53125Q57.5875 67.109375 58.24375 66.53125Q58.915627 65.9375 59.196877 65.375L59.86875 65.375L59.86875 74.0ZM63.49375 74.0L63.49375 72.796875L64.69688 72.796875L64.69688 74.0L63.49375 74.0ZM65.9 69.765625Q65.9 68.234375 66.2125 67.3125Q66.525 66.375 67.13438 65.875Q67.75938 65.375 68.69688 65.375Q69.38438 65.375 69.9 65.65625Q70.43125 65.9375 70.775 66.46875Q71.11875 66.984375 71.30625 67.734375Q71.49375 68.484375 71.49375 69.765625Q71.49375 71.28125 71.18125 72.203125Q70.88438 73.125 70.25938 73.640625Q69.65 74.140625 68.69688 74.140625Q67.4625 74.140625 66.74375 73.25Q65.9 72.1875 65.9 69.765625ZM66.97813 69.765625Q66.97813 71.875 67.47813 72.578125Q67.97813 73.28125 68.69688 73.28125Q69.43125 73.28125 69.91563 72.578125Q70.41563 71.875 70.41563 69.765625Q70.41563 67.640625 69.91563 66.953125Q69.43125 66.25 68.68125 66.25Q67.9625 66.25 67.525 66.859375Q66.97813 67.640625 66.97813 69.765625ZM72.9 69.765625Q72.9 68.234375 73.2125 67.3125Q73.525 66.375 74.13438 65.875Q74.75938 65.375 75.69688 65.375Q76.38438 65.375 76.9 65.65625Q77.43125 65.9375 77.775 66.46875Q78.11875 66.984375 78.30625 67.734375Q78.49375 68.484375 78.49375 69.765625Q78.49375 71.28125 78.18125 72.203125Q77.88438 73.125 77.25938 73.640625Q76.65 74.140625 75.69688 74.140625Q74.4625 74.140625 73.74375 73.25Q72.9 72.1875 72.9 69.765625ZM73.97813 69.765625Q73.97813 71.875 74.47813 72.578125Q74.97813 73.28125 75.69688 73.28125Q76.43125 73.28125 76.91563 72.578125Q77.41563 71.875 77.41563 69.765625Q77.41563 67.640625 76.91563 66.953125Q76.43125 66.25 75.68125 66.25Q74.9625 66.25 74.525 66.859375Q73.97813 67.640625 73.97813 69.765625Z" fill-rule="nonzero"/><path fill="#000000" d="M141.79602 409.6L140.74915 409.6L140.74915 402.88126Q140.35852 403.24063 139.73352 403.61563Q139.12415 403.975 138.63977 404.14688L138.63977 403.13126Q139.51477 402.70938 140.17102 402.13126Q140.8429 401.5375 141.12415 400.975L141.79602 400.975L141.79602 409.6ZM144.82727 405.36563Q144.82727 403.83438 145.13977 402.9125Q145.45227 401.975 146.06165 401.475Q146.68665 400.975 147.62415 400.975Q148.31165 400.975 148.82727 401.25626Q149.35852 401.5375 149.70227 402.06876Q150.04602 402.58438 150.23352 403.33438Q150.42102 404.08438 150.42102 405.36563Q150.42102 406.88126 150.10852 407.80313Q149.81165 408.725 149.18665 409.24063Q148.57727 409.74063 147.62415 409.74063Q146.38977 409.74063 145.67102 408.85Q144.82727 407.7875 144.82727 405.36563ZM145.9054 405.36563Q145.9054 407.475 146.4054 408.17813Q146.9054 408.88126 147.62415 408.88126Q148.35852 408.88126 148.8429 408.17813Q149.3429 407.475 149.3429 405.36563Q149.3429 403.24063 148.8429 402.55313Q148.35852 401.85 147.60852 401.85Q146.88977 401.85 146.45227 402.45938Q145.9054 403.24063 145.9054 405.36563Z" fill-rule="nonzero"/><path fill="#000000" d="M289.1142 409.6L288.06732 409.6L288.06732 402.88126Q287.6767 403.24063 287.0517 403.61563Q286.44232 403.975 285.95795 404.14688L285.95795 403.13126Q286.83295 402.70938 287.4892 402.13126Q288.16107 401.5375 288.44232 400.975L289.1142 400.975L289.1142 409.6ZM292.14545 407.35L293.25482 407.25626Q293.37982 408.06876 293.81732 408.475Q294.27045 408.88126 294.91107 408.88126Q295.66107 408.88126 296.19232 408.30313Q296.72357 407.725 296.72357 406.7875Q296.72357 405.88126 296.20795 405.36563Q295.70795 404.83438 294.87982 404.83438Q294.37982 404.83438 293.95795 405.06876Q293.5517 405.30313 293.31732 405.6625L292.33295 405.5375L293.16107 401.13126L297.44232 401.13126L297.44232 402.13126L294.00482 402.13126L293.5517 404.44376Q294.31732 403.89688 295.16107 403.89688Q296.28607 403.89688 297.0517 404.67813Q297.83295 405.45938 297.83295 406.69376Q297.83295 407.85 297.16107 408.70938Q296.33295 409.74063 294.91107 409.74063Q293.7392 409.74063 292.9892 409.08438Q292.25482 408.42813 292.14545 407.35Z" fill-rule="nonzero"/><path fill="#000000" d="M438.0105 408.58438L438.0105 409.6L432.323 409.6Q432.323 409.225 432.448 408.86563Q432.66675 408.2875 433.1355 407.725Q433.61987 407.1625 434.52612 406.42813Q435.93237 405.27188 436.41675 404.6Q436.91675 403.92813 436.91675 403.33438Q436.91675 402.70938 436.46362 402.2875Q436.0105 401.85 435.29175 401.85Q434.52612 401.85 434.073 402.30313Q433.61987 402.75626 433.60425 403.56876L432.52612 403.45938Q432.6355 402.24063 433.35425 401.61563Q434.08862 400.975 435.323 400.975Q436.55737 400.975 437.27612 401.6625Q437.99487 402.35 437.99487 403.36563Q437.99487 403.88126 437.77612 404.38126Q437.573 404.86563 437.073 405.42813Q436.58862 405.975 435.46362 406.92813Q434.5105 407.725 434.22925 408.02188Q433.96362 408.30313 433.79175 408.58438L438.0105 408.58438ZM439.46362 405.36563Q439.46362 403.83438 439.77612 402.9125Q440.08862 401.975 440.698 401.475Q441.323 400.975 442.2605 400.975Q442.948 400.975 443.46362 401.25626Q443.99487 401.5375 444.33862 402.06876Q444.68237 402.58438 444.86987 403.33438Q445.05737 404.08438 445.05737 405.36563Q445.05737 406.88126 444.74487 407.80313Q444.448 408.725 443.823 409.24063Q443.21362 409.74063 442.2605 409.74063Q441.02612 409.74063 440.30737 408.85Q439.46362 407.7875 439.46362 405.36563ZM440.54175 405.36563Q440.54175 407.475 441.04175 408.17813Q441.54175 408.88126 442.2605 408.88126Q442.99487 408.88126 443.47925 408.17813Q443.97925 407.475 443.97925 405.36563Q443.97925 403.24063 443.47925 402.55313Q442.99487 401.85 442.24487 401.85Q441.52612 401.85 441.08862 402.45938Q440.54175 403.24063 440.54175 405.36563Z" fill-rule="nonzero"/><path fill="#000000" d="M585.3287 408.58438L585.3287 409.6L579.6412 409.6Q579.6412 409.225 579.7662 408.86563Q579.9849 408.2875 580.4537 407.725Q580.93805 407.1625 581.8443 406.42813Q583.25055 405.27188 583.7349 404.6Q584.2349 403.92813 584.2349 403.33438Q584.2349 402.70938 583.7818 402.2875Q583.3287 401.85 582.6099 401.85Q581.8443 401.85 581.3912 402.30313Q580.93805 402.75626 580.9224 403.56876L579.8443 403.45938Q579.9537 402.24063 580.6724 401.61563Q581.4068 400.975 582.6412 400.975Q583.87555 400.975 584.5943 401.6625Q585.31305 402.35 585.31305 403.36563Q585.31305 403.88126 585.0943 404.38126Q584.8912 404.86563 584.3912 405.42813Q583.9068 405.975 582.7818 406.92813Q581.8287 407.725 581.5474 408.02188Q581.2818 408.30313 581.1099 408.58438L585.3287 408.58438ZM586.7818 407.35L587.8912 407.25626Q588.0162 408.06876 588.4537 408.475Q588.9068 408.88126 589.5474 408.88126Q590.2974 408.88126 590.8287 408.30313Q591.3599 407.725 591.3599 406.7875Q591.3599 405.88126 590.8443 405.36563Q590.3443 404.83438 589.5162 404.83438Q589.0162 404.83438 588.5943 405.06876Q588.18805 405.30313 587.9537 405.6625L586.9693 405.5375L587.7974 401.13126L592.0787 401.13126L592.0787 402.13126L588.6412 402.13126L588.18805 404.44376Q588.9537 403.89688 589.7974 403.89688Q590.9224 403.89688 591.68805 404.67813Q592.4693 405.45938 592.4693 406.69376Q592.4693 407.85 591.7974 408.70938Q590.9693 409.74063 589.5474 409.74063Q588.37555 409.74063 587.62555 409.08438Q586.8912 408.42813 586.7818 407.35Z" fill-rule="nonzero"/><path fill="#000000" d="M727.1 407.33438L728.1625 407.19376Q728.33435 408.08438 728.77185 408.49063Q729.20935 408.88126 729.83435 408.88126Q730.58435 408.88126 731.1 408.36563Q731.6156 407.85 731.6156 407.08438Q731.6156 406.36563 731.1312 405.89688Q730.6625 405.4125 729.9281 405.4125Q729.6312 405.4125 729.1781 405.5375L729.3031 404.6Q729.4125 404.61563 729.475 404.61563Q730.14685 404.61563 730.6781 404.27188Q731.225 403.9125 731.225 403.17813Q731.225 402.6 730.83435 402.225Q730.4437 401.83438 729.8187 401.83438Q729.20935 401.83438 728.7875 402.225Q728.3812 402.61563 728.27185 403.38126L727.20935 403.19376Q727.39685 402.14688 728.08435 401.56876Q728.77185 400.975 729.7875 400.975Q730.4906 400.975 731.08435 401.2875Q731.6781 401.58438 731.9906 402.1Q732.3031 402.61563 732.3031 403.20938Q732.3031 403.75626 732.0062 404.225Q731.70935 404.67813 731.1312 404.94376Q731.8812 405.11563 732.3031 405.67813Q732.725 406.225 732.725 407.06876Q732.725 408.19376 731.89685 408.975Q731.08435 409.75626 729.83435 409.75626Q728.70935 409.75626 727.95935 409.08438Q727.20935 408.39688 727.1 407.33438ZM734.1 405.36563Q734.1 403.83438 734.4125 402.9125Q734.725 401.975 735.33435 401.475Q735.95935 400.975 736.89685 400.975Q737.58435 400.975 738.1 401.25626Q738.6312 401.5375 738.975 402.06876Q739.3187 402.58438 739.5062 403.33438Q739.6937 404.08438 739.6937 405.36563Q739.6937 406.88126 739.3812 407.80313Q739.08435 408.725 738.45935 409.24063Q737.85 409.74063 736.89685 409.74063Q735.6625 409.74063 734.9437 408.85Q734.1 407.7875 734.1 405.36563ZM735.1781 405.36563Q735.1781 407.475 735.6781 408.17813Q736.1781 408.88126 736.89685 408.88126Q737.6312 408.88126 738.1156 408.17813Q738.6156 407.475 738.6156 405.36563Q738.6156 403.24063 738.1156 402.55313Q737.6312 401.85 736.8812 401.85Q736.1625 401.85 735.725 402.45938Q735.1781 403.24063 735.1781 405.36563Z" fill-rule="nonzero"/><path fill="#757575" d="M35.165627 37.384377L37.05625 37.853127Q36.4625 40.196877 34.915627 41.43125Q33.36875 42.65 31.11875 42.65Q28.80625 42.65 27.353125 41.7125Q25.915625 40.759377 25.15 38.978127Q24.4 37.18125 24.4 35.134377Q24.4 32.9 25.24375 31.243752Q26.103125 29.571877 27.68125 28.712502Q29.259375 27.837502 31.15 27.837502Q33.30625 27.837502 34.759377 28.931252Q36.228127 30.025002 36.80625 32.009377L34.946877 32.446877Q34.446877 30.884377 33.49375 30.181252Q32.55625 29.462502 31.11875 29.462502Q29.4625 29.462502 28.353125 30.259377Q27.24375 31.040627 26.790625 32.384377Q26.353125 33.7125 26.353125 35.11875Q26.353125 36.946877 26.884375 38.321877Q27.415625 39.68125 28.540625 40.353127Q29.665625 41.025 30.9625 41.025Q32.55625 41.025 33.665627 40.103127Q34.775 39.18125 35.165627 37.384377ZM38.7125 42.4L38.7125 28.087502L40.478127 28.087502L40.478127 33.2125Q41.7125 31.790627 43.5875 31.790627Q44.728127 31.790627 45.571877 32.24375Q46.43125 32.696877 46.790627 33.509377Q47.165627 34.30625 47.165627 35.821877L47.165627 42.4L45.415627 42.4L45.415627 35.821877Q45.415627 34.509377 44.8375 33.915627Q44.259377 33.30625 43.228127 33.30625Q42.446877 33.30625 41.74375 33.7125Q41.05625 34.11875 40.759377 34.821877Q40.478127 35.509377 40.478127 36.728127L40.478127 42.4L38.7125 42.4ZM56.49375 41.11875Q55.509377 41.946877 54.603127 42.290627Q53.696877 42.634377 52.665627 42.634377Q50.9625 42.634377 50.040627 41.80625Q49.11875 40.9625 49.11875 39.665627Q49.11875 38.9 49.4625 38.275Q49.821877 37.65 50.384377 37.275Q50.946877 36.884377 51.65 36.68125Q52.165627 36.55625 53.2125 36.415627Q55.3375 36.165627 56.3375 35.821877Q56.353127 35.4625 56.353127 35.353127Q56.353127 34.290627 55.853127 33.8375Q55.18125 33.24375 53.853127 33.24375Q52.603127 33.24375 52.009377 33.68125Q51.43125 34.11875 51.15 35.228127L49.43125 34.99375Q49.665627 33.884377 50.196877 33.2125Q50.728127 32.525 51.74375 32.165627Q52.759377 31.790627 54.103127 31.790627Q55.43125 31.790627 56.259377 32.103127Q57.0875 32.415627 57.478127 32.9Q57.86875 33.36875 58.025 34.0875Q58.11875 34.540627 58.11875 35.7125L58.11875 38.05625Q58.11875 40.509377 58.228127 41.165627Q58.3375 41.80625 58.68125 42.4L56.8375 42.4Q56.571877 41.853127 56.49375 41.11875ZM56.3375 37.196877Q55.384377 37.5875 53.4625 37.853127Q52.384377 38.009377 51.93125 38.2125Q51.49375 38.4 51.24375 38.775Q50.99375 39.15 50.99375 39.61875Q50.99375 40.321877 51.525 40.790627Q52.05625 41.259377 53.0875 41.259377Q54.103127 41.259377 54.884377 40.821877Q55.68125 40.36875 56.05625 39.603127Q56.3375 38.99375 56.3375 37.8375L56.3375 37.196877ZM60.7125 42.4L60.7125 32.025L62.30625 32.025L62.30625 33.509377Q63.446877 31.790627 65.60313 31.790627Q66.54063 31.790627 67.32188 32.134377Q68.11875 32.4625 68.50938 33.009377Q68.9 33.55625 69.05625 34.30625Q69.15 34.80625 69.15 36.025L69.15 42.4L67.38438 42.4L67.38438 36.0875Q67.38438 35.009377 67.18125 34.478127Q66.97813 33.946877 66.44688 33.634377Q65.93125 33.321877 65.22813 33.321877Q64.10313 33.321877 63.290627 34.040627Q62.478127 34.74375 62.478127 36.728127L62.478127 42.4L60.7125 42.4ZM78.49375 38.603127L80.2125 38.821877Q79.93125 40.61875 78.75938 41.634377Q77.60313 42.634377 75.9 42.634377Q73.775 42.634377 72.47813 41.24375Q71.18125 39.853127 71.18125 37.259377Q71.18125 35.571877 71.72813 34.321877Q72.29063 33.05625 73.43125 32.43125Q74.57188 31.790627 75.91563 31.790627Q77.60313 31.790627 78.66563 32.65Q79.74375 33.509377 80.05625 35.071877L78.3375 35.3375Q78.10313 34.290627 77.47813 33.775Q76.85313 33.24375 75.97813 33.24375Q74.65 33.24375 73.82188 34.196877Q72.99375 35.15 72.99375 37.196877Q72.99375 39.290627 73.79063 40.24375Q74.5875 41.18125 75.88438 41.18125Q76.91563 41.18125 77.60313 40.55625Q78.30625 39.915627 78.49375 38.603127ZM88.82188 39.05625L90.63438 39.290627Q90.2125 40.86875 89.04063 41.759377Q87.88438 42.634377 86.07188 42.634377Q83.80625 42.634377 82.4625 41.24375Q81.13438 39.8375 81.13438 37.30625Q81.13438 34.68125 82.47813 33.24375Q83.82188 31.790627 85.97813 31.790627Q88.05625 31.790627 89.36875 33.2125Q90.69688 34.61875 90.69688 37.196877Q90.69688 37.353127 90.68125 37.665627L82.94688 37.665627Q83.04063 39.36875 83.91563 40.275Q84.79063 41.18125 86.0875 41.18125Q87.05625 41.18125 87.72813 40.68125Q88.41563 40.165627 88.82188 39.05625ZM83.04063 36.2125L88.8375 36.2125Q88.72813 34.915627 88.18125 34.259377Q87.3375 33.24375 85.99375 33.24375Q84.79063 33.24375 83.9625 34.05625Q83.13438 34.853127 83.04063 36.2125ZM98.07188 37.2125Q98.07188 34.3375 99.66563 32.946877Q101.00938 31.790627 102.93125 31.790627Q105.07188 31.790627 106.41563 33.196877Q107.775 34.603127 107.775 37.071877Q107.775 39.071877 107.18125 40.228127Q106.5875 41.36875 105.43125 42.009377Q104.29063 42.634377 102.93125 42.634377Q100.74375 42.634377 99.4 41.24375Q98.07188 39.8375 98.07188 37.2125ZM99.86875 37.2125Q99.86875 39.2125 100.72813 40.196877Q101.60313 41.18125 102.93125 41.18125Q104.24375 41.18125 105.10313 40.196877Q105.97813 39.196877 105.97813 37.15Q105.97813 35.228127 105.10313 34.24375Q104.22813 33.24375 102.93125 33.24375Q101.60313 33.24375 100.72813 34.24375Q99.86875 35.228127 99.86875 37.2125ZM110.13438 42.4L110.13438 33.4L108.5875 33.4L108.5875 32.025L110.13438 32.025L110.13438 30.931252Q110.13438 29.884377 110.32188 29.368752Q110.57188 28.681252 111.2125 28.259377Q111.85313 27.837502 113.00938 27.837502Q113.75938 27.837502 114.65 28.009377L114.38438 29.540627Q113.8375 29.446877 113.35313 29.446877Q112.55625 29.446877 112.2125 29.790627Q111.88438 30.134377 111.88438 31.071877L111.88438 32.025L113.91563 32.025L113.91563 33.4L111.88438 33.4L111.88438 42.4L110.13438 42.4ZM128.65 36.790627L128.65 35.103127L134.7125 35.0875L134.7125 40.4Q133.30624 41.525 131.82187 42.0875Q130.3375 42.65 128.775 42.65Q126.66563 42.65 124.94688 41.74375Q123.22813 40.8375 122.3375 39.134377Q121.4625 37.415627 121.4625 35.30625Q121.4625 33.2125 122.3375 31.415627Q123.2125 29.603127 124.85313 28.728127Q126.49375 27.837502 128.63437 27.837502Q130.18124 27.837502 131.43124 28.337502Q132.69687 28.837502 133.4 29.743752Q134.11874 30.634377 134.49374 32.0875L132.79062 32.55625Q132.4625 31.462502 131.97812 30.837502Q131.50937 30.212502 130.61874 29.837502Q129.72812 29.462502 128.65 29.462502Q127.3375 29.462502 126.38438 29.853127Q125.44688 30.243752 124.86875 30.900002Q124.29063 31.540627 123.9625 32.30625Q123.41563 33.634377 123.41563 35.196877Q123.41563 37.103127 124.07188 38.4Q124.74375 39.68125 125.99375 40.30625Q127.25938 40.93125 128.66562 40.93125Q129.9 40.93125 131.07187 40.4625Q132.24374 39.99375 132.85312 39.446877L132.85312 36.790627L128.65 36.790627ZM144.82187 39.05625L146.63437 39.290627Q146.2125 40.86875 145.04062 41.759377Q143.88437 42.634377 142.07187 42.634377Q139.80624 42.634377 138.4625 41.24375Q137.13437 39.8375 137.13437 37.30625Q137.13437 34.68125 138.47812 33.24375Q139.82187 31.790627 141.97812 31.790627Q144.05624 31.790627 145.36874 33.2125Q146.69687 34.61875 146.69687 37.196877Q146.69687 37.353127 146.68124 37.665627L138.94687 37.665627Q139.04062 39.36875 139.91562 40.275Q140.79062 41.18125 142.0875 41.18125Q143.05624 41.18125 143.72812 40.68125Q144.41562 40.165627 144.82187 39.05625ZM139.04062 36.2125L144.8375 36.2125Q144.72812 34.915627 144.18124 34.259377Q143.3375 33.24375 141.99374 33.24375Q140.79062 33.24375 139.9625 34.05625Q139.13437 34.853127 139.04062 36.2125ZM148.7125 42.4L148.7125 32.025L150.30624 32.025L150.30624 33.509377Q151.44687 31.790627 153.60312 31.790627Q154.54062 31.790627 155.32187 32.134377Q156.11874 32.4625 156.50937 33.009377Q156.9 33.55625 157.05624 34.30625Q157.15 34.80625 157.15 36.025L157.15 42.4L155.38437 42.4L155.38437 36.0875Q155.38437 35.009377 155.18124 34.478127Q154.97812 33.946877 154.44687 33.634377Q153.93124 33.321877 153.22812 33.321877Q152.10312 33.321877 151.29062 34.040627Q150.47812 34.74375 150.47812 36.728127L150.47812 42.4L148.7125 42.4ZM166.82187 39.05625L168.63437 39.290627Q168.2125 40.86875 167.04062 41.759377Q165.88437 42.634377 164.07187 42.634377Q161.80624 42.634377 160.4625 41.24375Q159.13437 39.8375 159.13437 37.30625Q159.13437 34.68125 160.47812 33.24375Q161.82187 31.790627 163.97812 31.790627Q166.05624 31.790627 167.36874 33.2125Q168.69687 34.61875 168.69687 37.196877Q168.69687 37.353127 168.68124 37.665627L160.94687 37.665627Q161.04062 39.36875 161.91562 40.275Q162.79062 41.18125 164.0875 41.18125Q165.05624 41.18125 165.72812 40.68125Q166.41562 40.165627 166.82187 39.05625ZM161.04062 36.2125L166.8375 36.2125Q166.72812 34.915627 166.18124 34.259377Q165.3375 33.24375 163.99374 33.24375Q162.79062 33.24375 161.9625 34.05625Q161.13437 34.853127 161.04062 36.2125ZM170.69687 42.4L170.69687 32.025L172.275 32.025L172.275 33.603127Q172.88437 32.49375 173.4 32.15Q173.91562 31.790627 174.525 31.790627Q175.41562 31.790627 176.3375 32.353127L175.72812 33.99375Q175.0875 33.603127 174.44687 33.603127Q173.86874 33.603127 173.4 33.9625Q172.94687 34.30625 172.74374 34.915627Q172.4625 35.853127 172.4625 36.9625L172.4625 42.4L170.69687 42.4ZM184.49374 41.11875Q183.50937 41.946877 182.60312 42.290627Q181.69687 42.634377 180.66562 42.634377Q178.9625 42.634377 178.04062 41.80625Q177.11874 40.9625 177.11874 39.665627Q177.11874 38.9 177.4625 38.275Q177.82187 37.65 178.38437 37.275Q178.94687 36.884377 179.65 36.68125Q180.16562 36.55625 181.2125 36.415627Q183.3375 36.165627 184.3375 35.821877Q184.35312 35.4625 184.35312 35.353127Q184.35312 34.290627 183.85312 33.8375Q183.18124 33.24375 181.85312 33.24375Q180.60312 33.24375 180.00937 33.68125Q179.43124 34.11875 179.15 35.228127L177.43124 34.99375Q177.66562 33.884377 178.19687 33.2125Q178.72812 32.525 179.74374 32.165627Q180.75937 31.790627 182.10312 31.790627Q183.43124 31.790627 184.25937 32.103127Q185.0875 32.415627 185.47812 32.9Q185.86874 33.36875 186.025 34.0875Q186.11874 34.540627 186.11874 35.7125L186.11874 38.05625Q186.11874 40.509377 186.22812 41.165627Q186.3375 41.80625 186.68124 42.4L184.8375 42.4Q184.57187 41.853127 184.49374 41.11875ZM184.3375 37.196877Q183.38437 37.5875 181.4625 37.853127Q180.38437 38.009377 179.93124 38.2125Q179.49374 38.4 179.24374 38.775Q178.99374 39.15 178.99374 39.61875Q178.99374 40.321877 179.525 40.790627Q180.05624 41.259377 181.0875 41.259377Q182.10312 41.259377 182.88437 40.821877Q183.68124 40.36875 184.05624 39.603127Q184.3375 38.99375 184.3375 37.8375L184.3375 37.196877ZM192.55624 40.821877L192.80624 42.384377Q192.07187 42.540627 191.47812 42.540627Q190.525 42.540627 189.99374 42.24375Q189.47812 41.93125 189.25937 41.446877Q189.04062 40.946877 189.04062 39.36875L189.04062 33.4L187.75937 33.4L187.75937 32.025L189.04062 32.025L189.04062 29.462502L190.79062 28.400002L190.79062 32.025L192.55624 32.025L192.55624 33.4L190.79062 33.4L190.79062 39.4625Q190.79062 40.2125 190.88437 40.43125Q190.97812 40.634377 191.18124 40.775Q191.4 40.9 191.79062 40.9Q192.07187 40.9 192.55624 40.821877ZM194.72812 30.103127L194.72812 28.087502L196.49374 28.087502L196.49374 30.103127L194.72812 30.103127ZM194.72812 42.4L194.72812 32.025L196.49374 32.025L196.49374 42.4L194.72812 42.4ZM198.7125 42.4L198.7125 32.025L200.30624 32.025L200.30624 33.509377Q201.44687 31.790627 203.60312 31.790627Q204.54062 31.790627 205.32187 32.134377Q206.11874 32.4625 206.50937 33.009377Q206.9 33.55625 207.05624 34.30625Q207.15 34.80625 207.15 36.025L207.15 42.4L205.38437 42.4L205.38437 36.0875Q205.38437 35.009377 205.18124 34.478127Q204.97812 33.946877 204.44687 33.634377Q203.93124 33.321877 203.22812 33.321877Q202.10312 33.321877 201.29062 34.040627Q200.47812 34.74375 200.47812 36.728127L200.47812 42.4L198.7125 42.4ZM209.4 43.259377L211.10312 43.509377Q211.2125 44.30625 211.69687 44.665627Q212.35312 45.15 213.49374 45.15Q214.7125 45.15 215.36874 44.665627Q216.04062 44.18125 216.275 43.30625Q216.41562 42.759377 216.4 41.040627Q215.24374 42.4 213.525 42.4Q211.38437 42.4 210.2125 40.853127Q209.04062 39.30625 209.04062 37.15Q209.04062 35.665627 209.57187 34.415627Q210.11874 33.165627 211.13437 32.478127Q212.16562 31.790627 213.54062 31.790627Q215.36874 31.790627 216.57187 33.275L216.57187 32.025L218.18124 32.025L218.18124 40.99375Q218.18124 43.415627 217.68124 44.415627Q217.19687 45.43125 216.11874 46.009377Q215.05624 46.603127 213.49374 46.603127Q211.65 46.603127 210.49374 45.775Q209.35312 44.946877 209.4 43.259377ZM210.85312 37.025Q210.85312 39.071877 211.66562 40.009377Q212.47812 40.946877 213.69687 40.946877Q214.9 40.946877 215.7125 40.009377Q216.54062 39.071877 216.54062 37.0875Q216.54062 35.18125 215.69687 34.2125Q214.85312 33.24375 213.66562 33.24375Q212.49374 33.24375 211.66562 34.196877Q210.85312 35.15 210.85312 37.025ZM233.49374 41.11875Q232.50937 41.946877 231.60312 42.290627Q230.69687 42.634377 229.66562 42.634377Q227.9625 42.634377 227.04062 41.80625Q226.11874 40.9625 226.11874 39.665627Q226.11874 38.9 226.4625 38.275Q226.82187 37.65 227.38437 37.275Q227.94687 36.884377 228.65 36.68125Q229.16562 36.55625 230.2125 36.415627Q232.3375 36.165627 233.3375 35.821877Q233.35312 35.4625 233.35312 35.353127Q233.35312 34.290627 232.85312 33.8375Q232.18124 33.24375 230.85312 33.24375Q229.60312 33.24375 229.00937 33.68125Q228.43124 34.11875 228.15 35.228127L226.43124 34.99375Q226.66562 33.884377 227.19687 33.2125Q227.72812 32.525 228.74374 32.165627Q229.75937 31.790627 231.10312 31.790627Q232.43124 31.790627 233.25937 32.103127Q234.0875 32.415627 234.47812 32.9Q234.86874 33.36875 235.025 34.0875Q235.11874 34.540627 235.11874 35.7125L235.11874 38.05625Q235.11874 40.509377 235.22812 41.165627Q235.3375 41.80625 235.68124 42.4L233.8375 42.4Q233.57187 41.853127 233.49374 41.11875ZM233.3375 37.196877Q232.38437 37.5875 230.4625 37.853127Q229.38437 38.009377 228.93124 38.2125Q228.49374 38.4 228.24374 38.775Q227.99374 39.15 227.99374 39.61875Q227.99374 40.321877 228.525 40.790627Q229.05624 41.259377 230.0875 41.259377Q231.10312 41.259377 231.88437 40.821877Q232.68124 40.36875 233.05624 39.603127Q233.3375 38.99375 233.3375 37.8375L233.3375 37.196877ZM250.65 36.790627L250.65 35.103127L256.7125 35.0875L256.7125 40.4Q255.30624 41.525 253.82187 42.0875Q252.3375 42.65 250.775 42.65Q248.66562 42.65 246.94687 41.74375Q245.22812 40.8375 244.3375 39.134377Q243.4625 37.415627 243.4625 35.30625Q243.4625 33.2125 244.3375 31.415627Q245.2125 29.603127 246.85312 28.728127Q248.49374 27.837502 250.63437 27.837502Q252.18124 27.837502 253.43124 28.337502Q254.69687 28.837502 255.4 29.743752Q256.11874 30.634377 256.49374 32.0875L254.79062 32.55625Q254.4625 31.462502 253.97812 30.837502Q253.50937 30.212502 252.61874 29.837502Q251.72812 29.462502 250.65 29.462502Q249.3375 29.462502 248.38437 29.853127Q247.44687 30.243752 246.86874 30.900002Q246.29062 31.540627 245.9625 32.30625Q245.41562 33.634377 245.41562 35.196877Q245.41562 37.103127 246.07187 38.4Q246.74374 39.68125 247.99374 40.30625Q249.25937 40.93125 250.66562 40.93125Q251.9 40.93125 253.07187 40.4625Q254.24374 39.99375 254.85312 39.446877L254.85312 36.790627L250.65 36.790627ZM259.07187 37.2125Q259.07187 34.3375 260.66562 32.946877Q262.00937 31.790627 263.93124 31.790627Q266.07187 31.790627 267.41562 33.196877Q268.775 34.603127 268.775 37.071877Q268.775 39.071877 268.18124 40.228127Q267.5875 41.36875 266.43124 42.009377Q265.29062 42.634377 263.93124 42.634377Q261.74374 42.634377 260.4 41.24375Q259.07187 39.8375 259.07187 37.2125ZM260.86874 37.2125Q260.86874 39.2125 261.72812 40.196877Q262.60312 41.18125 263.93124 41.18125Q265.24374 41.18125 266.10312 40.196877Q266.97812 39.196877 266.97812 37.15Q266.97812 35.228127 266.10312 34.24375Q265.22812 33.24375 263.93124 33.24375Q262.60312 33.24375 261.72812 34.24375Q260.86874 35.228127 260.86874 37.2125ZM270.07187 37.2125Q270.07187 34.3375 271.66562 32.946877Q273.00937 31.790627 274.93124 31.790627Q277.07187 31.790627 278.41562 33.196877Q279.775 34.603127 279.775 37.071877Q279.775 39.071877 279.18124 40.228127Q278.5875 41.36875 277.43124 42.009377Q276.29062 42.634377 274.93124 42.634377Q272.74374 42.634377 271.4 41.24375Q270.07187 39.8375 270.07187 37.2125ZM271.86874 37.2125Q271.86874 39.2125 272.72812 40.196877Q273.60312 41.18125 274.93124 41.18125Q276.24374 41.18125 277.10312 40.196877Q277.97812 39.196877 277.97812 37.15Q277.97812 35.228127 277.10312 34.24375Q276.22812 33.24375 274.93124 33.24375Q273.60312 33.24375 272.72812 34.24375Q271.86874 35.228127 271.86874 37.2125ZM288.44687 42.4L288.44687 41.0875Q287.4625 42.634377 285.54062 42.634377Q284.30624 42.634377 283.25937 41.946877Q282.22812 41.259377 281.65 40.040627Q281.0875 38.821877 281.0875 37.228127Q281.0875 35.665627 281.60312 34.4Q282.11874 33.134377 283.15 32.4625Q284.19687 31.790627 285.4625 31.790627Q286.4 31.790627 287.13437 32.196877Q287.86874 32.5875 288.3375 33.2125L288.3375 28.087502L290.07187 28.087502L290.07187 42.4L288.44687 42.4ZM282.88437 37.228127Q282.88437 39.2125 283.72812 40.196877Q284.57187 41.18125 285.7125 41.18125Q286.86874 41.18125 287.66562 40.24375Q288.47812 39.30625 288.47812 37.36875Q288.47812 35.24375 287.65 34.24375Q286.8375 33.24375 285.63437 33.24375Q284.4625 33.24375 283.66562 34.2125Q282.88437 35.165627 282.88437 37.228127ZM298.94687 42.4L298.94687 28.087502L304.3375 28.087502Q305.775 28.087502 306.525 28.212502Q307.57187 28.400002 308.29062 28.900002Q309.00937 29.384377 309.43124 30.275002Q309.86874 31.165627 309.86874 32.228127Q309.86874 34.05625 308.69687 35.321877Q307.54062 36.571877 304.50937 36.571877L300.8375 36.571877L300.8375 42.4L298.94687 42.4ZM300.8375 34.884377L304.54062 34.884377Q306.36874 34.884377 307.13437 34.2125Q307.91562 33.525 307.91562 32.275Q307.91562 31.384377 307.4625 30.743752Q307.00937 30.103127 306.275 29.900002Q305.79062 29.775002 304.49374 29.775002L300.8375 29.775002L300.8375 34.884377ZM318.49374 41.11875Q317.50937 41.946877 316.60312 42.290627Q315.69687 42.634377 314.66562 42.634377Q312.9625 42.634377 312.04062 41.80625Q311.11874 40.9625 311.11874 39.665627Q311.11874 38.9 311.4625 38.275Q311.82187 37.65 312.38437 37.275Q312.94687 36.884377 313.65 36.68125Q314.16562 36.55625 315.2125 36.415627Q317.3375 36.165627 318.3375 35.821877Q318.35312 35.4625 318.35312 35.353127Q318.35312 34.290627 317.85312 33.8375Q317.18124 33.24375 315.85312 33.24375Q314.60312 33.24375 314.00937 33.68125Q313.43124 34.11875 313.15 35.228127L311.43124 34.99375Q311.66562 33.884377 312.19687 33.2125Q312.72812 32.525 313.74374 32.165627Q314.75937 31.790627 316.10312 31.790627Q317.43124 31.790627 318.25937 32.103127Q319.0875 32.415627 319.47812 32.9Q319.86874 33.36875 320.025 34.0875Q320.11874 34.540627 320.11874 35.7125L320.11874 38.05625Q320.11874 40.509377 320.22812 41.165627Q320.3375 41.80625 320.68124 42.4L318.8375 42.4Q318.57187 41.853127 318.49374 41.11875ZM318.3375 37.196877Q317.38437 37.5875 315.4625 37.853127Q314.38437 38.009377 313.93124 38.2125Q313.49374 38.4 313.24374 38.775Q312.99374 39.15 312.99374 39.61875Q312.99374 40.321877 313.525 40.790627Q314.05624 41.259377 315.0875 41.259377Q316.10312 41.259377 316.88437 40.821877Q317.68124 40.36875 318.05624 39.603127Q318.3375 38.99375 318.3375 37.8375L318.3375 37.196877ZM322.00937 39.30625L323.75937 39.025Q323.9 40.071877 324.57187 40.634377Q325.24374 41.18125 326.44687 41.18125Q327.65 41.18125 328.22812 40.696877Q328.82187 40.196877 328.82187 39.540627Q328.82187 38.946877 328.30624 38.603127Q327.94687 38.36875 326.50937 38.009377Q324.57187 37.509377 323.82187 37.165627Q323.0875 36.80625 322.69687 36.18125Q322.30624 35.540627 322.30624 34.775Q322.30624 34.0875 322.61874 33.49375Q322.94687 32.9 323.49374 32.509377Q323.9 32.2125 324.60312 32.009377Q325.32187 31.790627 326.13437 31.790627Q327.35312 31.790627 328.275 32.15Q329.19687 32.49375 329.63437 33.103127Q330.07187 33.696877 330.24374 34.696877L328.525 34.93125Q328.4 34.134377 327.8375 33.696877Q327.275 33.24375 326.25937 33.24375Q325.04062 33.24375 324.525 33.65Q324.00937 34.040627 324.00937 34.571877Q324.00937 34.915627 324.22812 35.196877Q324.43124 35.478127 324.9 35.665627Q325.16562 35.759377 326.44687 36.103127Q328.32187 36.603127 329.05624 36.93125Q329.79062 37.24375 330.2125 37.853127Q330.63437 38.446877 330.63437 39.353127Q330.63437 40.228127 330.11874 41.009377Q329.60312 41.790627 328.63437 42.2125Q327.66562 42.634377 326.44687 42.634377Q324.43124 42.634377 323.36874 41.790627Q322.30624 40.946877 322.00937 39.30625ZM332.00937 39.30625L333.75937 39.025Q333.9 40.071877 334.57187 40.634377Q335.24374 41.18125 336.44687 41.18125Q337.65 41.18125 338.22812 40.696877Q338.82187 40.196877 338.82187 39.540627Q338.82187 38.946877 338.30624 38.603127Q337.94687 38.36875 336.50937 38.009377Q334.57187 37.509377 333.82187 37.165627Q333.0875 36.80625 332.69687 36.18125Q332.30624 35.540627 332.30624 34.775Q332.30624 34.0875 332.61874 33.49375Q332.94687 32.9 333.49374 32.509377Q333.9 32.2125 334.60312 32.009377Q335.32187 31.790627 336.13437 31.790627Q337.35312 31.790627 338.275 32.15Q339.19687 32.49375 339.63437 33.103127Q340.07187 33.696877 340.24374 34.696877L338.525 34.93125Q338.4 34.134377 337.8375 33.696877Q337.275 33.24375 336.25937 33.24375Q335.04062 33.24375 334.525 33.65Q334.00937 34.040627 334.00937 34.571877Q334.00937 34.915627 334.22812 35.196877Q334.43124 35.478127 334.9 35.665627Q335.16562 35.759377 336.44687 36.103127Q338.32187 36.603127 339.05624 36.93125Q339.79062 37.24375 340.2125 37.853127Q340.63437 38.446877 340.63437 39.353127Q340.63437 40.228127 340.11874 41.009377Q339.60312 41.790627 338.63437 42.2125Q337.66562 42.634377 336.44687 42.634377Q334.43124 42.634377 333.36874 41.790627Q332.30624 40.946877 332.00937 39.30625ZM344.63437 42.4L341.4625 32.025L343.275 32.025L344.93124 38.009377L345.54062 40.24375Q345.5875 40.071877 346.07187 38.103127L347.72812 32.025L349.54062 32.025L351.0875 38.040627L351.60312 40.025L352.19687 38.025L353.97812 32.025L355.68124 32.025L352.44687 42.4L350.61874 42.4L348.9625 36.18125L348.57187 34.415627L346.4625 42.4L344.63437 42.4ZM356.07187 37.2125Q356.07187 34.3375 357.66562 32.946877Q359.00937 31.790627 360.93124 31.790627Q363.07187 31.790627 364.41562 33.196877Q365.775 34.603127 365.775 37.071877Q365.775 39.071877 365.18124 40.228127Q364.5875 41.36875 363.43124 42.009377Q362.29062 42.634377 360.93124 42.634377Q358.74374 42.634377 357.4 41.24375Q356.07187 39.8375 356.07187 37.2125ZM357.86874 37.2125Q357.86874 39.2125 358.72812 40.196877Q359.60312 41.18125 360.93124 41.18125Q362.24374 41.18125 363.10312 40.196877Q363.97812 39.196877 363.97812 37.15Q363.97812 35.228127 363.10312 34.24375Q362.22812 33.24375 360.93124 33.24375Q359.60312 33.24375 358.72812 34.24375Q357.86874 35.228127 357.86874 37.2125ZM367.69687 42.4L367.69687 32.025L369.275 32.025L369.275 33.603127Q369.88437 32.49375 370.4 32.15Q370.91562 31.790627 371.525 31.790627Q372.41562 31.790627 373.3375 32.353127L372.72812 33.99375Q372.0875 33.603127 371.44687 33.603127Q370.86874 33.603127 370.4 33.9625Q369.94687 34.30625 369.74374 34.915627Q369.4625 35.853127 369.4625 36.9625L369.4625 42.4L367.69687 42.4ZM381.44687 42.4L381.44687 41.0875Q380.4625 42.634377 378.54062 42.634377Q377.30624 42.634377 376.25937 41.946877Q375.22812 41.259377 374.65 40.040627Q374.0875 38.821877 374.0875 37.228127Q374.0875 35.665627 374.60312 34.4Q375.11874 33.134377 376.15 32.4625Q377.19687 31.790627 378.4625 31.790627Q379.4 31.790627 380.13437 32.196877Q380.86874 32.5875 381.3375 33.2125L381.3375 28.087502L383.07187 28.087502L383.07187 42.4L381.44687 42.4ZM375.88437 37.228127Q375.88437 39.2125 376.72812 40.196877Q377.57187 41.18125 378.7125 41.18125Q379.86874 41.18125 380.66562 40.24375Q381.47812 39.30625 381.47812 37.36875Q381.47812 35.24375 380.65 34.24375Q379.8375 33.24375 378.63437 33.24375Q377.4625 33.24375 376.66562 34.2125Q375.88437 35.165627 375.88437 37.228127Z" fill-rule="nonzero"/></svg>