<?xml version="1.0" encoding="UTF-8"?>
<svg width="12px" height="12px" viewBox="0 0 12 12" version="1.1" xmlns="http://www.w3.org/2000/svg" xmlns:xlink="http://www.w3.org/1999/xlink">
  <path d="M11.6953829,8.65001982 C11.9006216,9.00070532 12.0088317,9.40536341 12.0088317,9.82419612 C12.0088317,11.0177262 11.1281188,11.9903231 10.0421672,11.9995911 C10.0363281,12 10.0306132,12 10.0250226,12 L1.99002424,12 C1.28361527,12 0.625534307,11.5828028 0.27232982,10.9116892 C-0.080626195,10.241257 -0.0807504316,9.40740782 0.27232982,8.73629417 L4.28914568,1.10394378 C4.64259864,0.432966422 5.30055537,0.0159055424 6.00671587,0.0159055424 C6.71312484,0.0159055424 7.3712058,0.433102717 7.72428606,1.10421637 L11.6953829,8.65001982 Z M6.5625,9.73349966 L6.5625,8.23499966 L5.4375,8.23499966 L5.4375,9.73349966 L6.5625,9.73349966 Z M6.5625,7.12125 L6.5625,3.375 L5.4375,3.375 L5.4375,7.12125 L6.5625,7.12125 Z" fill="#FAC402"></path>
</svg>
