
<svg width="122px" height="42px" viewBox="424 372 122 42" version="1.1" xmlns="http://www.w3.org/2000/svg" xmlns:xlink="http://www.w3.org/1999/xlink">
    <desc>HashiCorp Vault</desc>
    <defs>
        <polygon id="path-1" points="20.9998984 42 0 42 0 0 20.9998984 0 41.9997968 0 41.9997968 42 20.9998984 42"></polygon>
        <polygon id="path-3" points="0 42 121.627258 42 121.627258 0 0 0"></polygon>
    </defs>
    <g id="Page-1" stroke="none" stroke-width="1" fill="none" fill-rule="evenodd" transform="translate(424.000000, 372.000000)">
        <polygon id="Fill-1" fill="#000000" points="68.5607323 10.1811387 72.8210226 10.1811387 66.3496355 31.8389129 60.3009581 31.8389129 53.829571 10.1811387 58.0898613 10.1811387 63.3249581 28.2296226"></polygon>
        <g id="Group-24">
            <path d="M81.990029,25.8550645 L79.0635774,25.8550645 C77.7629323,25.8550645 77.4039,26.2127419 77.4039,27.4165161 C77.4039,28.5220645 77.7629323,29.009129 78.9985452,29.009129 C80.1691258,29.009129 81.2421581,28.6196129 81.990029,28.1962258 L81.990029,25.8550645 Z M85.9563194,31.8387097 L82.7060613,31.8387097 L82.4120613,30.7656774 C80.982029,31.7086452 79.2911903,32.163871 77.6979,32.163871 C74.8032871,32.163871 73.5669968,30.1803871 73.5669968,27.4490323 C73.5669968,24.2292581 74.9658677,22.9936452 78.1849645,22.9936452 L81.990029,22.9936452 L81.990029,21.3353226 C81.990029,19.5787742 81.5016097,18.9609677 78.9653516,18.9609677 C77.5353194,18.9609677 75.9738677,19.1560645 74.5756742,19.4487097 L74.0872548,16.4247097 C75.5836742,15.9694839 77.7629323,15.6768387 79.5188032,15.6768387 C84.4930935,15.6768387 85.9563194,17.4327097 85.9563194,21.4003548 L85.9563194,31.8387097 Z" id="Fill-2" fill="#000000"></path>
            <path d="M92.8485871,16.0020677 L92.8485871,27.058229 C92.8485871,27.9036484 93.2069419,28.3263581 94.1173935,28.3263581 C95.0928774,28.3263581 96.8162323,27.7410677 98.2469419,26.9938742 L98.2469419,16.0020677 L102.214587,16.0020677 L102.214587,31.8387774 L99.1899097,31.8387774 L98.7997161,30.5056161 C96.8162323,31.4811 94.3118129,32.1639387 92.4583935,32.1639387 C89.8252645,32.1639387 88.8822968,30.3105194 88.8822968,27.4809387 L88.8822968,16.0020677 L92.8485871,16.0020677 Z" id="Fill-4" fill="#000000"></path>
            <polygon id="Fill-6" fill="#000000" points="105.628306 31.8387097 105.628306 9.5306129 109.594597 8.97783871 109.594597 31.8387097"></polygon>
            <path d="M121.431213,31.5463355 C120.585794,31.9033355 118.961342,32.1641419 117.952665,32.1641419 C115.058052,32.1641419 113.594826,30.7984645 113.594826,27.9688839 L113.594826,19.1563355 L111.221148,19.1563355 L111.221148,16.002271 L113.594826,16.002271 L113.594826,12.0671419 L117.562471,11.5143677 L117.562471,16.002271 L121.626987,16.002271 L121.366181,19.1563355 L117.562471,19.1563355 L117.562471,27.4486258 C117.562471,28.2940452 117.952665,28.8474968 118.992503,28.8474968 C119.579148,28.8474968 120.293148,28.7167548 120.975987,28.5216581 L121.431213,31.5463355 Z" id="Fill-8" fill="#000000"></path>
            <g id="Group-12">
                <mask id="mask-2" fill="white">
                    <use xlink:href="#path-1"></use>
                </mask>
                <g id="Clip-11"></g>
                <polygon id="Fill-10" fill="#000000" mask="url(#mask-2)" points="41.9997968 0 20.9239258 42 -0.000203225806 0"></polygon>
            </g>
            <mask id="mask-4" fill="white">
                <use xlink:href="#path-3"></use>
            </mask>
            <g id="Clip-14"></g>
            <polygon id="Fill-13" fill="#FFFFFF" mask="url(#mask-4)" points="16.1300323 10.8637742 18.5653548 10.8637742 18.5653548 8.42912903 16.1300323 8.42912903"></polygon>
            <polygon id="Fill-15" fill="#FFFFFF" mask="url(#mask-4)" points="19.7826774 10.8637742 22.218 10.8637742 22.218 8.42912903 19.7826774 8.42912903"></polygon>
            <polygon id="Fill-16" fill="#FFFFFF" mask="url(#mask-4)" points="23.4136452 10.8637742 25.8489677 10.8637742 25.8489677 8.42912903 23.4136452 8.42912903"></polygon>
            <polygon id="Fill-17" fill="#FFFFFF" mask="url(#mask-4)" points="16.1300323 14.5157419 18.5653548 14.5157419 18.5653548 12.0810968 16.1300323 12.0810968"></polygon>
            <polygon id="Fill-18" fill="#FFFFFF" mask="url(#mask-4)" points="19.7826774 14.5157419 22.218 14.5157419 22.218 12.0810968 19.7826774 12.0810968"></polygon>
            <polygon id="Fill-19" fill="#FFFFFF" mask="url(#mask-4)" points="23.4136452 14.5157419 25.8489677 14.5157419 25.8489677 12.0810968 23.4136452 12.0810968"></polygon>
            <polygon id="Fill-20" fill="#FFFFFF" mask="url(#mask-4)" points="16.1300323 18.1683871 18.5653548 18.1683871 18.5653548 15.7337419 16.1300323 15.7337419"></polygon>
            <polygon id="Fill-21" fill="#FFFFFF" mask="url(#mask-4)" points="19.7826774 18.1683871 22.218 18.1683871 22.218 15.7337419 19.7826774 15.7337419"></polygon>
            <polygon id="Fill-22" fill="#FFFFFF" mask="url(#mask-4)" points="19.7826774 21.8203548 22.218 21.8203548 22.218 19.3857097 19.7826774 19.3857097"></polygon>
            <polygon id="Fill-23" fill="#FFFFFF" mask="url(#mask-4)" points="23.4346452 18.1683871 25.8692903 18.1683871 25.8692903 15.7337419 23.4346452 15.7337419"></polygon>
        </g>
    </g>
</svg>
