<svg xmlns="http://www.w3.org/2000/svg" viewBox="0 0 153 150">
  <g fill="#B5010F">
    <path d="M150.43 3.04c8.04 8.038-14.25 43.364-18.017 47.134-3.768 3.762-13.34.3-21.376-7.738-8.04-8.036-11.504-17.61-7.735-21.377 3.766-3.77 39.09-26.06 47.128-18.02m-112.75 8.5C25.408 4.58 7.94-3.17 2.385 2.39c-5.63 5.627 2.4 23.486 9.44 35.783 6.262-10.89 15.17-20.055 25.857-26.63"/>
    <path d="M138.17 47.402c1.13 3.834.926 7-.908 8.83-4.28 4.284-15.847-.276-26.274-10.2-.727-.65-1.45-1.328-2.158-2.04-3.77-3.77-6.704-7.785-8.58-11.482-3.652-6.55-4.566-12.337-1.805-15.097 1.504-1.503 3.91-1.913 6.846-1.384 1.92-1.22 4.18-2.56 6.66-3.95-10.08-5.25-21.54-8.22-33.69-8.22-40.31 0-72.99 32.67-72.99 72.982 0 40.305 32.68 72.982 72.99 72.982 40.31 0 72.99-32.68 72.99-72.985 0-13.017-3.416-25.224-9.384-35.807-1.29 2.354-2.544 4.51-3.69 6.36"/>
  </g>
</svg>
