<svg xmlns="http://www.w3.org/2000/svg" viewBox="0 0 128 150">
  <path fill="#000" fill-rule="nonzero" d="M124.47 116.895c-2.268 5.24-4.954 10.064-8.065 14.5-4.24 6.045-7.712 10.23-10.388 12.554-4.148 3.814-8.593 5.768-13.352 5.88-3.416 0-7.536-.973-12.333-2.946-4.81-1.963-9.234-2.935-13.277-2.935-4.24 0-8.79.97-13.653 2.934-4.872 1.973-8.797 3-11.798 3.102-4.564.195-9.113-1.815-13.653-6.037-2.897-2.528-6.522-6.862-10.865-13-4.66-6.556-8.49-14.157-11.49-22.824C2.38 98.766.77 89.7.77 80.926c0-10.053 2.172-18.723 6.523-25.99 3.42-5.835 7.968-10.438 13.662-13.818 5.693-3.38 11.845-5.102 18.47-5.212 3.624 0 8.378 1.122 14.285 3.325 5.89 2.212 9.673 3.333 11.33 3.333 1.24 0 5.443-1.31 12.566-3.924 6.736-2.425 12.42-3.43 17.078-3.034 12.62 1.02 22.1 5.994 28.406 14.956-11.286 6.84-16.87 16.417-16.758 28.705.1 9.57 3.574 17.536 10.397 23.86 3.092 2.935 6.546 5.203 10.388 6.814-.833 2.418-1.713 4.732-2.648 6.955zM95.526 3c0 7.502-2.74 14.506-8.203 20.99-6.592 7.706-14.566 12.16-23.213 11.457-.11-.9-.174-1.847-.174-2.843 0-7.2 3.135-14.908 8.702-21.21 2.78-3.19 6.315-5.844 10.602-7.96C87.517 1.35 91.564.196 95.37 0c.11 1.002.156 2.005.156 3z"/>
</svg>
