<svg xmlns="http://www.w3.org/2000/svg" viewBox="0 0 121 150">
  <g fill="#A80030">
    <path d="M71.917 78.85c-2.473.033.467 1.273 3.696 1.77.892-.696 1.7-1.4 2.422-2.086-2.01.493-4.057.504-6.118.315m13.273-3.31c1.472-2.04 2.545-4.26 2.924-6.56-.33 1.64-1.22 3.05-2.06 4.55-4.62 2.91-.434-1.73-.002-3.49-4.97 6.25-.682 3.75-.863 5.5m4.9-12.75c.29-4.46-.88-3.05-1.28-1.35.46.24.82 3.14 1.27 1.34M62.54 1.92c1.32.24 2.85.42 2.636.737 1.444-.32 1.77-.61-2.637-.74m2.63.73l-.94.19.87-.08.06-.114"/>
    <path d="M106.328 64.48c.148 4-1.17 5.94-2.357 9.375l-2.13 1.068c-1.75 3.396.17 2.156-1.08 4.858-2.73 2.43-8.28 7.6-10.06 8.07-1.3-.03.88-1.53 1.17-2.12-3.65 2.51-2.93 3.77-8.52 5.3l-.16-.36c-13.8 6.49-32.95-6.37-32.7-23.9-.14 1.12-.41.84-.72 1.29-.71-9.02 4.17-18.084 12.4-21.784 8.05-3.98 17.488-2.346 23.25 3.026-3.164-4.146-9.47-8.543-16.94-8.132-7.313.118-14.16 4.768-16.443 9.816-3.75 2.36-4.19 9.093-5.82 10.33-2.2 16.143 4.13 23.12 14.84 31.33 1.69 1.14.473 1.31.7 2.17-3.56-1.67-6.817-4.18-9.497-7.26 1.42 2.08 2.953 4.108 4.94 5.698-3.36-1.14-7.84-8.13-9.15-8.416 5.78 10.35 23.46 18.154 32.72 14.28-4.284.16-9.726.09-14.54-1.69-2.02-1.04-4.77-3.194-4.28-3.6 12.636 4.72 25.69 3.58 36.622-5.19 2.78-2.163 5.82-5.85 6.7-5.9-1.324 1.99.224.957-.79 2.71 2.77-4.47-1.205-1.816 2.864-7.716l1.503 2.07c-.56-3.71 4.6-8.215 4.08-14.083 1.18-1.795 1.32 1.93.06 6.06 1.744-4.58.46-5.32.91-9.1.482 1.27 1.12 2.62 1.444 3.96-1.136-4.42 1.17-7.45 1.74-10.02-.565-.25-1.76 1.96-2.03-3.27.04-2.27.63-1.19.86-1.75-.447-.256-1.617-1.997-2.33-5.336.51-.787 1.38 2.03 2.08 2.15-.45-2.658-1.23-4.68-1.26-6.72-2.05-4.286-.73.57-2.39-1.84-2.185-6.81 1.81-1.58 2.08-4.674 3.31 4.79 5.19 12.22 6.06 15.3-.66-3.755-1.73-7.39-3.03-10.905 1 .427-1.62-7.72 1.3-2.322-3.11-11.5-13.352-22.24-22.78-27.28 1.154 1.057 2.61 2.38 2.087 2.59-4.69-2.79-3.864-3.01-4.535-4.19-3.82-1.55-4.07.127-6.6.005C79.4 4.56 78.013 4.965 71.39 2.573l.3 1.41c-4.77-1.59-5.557.61-10.71.01-.314-.24 1.65-.88 3.27-1.12-4.61.61-4.396-.91-8.907.17 1.12-.78 2.29-1.29 3.48-1.96-3.76.23-8.97 2.19-7.36.41-6.13 2.73-17.02 6.57-23.14 12.3l-.19-1.28c-2.8 3.36-12.21 10.04-12.96 14.397l-.75.176c-1.45 2.47-2.4 5.266-3.55 7.805-1.9 3.25-2.79 1.25-2.52 1.76-3.75 7.6-5.61 13.99-7.22 19.228 1.15 1.71.03 10.31.467 17.196-1.89 34 23.86 67.007 51.99 74.63 4.124 1.477 10.257 1.42 15.474 1.57-6.154-1.76-6.95-.93-12.946-3.02-4.324-2.036-5.27-4.36-8.335-7.02l1.21 2.142c-6.007-2.13-3.493-2.63-8.38-4.18l1.294-1.69c-1.95-.15-5.16-3.288-6.04-5.02l-2.13.08c-2.56-3.157-3.926-5.434-3.827-7.196l-.69 1.226c-.78-1.34-9.418-11.85-4.938-9.4-.83-.76-1.94-1.24-3.14-3.42l.918-1.04c-2.157-2.778-3.97-6.33-3.83-7.52 1.15 1.556 1.947 1.846 2.737 2.11-5.446-13.51-5.75-.743-9.876-13.75l.875-.07c-.67-1.01-1.076-2.1-1.615-3.18l.38-3.785C6.81 80 9.637 65.26 10.2 57.175c.39-3.29 3.27-6.79 5.46-12.275l-1.33-.23c2.55-4.45 14.568-17.878 20.13-17.187 2.7-3.387-.532-.013-1.06-.866 5.92-6.13 7.784-4.33 11.78-5.43 4.31-2.56-3.7.996-1.656-.98 7.45-1.902 5.28-4.325 15-5.29 1.02.58-2.38.9-3.237 1.66 6.204-3.04 19.64-2.35 28.37 1.682 10.125 4.73 21.503 18.72 21.95 31.883l.51.137c-.26 5.23.8 11.28-1.033 16.84l1.243-2.63"/>
    <path d="M44.925 82.244l-.347 1.734c1.625 2.207 2.915 4.6 4.99 6.325-1.493-2.915-2.602-4.12-4.643-8.06m3.842-.15c-.86-.95-1.37-2.096-1.94-3.237.546 2.005 1.662 3.728 2.7 5.48l-.76-2.243m67.987-14.777l-.363.91c-.66 4.732-2.1 9.413-4.3 13.754 2.44-4.58 4.01-9.59 4.67-14.664M63.03.74C64.7.126 67.138.402 68.912 0 66.6.194 64.3.31 62.028.603l1 .136m-58.7 31.21c.386 3.56-2.683 4.95.68 2.6 1.803-4.07-.704-1.13-.68-2.6M.376 48.46c.775-2.377.915-3.805 1.21-5.182-2.14 2.738-.984 3.32-1.21 5.183"/>
  </g>
</svg>
