<svg xmlns="http://www.w3.org/2000/svg" viewBox="0 0 171 171">
  <g fill="none" fill-rule="evenodd">
    <path fill="#932279" d="M72.064 79.272l6.17 6.133-6.17 6.134H28.64v20.435L2.155 85.405 28.64 59.28v19.99h43.424"/>
    <path fill="#EFA724" d="M91.728 72.064l-6.134 6.17-6.133-6.17V28.638H59.026l26.57-26.483 26.125 26.483H91.73v43.426"/>
    <path fill="#262577" d="M98.936 91.728l-6.17-6.134 6.17-6.133h43.425V59.026l26.486 26.57-26.483 26.125V91.73H98.937"/>
    <path fill="#9CCD2A" d="M79.272 98.936l6.133-6.17 6.134 6.17v43.425h20.435l-26.572 26.486-26.123-26.483h19.99V98.937"/>
    <g fill-rule="nonzero" stroke="#FFF" stroke-width="3.769">
      <path fill="#9CCD2A" d="M27.082 27.082h52.765v52.765H27.082z"/>
      <path fill="#932279" d="M91.153 27.082h52.765v52.765H91.153z"/>
      <path fill="#EFA724" d="M91.153 91.153h52.765v52.765H91.153z"/>
      <path fill="#262577" d="M27.082 91.153h52.765v52.765H27.082z"/>
    </g>
    <path stroke="#FFF" stroke-width="3.769" d="M2.884 85.5l37.31-37.31 37.31 37.31-37.31 37.31zM48.19 40.195L85.5 2.885l37.31 37.31-37.31 37.31zM93.495 85.5l37.31-37.31 37.31 37.31-37.31 37.31zM48.19 130.805l37.31-37.31 37.31 37.31-37.31 37.31z"/>
  </g>
</svg>
