<svg xmlns="http://www.w3.org/2000/svg" viewBox="0 0 65 65">
  <defs>
    <linearGradient id="a" x1="54.638%" x2="28.129%" y1="32.594%" y2="72.266%">
      <stop stop-color="#FFF" stop-opacity="0" offset="0%"/>
      <stop stop-color="#FFF" stop-opacity=".275" offset="100%"/>
    </linearGradient>
  </defs>
  <g fill="none">
    <path fill="#1793D1" d="M32.253.21c-2.85 6.984-4.58 11.56-7.75 18.336 1.944 2.06 4.334 4.453 8.21 7.164-4.167-1.715-7.008-3.432-9.132-5.22C19.53 28.96 13.16 41.023.26 64.21c10.14-5.854 18.002-9.466 25.328-10.844-.313-1.35-.48-2.82-.468-4.344l.008-.32c.16-6.498 3.542-11.495 7.547-11.156 4.004.34 7.12 5.884 6.96 12.383-.03 1.22-.172 2.4-.413 3.49 7.246 1.42 15.033 5.01 25.04 10.79-1.975-3.64-3.74-6.91-5.424-10.03-2.648-2.057-5.41-4.728-11.046-7.62 3.874 1.005 6.65 2.17 8.812 3.47C39.496 18.2 38.114 13.97 32.25.21z"/>
    <path fill="#FFF" fill-opacity=".166" d="M50.266 38.25C36.394 19.42 33.18 4.246 32.364.623c7.4 17.067 7.35 17.277 17.902 37.625z"/>
    <path fill="url(#a)" d="M32.378.46c-.36.884-.7 1.747-1.032 2.562-.364.895-.718 1.757-1.062 2.594-.344.838-.693 1.63-1.03 2.438-.34.806-.655 1.604-1 2.406-.347.802-.727 1.613-1.095 2.437-.37.825-.76 1.658-1.16 2.532-.41.87-.83 1.8-1.28 2.75-.06.12-.13.27-.19.4 1.94 2.05 4.33 4.422 8.182 7.12-4.166-1.716-7-3.433-9.124-5.22-.11.226-.198.425-.31.656-.42.87-.87 1.733-1.345 2.69-.11.223-.194.426-.31.655-.5 1.006-1.026 2.045-1.594 3.158-.113.22-.228.4-.344.624-.344.665-1.44 2.77-2.56 4.905-.658 1.245-1.17 2.27-1.91 3.653-.208.4-.638 1.195-.75 1.406 8.126-4.573 16.892-11.216 32.814-5.53-.796-1.51-1.56-2.92-2.25-4.25-.687-1.333-1.31-2.57-1.905-3.75-.595-1.18-1.144-2.29-1.658-3.345-.512-1.054-.988-2.05-1.436-3-.45-.954-.885-1.87-1.28-2.75-.4-.88-.77-1.73-1.126-2.563-.36-.83-.695-1.655-1.03-2.47-.338-.81-.674-1.59-1-2.402-.144-.358-.265-.736-.408-1.096C34.302 5 33.43 2.936 32.378.46z"/>
  </g>
</svg>
