<svg width="20" height="20"><path d="M9.97.271C4.464.271 0 4.736 0 10.241c0 4.404 2.875 8.134 6.789 9.48.49.061.673-.245.673-.49V17.52c-2.753.612-3.364-1.345-3.364-1.345-.428-1.162-1.101-1.468-1.101-1.468-.917-.612.061-.612.061-.612.979.061 1.53 1.04 1.53 1.04.917 1.529 2.323 1.1 2.874.856a2.13 2.13 0 01.611-1.345C5.872 14.4 3.547 13.544 3.547 9.69c0-1.1.367-1.957 1.04-2.69-.061-.184-.428-1.224.122-2.57 0 0 .857-.244 2.753 1.04.795-.244 1.651-.306 2.507-.306.857 0 1.713.123 2.508.306 1.896-1.284 2.752-1.04 2.752-1.04.55 1.346.184 2.386.123 2.63a3.956 3.956 0 011.04 2.692c0 3.853-2.325 4.648-4.527 4.893.367.305.673.917.673 1.834v2.753c0 .244.184.55.673.489A9.98 9.98 0 0020 10.241C19.939 4.736 15.474.27 9.97.27z"/></svg>