<?xml version="1.0" standalone="no"?>
<!DOCTYPE svg PUBLIC "-//W3C//DTD SVG 20010904//EN"
 "http://www.w3.org/TR/2001/REC-SVG-20010904/DTD/svg10.dtd">
<svg version="1.0" xmlns="http://www.w3.org/2000/svg"
 width="16.000000pt" height="16.000000pt" viewBox="0 0 16.000000 16.000000"
 preserveAspectRatio="xMidYMid meet">
<metadata>
Created by potrace 1.11, written by Peter Selinger 2001-2013
</metadata>
<g transform="translate(0.000000,16.000000) scale(0.003125,-0.003125)"
fill="#000000" stroke="none">
<path d="M2 5111 c10 -30 2544 -5110 2548 -5111 4 0 2559 5083 2568 5110 3 7
-857 10 -2558 10 -1549 0 -2560 -4 -2558 -9z m2258 -1166 l0 -145 -145 0 -145
0 0 145 0 145 145 0 145 0 0 -145z m450 0 l0 -145 -150 0 -150 0 0 145 0 145
150 0 150 0 0 -145z m440 0 l0 -145 -145 0 -145 0 0 145 0 145 145 0 145 0 0
-145z m-890 -450 l0 -145 -145 0 -145 0 0 145 0 145 145 0 145 0 0 -145z m450
0 l0 -145 -150 0 -150 0 0 145 0 145 150 0 150 0 0 -145z m440 0 l0 -145 -145
0 -145 0 0 145 0 145 145 0 145 0 0 -145z m-890 -440 l0 -145 -145 0 -145 0 0
145 0 145 145 0 145 0 0 -145z m450 0 l0 -145 -150 0 -150 0 0 145 0 145 150
0 150 0 0 -145z m450 0 l0 -145 -150 0 -150 0 0 145 0 145 150 0 150 0 0 -145z
m-450 -450 l0 -145 -150 0 -150 0 0 145 0 145 150 0 150 0 0 -145z"/>
</g>
</svg>
