<svg fill="none" height="320" viewBox="0 0 592 320" width="592" xmlns="http://www.w3.org/2000/svg" xmlns:xlink="http://www.w3.org/1999/xlink"><clipPath id="a"><path d="m149 41h19.5v22.3h-19.5z"/></clipPath><clipPath id="b"><path d="m423 257h19.5v22.3h-19.5z"/></clipPath><path d="m0 0h592v320h-592z" fill="#fff"/><rect fill="#fff" height="46" rx="2" transform="matrix(-1 0 0 1 182 29)" width="46"/><rect height="47.5" rx="2.75" stroke="#000" stroke-opacity=".16" stroke-width="1.5" transform="matrix(-1 0 0 1 183.5 29)" width="47.5" x=".75" y="-.75"/><rect fill="#fff" height="46" rx="2" transform="matrix(-1 0 0 1 456 245)" width="46"/><rect height="47.5" rx="2.75" stroke="#000" stroke-opacity=".16" stroke-width="1.5" transform="matrix(-1 0 0 1 457.5 245)" width="47.5" x=".75" y="-.75"/><g clip-path="url(#a)" stroke="#000" stroke-miterlimit="10" stroke-width="1.5"><path d="m158.801 49.7998c4.97 0 9-1.7909 9-4s-4.03-4-9-4c-4.971 0-9 1.7909-9 4s4.029 4 9 4z"/><g stroke-linecap="round"><path d="m149.801 45.7998v12.8c0 2.2 4 4 9 4s9-1.8 9-4v-12.8"/><path d="m167.801 52.0996c0 2.2-4 4-9 4s-9-1.8-9-4"/></g></g><g clip-path="url(#b)" stroke="#000" stroke-miterlimit="10" stroke-width="1.5"><path d="m432.801 265.8c4.97 0 9-1.791 9-4s-4.03-4-9-4c-4.971 0-9 1.791-9 4s4.029 4 9 4z"/><g stroke-linecap="round"><path d="m423.801 261.8v12.8c0 2.2 4 4 9 4s9-1.8 9-4v-12.8"/><path d="m441.801 268.1c0 2.2-4 4-9 4s-9-1.8-9-4"/></g></g><g stroke="#343536"><path d="m0-1h156" stroke-width="2" transform="matrix(-.00000004 1 1 .00000004 160 86)"/><path d="m159 86c-1.657 0-3 1.3431-3 3s1.343 3 3 3 3-1.3431 3-3-1.343-3-3-3z" fill="#fff" stroke-linecap="round" stroke-linejoin="round" stroke-width="2"/><path d="m159 242c1.657 0 3-1.343 3-3s-1.343-3-3-3-3 1.343-3 3 1.343 3 3 3z" fill="#fff" stroke-linecap="round" stroke-linejoin="round" stroke-width="2"/><path d="m0-1h156" stroke-width="2" transform="matrix(-.00000004 1 1 .00000004 434 78)"/><path d="m433 78c-1.657 0-3 1.3431-3 3s1.343 3 3 3 3-1.3431 3-3-1.343-3-3-3z" fill="#fff" stroke-linecap="round" stroke-linejoin="round" stroke-width="2"/><path d="m433 234c1.657 0 3-1.343 3-3s-1.343-3-3-3-3 1.343-3 3 1.343 3 3 3z" fill="#fff" stroke-linecap="round" stroke-linejoin="round" stroke-width="2"/><path d="m283 52h-90" stroke-width="2"/><path d="m281 52h4" stroke-width="2"/><path d="m193 52c0-1.6569 1.343-3 3-3s3 1.3431 3 3-1.343 3-3 3-3-1.3431-3-3z" fill="#fff" stroke-linecap="round" stroke-linejoin="round" stroke-width="2"/><path d="m309 270h90" stroke-width="2"/><path d="m311 270h-4" stroke-width="2"/><path d="m399 270c0 1.657-1.343 3-3 3s-3-1.343-3-3 1.343-3 3-3 3 1.343 3 3z" fill="#fff" stroke-linecap="round" stroke-linejoin="round" stroke-width="2"/></g><rect fill="#f25054" height="32" rx="2" transform="matrix(-1 0 0 1 449 36)" width="32"/><path d="m426.25 52.25c0-1.1046.895-2 2-2h9.5c1.105 0 2 .8954 2 2v4.25c0 1.1046-.895 2-2 2h-9.5c-1.105 0-2-.8954-2-2z" style="fill-rule:evenodd;clip-rule:evenodd;stroke:#fff;stroke-width:1.5;stroke-linecap:round;stroke-linejoin:round"/><path d="m429.25 50.2501v-3c-.002-1.9266 1.456-3.5412 3.373-3.7348s3.669 1.0967 4.052 2.9848" stroke="#fff" stroke-linecap="round" stroke-linejoin="round" stroke-width="1.5"/><rect fill="#f25054" height="32" rx="2" transform="matrix(-1 0 0 1 175 252)" width="32"/><path d="m152.25 268.25c0-1.105.895-2 2-2h9.5c1.105 0 2 .895 2 2v4.25c0 1.105-.895 2-2 2h-9.5c-1.105 0-2-.895-2-2z" style="fill-rule:evenodd;clip-rule:evenodd;stroke:#fff;stroke-width:1.5;stroke-linecap:round;stroke-linejoin:round"/><path d="m155.25 266.25v-3c-.002-1.926 1.456-3.541 3.373-3.735 1.917-.193 3.669 1.097 4.052 2.985" stroke="#fff" stroke-linecap="round" stroke-linejoin="round" stroke-width="1.5"/><path d="m0-1 200 2" stroke="#f25054" stroke-dasharray="4 2" stroke-linejoin="round" stroke-width="2" transform="matrix(-.00000004 1 1 .00000004 297 61)"/><path d="m0-1h4" stroke="#f25054" stroke-width="2" transform="matrix(-.00000004 -1 -1 .00000004 295 63)"/><path d="m0-1h4" stroke="#f25054" stroke-width="2" transform="matrix(.00000004 1 1 -.00000004 297 259)"/><path d="m407 52h-98" stroke="#343536" stroke-width="2"/><path d="m407 52c0 1.6569-1.343 3-3 3s-3-1.3431-3-3 1.343-3 3-3 3 1.3431 3 3z" fill="#fff" stroke="#343536" stroke-linecap="round" stroke-linejoin="round" stroke-width="2"/><path d="m311 52h-4" stroke="#343536" stroke-width="2"/><path d="m185 270h98" stroke="#343536" stroke-width="2"/><path d="m185 270c0-1.657 1.343-3 3-3s3 1.343 3 3-1.343 3-3 3-3-1.343-3-3z" fill="#fff" stroke="#343536" stroke-linecap="round" stroke-linejoin="round" stroke-width="2"/><path d="m281 270h4" stroke="#343536" stroke-width="2"/><path d="m318 160c0 12.15-9.85 22-22 22s-22-9.85-22-22 9.85-22 22-22 22 9.85 22 22z" fill="#fff" stroke="#f25054" stroke-width="2"/><path d="m300.533 162.294c.308-.309.617-.694.694-1.08.231-.848-2.314-1.311-2.314-1.311s-.231 1.697-2.544 2.622c-.386.154-.772.154-1.157 0-2.313-.925-2.545-2.622-2.545-2.622s-2.544.463-2.236 1.311c.154.463.386.771.694 1.08-2.313 0-4.164 1.696-4.164 3.855v1.851h17.736v-1.851c0-2.159-1.851-3.855-4.164-3.855z" fill="#000"/><path d="m295.984 158.824c4.241 0 7.634-1.543 7.634-3.393 0-1.311-1.774-2.468-4.319-3.008-.231-.694-.385-1.388-.539-1.85-.309-1.08-1.697-.386-2.545.077-.771.385-1.465-.309-2.39-.386-.694-.077-.926.617-.926.617l-.694 1.697c-2.313.617-3.855 1.696-3.855 2.93 0 1.773 3.393 3.316 7.634 3.316zm-4.01-4.396c0 .386 1.388 1.157 3.855 1.157 2.468 0 3.856-.771 3.856-1.157l.386.926c-.772.694-2.545 1.079-4.242 1.079-1.696 0-3.392-.385-4.164-1.079z" fill="#000"/><path d="m299.086 272 4.915 2" stroke="#f25054" stroke-width="2"/><path d="m292.916 268-4.915-2" stroke="#f25054" stroke-width="2"/><path d="m288.001 274 4.915-2" stroke="#f25054" stroke-width="2"/><path d="m304.001 266-4.915 2" stroke="#f25054" stroke-width="2"/><path d="m299.086 54 4.915 1.9999" stroke="#f25054" stroke-width="2"/><path d="m292.916 50-4.915-1.9999" stroke="#f25054" stroke-width="2"/><path d="m288.001 55.9997 4.915-2.0001" stroke="#f25054" stroke-width="2"/><path d="m304.001 48.0003-4.915 2.0001" stroke="#f25054" stroke-width="2"/></svg>