<svg fill="none" height="320" viewBox="0 0 592 320" width="592" xmlns="http://www.w3.org/2000/svg" xmlns:xlink="http://www.w3.org/1999/xlink"><clipPath id="a"><path d="m423 257h19.5v22.3h-19.5z"/></clipPath><path d="m0 0h592v320h-592z" fill="#fff"/><path d="m262.373 122.147 37.369 75.018 37.648-75.018zm41.78 15.088h4.352v4.317h-4.352zm-8.658 17.408h-4.306v-4.387h4.341zm0-6.523h-4.306v-4.386h4.341zm0-6.522h-4.306v-4.387h4.341zm6.522 19.578h-4.305v-4.398h4.34zm0-6.533h-4.305v-4.387h4.34zm0-6.523h-4.305v-4.386h4.34zm0-6.522h-4.305v-4.387h4.34zm2.136 2.136h4.352v4.34h-4.352zm0 10.862v-4.34h4.34v4.34z" fill="#000"/><rect fill="#fff" height="46" rx="2" transform="matrix(-1 0 0 1 182 29)" width="46"/><rect height="47.5" rx="2.75" stroke="#000" stroke-opacity=".16" stroke-width="1.5" transform="matrix(-1 0 0 1 183.5 29)" width="47.5" x=".75" y="-.75"/><rect fill="#fff" height="46" rx="2" transform="matrix(-1 0 0 1 456 245)" width="46"/><rect height="47.5" rx="2.75" stroke="#000" stroke-opacity=".16" stroke-width="1.5" transform="matrix(-1 0 0 1 457.5 245)" width="47.5" x=".75" y="-.75"/><g clip-path="url(#a)" stroke="#000" stroke-miterlimit="10" stroke-width="1.5"><path d="m432.801 265.8c4.97 0 9-1.791 9-4s-4.03-4-9-4c-4.971 0-9 1.791-9 4s4.029 4 9 4z"/><g stroke-linecap="round"><path d="m423.801 261.8v12.8c0 2.2 4 4 9 4s9-1.8 9-4v-12.8"/><path d="m441.801 268.1c0 2.2-4 4-9 4s-9-1.8-9-4"/></g></g><g stroke="#343536" stroke-width="2"><path d="m0-1h156" transform="matrix(-.00000004 1 1 .00000004 160 86)"/><path d="m159 86c-1.657 0-3 1.3431-3 3s1.343 3 3 3 3-1.3431 3-3-1.343-3-3-3z" fill="#fff" stroke-linecap="round" stroke-linejoin="round"/><path d="m159 242c1.657 0 3-1.343 3-3s-1.343-3-3-3-3 1.343-3 3 1.343 3 3 3z" fill="#fff" stroke-linecap="round" stroke-linejoin="round"/><path d="m0-1h156" transform="matrix(-.00000004 1 1 .00000004 434 78)"/><path d="m433 78c-1.657 0-3 1.3431-3 3s1.343 3 3 3 3-1.3431 3-3-1.343-3-3-3z" fill="#fff" stroke-linecap="round" stroke-linejoin="round"/><path d="m433 234c1.657 0 3-1.343 3-3s-1.343-3-3-3-3 1.343-3 3 1.343 3 3 3z" fill="#fff" stroke-linecap="round" stroke-linejoin="round"/><path d="m399 268h-214"/><path d="m399 268c0 1.657-1.343 3-3 3s-3-1.343-3-3 1.343-3 3-3 3 1.343 3 3z" fill="#fff" stroke-linecap="round" stroke-linejoin="round"/><path d="m185 268c0-1.657 1.343-3 3-3s3 1.343 3 3-1.343 3-3 3-3-1.343-3-3z" fill="#fff" stroke-linecap="round" stroke-linejoin="round"/><path d="m407 52h-214"/><path d="m407 52c0 1.6569-1.343 3-3 3s-3-1.3431-3-3 1.343-3 3-3 3 1.3431 3 3z" fill="#fff" stroke-linecap="round" stroke-linejoin="round"/><path d="m193 52c0-1.6569 1.343-3 3-3s3 1.3431 3 3-1.343 3-3 3-3-1.3431-3-3z" fill="#fff" stroke-linecap="round" stroke-linejoin="round"/></g><rect fill="#ffec6e" height="32" rx="2" transform="matrix(-1 0 0 1 449 36)" width="32"/><path d="m426.25 52.25c0-1.1046.895-2 2-2h9.5c1.105 0 2 .8954 2 2v4.25c0 1.1046-.895 2-2 2h-9.5c-1.105 0-2-.8954-2-2z" style="fill-rule:evenodd;clip-rule:evenodd;stroke:#000;stroke-width:1.5;stroke-linecap:round;stroke-linejoin:round"/><path d="m429.25 50.25v-3c0-2.0711 1.679-3.75 3.75-3.75s3.75 1.6789 3.75 3.75v3" stroke="#000" stroke-linecap="round" stroke-linejoin="round" stroke-width="1.5"/><rect fill="#ffec6e" height="32" rx="2" transform="matrix(-1 0 0 1 175 252)" width="32"/><path d="m152.25 268.25c0-1.105.895-2 2-2h9.5c1.105 0 2 .895 2 2v4.25c0 1.105-.895 2-2 2h-9.5c-1.105 0-2-.895-2-2z" style="fill-rule:evenodd;clip-rule:evenodd;stroke:#000;stroke-width:1.5;stroke-linecap:round;stroke-linejoin:round"/><path d="m155.25 266.25v-3c0-2.071 1.679-3.75 3.75-3.75s3.75 1.679 3.75 3.75v3" stroke="#000" stroke-linecap="round" stroke-linejoin="round" stroke-width="1.5"/><path d="m150 45c0-1.1046.895-2 2-2h14c1.105 0 2 .8954 2 2v14c0 1.1046-.895 2-2 2h-14c-1.105 0-2-.8954-2-2z" style="fill-rule:evenodd;clip-rule:evenodd;stroke:#000;stroke-width:1.5;stroke-linecap:round;stroke-linejoin:round"/><path d="m150 49h18" stroke="#000" stroke-linecap="round" stroke-linejoin="round" stroke-width="1.5"/><path d="m156 61v-12" stroke="#000" stroke-linecap="round" stroke-linejoin="round" stroke-width="1.5"/></svg>