<svg fill="none" height="357" viewBox="0 0 592 357" width="592" xmlns="http://www.w3.org/2000/svg"><path d="m0 0h592v357h-592z" fill="#fff"/><path d="m230 94v-61c0-4.4183 3.582-8 8-8h16" stroke="#bfbfc0" stroke-linejoin="round" stroke-width="2"/><path d="m252 25h4" stroke="#bfbfc0" stroke-width="2"/><path d="m230 92v4" stroke="#bfbfc0" stroke-width="2"/><path d="m362 103v61c0 4.418-3.582 8-8 8h-10" stroke="#bfbfc0" stroke-linejoin="round" stroke-width="2"/><path d="m346 172h-4" stroke="#bfbfc0" stroke-width="2"/><path d="m362 105v-4" stroke="#bfbfc0" stroke-width="2"/><path d="m362 94v-61c0-4.4183-3.582-8-8-8h-16" stroke="#bfbfc0" stroke-linejoin="round" stroke-width="2"/><path d="m0-1h4" stroke="#bfbfc0" stroke-width="2" transform="matrix(-1 .00000015 .00000014 1 340 26)"/><path d="m362 95.7-5.1-8.7h10.2z" fill="#bfbfc0"/><path d="m230 103v61c0 4.418 3.582 8 8 8h10" stroke="#bfbfc0" stroke-linejoin="round" stroke-width="2"/><path d="m0-1h4" stroke="#bfbfc0" stroke-width="2" transform="matrix(1 -.00000005 -.00000006 -1 246 171)"/><path d="m230 101.3 5.1 8.7h-10.2z" fill="#bfbfc0"/><path clip-rule="evenodd" d="m331 172c0 13.255-10.745 24-24 24h-26c-11.046 0-20-8.954-20-20s8.954-20 20-20c2.48 0 4.854.451 7.046 1.276 4.391-5.645 11.248-9.276 18.954-9.276 13.255 0 24 10.745 24 24z" fill="#fff2a6" fill-rule="evenodd"/><rect fill="#fff" height="46" rx="2" width="46" x="273" y="2"/><rect height="47.5" rx="2.75" stroke="#000" stroke-opacity=".16" stroke-width="1.5" width="47.5" x="272.25" y="1.25"/><rect fill="#fff" height="46" rx="2" width="46" x="416" y="276"/><rect height="47.5" rx="2.75" stroke="#000" stroke-opacity=".16" stroke-width="1.5" width="47.5" x="415.25" y="275.25"/><rect fill="#000" height="48" rx="2" width="48" x="32" y="60"/><rect fill="#000" height="48" rx="2" width="48" x="512" y="60"/><path d="m296.89 14.4501 8 4.0001c.68.3377 1.11 1.031 1.11 1.7899v9.5301c0 .7589-.43 1.4522-1.11 1.79l-8 4c-.563.2819-1.227.2819-1.79 0l-8-4c-.679-.3422-1.105-1.0397-1.1-1.8001v-9.52c0-.7589.43-1.4522 1.11-1.7899l8-4.0001c.561-.2785 1.219-.2785 1.78 0z" style="fill-rule:evenodd;clip-rule:evenodd;stroke:#000;stroke-width:1.5;stroke-linecap:round;stroke-linejoin:round"/><path d="m286.32 19.1602 9.68 4.84 9.68-4.84" stroke="#000" stroke-linecap="round" stroke-linejoin="round" stroke-width="1.5"/><path d="m296 35.76v-11.76" stroke="#000" stroke-linecap="round" stroke-linejoin="round" stroke-width="1.5"/><path d="m259.945 73 .975-2.58h4.005l.99 2.58h1.875l-4.02-10.5h-1.68l-4.02 10.485zm1.425-4.08 1.56-4.365 1.545 4.365zm7.889 7.08h1.515v-4.065c.405.555 1.17 1.14 2.43 1.14 1.665 0 3.39-1.32 3.39-3.87 0-2.595-1.86-3.87-3.435-3.87-1.32 0-2.175.795-2.385 1.2v-1.035h-1.515zm3.6-4.38c-1.215 0-2.07-1.02-2.07-2.46 0-1.365.855-2.34 2.07-2.34 1.2 0 2.04 1.035 2.04 2.49 0 1.35-.84 2.31-2.04 2.31zm5.347 4.38h1.515v-4.065c.405.555 1.17 1.14 2.43 1.14 1.665 0 3.39-1.32 3.39-3.87 0-2.595-1.86-3.87-3.435-3.87-1.32 0-2.175.795-2.385 1.2v-1.035h-1.515zm3.6-4.38c-1.215 0-2.07-1.02-2.07-2.46 0-1.365.855-2.34 2.07-2.34 1.2 0 2.04 1.035 2.04 2.49 0 1.35-.84 2.31-2.04 2.31zm5.348 1.38h1.68v-10.5h-1.68zm3.745-8.58h1.785v-1.92h-1.785zm.06 8.58h1.68v-7.5h-1.68zm6.866.105c1.755 0 3.15-1.125 3.36-2.73h-1.68c-.135.675-.69 1.32-1.65 1.32-1.08 0-1.935-.945-1.935-2.55 0-1.53.855-2.43 1.905-2.43.945 0 1.515.645 1.68 1.32h1.68c-.195-1.575-1.56-2.685-3.3-2.685-2.145 0-3.66 1.62-3.66 3.9 0 2.265 1.485 3.855 3.6 3.855zm7.004.045c.795 0 1.68-.345 2.22-1.035v.885h1.665v-5.07c0-1.485-1.065-2.61-2.97-2.61-1.83 0-3.045 1.185-3.18 2.685l1.68-.015c.075-.555.525-1.215 1.575-1.215.765 0 1.23.42 1.23.9 0 .78-1.065.84-2.025.93-.855.075-1.575.285-2.07.675-.465.375-.66.96-.66 1.605 0 1.44 1.2 2.265 2.535 2.265zm.27-1.38c-.69-.045-1.08-.465-1.08-.99 0-.585.48-.9 1.305-.975.735-.06 1.41-.165 1.74-.345l-.015.675c-.03 1.185-1.125 1.68-1.95 1.635zm7.698 1.23h1.425l.015-1.41h-1.02c-.72 0-.915-.24-.915-.99v-3.75h1.92v-1.35h-1.92v-2.4h-1.56v2.4h-1.17v1.35h1.17v4.155c0 1.17.855 1.995 2.055 1.995zm2.67-8.58h1.785v-1.92h-1.785zm.06 8.58h1.68v-7.5h-1.68zm6.897.075c2.025 0 3.615-1.59 3.615-3.825 0-2.265-1.59-3.855-3.615-3.855-2.04 0-3.63 1.59-3.63 3.855 0 2.235 1.59 3.825 3.63 3.825zm-.015-1.485c-1.29 0-2.01-1.02-2.01-2.34 0-1.35.735-2.355 2.025-2.355 1.305 0 2.04 1.02 2.04 2.37 0 1.32-.735 2.325-2.055 2.325zm5.242 1.41h1.59v-3.78c0-1.545.885-2.49 1.875-2.49.84 0 1.485.525 1.485 1.845v4.425h1.725v-4.605c0-2.535-1.8-3.09-2.835-3.09-1.215 0-1.965.735-2.25 1.14v-.945h-1.59z" fill="#000"/><path d="m409.09 347.03 3.915-.03c2.745-.015 4.845-2.22 4.845-5.325 0-3.06-2.16-5.235-4.995-5.205l-3.765.03zm1.56-1.59v-7.305l2.205-.03c1.86-.03 3.33 1.425 3.33 3.63 0 2.19-1.5 3.645-3.39 3.675zm10.976 1.71c.795 0 1.68-.345 2.22-1.035v.885h1.665v-5.07c0-1.485-1.065-2.61-2.97-2.61-1.83 0-3.045 1.185-3.18 2.685l1.68-.015c.075-.555.525-1.215 1.575-1.215.765 0 1.23.42 1.23.9 0 .78-1.065.84-2.025.93-.855.075-1.575.285-2.07.675-.465.375-.66.96-.66 1.605 0 1.44 1.2 2.265 2.535 2.265zm.27-1.38c-.69-.045-1.08-.465-1.08-.99 0-.585.48-.9 1.305-.975.735-.06 1.41-.165 1.74-.345l-.015.675c-.03 1.185-1.125 1.68-1.95 1.635zm7.698 1.23h1.425l.015-1.41h-1.02c-.72 0-.915-.24-.915-.99v-3.75h1.92v-1.35h-1.92v-2.4h-1.56v2.4h-1.17v1.35h1.17v4.155c0 1.17.855 1.995 2.055 1.995zm4.755.15c.795 0 1.68-.345 2.22-1.035v.885h1.665v-5.07c0-1.485-1.065-2.61-2.97-2.61-1.83 0-3.045 1.185-3.18 2.685l1.68-.015c.075-.555.525-1.215 1.575-1.215.765 0 1.23.42 1.23.9 0 .78-1.065.84-2.025.93-.855.075-1.575.285-2.07.675-.465.375-.66.96-.66 1.605 0 1.44 1.2 2.265 2.535 2.265zm.27-1.38c-.69-.045-1.08-.465-1.08-.99 0-.585.48-.9 1.305-.975.735-.06 1.41-.165 1.74-.345l-.015.675c-.03 1.185-1.125 1.68-1.95 1.635zm9.498 1.395c1.575 0 3.435-1.275 3.435-3.87 0-2.55-1.725-3.87-3.39-3.87-1.26 0-2.025.585-2.43 1.14v-4.065h-1.515v10.5h1.515v-1.035c.21.405 1.065 1.2 2.385 1.2zm-.3-1.485c-1.215 0-2.07-.975-2.07-2.34 0-1.44.855-2.46 2.07-2.46 1.2 0 2.04.96 2.04 2.31 0 1.455-.84 2.49-2.04 2.49zm7.357 1.47c.795 0 1.68-.345 2.22-1.035v.885h1.665v-5.07c0-1.485-1.065-2.61-2.97-2.61-1.83 0-3.045 1.185-3.18 2.685l1.68-.015c.075-.555.525-1.215 1.575-1.215.765 0 1.23.42 1.23.9 0 .78-1.065.84-2.025.93-.855.075-1.575.285-2.07.675-.465.375-.66.96-.66 1.605 0 1.44 1.2 2.265 2.535 2.265zm.27-1.38c-.69-.045-1.08-.465-1.08-.99 0-.585.48-.9 1.305-.975.735-.06 1.41-.165 1.74-.345l-.015.675c-.03 1.185-1.125 1.68-1.95 1.635zm8.223 1.395c1.395 0 2.925-.87 2.925-2.43 0-1.155-.69-1.995-3.03-2.28-.93-.12-1.275-.495-1.275-.9 0-.555.63-.795 1.215-.795.42 0 1.275.135 1.44 1.155h1.485c-.15-1.86-1.59-2.55-2.955-2.55-1.725 0-2.805 1.035-2.805 2.175 0 .75.27 1.86 2.88 2.235 1.14.165 1.38.555 1.38.96 0 .615-.525 1.08-1.32 1.08s-1.47-.435-1.635-1.215h-1.53c.09 1.71 1.53 2.565 3.225 2.565zm7.552 0c1.8 0 3-1.065 3.225-2.535h-1.5c-.345.99-1.245 1.155-1.725 1.155-1.185 0-1.965-.75-1.965-1.98v-.015h5.31c.18-2.475-1.08-4.38-3.39-4.38-2.13 0-3.57 1.575-3.57 3.9 0 2.415 1.425 3.855 3.615 3.855zm-1.92-4.77c.06-.945.825-1.605 1.83-1.605s1.71.66 1.755 1.605z" fill="#000"/><path d="m138.381 347h1.545l3.93-10.5h-1.68l-3.015 8.28-3.015-8.28h-1.695zm8.204.15c.795 0 1.68-.345 2.22-1.035v.885h1.665v-5.07c0-1.485-1.065-2.61-2.97-2.61-1.83 0-3.045 1.185-3.18 2.685l1.68-.015c.075-.555.525-1.215 1.575-1.215.765 0 1.23.42 1.23.9 0 .78-1.065.84-2.025.93-.855.075-1.575.285-2.07.675-.465.375-.66.96-.66 1.605 0 1.44 1.2 2.265 2.535 2.265zm.27-1.38c-.69-.045-1.08-.465-1.08-.99 0-.585.48-.9 1.305-.975.735-.06 1.41-.165 1.74-.345l-.015.675c-.03 1.185-1.125 1.68-1.95 1.635zm8.358 1.425c1.215 0 1.965-.735 2.25-1.14v.945h1.59v-7.5h-1.59v3.78c0 1.545-.885 2.49-1.875 2.49-.84 0-1.485-.525-1.485-1.845v-4.425h-1.725v4.605c0 2.535 1.8 3.09 2.835 3.09zm5.982-.195h1.68v-10.5h-1.68zm5.921 0h1.425l.015-1.41h-1.02c-.72 0-.915-.24-.915-.99v-3.75h1.92v-1.35h-1.92v-2.4h-1.56v2.4h-1.17v1.35h1.17v4.155c0 1.17.855 1.995 2.055 1.995z" fill="#000"/><path d="m286.761 220 .975-2.58h4.005l.99 2.58h1.875l-4.02-10.5h-1.68l-4.02 10.485zm1.425-4.08 1.56-4.365 1.545 4.365zm8.04 4.095h1.62v-4.17h2.79c1.905 0 3.165-1.35 3.165-3.15 0-1.815-1.23-3.21-3.075-3.21l-4.5.015zm1.62-5.595v-3.51h2.46c1.035 0 1.86.6 1.86 1.77 0 1.155-.825 1.74-1.86 1.74zm7.637 5.58h1.725v-10.5h-1.725z" fill="#000"/><path d="m121.942 55.026 3.393-.026c2.379-.013 4.199-1.924 4.199-4.615 0-2.652-1.872-4.537-4.329-4.511l-3.263.026zm1.352-1.378v-6.331l1.911-.026c1.612-.026 2.886 1.235 2.886 3.146 0 1.898-1.3 3.159-2.938 3.185zm10.448 1.495c1.56 0 2.6-.923 2.795-2.197h-1.3c-.299.858-1.079 1.001-1.495 1.001-1.027 0-1.703-.65-1.703-1.716v-.013h4.602c.156-2.145-.936-3.796-2.938-3.796-1.846 0-3.094 1.365-3.094 3.38 0 2.093 1.235 3.341 3.133 3.341zm-1.664-4.134c.052-.819.715-1.391 1.586-1.391s1.482.572 1.521 1.391zm8.643 4.082c1.521 0 2.73-.975 2.912-2.366h-1.456c-.117.585-.598 1.144-1.43 1.144-.936 0-1.677-.819-1.677-2.21 0-1.326.741-2.106 1.651-2.106.819 0 1.313.559 1.456 1.144h1.456c-.169-1.365-1.352-2.327-2.86-2.327-1.859 0-3.172 1.404-3.172 3.38 0 1.963 1.287 3.341 3.12 3.341zm4.328-.091h1.339v-3.289c0-1.599 1.014-1.885 1.898-1.872h.221v-1.443h-.299c-1.235 0-1.69.65-1.82.897v-.793h-1.339zm4.343 2.6h.767c1.105 0 1.846-.598 2.327-1.807l2.808-7.293h-1.495l-1.625 4.446-1.755-4.446h-1.495l2.535 6.097-.299.832c-.234.611-.611.91-1.144.91h-.637zm6.913 0h1.313v-3.523c.351.481 1.014.988 2.106.988 1.443 0 2.938-1.144 2.938-3.354 0-2.249-1.612-3.354-2.977-3.354-1.144 0-1.885.689-2.067 1.04v-.897h-1.313zm3.12-3.796c-1.053 0-1.794-.884-1.794-2.132 0-1.183.741-2.028 1.794-2.028 1.04 0 1.768.897 1.768 2.158 0 1.17-.728 2.002-1.768 2.002zm6.454 1.196h1.235l.013-1.222h-.884c-.624 0-.793-.208-.793-.858v-3.25h1.664v-1.17h-1.664v-2.08h-1.352v2.08h-1.014v1.17h1.014v3.601c0 1.014.741 1.729 1.781 1.729zm4.931.143c1.56 0 2.6-.923 2.795-2.197h-1.3c-.299.858-1.079 1.001-1.495 1.001-1.027 0-1.703-.65-1.703-1.716v-.013h4.602c.156-2.145-.936-3.796-2.938-3.796-1.846 0-3.094 1.365-3.094 3.38 0 2.093 1.235 3.341 3.133 3.341zm-1.664-4.134c.052-.819.715-1.391 1.586-1.391s1.482.572 1.521 1.391zm8.5 4.134c1.144 0 1.885-.689 2.067-1.04v.897h1.313v-9.1h-1.313v3.523c-.351-.481-1.014-.988-2.106-.988-1.443 0-2.938 1.144-2.938 3.354 0 2.249 1.612 3.354 2.977 3.354zm.26-1.287c-1.04 0-1.768-.897-1.768-2.158 0-1.17.728-2.002 1.768-2.002 1.053 0 1.794.884 1.794 2.132 0 1.183-.741 2.028-1.794 2.028zm-38.903 18.17 3.393-.026c2.379-.013 4.199-1.924 4.199-4.615 0-2.652-1.872-4.537-4.329-4.511l-3.263.026zm1.352-1.378v-6.331l1.911-.026c1.612-.026 2.886 1.235 2.886 3.146 0 1.898-1.3 3.159-2.938 3.185zm9.512 1.482c.689 0 1.456-.299 1.924-.897v.767h1.443v-4.394c0-1.287-.923-2.262-2.574-2.262-1.586 0-2.639 1.027-2.756 2.327l1.456-.013c.065-.481.455-1.053 1.365-1.053.663 0 1.066.364 1.066.78 0 .676-.923.728-1.755.806-.741.065-1.365.247-1.794.585-.403.325-.572.832-.572 1.391 0 1.248 1.04 1.963 2.197 1.963zm.234-1.196c-.598-.039-.936-.403-.936-.858 0-.507.416-.78 1.131-.845.637-.052 1.222-.143 1.508-.299l-.013.585c-.026 1.027-.975 1.456-1.69 1.417zm6.672 1.066h1.235l.013-1.222h-.884c-.624 0-.793-.208-.793-.858v-3.25h1.664v-1.17h-1.664v-2.08h-1.352v2.08h-1.014v1.17h1.014v3.601c0 1.014.741 1.729 1.781 1.729zm4.121.13c.689 0 1.456-.299 1.924-.897v.767h1.443v-4.394c0-1.287-.923-2.262-2.574-2.262-1.586 0-2.639 1.027-2.756 2.327l1.456-.013c.065-.481.455-1.053 1.365-1.053.663 0 1.066.364 1.066.78 0 .676-.923.728-1.755.806-.741.065-1.365.247-1.794.585-.403.325-.572.832-.572 1.391 0 1.248 1.04 1.963 2.197 1.963zm.234-1.196c-.598-.039-.936-.403-.936-.858 0-.507.416-.78 1.131-.845.637-.052 1.222-.143 1.508-.299l-.013.585c-.026 1.027-.975 1.456-1.69 1.417z" fill="#000"/><path d="m122.525 209h5.967v-1.391h-4.576v-2.548h4.303v-1.339h-4.303v-2.431h4.576v-1.391h-5.967zm7.371 0h1.378v-3.276c0-1.339.767-2.158 1.625-2.158.728 0 1.287.455 1.287 1.599v3.835h1.495v-3.991c0-2.197-1.56-2.678-2.457-2.678-1.053 0-1.703.637-1.95.988v-.819h-1.378zm10.241.091c1.521 0 2.73-.975 2.912-2.366h-1.456c-.117.585-.598 1.144-1.43 1.144-.936 0-1.677-.819-1.677-2.21 0-1.326.741-2.106 1.651-2.106.819 0 1.313.559 1.456 1.144h1.456c-.169-1.365-1.352-2.327-2.86-2.327-1.859 0-3.172 1.404-3.172 3.38 0 1.963 1.287 3.341 3.12 3.341zm4.328-.091h1.339v-3.289c0-1.599 1.014-1.885 1.898-1.872h.221v-1.443h-.299c-1.235 0-1.69.65-1.82.897v-.793h-1.339zm4.343 2.6h.767c1.105 0 1.846-.598 2.327-1.807l2.808-7.293h-1.495l-1.625 4.446-1.755-4.446h-1.495l2.535 6.097-.299.832c-.234.611-.611.91-1.144.91h-.637zm6.913 0h1.313v-3.523c.351.481 1.014.988 2.106.988 1.443 0 2.938-1.144 2.938-3.354 0-2.249-1.612-3.354-2.977-3.354-1.144 0-1.885.689-2.067 1.04v-.897h-1.313zm3.12-3.796c-1.053 0-1.794-.884-1.794-2.132 0-1.183.741-2.028 1.794-2.028 1.04 0 1.768.897 1.768 2.158 0 1.17-.728 2.002-1.768 2.002zm6.454 1.196h1.235l.013-1.222h-.884c-.624 0-.793-.208-.793-.858v-3.25h1.664v-1.17h-1.664v-2.08h-1.352v2.08h-1.014v1.17h1.014v3.601c0 1.014.741 1.729 1.781 1.729zm4.931.143c1.56 0 2.6-.923 2.795-2.197h-1.3c-.299.858-1.079 1.001-1.495 1.001-1.027 0-1.703-.65-1.703-1.716v-.013h4.602c.156-2.145-.936-3.796-2.938-3.796-1.846 0-3.094 1.365-3.094 3.38 0 2.093 1.235 3.341 3.133 3.341zm-1.664-4.134c.052-.819.715-1.391 1.586-1.391s1.482.572 1.521 1.391zm8.5 4.134c1.144 0 1.885-.689 2.067-1.04v.897h1.313v-9.1h-1.313v3.523c-.351-.481-1.014-.988-2.106-.988-1.443 0-2.938 1.144-2.938 3.354 0 2.249 1.612 3.354 2.977 3.354zm.26-1.287c-1.04 0-1.768-.897-1.768-2.158 0-1.17.728-2.002 1.768-2.002 1.053 0 1.794.884 1.794 2.132 0 1.183-.741 2.028-1.794 2.028zm-38.319 18.17 3.393-.026c2.379-.013 4.199-1.924 4.199-4.615 0-2.652-1.872-4.537-4.329-4.511l-3.263.026zm1.352-1.378v-6.331l1.911-.026c1.612-.026 2.886 1.235 2.886 3.146 0 1.898-1.3 3.159-2.938 3.185zm9.512 1.482c.689 0 1.456-.299 1.924-.897v.767h1.443v-4.394c0-1.287-.923-2.262-2.574-2.262-1.586 0-2.639 1.027-2.756 2.327l1.456-.013c.065-.481.455-1.053 1.365-1.053.663 0 1.066.364 1.066.78 0 .676-.923.728-1.755.806-.741.065-1.365.247-1.794.585-.403.325-.572.832-.572 1.391 0 1.248 1.04 1.963 2.197 1.963zm.234-1.196c-.598-.039-.936-.403-.936-.858 0-.507.416-.78 1.131-.845.637-.052 1.222-.143 1.508-.299l-.013.585c-.026 1.027-.975 1.456-1.69 1.417zm6.672 1.066h1.235l.013-1.222h-.884c-.624 0-.793-.208-.793-.858v-3.25h1.664v-1.17h-1.664v-2.08h-1.352v2.08h-1.014v1.17h1.014v3.601c0 1.014.741 1.729 1.781 1.729zm4.121.13c.689 0 1.456-.299 1.924-.897v.767h1.443v-4.394c0-1.287-.923-2.262-2.574-2.262-1.586 0-2.639 1.027-2.756 2.327l1.456-.013c.065-.481.455-1.053 1.365-1.053.663 0 1.066.364 1.066.78 0 .676-.923.728-1.755.806-.741.065-1.365.247-1.794.585-.403.325-.572.832-.572 1.391 0 1.248 1.04 1.963 2.197 1.963zm.234-1.196c-.598-.039-.936-.403-.936-.858 0-.507.416-.78 1.131-.845.637-.052 1.222-.143 1.508-.299l-.013.585c-.026 1.027-.975 1.456-1.69 1.417z" fill="#000"/><path d="m503.838 132h1.545l3.93-10.5h-1.68l-3.015 8.28-3.015-8.28h-1.695zm8.204.15c.795 0 1.68-.345 2.22-1.035v.885h1.665v-5.07c0-1.485-1.065-2.61-2.97-2.61-1.83 0-3.045 1.185-3.18 2.685l1.68-.015c.075-.555.525-1.215 1.575-1.215.765 0 1.23.42 1.23.9 0 .78-1.065.84-2.025.93-.855.075-1.575.285-2.07.675-.465.375-.66.96-.66 1.605 0 1.44 1.2 2.265 2.535 2.265zm.27-1.38c-.69-.045-1.08-.465-1.08-.99 0-.585.48-.9 1.305-.975.735-.06 1.41-.165 1.74-.345l-.015.675c-.03 1.185-1.125 1.68-1.95 1.635zm8.358 1.425c1.215 0 1.965-.735 2.25-1.14v.945h1.59v-7.5h-1.59v3.78c0 1.545-.885 2.49-1.875 2.49-.84 0-1.485-.525-1.485-1.845v-4.425h-1.725v4.605c0 2.535 1.8 3.09 2.835 3.09zm5.982-.195h1.68v-10.5h-1.68zm5.921 0h1.425l.015-1.41h-1.02c-.72 0-.915-.24-.915-.99v-3.75h1.92v-1.35h-1.92v-2.4h-1.56v2.4h-1.17v1.35h1.17v4.155c0 1.17.855 1.995 2.055 1.995zm7.14 0h6.885v-1.605h-5.28v-2.94h4.965v-1.545h-4.965v-2.805h5.28v-1.605h-6.885zm10.515.15c.795 0 1.68-.345 2.22-1.035v.885h1.665v-5.07c0-1.485-1.065-2.61-2.97-2.61-1.83 0-3.045 1.185-3.18 2.685l1.68-.015c.075-.555.525-1.215 1.575-1.215.765 0 1.23.42 1.23.9 0 .78-1.065.84-2.025.93-.855.075-1.575.285-2.07.675-.465.375-.66.96-.66 1.605 0 1.44 1.2 2.265 2.535 2.265zm.27-1.38c-.69-.045-1.08-.465-1.08-.99 0-.585.48-.9 1.305-.975.735-.06 1.41-.165 1.74-.345l-.015.675c-.03 1.185-1.125 1.68-1.95 1.635zm7.608 1.38c.795 0 1.68-.345 2.22-1.035v.885h1.665v-5.07c0-1.485-1.065-2.61-2.97-2.61-1.83 0-3.045 1.185-3.18 2.685l1.68-.015c.075-.555.525-1.215 1.575-1.215.765 0 1.23.42 1.23.9 0 .78-1.065.84-2.025.93-.855.075-1.575.285-2.07.675-.465.375-.66.96-.66 1.605 0 1.44 1.2 2.265 2.535 2.265zm.27-1.38c-.69-.045-1.08-.465-1.08-.99 0-.585.48-.9 1.305-.975.735-.06 1.41-.165 1.74-.345l-.015.675c-.03 1.185-1.125 1.68-1.95 1.635zm9.453 1.335c2.25 0 3.885-1.2 3.885-3.12 0-1.515-.885-2.745-3.9-3.09-1.29-.15-2.13-.645-2.13-1.47 0-.66.63-1.395 1.86-1.395 1.14 0 2.1.615 2.175 1.71h1.77c-.09-2.07-1.56-3.33-3.93-3.33-2.175 0-3.75 1.38-3.75 3.075 0 1.41 1.035 2.685 4.11 3.015 1.425.15 1.92.675 1.92 1.47 0 .75-.705 1.575-2.01 1.575-1.365 0-2.19-.675-2.445-1.785h-1.86c.165 2.25 2.22 3.345 4.305 3.345z" fill="#000"/><path d="m23.8383 132h1.545l3.93-10.5h-1.68l-3.015 8.28-3.015-8.28h-1.695zm8.2038.15c.795 0 1.68-.345 2.22-1.035v.885h1.665v-5.07c0-1.485-1.065-2.61-2.97-2.61-1.83 0-3.045 1.185-3.18 2.685l1.68-.015c.075-.555.525-1.215 1.575-1.215.765 0 1.23.42 1.23.9 0 .78-1.065.84-2.025.93-.855.075-1.575.285-2.07.675-.465.375-.66.96-.66 1.605 0 1.44 1.2 2.265 2.535 2.265zm.27-1.38c-.69-.045-1.08-.465-1.08-.99 0-.585.48-.9 1.305-.975.735-.06 1.41-.165 1.74-.345l-.015.675c-.03 1.185-1.125 1.68-1.95 1.635zm8.358 1.425c1.215 0 1.965-.735 2.25-1.14v.945h1.59v-7.5h-1.59v3.78c0 1.545-.885 2.49-1.875 2.49-.84 0-1.485-.525-1.485-1.845v-4.425h-1.725v4.605c0 2.535 1.8 3.09 2.835 3.09zm5.9821-.195h1.68v-10.5h-1.68zm5.9204 0h1.425l.015-1.41h-1.02c-.72 0-.915-.24-.915-.99v-3.75h1.92v-1.35h-1.92v-2.4h-1.56v2.4h-1.17v1.35h1.17v4.155c0 1.17.855 1.995 2.055 1.995zm7.1408 0h6.885v-1.605h-5.28v-2.94h4.965v-1.545h-4.965v-2.805h5.28v-1.605h-6.885zm10.5143.15c.795 0 1.68-.345 2.22-1.035v.885h1.665v-5.07c0-1.485-1.065-2.61-2.97-2.61-1.83 0-3.045 1.185-3.18 2.685l1.68-.015c.075-.555.525-1.215 1.575-1.215.765 0 1.23.42 1.23.9 0 .78-1.065.84-2.025.93-.855.075-1.575.285-2.07.675-.465.375-.66.96-.66 1.605 0 1.44 1.2 2.265 2.535 2.265zm.27-1.38c-.69-.045-1.08-.465-1.08-.99 0-.585.48-.9 1.305-.975.735-.06 1.41-.165 1.74-.345l-.015.675c-.03 1.185-1.125 1.68-1.95 1.635zm7.6079 1.38c.795 0 1.68-.345 2.22-1.035v.885h1.665v-5.07c0-1.485-1.065-2.61-2.97-2.61-1.83 0-3.045 1.185-3.18 2.685l1.68-.015c.075-.555.525-1.215 1.575-1.215.765 0 1.23.42 1.23.9 0 .78-1.065.84-2.025.93-.855.075-1.575.285-2.07.675-.465.375-.66.96-.66 1.605 0 1.44 1.2 2.265 2.535 2.265zm.27-1.38c-.69-.045-1.08-.465-1.08-.99 0-.585.48-.9 1.305-.975.735-.06 1.41-.165 1.74-.345l-.015.675c-.03 1.185-1.125 1.68-1.95 1.635zm9.4529 1.335c2.25 0 3.885-1.2 3.885-3.12 0-1.515-.885-2.745-3.9-3.09-1.29-.15-2.13-.645-2.13-1.47 0-.66.63-1.395 1.86-1.395 1.14 0 2.1.615 2.175 1.71h1.77c-.09-2.07-1.56-3.33-3.93-3.33-2.175 0-3.75 1.38-3.75 3.075 0 1.41 1.035 2.685 4.11 3.015 1.425.15 1.92.675 1.92 1.47 0 .75-.705 1.575-2.01 1.575-1.365 0-2.19-.675-2.445-1.785h-1.86c.165 2.25 2.22 3.345 4.305 3.345z" fill="#000"/><g stroke-linejoin="round"><path clip-rule="evenodd" d="m296 178c1.657 0 3-1.343 3-3s-1.343-3-3-3-3 1.343-3 3 1.343 3 3 3z" fill-rule="evenodd" stroke="#000" stroke-linecap="round" stroke-width="1.5"/><path clip-rule="evenodd" d="m303.4 178c-.272.617-.142 1.338.33 1.82l.06.06c.376.375.587.884.587 1.415s-.211 1.04-.587 1.415c-.375.376-.884.587-1.415.587s-1.04-.211-1.415-.587l-.06-.06c-.482-.472-1.203-.602-1.82-.33-.604.259-.997.852-1 1.51v.17c0 1.105-.895 2-2 2s-2-.895-2-2v-.09c-.016-.677-.444-1.276-1.08-1.51-.617-.272-1.338-.142-1.82.33l-.06.06c-.375.376-.884.587-1.415.587s-1.04-.211-1.415-.587c-.376-.375-.587-.884-.587-1.415s.211-1.04.587-1.415l.06-.06c.472-.482.602-1.203.33-1.82-.259-.604-.852-.997-1.51-1h-.17c-1.105 0-2-.895-2-2s.895-2 2-2h.09c.677-.016 1.276-.444 1.51-1.08.272-.617.142-1.338-.33-1.82l-.06-.06c-.376-.375-.587-.884-.587-1.415s.211-1.04.587-1.415c.375-.376.884-.587 1.415-.587s1.04.211 1.415.587l.06.06c.482.472 1.203.602 1.82.33h.08c.604-.259.997-.852 1-1.51v-.17c0-1.105.895-2 2-2s2 .895 2 2v.09c.003.658.396 1.251 1 1.51.617.272 1.338.142 1.82-.33l.06-.06c.375-.376.884-.587 1.415-.587s1.04.211 1.415.587c.376.375.587.884.587 1.415s-.211 1.04-.587 1.415l-.06.06c-.472.482-.602 1.203-.33 1.82v.08c.259.604.852.997 1.51 1h.17c1.105 0 2 .895 2 2s-.895 2-2 2h-.09c-.658.003-1.251.396-1.51 1z" fill-rule="evenodd" stroke="#000" stroke-linecap="round" stroke-width="1.5"/><path clip-rule="evenodd" d="m136 166c0-1.105.895-2 2-2h16c1.105 0 2 .895 2 2v10c0 1.105-.895 2-2 2h-16c-1.105 0-2-.895-2-2z" fill-rule="evenodd" stroke="#000" stroke-linecap="round" stroke-width="1.5"/><path d="m150 178v-16c0-1.105-.895-2-2-2h-4c-1.105 0-2 .895-2 2v16" stroke="#000" stroke-linecap="round" stroke-width="1.5"/><path clip-rule="evenodd" d="m424 166c0-1.105.895-2 2-2h16c1.105 0 2 .895 2 2v10c0 1.105-.895 2-2 2h-16c-1.105 0-2-.895-2-2z" fill-rule="evenodd" stroke="#000" stroke-linecap="round" stroke-width="1.5"/><path d="m438 178v-16c0-1.105-.895-2-2-2h-4c-1.105 0-2 .895-2 2v16" stroke="#000" stroke-linecap="round" stroke-width="1.5"/><path clip-rule="evenodd" d="m442 15h-8c-1.105 0-2 .8954-2 2v16c0 1.1046.895 2 2 2h12c1.105 0 2-.8954 2-2v-12z" fill-rule="evenodd" stroke="#000" stroke-linecap="round" stroke-width="1.5"/><path d="m442 15v6h6" stroke="#000" stroke-linecap="round" stroke-width="1.5"/><path d="m444 26h-8" stroke="#000" stroke-linecap="round" stroke-width="1.5"/><path d="m444 30h-8" stroke="#000" stroke-linecap="round" stroke-width="1.5"/><path d="m438 22h-1-1" stroke="#000" stroke-linecap="round" stroke-width="1.5"/><path clip-rule="evenodd" d="m154 15h-8c-1.105 0-2 .8954-2 2v16c0 1.1046.895 2 2 2h12c1.105 0 2-.8954 2-2v-12z" fill-rule="evenodd" stroke="#000" stroke-linecap="round" stroke-width="1.5"/><path d="m154 15v6h6" stroke="#000" stroke-linecap="round" stroke-width="1.5"/><path d="m156 26h-8" stroke="#000" stroke-linecap="round" stroke-width="1.5"/><path d="m156 30h-8" stroke="#000" stroke-linecap="round" stroke-width="1.5"/><path d="m150 22h-1-1" stroke="#000" stroke-linecap="round" stroke-width="1.5"/><path clip-rule="evenodd" d="m47 85c0-1.1046.8954-2 2-2h14c1.1046 0 2 .8954 2 2v7c0 1.1046-.8954 2-2 2h-14c-1.1046 0-2-.8954-2-2z" fill-rule="evenodd" stroke="#fff" stroke-linecap="round" stroke-width="1.5"/><path d="m51 83v-4c0-2.7614 2.2386-5 5-5s5 2.2386 5 5v4" stroke="#fff" stroke-linecap="round" stroke-width="1.5"/><path clip-rule="evenodd" d="m527 85c0-1.1046.895-2 2-2h14c1.105 0 2 .8954 2 2v7c0 1.1046-.895 2-2 2h-14c-1.105 0-2-.8954-2-2z" fill-rule="evenodd" stroke="#fff" stroke-linecap="round" stroke-width="1.5"/><path d="m531 83v-4c0-2.7614 2.239-5 5-5s5 2.2386 5 5v4" stroke="#fff" stroke-linecap="round" stroke-width="1.5"/></g><rect fill="#ffec6e" height="22" rx="2" width="22" x="149" y="169"/><rect fill="#ffec6e" height="22" rx="2" width="22" x="437" y="169"/><path d="m443.5 180.5c0-.552.448-1 1-1h7c.552 0 1 .448 1 1v4c0 .552-.448 1-1 1h-7c-.552 0-1-.448-1-1z" style="fill-rule:evenodd;clip-rule:evenodd;stroke:#000;stroke-width:1.25;stroke-linecap:round;stroke-linejoin:round"/><path d="m445.5 179.5v-2c0-1.381 1.119-2.5 2.5-2.5s2.5 1.119 2.5 2.5v2" stroke="#000" stroke-linecap="round" stroke-linejoin="round" stroke-width="1.25"/><path d="m155.5 180.5c0-.552.448-1 1-1h7c.552 0 1 .448 1 1v4c0 .552-.448 1-1 1h-7c-.552 0-1-.448-1-1z" style="fill-rule:evenodd;clip-rule:evenodd;stroke:#000;stroke-width:1.25;stroke-linecap:round;stroke-linejoin:round"/><path d="m157.5 179.5v-2c0-1.381 1.119-2.5 2.5-2.5s2.5 1.119 2.5 2.5v2" stroke="#000" stroke-linecap="round" stroke-linejoin="round" stroke-width="1.25"/><path d="m267.525 337h5.967v-1.391h-4.576v-2.548h4.303v-1.339h-4.303v-2.431h4.576v-1.391h-5.967zm7.371 0h1.378v-3.276c0-1.339.767-2.158 1.625-2.158.728 0 1.287.455 1.287 1.599v3.835h1.495v-3.991c0-2.197-1.56-2.678-2.457-2.678-1.053 0-1.703.637-1.95.988v-.819h-1.378zm10.241.091c1.521 0 2.73-.975 2.912-2.366h-1.456c-.117.585-.598 1.144-1.43 1.144-.936 0-1.677-.819-1.677-2.21 0-1.326.741-2.106 1.651-2.106.819 0 1.313.559 1.456 1.144h1.456c-.169-1.365-1.352-2.327-2.86-2.327-1.859 0-3.172 1.404-3.172 3.38 0 1.963 1.287 3.341 3.12 3.341zm4.328-.091h1.339v-3.289c0-1.599 1.014-1.885 1.898-1.872h.221v-1.443h-.299c-1.235 0-1.69.65-1.82.897v-.793h-1.339zm4.343 2.6h.767c1.105 0 1.846-.598 2.327-1.807l2.808-7.293h-1.495l-1.625 4.446-1.755-4.446h-1.495l2.535 6.097-.299.832c-.234.611-.611.91-1.144.91h-.637zm6.913 0h1.313v-3.523c.351.481 1.014.988 2.106.988 1.443 0 2.938-1.144 2.938-3.354 0-2.249-1.612-3.354-2.977-3.354-1.144 0-1.885.689-2.067 1.04v-.897h-1.313zm3.12-3.796c-1.053 0-1.794-.884-1.794-2.132 0-1.183.741-2.028 1.794-2.028 1.04 0 1.768.897 1.768 2.158 0 1.17-.728 2.002-1.768 2.002zm6.454 1.196h1.235l.013-1.222h-.884c-.624 0-.793-.208-.793-.858v-3.25h1.664v-1.17h-1.664v-2.08h-1.352v2.08h-1.014v1.17h1.014v3.601c0 1.014.741 1.729 1.781 1.729zm4.931.143c1.56 0 2.6-.923 2.795-2.197h-1.3c-.299.858-1.079 1.001-1.495 1.001-1.027 0-1.703-.65-1.703-1.716v-.013h4.602c.156-2.145-.936-3.796-2.938-3.796-1.846 0-3.094 1.365-3.094 3.38 0 2.093 1.235 3.341 3.133 3.341zm-1.664-4.134c.052-.819.715-1.391 1.586-1.391s1.482.572 1.521 1.391zm8.5 4.134c1.144 0 1.885-.689 2.067-1.04v.897h1.313v-9.1h-1.313v3.523c-.351-.481-1.014-.988-2.106-.988-1.443 0-2.938 1.144-2.938 3.354 0 2.249 1.612 3.354 2.977 3.354zm.26-1.287c-1.04 0-1.768-.897-1.768-2.158 0-1.17.728-2.002 1.768-2.002 1.053 0 1.794.884 1.794 2.132 0 1.183-.741 2.028-1.794 2.028zm-38.319 18.17 3.393-.026c2.379-.013 4.199-1.924 4.199-4.615 0-2.652-1.872-4.537-4.329-4.511l-3.263.026zm1.352-1.378v-6.331l1.911-.026c1.612-.026 2.886 1.235 2.886 3.146 0 1.898-1.3 3.159-2.938 3.185zm9.512 1.482c.689 0 1.456-.299 1.924-.897v.767h1.443v-4.394c0-1.287-.923-2.262-2.574-2.262-1.586 0-2.639 1.027-2.756 2.327l1.456-.013c.065-.481.455-1.053 1.365-1.053.663 0 1.066.364 1.066.78 0 .676-.923.728-1.755.806-.741.065-1.365.247-1.794.585-.403.325-.572.832-.572 1.391 0 1.248 1.04 1.963 2.197 1.963zm.234-1.196c-.598-.039-.936-.403-.936-.858 0-.507.416-.78 1.131-.845.637-.052 1.222-.143 1.508-.299l-.013.585c-.026 1.027-.975 1.456-1.69 1.417zm6.672 1.066h1.235l.013-1.222h-.884c-.624 0-.793-.208-.793-.858v-3.25h1.664v-1.17h-1.664v-2.08h-1.352v2.08h-1.014v1.17h1.014v3.601c0 1.014.741 1.729 1.781 1.729zm4.121.13c.689 0 1.456-.299 1.924-.897v.767h1.443v-4.394c0-1.287-.923-2.262-2.574-2.262-1.586 0-2.639 1.027-2.756 2.327l1.456-.013c.065-.481.455-1.053 1.365-1.053.663 0 1.066.364 1.066.78 0 .676-.923.728-1.755.806-.741.065-1.365.247-1.794.585-.403.325-.572.832-.572 1.391 0 1.248 1.04 1.963 2.197 1.963zm.234-1.196c-.598-.039-.936-.403-.936-.858 0-.507.416-.78 1.131-.845.637-.052 1.222-.143 1.508-.299l-.013.585c-.026 1.027-.975 1.456-1.69 1.417z" fill="#000"/><path d="m281 294c0-1.105.895-2 2-2h16c1.105 0 2 .895 2 2v10c0 1.105-.895 2-2 2h-16c-1.105 0-2-.895-2-2z" style="fill-rule:evenodd;clip-rule:evenodd;stroke:#000;stroke-width:1.5;stroke-linecap:round;stroke-linejoin:round"/><path d="m295 306v-16c0-1.105-.895-2-2-2h-4c-1.105 0-2 .895-2 2v16" stroke="#000" stroke-linecap="round" stroke-linejoin="round" stroke-width="1.5"/><rect fill="#ffec6e" height="22" rx="2" width="22" x="294" y="297"/><path d="m300.5 308.5c0-.552.448-1 1-1h7c.552 0 1 .448 1 1v4c0 .552-.448 1-1 1h-7c-.552 0-1-.448-1-1z" style="fill-rule:evenodd;clip-rule:evenodd;stroke:#000;stroke-width:1.25;stroke-linecap:round;stroke-linejoin:round"/><path d="m302.5 307.5v-2c0-1.381 1.119-2.5 2.5-2.5s2.5 1.119 2.5 2.5v2" stroke="#000" stroke-linecap="round" stroke-linejoin="round" stroke-width="1.25"/><path d="m170 25h92" stroke="#343536" stroke-width="2"/><path d="m172 25h-4" stroke="#343536" stroke-width="2"/><path d="m263.7 25.0004-8.7-5.1v10.2z" fill="#343536"/><path d="m414 172h-73" stroke="#343536" stroke-width="2"/><path d="m412 172h4" stroke="#343536" stroke-width="2"/><path d="m339.3 172 8.7 5.1v-10.2z" fill="#343536"/><path d="m330 25h92" stroke="#343536" stroke-width="2"/><path d="m332 25h-4" stroke="#343536" stroke-width="2"/><path d="m420 25h4" stroke="#343536" stroke-width="2"/><path d="m251 172h-72" stroke="#343536" stroke-width="2"/><path d="m249 172h4" stroke="#343536" stroke-width="2"/><path d="m181 172h-4" stroke="#343536" stroke-width="2"/><path d="m56 50v-17c0-4.4183 3.5817-8 8-8h70" stroke="#343536" stroke-linejoin="round" stroke-width="2"/><path d="m132 25h4" stroke="#343536" stroke-width="2"/><path d="m56 48v4" stroke="#343536" stroke-width="2"/><path d="m536 147v17c0 4.418-3.582 8-8 8h-61" stroke="#343536" stroke-linejoin="round" stroke-width="2"/><path d="m469 172h-4" stroke="#343536" stroke-width="2"/><path d="m536 149v-4" stroke="#343536" stroke-width="2"/><path d="m536 50v-17c0-4.4183-3.582-8-8-8h-70" stroke="#343536" stroke-linejoin="round" stroke-width="2"/><path d="m0-1h4" stroke="#343536" stroke-width="2" transform="matrix(-1 .00000014 .00000014 1 460 26)"/><path d="m536 51.7-5.1-8.7h10.2z" fill="#343536"/><path d="m56 147v17c0 4.418 3.5817 8 8 8h62" stroke="#343536" stroke-linejoin="round" stroke-width="2"/><path d="m0-1h4" stroke="#343536" stroke-width="2" transform="matrix(1 -.00000006 -.00000006 -1 124 171)"/><path d="m55.9996 145.3 5.1 8.7h-10.2z" fill="#343536"/><path d="m406.015 55.104c2.236 0 3.692-1.417 3.692-3.653v-5.551h-1.43v5.551c0 1.495-.923 2.314-2.262 2.314-1.365 0-2.262-.819-2.262-2.314v-5.551h-1.43v5.551c0 2.236 1.456 3.653 3.692 3.653zm5.547-.104h1.378v-3.276c0-1.339.767-2.158 1.625-2.158.728 0 1.287.455 1.287 1.599v3.835h1.495v-3.991c0-2.197-1.56-2.678-2.457-2.678-1.053 0-1.703.637-1.95.988v-.819h-1.378zm10.255.143c1.56 0 2.6-.923 2.795-2.197h-1.3c-.299.858-1.079 1.001-1.495 1.001-1.027 0-1.703-.65-1.703-1.716v-.013h4.602c.156-2.145-.936-3.796-2.938-3.796-1.846 0-3.094 1.365-3.094 3.38 0 2.093 1.235 3.341 3.133 3.341zm-1.664-4.134c.052-.819.715-1.391 1.586-1.391s1.482.572 1.521 1.391zm5.978 3.991h1.378v-3.276c0-1.339.767-2.158 1.625-2.158.728 0 1.287.455 1.287 1.599v3.835h1.495v-3.991c0-2.197-1.56-2.678-2.457-2.678-1.053 0-1.703.637-1.95.988v-.819h-1.378zm10.242.091c1.521 0 2.73-.975 2.912-2.366h-1.456c-.117.585-.598 1.144-1.43 1.144-.936 0-1.677-.819-1.677-2.21 0-1.326.741-2.106 1.651-2.106.819 0 1.313.559 1.456 1.144h1.456c-.169-1.365-1.352-2.327-2.86-2.327-1.859 0-3.172 1.404-3.172 3.38 0 1.963 1.287 3.341 3.12 3.341zm4.327-.091h1.339v-3.289c0-1.599 1.014-1.885 1.898-1.872h.221v-1.443h-.299c-1.235 0-1.69.65-1.82.897v-.793h-1.339zm4.344 2.6h.767c1.105 0 1.846-.598 2.327-1.807l2.808-7.293h-1.495l-1.625 4.446-1.755-4.446h-1.495l2.535 6.097-.299.832c-.234.611-.611.91-1.144.91h-.637zm6.912 0h1.313v-3.523c.351.481 1.014.988 2.106.988 1.443 0 2.938-1.144 2.938-3.354 0-2.249-1.612-3.354-2.977-3.354-1.144 0-1.885.689-2.067 1.04v-.897h-1.313zm3.12-3.796c-1.053 0-1.794-.884-1.794-2.132 0-1.183.741-2.028 1.794-2.028 1.04 0 1.768.897 1.768 2.158 0 1.17-.728 2.002-1.768 2.002zm6.454 1.196h1.235l.013-1.222h-.884c-.624 0-.793-.208-.793-.858v-3.25h1.664v-1.17h-1.664v-2.08h-1.352v2.08h-1.014v1.17h1.014v3.601c0 1.014.741 1.729 1.781 1.729zm4.931.143c1.56 0 2.6-.923 2.795-2.197h-1.3c-.299.858-1.079 1.001-1.495 1.001-1.027 0-1.703-.65-1.703-1.716v-.013h4.602c.156-2.145-.936-3.796-2.938-3.796-1.846 0-3.094 1.365-3.094 3.38 0 2.093 1.235 3.341 3.133 3.341zm-1.664-4.134c.052-.819.715-1.391 1.586-1.391s1.482.572 1.521 1.391zm8.501 4.134c1.144 0 1.885-.689 2.067-1.04v.897h1.313v-9.1h-1.313v3.523c-.351-.481-1.014-.988-2.106-.988-1.443 0-2.938 1.144-2.938 3.354 0 2.249 1.612 3.354 2.977 3.354zm.26-1.287c-1.04 0-1.768-.897-1.768-2.158 0-1.17.728-2.002 1.768-2.002 1.053 0 1.794.884 1.794 2.132 0 1.183-.741 2.028-1.794 2.028zm-59.732 18.144.845-2.236h3.471l.858 2.236h1.625l-3.484-9.1h-1.456l-3.484 9.087zm1.235-3.536 1.352-3.783 1.339 3.783zm6.838 6.136h1.313v-3.523c.351.481 1.014.988 2.106.988 1.443 0 2.938-1.144 2.938-3.354 0-2.249-1.612-3.354-2.977-3.354-1.144 0-1.885.689-2.067 1.04v-.897h-1.313zm3.12-3.796c-1.053 0-1.794-.884-1.794-2.132 0-1.183.741-2.028 1.794-2.028 1.04 0 1.768.897 1.768 2.158 0 1.17-.728 2.002-1.768 2.002zm4.634 3.796h1.313v-3.523c.351.481 1.014.988 2.106.988 1.443 0 2.938-1.144 2.938-3.354 0-2.249-1.612-3.354-2.977-3.354-1.144 0-1.885.689-2.067 1.04v-.897h-1.313zm3.12-3.796c-1.053 0-1.794-.884-1.794-2.132 0-1.183.741-2.028 1.794-2.028 1.04 0 1.768.897 1.768 2.158 0 1.17-.728 2.002-1.768 2.002zm8.316 1.222 3.393-.026c2.379-.013 4.199-1.924 4.199-4.615 0-2.652-1.872-4.537-4.329-4.511l-3.263.026zm1.352-1.378v-6.331l1.911-.026c1.612-.026 2.886 1.235 2.886 3.146 0 1.898-1.3 3.159-2.938 3.185zm9.513 1.482c.689 0 1.456-.299 1.924-.897v.767h1.443v-4.394c0-1.287-.923-2.262-2.574-2.262-1.586 0-2.639 1.027-2.756 2.327l1.456-.013c.065-.481.455-1.053 1.365-1.053.663 0 1.066.364 1.066.78 0 .676-.923.728-1.755.806-.741.065-1.365.247-1.794.585-.403.325-.572.832-.572 1.391 0 1.248 1.04 1.963 2.197 1.963zm.234-1.196c-.598-.039-.936-.403-.936-.858 0-.507.416-.78 1.131-.845.637-.052 1.222-.143 1.508-.299l-.013.585c-.026 1.027-.975 1.456-1.69 1.417zm6.671 1.066h1.235l.013-1.222h-.884c-.624 0-.793-.208-.793-.858v-3.25h1.664v-1.17h-1.664v-2.08h-1.352v2.08h-1.014v1.17h1.014v3.601c0 1.014.741 1.729 1.781 1.729zm4.122.13c.689 0 1.456-.299 1.924-.897v.767h1.443v-4.394c0-1.287-.923-2.262-2.574-2.262-1.586 0-2.639 1.027-2.756 2.327l1.456-.013c.065-.481.455-1.053 1.365-1.053.663 0 1.066.364 1.066.78 0 .676-.923.728-1.755.806-.741.065-1.365.247-1.794.585-.403.325-.572.832-.572 1.391 0 1.248 1.04 1.963 2.197 1.963zm.234-1.196c-.598-.039-.936-.403-.936-.858 0-.507.416-.78 1.131-.845.637-.052 1.222-.143 1.508-.299l-.013.585c-.026 1.027-.975 1.456-1.69 1.417z" fill="#000"/><path d="m410.607 209h5.967v-1.391h-4.576v-2.548h4.303v-1.339h-4.303v-2.431h4.576v-1.391h-5.967zm7.37 0h1.378v-3.276c0-1.339.767-2.158 1.625-2.158.728 0 1.287.455 1.287 1.599v3.835h1.495v-3.991c0-2.197-1.56-2.678-2.457-2.678-1.053 0-1.703.637-1.95.988v-.819h-1.378zm10.242.091c1.521 0 2.73-.975 2.912-2.366h-1.456c-.117.585-.598 1.144-1.43 1.144-.936 0-1.677-.819-1.677-2.21 0-1.326.741-2.106 1.651-2.106.819 0 1.313.559 1.456 1.144h1.456c-.169-1.365-1.352-2.327-2.86-2.327-1.859 0-3.172 1.404-3.172 3.38 0 1.963 1.287 3.341 3.12 3.341zm4.327-.091h1.339v-3.289c0-1.599 1.014-1.885 1.898-1.872h.221v-1.443h-.299c-1.235 0-1.69.65-1.82.897v-.793h-1.339zm4.343 2.6h.767c1.105 0 1.846-.598 2.327-1.807l2.808-7.293h-1.495l-1.625 4.446-1.755-4.446h-1.495l2.535 6.097-.299.832c-.234.611-.611.91-1.144.91h-.637zm6.913 0h1.313v-3.523c.351.481 1.014.988 2.106.988 1.443 0 2.938-1.144 2.938-3.354 0-2.249-1.612-3.354-2.977-3.354-1.144 0-1.885.689-2.067 1.04v-.897h-1.313zm3.12-3.796c-1.053 0-1.794-.884-1.794-2.132 0-1.183.741-2.028 1.794-2.028 1.04 0 1.768.897 1.768 2.158 0 1.17-.728 2.002-1.768 2.002zm6.454 1.196h1.235l.013-1.222h-.884c-.624 0-.793-.208-.793-.858v-3.25h1.664v-1.17h-1.664v-2.08h-1.352v2.08h-1.014v1.17h1.014v3.601c0 1.014.741 1.729 1.781 1.729zm4.931.143c1.56 0 2.6-.923 2.795-2.197h-1.3c-.299.858-1.079 1.001-1.495 1.001-1.027 0-1.703-.65-1.703-1.716v-.013h4.602c.156-2.145-.936-3.796-2.938-3.796-1.846 0-3.094 1.365-3.094 3.38 0 2.093 1.235 3.341 3.133 3.341zm-1.664-4.134c.052-.819.715-1.391 1.586-1.391s1.482.572 1.521 1.391zm8.5 4.134c1.144 0 1.885-.689 2.067-1.04v.897h1.313v-9.1h-1.313v3.523c-.351-.481-1.014-.988-2.106-.988-1.443 0-2.938 1.144-2.938 3.354 0 2.249 1.612 3.354 2.977 3.354zm.26-1.287c-1.04 0-1.768-.897-1.768-2.158 0-1.17.728-2.002 1.768-2.002 1.053 0 1.794.884 1.794 2.132 0 1.183-.741 2.028-1.794 2.028zm-51.577 18.144.845-2.236h3.471l.858 2.236h1.625l-3.484-9.1h-1.456l-3.484 9.087zm1.235-3.536 1.352-3.783 1.339 3.783zm6.838 6.136h1.313v-3.523c.351.481 1.014.988 2.106.988 1.443 0 2.938-1.144 2.938-3.354 0-2.249-1.612-3.354-2.977-3.354-1.144 0-1.885.689-2.067 1.04v-.897h-1.313zm3.12-3.796c-1.053 0-1.794-.884-1.794-2.132 0-1.183.741-2.028 1.794-2.028 1.04 0 1.768.897 1.768 2.158 0 1.17-.728 2.002-1.768 2.002zm4.634 3.796h1.313v-3.523c.351.481 1.014.988 2.106.988 1.443 0 2.938-1.144 2.938-3.354 0-2.249-1.612-3.354-2.977-3.354-1.144 0-1.885.689-2.067 1.04v-.897h-1.313zm3.12-3.796c-1.053 0-1.794-.884-1.794-2.132 0-1.183.741-2.028 1.794-2.028 1.04 0 1.768.897 1.768 2.158 0 1.17-.728 2.002-1.768 2.002zm8.316 1.222 3.393-.026c2.379-.013 4.199-1.924 4.199-4.615 0-2.652-1.872-4.537-4.329-4.511l-3.263.026zm1.352-1.378v-6.331l1.911-.026c1.612-.026 2.886 1.235 2.886 3.146 0 1.898-1.3 3.159-2.938 3.185zm9.513 1.482c.689 0 1.456-.299 1.924-.897v.767h1.443v-4.394c0-1.287-.923-2.262-2.574-2.262-1.586 0-2.639 1.027-2.756 2.327l1.456-.013c.065-.481.455-1.053 1.365-1.053.663 0 1.066.364 1.066.78 0 .676-.923.728-1.755.806-.741.065-1.365.247-1.794.585-.403.325-.572.832-.572 1.391 0 1.248 1.04 1.963 2.197 1.963zm.234-1.196c-.598-.039-.936-.403-.936-.858 0-.507.416-.78 1.131-.845.637-.052 1.222-.143 1.508-.299l-.013.585c-.026 1.027-.975 1.456-1.69 1.417zm6.671 1.066h1.235l.013-1.222h-.884c-.624 0-.793-.208-.793-.858v-3.25h1.664v-1.17h-1.664v-2.08h-1.352v2.08h-1.014v1.17h1.014v3.601c0 1.014.741 1.729 1.781 1.729zm4.122.13c.689 0 1.456-.299 1.924-.897v.767h1.443v-4.394c0-1.287-.923-2.262-2.574-2.262-1.586 0-2.639 1.027-2.756 2.327l1.456-.013c.065-.481.455-1.053 1.365-1.053.663 0 1.066.364 1.066.78 0 .676-.923.728-1.755.806-.741.065-1.365.247-1.794.585-.403.325-.572.832-.572 1.391 0 1.248 1.04 1.963 2.197 1.963zm.234-1.196c-.598-.039-.936-.403-.936-.858 0-.507.416-.78 1.131-.845.637-.052 1.222-.143 1.508-.299l-.013.585c-.026 1.027-.975 1.456-1.69 1.417z" fill="#000"/><path d="m296 235v44" stroke="#343536" stroke-width="2"/><path d="m296 233.3-5.1 8.7h10.2z" fill="#343536"/><path d="m296 280.7 5.1-8.7h-10.2z" fill="#343536"/><path d="m326 299h79" stroke="#343536" stroke-width="2"/><path d="m324.3 299 8.7 5.1v-10.2z" fill="#343536"/><path d="m406.7 299-8.7-5.1v10.2z" fill="#343536"/><path d="m181 299h88" stroke="#343536" stroke-width="2"/><path d="m179.3 299 8.7 5.1v-10.2z" fill="#343536"/><path d="m270.7 299-8.7-5.1v10.2z" fill="#343536"/><path d="m439 297c4.971 0 9-1.791 9-4s-4.029-4-9-4-9 1.791-9 4 4.029 4 9 4z" stroke="#000" stroke-miterlimit="10" stroke-width="1.5"/><path d="m430 293v12.8c0 2.2 4 4 9 4s9-1.8 9-4v-12.8" stroke="#000" stroke-linecap="round" stroke-miterlimit="10" stroke-width="1.5"/><path d="m448 299.3c0 2.2-4 4-9 4s-9-1.8-9-4" stroke="#000" stroke-linecap="round" stroke-miterlimit="10" stroke-width="1.5"/><path d="m129.033 279.812 22.884 45.938 23.05-45.938zm25.609 9.217h2.662v2.667h-2.662zm-5.305 10.654h-2.662v-2.662h2.662zm0-3.995h-2.662v-2.663h2.662zm0-3.992h-2.662v-2.667h2.662zm3.996 11.983h-2.666v-2.679h2.666zm0-3.996h-2.666v-2.662h2.666zm0-3.995h-2.666v-2.663h2.666zm0-3.992h-2.666v-2.667h2.666zm1.309 1.329h2.662v2.663h-2.662zm0 6.667v-2.671h2.662v2.662z" fill="#000"/></svg>