<svg fill="none" height="320" viewBox="0 0 592 320" width="592" xmlns="http://www.w3.org/2000/svg" xmlns:xlink="http://www.w3.org/1999/xlink"><clipPath id="a"><path d="m182 251h19.5v22.3h-19.5z"/></clipPath><path d="m0 0h592v320h-592z" fill="#fff"/><rect fill="#fff" height="46" rx="2" transform="matrix(-1 0 0 1 319 239)" width="46"/><rect height="47.5" rx="2.75" stroke="#000" stroke-opacity=".16" stroke-width="1.5" transform="matrix(-1 0 0 1 320.5 239)" width="47.5" x=".75" y="-.75"/><rect fill="#fff" height="46" rx="2" transform="matrix(-1 0 0 1 319 26)" width="46"/><rect height="47.5" rx="2.75" stroke="#000" stroke-opacity=".16" stroke-width="1.5" transform="matrix(-1 0 0 1 320.5 26)" width="47.5" x=".75" y="-.75"/><path d="m295.673 274.365c-6.99 0-12.683-5.693-12.683-12.683 0-6.989 5.693-12.682 12.683-12.682 3.193 0 6.225 1.18 8.586 3.356l-3.009 3.147c-1.527-1.388-3.518-2.152-5.577-2.152-4.583 0-8.332 3.726-8.332 8.331 0 4.606 3.726 8.332 8.332 8.332 2.059 0 4.05-.764 5.577-2.152l3.009 3.147c-2.361 2.153-5.416 3.356-8.586 3.356z" fill="#dc477d"/><path d="m305.877 268.023c-.578 0-1.041-.463-1.041-1.041 0-.579.463-1.042 1.041-1.042.579 0 1.042.463 1.042 1.042 0 .578-.486 1.041-1.042 1.041z" fill="#dc477d"/><path d="m295.58 264.413c-1.504 0-2.754-1.226-2.754-2.754 0-1.504 1.227-2.754 2.754-2.754 1.528 0 2.754 1.227 2.754 2.754 0 1.528-1.226 2.754-2.754 2.754z" fill="#dc477d"/><path d="m307.059 264.46c-.579 0-1.041-.463-1.041-1.042 0-.578.462-1.041 1.041-1.041s1.041.463 1.041 1.041c0 .579-.462 1.042-1.041 1.042z" fill="#dc477d"/><path d="m303.982 264.344c-.579 0-1.042-.463-1.042-1.042 0-.578.463-1.041 1.042-1.041.578 0 1.041.463 1.041 1.041 0 .579-.486 1.042-1.041 1.042z" fill="#dc477d"/><path d="m307.059 260.965c-.579 0-1.041-.463-1.041-1.042 0-.578.462-1.041 1.041-1.041s1.041.463 1.041 1.041c0 .579-.462 1.042-1.041 1.042z" fill="#dc477d"/><path d="m303.982 261.081c-.579 0-1.042-.463-1.042-1.042 0-.578.463-1.041 1.042-1.041.578 0 1.041.463 1.041 1.041 0 .579-.486 1.042-1.041 1.042z" fill="#dc477d"/><path d="m305.924 257.471c-.578 0-1.041-.463-1.041-1.042 0-.578.463-1.041 1.041-1.041.579 0 1.042.463 1.042 1.041 0 .579-.463 1.042-1.042 1.042z" fill="#dc477d"/><rect fill="#fff" height="46" rx="2" transform="matrix(-1 0 0 1 215 239)" width="46"/><rect height="47.5" rx="2.75" stroke="#000" stroke-opacity=".16" stroke-width="1.5" transform="matrix(-1 0 0 1 216.5 239)" width="47.5" x=".75" y="-.75"/><rect fill="#fff" height="46" rx="2" transform="matrix(-1 0 0 1 215 26)" width="46"/><rect height="47.5" rx="2.75" stroke="#000" stroke-opacity=".16" stroke-width="1.5" transform="matrix(-1 0 0 1 216.5 26)" width="47.5" x=".75" y="-.75"/><rect fill="#fff" height="46" rx="2" transform="matrix(-1 0 0 1 423 239)" width="46"/><rect height="47.5" rx="2.75" stroke="#000" stroke-opacity=".16" stroke-width="1.5" transform="matrix(-1 0 0 1 424.5 239)" width="47.5" x=".75" y="-.75"/><rect fill="#fff" height="46" rx="2" transform="matrix(-1 0 0 1 423 26)" width="46"/><rect height="47.5" rx="2.75" stroke="#000" stroke-opacity=".16" stroke-width="1.5" transform="matrix(-1 0 0 1 424.5 26)" width="47.5" x=".75" y="-.75"/><g clip-path="url(#a)" stroke="#000" stroke-miterlimit="10" stroke-width="1.5"><path d="m191.8 259.8c4.97 0 9-1.791 9-4s-4.03-4-9-4c-4.971 0-9 1.791-9 4s4.029 4 9 4z"/><g stroke-linecap="round"><path d="m182.8 255.8v12.8c0 2.2 4 4 9 4s9-1.8 9-4v-12.8"/><path d="m200.8 262.1c0 2.2-4 4-9 4s-9-1.8-9-4"/></g></g><path d="m393 260.944c0 .396.043.718.118.954.085.236.191.493.34.772.054.086.075.172.075.247 0 .107-.064.214-.202.321l-.671.451c-.096.064-.192.096-.277.096-.107 0-.213-.053-.32-.15-.149-.161-.277-.332-.383-.504-.107-.182-.213-.386-.331-.633-.83.987-1.874 1.48-3.131 1.48-.895 0-1.608-.257-2.13-.772s-.788-1.201-.788-2.059c0-.911.319-1.651.969-2.209.65-.557 1.512-.836 2.609-.836.363 0 .735.032 1.129.086.395.053.799.139 1.225.236v-.783c0-.815-.17-1.383-.5-1.716-.341-.332-.916-.493-1.736-.493-.373 0-.757.043-1.151.139-.394.097-.777.215-1.15.365-.17.075-.298.118-.373.139-.074.022-.128.032-.17.032-.149 0-.224-.107-.224-.332v-.525c0-.172.022-.301.075-.376s.149-.15.298-.225c.373-.193.82-.354 1.342-.482.522-.14 1.076-.204 1.662-.204 1.267 0 2.194.289 2.79.868.586.579.884 1.459.884 2.638v3.475zm-4.324 1.629c.352 0 .714-.064 1.097-.193.384-.128.724-.364 1.012-.686.17-.204.298-.429.362-.686s.107-.568.107-.933v-.45c-.309-.075-.639-.14-.98-.183s-.671-.064-1.001-.064c-.714 0-1.236.139-1.587.429-.352.289-.522.697-.522 1.233 0 .504.128.879.394 1.137.255.268.628.396 1.118.396zm8.553 1.159c-.192 0-.32-.033-.405-.108-.085-.064-.16-.214-.224-.418l-2.503-8.289c-.064-.214-.095-.354-.095-.429 0-.171.085-.268.255-.268h1.044c.202 0 .341.032.415.107.086.065.149.215.213.419l1.79 7.098 1.661-7.098c.053-.215.117-.354.203-.419.085-.064.234-.107.426-.107h.852c.202 0 .34.032.426.107.085.065.159.215.202.419l1.683 7.184 1.842-7.184c.064-.215.139-.354.214-.419.085-.064.223-.107.415-.107h.99c.171 0 .267.086.267.268 0 .054-.011.108-.022.172-.01.064-.032.15-.074.268l-2.567 8.289c-.064.214-.138.354-.224.418-.085.064-.223.107-.404.107h-.916c-.203 0-.341-.032-.426-.107-.086-.075-.16-.214-.203-.429l-1.651-6.916-1.64 6.905c-.053.215-.117.354-.202.429s-.235.108-.426.108zm13.686.289c-.554 0-1.108-.064-1.64-.193-.533-.129-.948-.268-1.225-.429-.17-.096-.288-.204-.33-.3-.043-.097-.064-.204-.064-.3v-.547c0-.225.085-.333.245-.333.064 0 .128.011.192.033.063.021.159.064.266.107.362.161.756.289 1.171.375.426.086.842.129 1.268.129.671 0 1.193-.118 1.555-.354s.554-.579.554-1.019c0-.3-.096-.547-.288-.75-.192-.204-.554-.386-1.076-.558l-1.544-.483c-.777-.246-1.353-.611-1.704-1.093-.352-.472-.533-.998-.533-1.555 0-.451.096-.847.288-1.19.192-.344.447-.644.767-.88.319-.246.681-.429 1.108-.557.426-.129.873-.183 1.342-.183.234 0 .479.011.713.043.245.032.469.075.692.118.213.054.416.107.608.172.191.064.34.128.447.193.149.086.255.171.319.268.064.086.096.204.096.354v.504c0 .225-.085.343-.245.343-.085 0-.223-.043-.404-.129-.608-.279-1.289-.418-2.045-.418-.607 0-1.087.097-1.417.3-.33.204-.501.515-.501.955 0 .3.107.557.32.761s.607.407 1.172.59l1.512.482c.767.247 1.321.59 1.651 1.03.33.439.49.943.49 1.501 0 .461-.096.879-.277 1.244-.192.364-.447.686-.778.943-.33.268-.724.462-1.182.601-.479.15-.98.225-1.523.225z" fill="#252f3e"/><path clip-rule="evenodd" d="m412.928 269.232c-3.504 2.606-8.595 3.989-12.973 3.989-6.135 0-11.662-2.284-15.838-6.08-.33-.3-.031-.708.363-.472 4.516 2.638 10.086 4.236 15.848 4.236 3.888 0 8.159-.815 12.089-2.488.586-.268 1.086.386.511.815z" fill="#f90" fill-rule="evenodd"/><path clip-rule="evenodd" d="m414.387 267.56c-.448-.58-2.961-.279-4.101-.14-.341.043-.394-.257-.085-.482 2.002-1.416 5.293-1.008 5.677-.537.383.483-.107 3.796-1.981 5.383-.288.247-.565.118-.437-.203.426-1.062 1.374-3.453.927-4.021z" fill="#f90" fill-rule="evenodd"/><circle cx="189" cy="72" fill="#fff" r="13.4167" stroke="#000" stroke-width="1.16667"/><circle cx="397" cy="72" fill="#fff" r="13.4167" stroke="#000" stroke-width="1.16667"/><circle cx="195" cy="72" fill="#fff" r="13.4167" stroke="#000" stroke-width="1.16667"/><circle cx="296" cy="72" fill="#fff" r="13.4167" stroke="#000" stroke-width="1.16667"/><circle cx="403" cy="72" fill="#fff" r="13.4167" stroke="#000" stroke-width="1.16667"/><path d="m198.993 77.8333-1.878-1.878h-1.252l-2.623-2.623-.244.0438c-.254.0489-.512.074-.77.0751-.836 0-1.653-.2478-2.348-.7121s-1.237-1.1243-1.556-1.8964c-.32-.7721-.404-1.6218-.241-2.4415s.566-1.5726 1.157-2.1635c.591-.591 1.344-.9935 2.163-1.1565.82-.1631 1.67-.0794 2.442.2405.772.3198 1.432.8614 1.896 1.5563s.712 1.5119.712 2.3476c-.001.2585-.026.5162-.075.77l-.044.2442 4.501 4.501v3.0925z" stroke="#000" stroke-miterlimit="10" stroke-width=".939024"/><path d="m192.225 70.947c.951 0 1.722-.7708 1.722-1.7215 0-.9508-.771-1.7216-1.722-1.7216-.95 0-1.721.7708-1.721 1.7216 0 .9507.771 1.7215 1.721 1.7215z" stroke="#000" stroke-miterlimit="10" stroke-width=".939024"/><path d="m299.993 77.8333-1.878-1.878h-1.252l-2.623-2.623-.244.0438c-.254.0489-.512.074-.77.0751-.836 0-1.653-.2478-2.348-.7121s-1.237-1.1243-1.556-1.8964c-.32-.7721-.404-1.6218-.241-2.4415s.566-1.5726 1.157-2.1635c.591-.591 1.344-.9935 2.163-1.1565.82-.1631 1.67-.0794 2.442.2405.772.3198 1.432.8614 1.896 1.5563s.712 1.5119.712 2.3476c-.001.2585-.026.5162-.075.77l-.044.2442 4.501 4.501v3.0925z" stroke="#000" stroke-miterlimit="10" stroke-width=".939024"/><path d="m293.225 70.947c.951 0 1.722-.7708 1.722-1.7215 0-.9508-.771-1.7216-1.722-1.7216-.95 0-1.721.7708-1.721 1.7216 0 .9507.771 1.7215 1.721 1.7215z" stroke="#000" stroke-miterlimit="10" stroke-width=".939024"/><path d="m406.993 77.8333-1.878-1.878h-1.252l-2.623-2.623-.244.0438c-.254.0489-.512.074-.77.0751-.836 0-1.653-.2478-2.348-.7121s-1.237-1.1243-1.556-1.8964c-.32-.7721-.404-1.6218-.241-2.4415s.566-1.5726 1.157-2.1635c.591-.591 1.344-.9935 2.163-1.1565.82-.1631 1.67-.0794 2.442.2405.772.3198 1.432.8614 1.896 1.5563s.712 1.5119.712 2.3476c-.001.2585-.026.5162-.075.77l-.044.2442 4.501 4.501v3.0925z" stroke="#000" stroke-miterlimit="10" stroke-width=".939024"/><path d="m400.225 70.947c.951 0 1.722-.7708 1.722-1.7215 0-.9508-.771-1.7216-1.722-1.7216-.95 0-1.721.7708-1.721 1.7216 0 .9507.771 1.7215 1.721 1.7215z" stroke="#000" stroke-miterlimit="10" stroke-width=".939024"/><g stroke="#343536" stroke-width="2"><path d="m0-1h132" transform="matrix(-.00000005 1 1 .00000004 193 96)"/><path d="m192 96c-1.657 0-3 1.3431-3 3 0 1.657 1.343 3 3 3s3-1.343 3-3c0-1.6569-1.343-3-3-3z" fill="#fff" stroke-linecap="round" stroke-linejoin="round"/><path d="m192 228c1.657 0 3-1.343 3-3s-1.343-3-3-3-3 1.343-3 3 1.343 3 3 3z" fill="#fff" stroke-linecap="round" stroke-linejoin="round"/><path d="m0-1h132" transform="matrix(-.00000005 1 1 .00000004 401 96)"/><path d="m400 96c-1.657 0-3 1.3431-3 3 0 1.657 1.343 3 3 3s3-1.343 3-3c0-1.6569-1.343-3-3-3z" fill="#fff" stroke-linecap="round" stroke-linejoin="round"/><path d="m400 228c1.657 0 3-1.343 3-3s-1.343-3-3-3-3 1.343-3 3 1.343 3 3 3z" fill="#fff" stroke-linecap="round" stroke-linejoin="round"/><path d="m0-1h132" transform="matrix(-.00000005 1 1 .00000004 297 96)"/><path d="m296 96c-1.657 0-3 1.3431-3 3 0 1.657 1.343 3 3 3s3-1.343 3-3c0-1.6569-1.343-3-3-3z" fill="#fff" stroke-linecap="round" stroke-linejoin="round"/><path d="m296 228c1.657 0 3-1.343 3-3s-1.343-3-3-3-3 1.343-3 3 1.343 3 3 3z" fill="#fff" stroke-linecap="round" stroke-linejoin="round"/><path d="m296 207v-33c0-6.627 5.373-12 12-12h40" stroke-linejoin="round"/><path d="m400 117v33c0 6.627-5.373 12-12 12h-40" stroke-linejoin="round"/><path d="m400 119v-4"/><path d="m0-1h4" transform="matrix(-.00000002 1 1 .00000008 297 205)"/><path d="m296 207v-33c0-6.627-5.373-12-12-12h-40" stroke-linejoin="round"/><path d="m192 117v33c0 6.627 5.373 12 12 12h40" stroke-linejoin="round"/><path d="m0-1h4" transform="matrix(-.00000011 -1 -1 .00000017 191 119)"/><path d="m296 205v4"/></g></svg>