<svg fill="none" height="329" viewBox="0 0 592 329" width="592" xmlns="http://www.w3.org/2000/svg"><path d="m0 9h592v320h-592z" fill="#fff"/><rect fill="#fff" height="296" rx="1" width="230" x="315" y="20"/><rect height="297.5" rx="1.75" stroke="#000" stroke-opacity=".16" stroke-width="1.5" width="231.5" x="314.25" y="19.25"/><rect fill="#fff" height="19" rx="3" width="86" x="387" y="307"/><path d="m423.459 312.6h-3.936v8.4h1.632v-2.568h2.232c1.932 0 2.988-1.5 2.988-2.916 0-1.392-1.068-2.916-2.916-2.916zm-.12 4.368h-2.184v-2.88h2.256c.804 0 1.368.696 1.368 1.44 0 .732-.552 1.44-1.44 1.44zm8.847 4.2c2.532 0 4.404-1.896 4.404-4.38 0-2.472-1.872-4.356-4.404-4.356-2.544 0-4.416 1.884-4.416 4.356 0 2.484 1.872 4.38 4.416 4.38zm0-1.524c-1.668 0-2.748-1.248-2.748-2.856 0-1.572 1.08-2.832 2.748-2.832 1.656 0 2.748 1.26 2.748 2.832 0 1.608-1.092 2.856-2.748 2.856zm7.976-.156v-6.888h-1.644v8.4h5.832v-1.512zm5.967 1.512h1.668v-8.4h-1.668zm8.01.168c2.22 0 3.636-1.356 4.02-2.7l-1.596-.408c-.276.828-1.176 1.56-2.448 1.56-1.656 0-2.712-1.332-2.712-2.844s1.056-2.796 2.712-2.796c1.272 0 2.172.756 2.448 1.572l1.608-.396c-.384-1.332-1.8-2.724-4.068-2.724-2.496 0-4.38 1.884-4.38 4.356 0 2.484 1.884 4.38 4.416 4.38zm10.937-8.568-2.16 3.732-2.172-3.732h-1.86l3.192 5.316v3.084h1.668v-3.084l3.18-5.316z" fill="#000"/><rect fill="#fff" height="296" rx="1" width="230" x="59" y="20"/><rect height="297.5" rx="1.75" stroke="#000" stroke-opacity=".16" stroke-width="1.5" width="231.5" x="58.25" y="19.25"/><rect fill="#fff" height="19" rx="3" width="86" x="131" y="307"/><path d="m167.459 312.6h-3.936v8.4h1.632v-2.568h2.232c1.932 0 2.988-1.5 2.988-2.916 0-1.392-1.068-2.916-2.916-2.916zm-.12 4.368h-2.184v-2.88h2.256c.804 0 1.368.696 1.368 1.44 0 .732-.552 1.44-1.44 1.44zm8.847 4.2c2.532 0 4.404-1.896 4.404-4.38 0-2.472-1.872-4.356-4.404-4.356-2.544 0-4.416 1.884-4.416 4.356 0 2.484 1.872 4.38 4.416 4.38zm0-1.524c-1.668 0-2.748-1.248-2.748-2.856 0-1.572 1.08-2.832 2.748-2.832 1.656 0 2.748 1.26 2.748 2.832 0 1.608-1.092 2.856-2.748 2.856zm7.976-.156v-6.888h-1.644v8.4h5.832v-1.512zm5.967 1.512h1.668v-8.4h-1.668zm8.01.168c2.22 0 3.636-1.356 4.02-2.7l-1.596-.408c-.276.828-1.176 1.56-2.448 1.56-1.656 0-2.712-1.332-2.712-2.844s1.056-2.796 2.712-2.796c1.272 0 2.172.756 2.448 1.572l1.608-.396c-.384-1.332-1.8-2.724-4.068-2.724-2.496 0-4.38 1.884-4.38 4.356 0 2.484 1.884 4.38 4.416 4.38zm10.937-8.568-2.16 3.732-2.172-3.732h-1.86l3.192 5.316v3.084h1.668v-3.084l3.18-5.316z" fill="#000"/><path d="m404 327s8-4 8-10v-8l-8-2-8 2v8c0 6 8 10 8 10z" style="fill-rule:evenodd;clip-rule:evenodd;stroke:#000;stroke-width:1.5;stroke-linecap:round;stroke-linejoin:round"/><path d="m408 313.5-5.5 5.5-2.5-2.5" stroke="#000" stroke-linecap="round" stroke-linejoin="round" stroke-width="1.5"/><path d="m148 327s8-4 8-10v-8l-8-2-8 2v8c0 6 8 10 8 10z" style="fill-rule:evenodd;clip-rule:evenodd;stroke:#000;stroke-width:1.5;stroke-linecap:round;stroke-linejoin:round"/><path d="m152 313.5-5.5 5.5-2.5-2.5" stroke="#000" stroke-linecap="round" stroke-linejoin="round" stroke-width="1.5"/><rect fill="#fff9cf" height="56" rx="2" width="56" x="74" y="55"/><path d="m76.175 132 .975-2.58h4.005l.99 2.58h1.875l-4.02-10.5h-1.68l-4.02 10.485zm1.425-4.08 1.56-4.365 1.545 4.365zm7.8896 4.08h1.68v-10.5h-1.68zm6.9104.165c1.8 0 3-1.065 3.225-2.535h-1.5c-.345.99-1.245 1.155-1.725 1.155-1.185 0-1.965-.75-1.965-1.98v-.015h5.31c.18-2.475-1.08-4.38-3.39-4.38-2.13 0-3.57 1.575-3.57 3.9 0 2.415 1.425 3.855 3.615 3.855zm-1.92-4.77c.06-.945.825-1.605 1.83-1.605s1.71.66 1.755 1.605zm5.9268 4.605h1.89l1.8152-2.49 1.8 2.49h1.89l-2.775-3.75 2.775-3.75h-1.89l-1.785 2.49-1.8302-2.49h-1.89l2.79 3.75z" fill="#000"/><path d="m111.333 93.5v-2.3333c0-2.5774-2.09-4.6667-4.667-4.6667h-9.3333c-2.5773 0-4.6667 2.0893-4.6667 4.6667v2.3333" stroke="#000" stroke-linecap="round" stroke-linejoin="round" stroke-width="2"/><path d="m102.001 81.8333c2.577 0 4.666-2.0893 4.666-4.6666 0-2.5774-2.089-4.6667-4.666-4.6667-2.5777 0-4.667 2.0893-4.667 4.6667 0 2.5773 2.0893 4.6666 4.667 4.6666z" style="fill-rule:evenodd;clip-rule:evenodd;stroke:#000;stroke-width:2;stroke-linecap:round;stroke-linejoin:round"/><rect fill="#fff9cf" height="56" rx="2" width="56" x="330" y="55"/><path d="m332.175 132 .975-2.58h4.005l.99 2.58h1.875l-4.02-10.5h-1.68l-4.02 10.485zm1.425-4.08 1.56-4.365 1.545 4.365zm7.89 4.08h1.59v-3.78c0-1.545.885-2.49 1.875-2.49.84 0 1.485.525 1.485 1.845v4.425h1.725v-4.605c0-2.535-1.8-3.09-2.835-3.09-1.215 0-1.965.735-2.25 1.14v-.945h-1.59zm8.742 0h1.59v-3.78c0-1.545.885-2.49 1.875-2.49.84 0 1.485.525 1.485 1.845v4.425h1.725v-4.605c0-2.535-1.8-3.09-2.835-3.09-1.215 0-1.965.735-2.25 1.14v-.945h-1.59z" fill="#000"/><path d="m367.333 93.5v-2.3333c0-2.5774-2.09-4.6667-4.667-4.6667h-9.333c-2.578 0-4.667 2.0893-4.667 4.6667v2.3333" stroke="#000" stroke-linecap="round" stroke-linejoin="round" stroke-width="2"/><path d="m358.001 81.8333c2.577 0 4.666-2.0893 4.666-4.6666 0-2.5774-2.089-4.6667-4.666-4.6667-2.578 0-4.667 2.0893-4.667 4.6667 0 2.5773 2.089 4.6666 4.667 4.6666z" style="fill-rule:evenodd;clip-rule:evenodd;stroke:#000;stroke-width:2;stroke-linecap:round;stroke-linejoin:round"/><rect fill="#f2f2f3" height="56" rx="2" width="56" x="74" y="153"/><path clip-rule="evenodd" d="m101.845 167.4c-7.7397 0-14.0247 6.045-14.0247 13.507 0 5.97 4.0207 11.027 9.5911 12.818.6974.124.9556-.29.9556-.655 0-.323-.0086-1.169-.0172-2.297-3.9001.813-4.7266-1.807-4.7266-1.807-.6371-1.559-1.5584-1.973-1.5584-1.973-1.2742-.838.0947-.821.0947-.821 1.4034.099 2.1524 1.393 2.1524 1.393 1.2484 2.064 3.2803 1.467 4.081 1.119.1291-.871.4907-1.468.8868-1.807-3.1167-.34-6.3883-1.501-6.3883-6.675 0-1.476.5424-2.678 1.4464-3.623-.1464-.34-.6285-1.716.1377-3.574 0 0 1.1795-.365 3.8571 1.385 1.1192-.299 2.3164-.448 3.5124-.456 1.188.008 2.394.157 3.513.456 2.678-1.75 3.857-1.385 3.857-1.385.766 1.858.284 3.234.138 3.574.895.945 1.438 2.147 1.438 3.623 0 5.19-3.281 6.326-6.406 6.666.499.415.956 1.244.956 2.504 0 1.808-.017 3.259-.017 3.706 0 .365.249.78.964.647 5.57-1.791 9.582-6.848 9.582-12.81 0-7.47-6.285-13.515-14.025-13.515z" fill="#000" fill-rule="evenodd"/><rect fill="#f2f2f3" height="56" rx="2" width="56" x="329" y="153"/><path clip-rule="evenodd" d="m356.845 167.4c-7.74 0-14.025 6.045-14.025 13.507 0 5.97 4.021 11.027 9.591 12.818.698.124.956-.29.956-.655 0-.323-.009-1.169-.017-2.297-3.9.813-4.727-1.807-4.727-1.807-.637-1.559-1.558-1.973-1.558-1.973-1.274-.838.095-.821.095-.821 1.403.099 2.152 1.393 2.152 1.393 1.248 2.064 3.28 1.467 4.081 1.119.129-.871.491-1.468.887-1.807-3.117-.34-6.389-1.501-6.389-6.675 0-1.476.543-2.678 1.447-3.623-.147-.34-.629-1.716.138-3.574 0 0 1.179-.365 3.857 1.385 1.119-.299 2.316-.448 3.512-.456 1.188.008 2.394.157 3.513.456 2.678-1.75 3.857-1.385 3.857-1.385.766 1.858.284 3.234.138 3.574.895.945 1.438 2.147 1.438 3.623 0 5.19-3.281 6.326-6.406 6.666.499.415.956 1.244.956 2.504 0 1.808-.017 3.259-.017 3.706 0 .365.249.78.964.647 5.57-1.791 9.582-6.848 9.582-12.81 0-7.47-6.285-13.515-14.025-13.515z" fill="#000" fill-rule="evenodd"/><rect fill="#f2f2f3" height="56" rx="2" width="56" x="146" y="153"/><path d="m166.563 178.377c0 .422.045.764.124 1.014.091.251.204.524.362.821.057.091.08.182.08.262 0 .114-.068.228-.215.341l-.713.479c-.102.068-.204.103-.295.103-.113 0-.226-.057-.339-.16-.159-.171-.294-.353-.408-.535-.113-.194-.226-.411-.35-.673-.883 1.049-1.992 1.573-3.327 1.573-.951 0-1.709-.274-2.264-.821-.554-.547-.837-1.276-.837-2.187 0-.969.339-1.755 1.03-2.347.69-.593 1.607-.889 2.772-.889.385 0 .781.034 1.2.091.418.057.848.148 1.301.251v-.832c0-.866-.181-1.47-.532-1.823-.362-.353-.973-.524-1.844-.524-.396 0-.804.046-1.222.148-.419.103-.827.228-1.223.388-.181.079-.317.125-.396.148s-.136.034-.181.034c-.158 0-.237-.114-.237-.353v-.559c0-.182.022-.319.079-.398.056-.08.158-.16.317-.24.396-.205.871-.376 1.425-.512.555-.148 1.143-.217 1.766-.217 1.347 0 2.331.308 2.965.923.622.615.939 1.55.939 2.803v3.691zm-4.595 1.732c.374 0 .758-.068 1.166-.205.407-.137.769-.387 1.075-.729.181-.217.317-.456.385-.729.068-.274.113-.604.113-.992v-.478c-.328-.08-.679-.148-1.041-.194-.362-.045-.713-.068-1.064-.068-.758 0-1.313.148-1.686.456-.374.307-.555.74-.555 1.31 0 .535.136.934.419 1.208.272.284.668.421 1.188.421zm9.087 1.231c-.203 0-.339-.035-.43-.114-.09-.069-.169-.228-.237-.445l-2.66-8.807c-.068-.228-.102-.376-.102-.455 0-.183.091-.285.272-.285h1.109c.215 0 .362.034.441.114.091.068.159.228.227.444l1.901 7.542 1.765-7.542c.057-.228.125-.376.215-.444.091-.069.249-.114.453-.114h.905c.215 0 .362.034.453.114.09.068.17.228.215.444l1.788 7.633 1.958-7.633c.068-.228.147-.376.226-.444.091-.069.238-.114.441-.114h1.053c.181 0 .283.091.283.285 0 .057-.012.113-.023.182-.011.068-.034.159-.079.285l-2.727 8.807c-.068.228-.148.376-.238.444-.091.068-.238.114-.43.114h-.973c-.215 0-.362-.034-.453-.114-.09-.08-.17-.228-.215-.456l-1.754-7.348-1.743 7.337c-.056.228-.124.376-.215.456-.09.079-.249.114-.452.114zm14.542.307c-.588 0-1.177-.068-1.743-.205s-1.007-.285-1.301-.456c-.181-.102-.306-.216-.351-.319-.045-.102-.068-.216-.068-.319v-.581c0-.239.091-.353.26-.353.068 0 .136.011.204.034s.17.069.283.114c.385.171.804.308 1.245.399.453.091.894.137 1.347.137.713 0 1.267-.126 1.652-.376.385-.251.588-.616.588-1.083 0-.319-.102-.581-.305-.797-.204-.217-.589-.41-1.143-.593l-1.641-.512c-.826-.262-1.437-.65-1.811-1.162-.373-.502-.566-1.06-.566-1.652 0-.479.102-.901.306-1.265.204-.365.475-.684.815-.934.339-.262.724-.456 1.177-.593.452-.137.928-.193 1.426-.193.248 0 .509.011.758.045.26.034.498.08.735.125.227.057.442.114.645.183.204.068.362.136.476.205.158.091.271.182.339.285.068.091.102.216.102.376v.535c0 .239-.091.365-.26.365-.091 0-.238-.046-.43-.137-.645-.296-1.37-.444-2.173-.444-.645 0-1.154.102-1.505.319-.351.216-.532.546-.532 1.014 0 .319.113.592.339.809.227.216.645.432 1.245.626l1.607.513c.815.262 1.403.626 1.754 1.094.351.467.521 1.002.521 1.595 0 .49-.102.934-.294 1.321-.204.388-.476.729-.827 1.003-.35.285-.769.49-1.256.638-.509.159-1.041.239-1.618.239z" fill="#000"/><path clip-rule="evenodd" d="m187.737 187.185c-3.724 2.768-9.133 4.238-13.784 4.238-6.518 0-12.392-2.427-16.828-6.46-.35-.319-.034-.752.385-.501 4.798 2.802 10.717 4.5 16.839 4.5 4.131 0 8.669-.866 12.844-2.643.623-.285 1.155.41.544.866z" fill="#000" fill-rule="evenodd"/><path clip-rule="evenodd" d="m189.287 185.407c-.475-.615-3.146-.296-4.357-.148-.362.046-.419-.273-.09-.512 2.127-1.504 5.624-1.071 6.031-.57.408.513-.113 4.033-2.105 5.719-.305.262-.599.126-.464-.216.453-1.128 1.46-3.669.985-4.273z" fill="#000" fill-rule="evenodd"/><rect fill="#f2f2f3" height="56" rx="2" width="56" x="402" y="153"/><path d="m415.753 178.085c-2.627 0-4.753 2.054-4.753 4.591s2.126 4.591 4.753 4.591c2.626 0 4.752-2.054 4.752-4.591s-2.126-4.591-4.752-4.591zm0 6.891c-1.314 0-2.381-1.031-2.381-2.3s1.067-2.3 2.381-2.3c1.313 0 2.381 1.031 2.381 2.3s-1.068 2.3-2.381 2.3z" fill="#000"/><path d="m424.104 184.218c0-.365.454-.538.718-.283 1.191 1.169 3.156 3.177 3.166 3.186.028.027.056.073.17.109.047.018.123.018.208.018h2.144c.388 0 .501-.428.322-.648l-3.553-3.513-.189-.183c-.406-.465-.359-.648.104-1.123l2.816-3.039c.179-.219.066-.639-.331-.639h-1.946c-.076 0-.133 0-.189.018-.114.037-.161.073-.189.11-.01.009-1.569 1.634-2.533 2.629-.264.273-.737.091-.737-.283v-5.212c0-.265-.226-.365-.406-.365h-1.587c-.274 0-.406.173-.406.329v11.554c0 .265.226.338.415.338h1.588c.245 0 .406-.173.406-.347v-.118-2.538z" fill="#000"/><path d="m437.067 186.829-.17-1.534c-.019-.21-.227-.356-.444-.319-.123.018-.246.027-.368.027-1.267 0-2.296-.958-2.372-2.172 0-.037 0-.082 0-.128v-1.88c0-.246.189-.447.444-.447h2.126c.151 0 .378-.128.378-.393v-1.451c0-.283-.189-.429-.359-.429h-2.145c-.246 0-.444-.173-.453-.411v-2.327c0-.146-.114-.365-.407-.365h-1.578c-.198 0-.387.119-.387.356v7.475c.066 2.483 2.173 4.463 4.753 4.463.217 0 .425-.018.633-.046.226-.027.378-.209.349-.419z" fill="#000"/><path d="m448.548 184.903c-1.341 0-1.549-.465-1.549-2.209 0-.009 0-.009 0-.018v-4.189c0-.146-.113-.393-.416-.393h-1.587c-.199 0-.416.156-.416.393v.192c-.69-.384-1.493-.603-2.343-.603-2.627 0-4.753 2.054-4.753 4.591s2.126 4.591 4.753 4.591c1.181 0 2.258-.42 3.09-1.104.444.657 1.162 1.095 2.286 1.104.189 0 1.209.036 1.209-.429v-1.634c0-.137-.113-.292-.274-.292zm-6.302.073c-1.313 0-2.381-1.031-2.381-2.3 0-1.268 1.068-2.3 2.381-2.3 1.314 0 2.381 1.032 2.381 2.3-.009 1.269-1.077 2.3-2.381 2.3z" fill="#000"/><rect fill="#f2f2f3" height="56" rx="2" width="56" x="146" y="225"/><path d="m162 241h11.429v11.429h-11.429z" fill="#000"/><path d="m174.572 241h11.429v11.429h-11.429z" fill="#000"/><path d="m162 253.571h11.429v11.429h-11.429z" fill="#000"/><path d="m174.572 253.571h11.429v11.429h-11.429z" fill="#000"/><rect fill="#f2f2f3" height="56" rx="2" width="56" x="474" y="153"/><path d="m505.698 175.197h.858l2.447-2.447.12-1.039c-2.849-2.516-6.796-3.381-10.437-2.289s-6.46 3.986-7.456 7.655c.273-.112.575-.13.859-.052l4.894-.807s.249-.412.378-.386c2.177-2.391 5.84-2.67 8.354-.635z" fill="#000"/><path d="m512.489 177.077c-.563-2.071-1.717-3.933-3.323-5.357l-3.434 3.434c1.45 1.185 2.276 2.97 2.241 4.842v.61c1.688 0 3.056 1.369 3.056 3.057s-1.368 3.056-3.056 3.056h-6.113l-.61.618v3.667l.61.609h6.113c3.505.027 6.614-2.244 7.654-5.591s-.235-6.981-3.138-8.945z" fill="#000"/><path d="m495.737 191.579h6.113v-4.894h-6.113c-.436 0-.866-.094-1.262-.275l-.859.266-2.464 2.447-.214.859c1.381 1.043 3.067 1.604 4.799 1.597z" fill="#000"/><path d="m495.737 175.703c-3.395.02-6.403 2.195-7.487 5.413-1.083 3.218-.004 6.77 2.688 8.84l3.546-3.546c-1.239-.56-1.959-1.871-1.768-3.217.192-1.346 1.25-2.403 2.596-2.595 1.345-.191 2.656.529 3.216 1.768l3.546-3.546c-1.509-1.973-3.853-3.126-6.337-3.117z" fill="#000"/><rect fill="#f2f2f3" height="56" rx="2" width="56" x="218" y="225"/><path d="m249.698 247.197h.858l2.447-2.447.12-1.039c-2.849-2.516-6.796-3.381-10.437-2.289s-6.46 3.986-7.456 7.655c.273-.112.575-.13.859-.052l4.894-.807s.249-.412.378-.386c2.177-2.391 5.84-2.67 8.354-.635z" fill="#000"/><path d="m256.489 249.077c-.563-2.071-1.717-3.933-3.323-5.357l-3.434 3.434c1.45 1.185 2.276 2.97 2.241 4.842v.61c1.688 0 3.056 1.369 3.056 3.057s-1.368 3.056-3.056 3.056h-6.113l-.61.618v3.667l.61.609h6.113c3.505.027 6.614-2.244 7.654-5.591s-.235-6.981-3.138-8.945z" fill="#000"/><path d="m239.737 263.579h6.113v-4.894h-6.113c-.436 0-.866-.094-1.262-.275l-.859.266-2.464 2.447-.214.859c1.381 1.043 3.067 1.604 4.799 1.597z" fill="#000"/><path d="m239.737 247.703c-3.395.02-6.403 2.195-7.487 5.413-1.083 3.218-.004 6.77 2.688 8.84l3.546-3.546c-1.239-.56-1.959-1.871-1.768-3.217.192-1.346 1.25-2.403 2.596-2.595 1.345-.191 2.656.529 3.216 1.768l3.546-3.546c-1.509-1.973-3.853-3.126-6.337-3.117z" fill="#000"/><rect fill="#f2f2f3" height="56" rx="2" width="56" x="330" y="225"/><g fill="#000"><path d="m356.516 250.272.192-3.402c-.229.028-.459.067-.689.119-1.258.287-2.35.91-3.204 1.753l2.778 1.978.005-.003c.095.069.21.109.336.109.306 0 .555-.243.568-.547z"/><path d="m362.196 248.744c-1.042-1.024-2.4-1.693-3.87-1.874l.192 3.397.003.001c.005.117.046.233.124.331.191.241.536.285.781.105l.01.005z"/><path d="m354.344 252.291-2.536-2.278c-.753 1.231-1.109 2.709-.944 4.228l3.251-.942.003-.011c.112-.031.217-.097.295-.196.191-.24.157-.587-.072-.787z"/><path d="m364.039 252.056c-.17-.743-.455-1.428-.832-2.042l-2.522 2.268.001.006c-.088.077-.153.181-.181.304-.068.3.112.599.404.679l.003.014 3.268.945c.069-.708.027-1.44-.141-2.174z"/><path d="m358.035 252.467h-1.039l-.647.81.232 1.011.935.452.933-.45.232-1.012z"/><path d="m360.458 255.251c-.043-.008-.087-.012-.131-.009-.073.003-.147.022-.218.056-.276.134-.396.462-.276.742l-.004.005 1.305 3.167c1.259-.805 2.2-2.008 2.693-3.397l-3.363-.571z"/><path d="m355.226 255.7c-.06-.262-.29-.441-.547-.444-.036-.001-.074.002-.111.009l-.006-.007-3.334.568c.515 1.43 1.477 2.595 2.684 3.374l1.292-3.135-.01-.013c.046-.107.06-.229.032-.352z"/><path d="m357.762 256.686c-.086-.042-.177-.06-.266-.057-.197.007-.383.117-.482.302h-.003l-1.639 2.977c1.135.388 2.387.475 3.644.188.225-.051.444-.112.657-.184l-1.643-2.982h-.013c-.055-.104-.142-.19-.255-.244z"/><path clip-rule="evenodd" d="m356.619 238.083c.247-.119.516-.188.791-.201.345-.018.689.051 1 .201l10.791 5.174c.279.134.524.329.717.57.194.242.33.523.399.824l2.666 11.63c.069.301.069.614 0 .915s-.206.583-.399.824l-7.465 9.327c-.194.241-.439.435-.718.569s-.585.203-.895.203l-11.976.002c-.31.001-.616-.069-.895-.203s-.525-.328-.718-.57l-7.468-9.325c-.042-.053-.081-.107-.117-.163-.15-.231-.252-.489-.3-.76-.049-.271-.042-.548.02-.816l2.662-11.63c.069-.301.205-.583.398-.824s.439-.436.718-.57zm.252 4.477c0-.398.289-.721.645-.721.357 0 .646.323.646.721 0 .02.001.043.001.066.001.041.002.085.001.118-.006.152-.03.28-.054.41-.012.067-.025.135-.035.207l-.004.034c-.052.438-.096.803-.069 1.143.022.15.101.222.176.291.012.011.024.022.035.033.002.047.01.203.015.29 2.054.183 3.961 1.126 5.361 2.601l.246-.176c.01 0 .021.001.033.002.093.007.248.019.359-.045.282-.191.539-.454.847-.768l.023-.024c.049-.051.093-.102.137-.153.088-.101.174-.2.29-.3.028-.024.067-.055.104-.083.013-.011.027-.022.039-.032.31-.248.741-.222.963.058.223.28.151.708-.158.957-.015.011-.031.025-.047.038-.033.028-.068.056-.095.077-.121.089-.235.15-.351.211-.061.033-.123.066-.186.103l-.001.001c-.386.239-.706.438-.96.677-.103.112-.111.218-.117.32-.002.016-.003.032-.004.047-.017.016-.055.05-.098.088-.046.042-.096.087-.131.119.557.832.974 1.776 1.21 2.809.234 1.023.271 2.045.135 3.028l.261.076c.006.008.012.017.019.027.051.076.14.208.26.254.329.104.699.143 1.144.19l.014.002c.072.006.142.008.211.011.131.005.261.01.408.038.034.007.077.018.118.028.025.006.049.012.07.017.38.092.625.443.546.79-.078.346-.45.556-.833.474-.002-.001-.003-.001-.005-.001s-.003 0-.005-.001c-.004-.001-.008-.003-.012-.004-.02-.004-.041-.008-.062-.013-.037-.007-.075-.015-.105-.023-.146-.039-.264-.091-.385-.143-.063-.028-.127-.055-.195-.081l-.019-.008c-.419-.15-.767-.276-1.107-.325-.151-.012-.238.049-.322.107-.013.009-.026.019-.039.027-.048-.009-.193-.035-.276-.048-.619 1.953-1.937 3.644-3.723 4.703.01.024.022.057.035.091.026.073.056.152.072.171-.005.015-.011.03-.017.046-.038.094-.077.192-.032.337.125.326.328.645.572 1.029.041.061.082.117.122.172.078.107.154.212.225.345.018.034.039.08.059.123.009.018.017.036.025.052.166.357.044.767-.275.921-.321.156-.72-.008-.892-.367-.008-.015-.016-.032-.025-.049-.02-.04-.041-.083-.055-.117-.061-.14-.095-.266-.131-.394-.017-.066-.035-.132-.057-.201l-.006-.017c-.144-.424-.263-.775-.437-1.073-.085-.127-.188-.158-.285-.187-.015-.005-.03-.009-.045-.014-.01-.019-.036-.065-.064-.116-.026-.047-.054-.098-.074-.134-.357.136-.726.249-1.108.336-1.675.382-3.353.227-4.851-.351l-.147.266c-.109.03-.214.059-.278.136-.165.198-.261.481-.362.781-.043.126-.087.256-.138.385-.022.069-.04.136-.058.203-.034.127-.068.253-.128.391-.014.032-.034.072-.053.111-.01.019-.019.037-.027.054v.001c0 .001-.001.001-.002.002-.172.357-.57.521-.891.366-.319-.155-.441-.565-.275-.922.009-.019.019-.04.03-.063.018-.039.037-.081.053-.112.071-.134.148-.24.226-.347.04-.055.08-.111.121-.171.244-.384.459-.729.584-1.055.032-.108-.015-.257-.057-.367l.117-.282c-1.719-1.023-3.077-2.654-3.724-4.671l-.282.049c-.008-.005-.018-.011-.028-.017-.082-.047-.215-.125-.343-.115-.34.05-.688.175-1.107.326l-.019.007c-.067.026-.129.053-.191.079-.122.053-.242.105-.388.144-.034.009-.077.018-.118.027-.017.003-.034.007-.049.01-.003.001-.004.002-.006.002-.003.001-.005.002-.007.002-.003.001-.007.001-.01.002-.382.083-.754-.128-.833-.474s.166-.698.546-.79c.003-.001.007-.002.01-.003h.003c.001-.001.002-.001.003-.001.016-.004.034-.008.052-.013.041-.01.086-.021.12-.027.147-.028.277-.033.408-.039.069-.002.139-.005.212-.011l.014-.002c.445-.047.815-.086 1.143-.189.094-.039.183-.157.252-.248.009-.012.017-.023.026-.034l.27-.079c-.303-2.107.21-4.176 1.318-5.851l-.207-.185c-.001-.009-.003-.019-.005-.031-.013-.09-.036-.249-.125-.344-.254-.239-.574-.438-.96-.677-.063-.037-.124-.07-.185-.102-.116-.062-.23-.123-.351-.213-.027-.021-.062-.049-.095-.077-.013-.01-.026-.021-.038-.031-.002-.001-.003-.002-.005-.003s-.003-.003-.005-.004c-.31-.248-.381-.676-.159-.956.125-.158.316-.236.515-.229.154.006.314.062.45.171.012.009.025.019.038.03.037.029.077.06.105.085.115.099.2.197.287.297.044.052.089.103.138.156l.012.011c.313.32.573.586.859.779.132.077.237.06.338.044.015-.002.03-.005.046-.007.037.028.162.118.233.167 1.099-1.172 2.543-2.039 4.219-2.421.39-.089.78-.148 1.168-.181l.015-.274c.086-.084.182-.204.21-.335.028-.347-.017-.719-.071-1.168l-.001-.009c-.01-.072-.023-.14-.035-.207-.024-.13-.048-.258-.053-.41-.002-.032-.001-.072 0-.112 0-.019.001-.037.001-.054 0-.003 0-.006-.001-.008 0-.004 0-.007 0-.01z" fill-rule="evenodd"/></g><rect fill="#f2f2f3" height="56" rx="2" width="56" x="218" y="153"/><path d="m244.516 178.272.192-3.402c-.229.028-.459.067-.689.119-1.258.287-2.35.91-3.204 1.753l2.778 1.978.005-.003c.095.069.21.109.336.109.306 0 .555-.243.568-.547z" fill="#000"/><path d="m250.196 176.744c-1.042-1.024-2.4-1.693-3.87-1.874l.192 3.397.003.001c.005.117.046.233.124.331.191.241.536.285.781.105l.01.005z" fill="#000"/><path d="m242.344 180.291-2.536-2.278c-.753 1.231-1.109 2.709-.944 4.228l3.251-.942.003-.011c.112-.031.217-.097.295-.196.191-.24.157-.587-.072-.787z" fill="#000"/><path d="m252.039 180.056c-.17-.743-.455-1.428-.832-2.042l-2.522 2.268.001.006c-.088.077-.153.181-.181.304-.068.3.112.599.404.679l.003.014 3.268.945c.069-.708.027-1.44-.141-2.174z" fill="#000"/><path d="m246.035 180.467h-1.039l-.647.81.232 1.011.935.452.933-.45.232-1.012z" fill="#000"/><path d="m248.458 183.251c-.043-.008-.087-.012-.131-.009-.073.003-.147.022-.218.056-.276.134-.396.462-.276.742l-.004.005 1.305 3.167c1.259-.805 2.2-2.008 2.693-3.397l-3.363-.571z" fill="#000"/><path d="m243.226 183.7c-.06-.262-.29-.441-.547-.444-.036-.001-.074.002-.111.009l-.006-.007-3.334.568c.515 1.43 1.477 2.595 2.684 3.374l1.292-3.135-.01-.013c.046-.107.06-.229.032-.352z" fill="#000"/><path d="m245.762 184.686c-.086-.042-.177-.06-.266-.057-.197.007-.383.117-.482.302h-.003l-1.639 2.977c1.135.388 2.387.475 3.644.188.225-.051.444-.112.657-.184l-1.643-2.982h-.013c-.055-.104-.142-.19-.255-.244z" fill="#000"/><path clip-rule="evenodd" d="m244.619 166.083c.247-.119.516-.188.791-.201.345-.018.689.051 1 .201l10.791 5.174c.279.134.524.329.717.57.194.242.33.523.399.824l2.666 11.63c.069.301.069.614 0 .915s-.206.583-.399.824l-7.465 9.327c-.194.241-.439.435-.718.569s-.585.203-.895.203l-11.976.002c-.31.001-.616-.069-.895-.203s-.525-.328-.718-.57l-7.468-9.325c-.042-.053-.081-.107-.117-.163-.15-.231-.252-.489-.3-.76-.049-.271-.042-.548.02-.816l2.662-11.63c.069-.301.205-.583.398-.824s.439-.436.718-.57zm.252 4.477c0-.398.289-.721.645-.721.357 0 .646.323.646.721 0 .02.001.043.001.066.001.041.002.085.001.118-.006.152-.03.28-.054.41-.012.067-.025.135-.035.207l-.004.034c-.052.438-.096.803-.069 1.143.022.15.101.222.176.291.012.011.024.022.035.033.002.047.01.203.015.29 2.054.183 3.961 1.126 5.361 2.601l.246-.176c.01 0 .021.001.033.002.093.007.248.019.359-.045.282-.191.539-.454.847-.768l.023-.024c.049-.051.093-.102.137-.153.088-.101.174-.2.29-.3.028-.024.067-.055.104-.083.013-.011.027-.022.039-.032.31-.248.741-.222.963.058.223.28.151.708-.158.957-.015.011-.031.025-.047.038-.033.028-.068.056-.095.077-.121.089-.235.15-.351.211-.061.033-.123.066-.186.103l-.001.001c-.386.239-.706.438-.96.677-.103.112-.111.218-.117.32-.002.016-.003.032-.004.047-.017.016-.055.05-.098.088-.046.042-.096.087-.131.119.557.832.974 1.776 1.21 2.809.234 1.023.271 2.045.135 3.028l.261.076c.006.008.012.017.019.027.051.076.14.208.26.254.329.104.699.143 1.144.19l.014.002c.072.006.142.008.211.011.131.005.261.01.408.038.034.007.077.018.118.028.025.006.049.012.07.017.38.092.625.443.546.79-.078.346-.45.556-.833.474-.002-.001-.003-.001-.005-.001s-.003 0-.005-.001c-.004-.001-.008-.003-.012-.004-.02-.004-.041-.008-.062-.013-.037-.007-.075-.015-.105-.023-.146-.039-.264-.091-.385-.143-.063-.028-.127-.055-.195-.081l-.019-.008c-.419-.15-.767-.276-1.107-.325-.151-.012-.238.049-.322.107-.013.009-.026.019-.039.027-.048-.009-.193-.035-.276-.048-.619 1.953-1.937 3.644-3.723 4.703.01.024.022.057.035.091.026.073.056.152.072.171-.005.015-.011.03-.017.046-.038.094-.077.192-.032.337.125.326.328.645.572 1.029.041.061.082.117.122.172.078.107.154.212.225.345.018.034.039.08.059.123.009.018.017.036.025.052.166.357.044.767-.275.921-.321.156-.72-.008-.892-.367-.008-.015-.016-.032-.025-.049-.02-.04-.041-.083-.055-.117-.061-.14-.095-.266-.131-.394-.017-.066-.035-.132-.057-.201l-.006-.017c-.144-.424-.263-.775-.437-1.073-.085-.127-.188-.158-.285-.187-.015-.005-.03-.009-.045-.014-.01-.019-.036-.065-.064-.116-.026-.047-.054-.098-.074-.134-.357.136-.726.249-1.108.336-1.675.382-3.353.227-4.851-.351l-.147.266c-.109.03-.214.059-.278.136-.165.198-.261.481-.362.781-.043.126-.087.256-.138.385-.022.069-.04.136-.058.203-.034.127-.068.253-.128.391-.014.032-.034.072-.053.111-.01.019-.019.037-.027.054v.001c0 .001-.001.001-.002.002-.172.357-.57.521-.891.366-.319-.155-.441-.565-.275-.922.009-.019.019-.04.03-.063.018-.039.037-.081.053-.112.071-.134.148-.24.226-.347.04-.055.08-.111.121-.171.244-.384.459-.729.584-1.055.032-.108-.015-.257-.057-.367l.117-.282c-1.719-1.023-3.077-2.654-3.724-4.671l-.282.049c-.008-.005-.018-.011-.028-.017-.082-.047-.215-.125-.343-.115-.34.05-.688.175-1.107.326l-.019.007c-.067.026-.129.053-.191.079-.122.053-.242.105-.388.144-.034.009-.077.018-.118.027-.017.003-.034.007-.049.01-.003.001-.004.002-.006.002-.003.001-.005.002-.007.002-.003.001-.007.001-.01.002-.382.083-.754-.128-.833-.474s.166-.698.546-.79c.003-.001.007-.002.01-.003h.003c.001-.001.002-.001.003-.001.016-.004.034-.008.052-.013.041-.01.086-.021.12-.027.147-.028.277-.033.408-.039.069-.002.139-.005.212-.011l.014-.002c.445-.047.815-.086 1.143-.189.094-.039.183-.157.252-.248.009-.012.017-.023.026-.034l.27-.079c-.303-2.107.21-4.176 1.318-5.851l-.207-.185c-.001-.009-.003-.019-.005-.031-.013-.09-.036-.249-.125-.344-.254-.239-.574-.438-.96-.677-.063-.037-.124-.07-.185-.102-.116-.062-.23-.123-.351-.213-.027-.021-.062-.049-.095-.077-.013-.01-.026-.021-.038-.031-.002-.001-.003-.002-.005-.003s-.003-.003-.005-.004c-.31-.248-.381-.676-.159-.956.125-.158.316-.236.515-.229.154.006.314.062.45.171.012.009.025.019.038.03.037.029.077.06.105.085.115.099.2.197.287.297.044.052.089.103.138.156l.012.011c.313.32.573.586.859.779.132.077.237.06.338.044.015-.002.03-.005.046-.007.037.028.162.118.233.167 1.099-1.172 2.543-2.039 4.219-2.421.39-.089.78-.148 1.168-.181l.015-.274c.086-.084.182-.204.21-.335.028-.347-.017-.719-.071-1.168l-.001-.009c-.01-.072-.023-.14-.035-.207-.024-.13-.048-.258-.053-.41-.002-.032-.001-.072 0-.112 0-.019.001-.037.001-.054 0-.003 0-.006-.001-.008 0-.004 0-.007 0-.01z" fill="#000" fill-rule="evenodd"/><rect fill="#f2f2f3" height="56" rx="2" width="56" x="74" y="225"/><path d="m84.4453 259h6.39v-1.65h-4.65v-8.85h-1.74zm7.9219.03 3.915-.03c2.745-.015 4.8448-2.22 4.8448-5.325 0-3.06-2.1598-5.235-4.9948-5.205l-3.765.03zm1.56-1.59v-7.305l2.205-.03c1.86-.03 3.33 1.425 3.33 3.63 0 2.19-1.5 3.645-3.39 3.675zm9.4188 1.56.975-2.58h4.005l.99 2.58h1.875l-4.02-10.5h-1.68l-4.02 10.485zm1.425-4.08 1.56-4.365 1.545 4.365zm8.04 4.095h1.62v-4.17h2.79c1.905 0 3.165-1.35 3.165-3.15 0-1.815-1.23-3.21-3.075-3.21l-4.5.015zm1.62-5.595v-3.51h2.46c1.035 0 1.86.6 1.86 1.77 0 1.155-.825 1.74-1.86 1.74z" fill="#000"/><path d="m402 15h56v13h-56z" fill="#fff"/><path d="m404.914 9.43164 24.913 50.01156 25.099-50.01156zm27.853 10.05806h2.901v2.8781h-2.901zm-5.772 11.6054h-2.87v-2.9246h2.894zm0-4.3482h-2.87v-2.9245h2.894zm0-4.3481h-2.87v-2.9246h2.894zm4.348 13.0522h-2.87v-2.9323h2.894zm0-4.3559h-2.87v-2.9246h2.894zm0-4.3482h-2.87v-2.9245h2.894zm0-4.3481h-2.87v-2.9246h2.894zm1.424 1.4236h2.901v2.8936h-2.901zm0 7.2417v-2.8936h2.894v2.8936z" fill="#000"/><path d="m146 15h56v13h-56z" fill="#fff"/><path d="m148.914 9.43164 24.913 50.01156 25.099-50.01156zm27.853 10.05806h2.901v2.8781h-2.901zm-5.772 11.6054h-2.87v-2.9246h2.894zm0-4.3482h-2.87v-2.9245h2.894zm0-4.3481h-2.87v-2.9246h2.894zm4.348 13.0522h-2.87v-2.9323h2.894zm0-4.3559h-2.87v-2.9246h2.894zm0-4.3482h-2.87v-2.9245h2.894zm0-4.3481h-2.87v-2.9246h2.894zm1.424 1.4236h2.901v2.8936h-2.901zm0 7.2417v-2.8936h2.894v2.8936z" fill="#000"/></svg>