<svg fill="none" height="385" viewBox="0 0 592 385" width="592" xmlns="http://www.w3.org/2000/svg" xmlns:xlink="http://www.w3.org/1999/xlink"><clipPath id="a"><path d="m149 69h19.5v22.3h-19.5z"/></clipPath><clipPath id="b"><path d="m423 285h19.5v22.3h-19.5z"/></clipPath><path d="m0 0h592v385h-592z" fill="#fff"/><path d="m0 28h592v320h-592z" fill="#fff"/><rect fill="#fff" height="46" rx="2" transform="matrix(-1 0 0 1 182 57)" width="46"/><rect height="47.5" rx="2.75" stroke="#000" stroke-opacity=".16" stroke-width="1.5" transform="matrix(-1 0 0 1 183.5 57)" width="47.5" x=".75" y="-.75"/><rect fill="#fff" height="46" rx="2" transform="matrix(-1 0 0 1 456 273)" width="46"/><rect height="47.5" rx="2.75" stroke="#000" stroke-opacity=".16" stroke-width="1.5" transform="matrix(-1 0 0 1 457.5 273)" width="47.5" x=".75" y="-.75"/><g clip-path="url(#a)" stroke="#000" stroke-miterlimit="10" stroke-width="1.5"><path d="m158.8 77.8c4.97 0 9-1.7909 9-4 0-2.2092-4.03-4-9-4-4.971 0-9 1.7908-9 4 0 2.2091 4.029 4 9 4z"/><g stroke-linecap="round"><path d="m149.8 73.8v12.8c0 2.2 4 4 9 4s9-1.8 9-4v-12.8"/><path d="m167.8 80.1c0 2.2-4 4-9 4s-9-1.8-9-4"/></g></g><g clip-path="url(#b)" stroke="#000" stroke-miterlimit="10" stroke-width="1.5"><path d="m432.8 293.8c4.97 0 9-1.791 9-4s-4.03-4-9-4c-4.971 0-9 1.791-9 4s4.029 4 9 4z"/><g stroke-linecap="round"><path d="m423.8 289.8v12.8c0 2.2 4 4 9 4s9-1.8 9-4v-12.8"/><path d="m441.8 296.1c0 2.2-4 4-9 4s-9-1.8-9-4"/></g></g><g stroke="#343536"><path d="m0-1h156" stroke-width="2" transform="matrix(-.00000004 1 1 .00000004 160 114)"/><path d="m159 114c-1.657 0-3 1.343-3 3s1.343 3 3 3 3-1.343 3-3-1.343-3-3-3z" fill="#fff" stroke-linecap="round" stroke-linejoin="round" stroke-width="2"/><path d="m159 270c1.657 0 3-1.343 3-3s-1.343-3-3-3-3 1.343-3 3 1.343 3 3 3z" fill="#fff" stroke-linecap="round" stroke-linejoin="round" stroke-width="2"/><path d="m0-1h156" stroke-width="2" transform="matrix(-.00000004 1 1 .00000004 434 106)"/><path d="m433 106c-1.657 0-3 1.343-3 3s1.343 3 3 3 3-1.343 3-3-1.343-3-3-3z" fill="#fff" stroke-linecap="round" stroke-linejoin="round" stroke-width="2"/><path d="m433 262c1.657 0 3-1.343 3-3s-1.343-3-3-3-3 1.343-3 3 1.343 3 3 3z" fill="#fff" stroke-linecap="round" stroke-linejoin="round" stroke-width="2"/><path d="m283 80h-90" stroke-width="2"/><path d="m281 80h4" stroke-width="2"/><path d="m193 80c0-1.6569 1.343-3 3-3s3 1.3431 3 3-1.343 3-3 3-3-1.3431-3-3z" fill="#fff" stroke-linecap="round" stroke-linejoin="round" stroke-width="2"/><path d="m309 298h90" stroke-width="2"/><path d="m311 298h-4" stroke-width="2"/><path d="m399 298c0 1.657-1.343 3-3 3s-3-1.343-3-3 1.343-3 3-3 3 1.343 3 3z" fill="#fff" stroke-linecap="round" stroke-linejoin="round" stroke-width="2"/></g><rect fill="#f25054" height="32" rx="2" transform="matrix(-1 0 0 1 449 64)" width="32"/><path d="m426.25 80.25c0-1.1046.895-2 2-2h9.5c1.105 0 2 .8954 2 2v4.25c0 1.1046-.895 2-2 2h-9.5c-1.105 0-2-.8954-2-2z" style="fill-rule:evenodd;clip-rule:evenodd;stroke:#fff;stroke-width:1.5;stroke-linecap:round;stroke-linejoin:round"/><path d="m429.25 78.25v-3c-.002-1.9266 1.456-3.5411 3.373-3.7348 1.917-.1936 3.669 1.0968 4.052 2.9848" stroke="#fff" stroke-linecap="round" stroke-linejoin="round" stroke-width="1.5"/><rect fill="#f25054" height="32" rx="2" transform="matrix(-1 0 0 1 175 280)" width="32"/><path d="m152.25 296.25c0-1.105.895-2 2-2h9.5c1.105 0 2 .895 2 2v4.25c0 1.105-.895 2-2 2h-9.5c-1.105 0-2-.895-2-2z" style="fill-rule:evenodd;clip-rule:evenodd;stroke:#fff;stroke-width:1.5;stroke-linecap:round;stroke-linejoin:round"/><path d="m155.25 294.25v-3c-.002-1.927 1.456-3.541 3.373-3.735 1.917-.193 3.669 1.097 4.052 2.985" stroke="#fff" stroke-linecap="round" stroke-linejoin="round" stroke-width="1.5"/><path d="m0-1 200 2" stroke="#f25054" stroke-dasharray="4 2" stroke-linejoin="round" stroke-width="2" transform="matrix(-.00000004 1 1 .00000004 297 89)"/><path d="m0-1h4" stroke="#f25054" stroke-width="2" transform="matrix(-.00000004 -1 -1 .00000004 295 91)"/><path d="m0-1h4" stroke="#f25054" stroke-width="2" transform="matrix(.00000004 1 1 -.00000004 297 287)"/><path d="m407 80h-98" stroke="#343536" stroke-width="2"/><path d="m407 80c0 1.6569-1.343 3-3 3s-3-1.3431-3-3 1.343-3 3-3 3 1.3431 3 3z" fill="#fff" stroke="#343536" stroke-linecap="round" stroke-linejoin="round" stroke-width="2"/><path d="m311 80h-4" stroke="#343536" stroke-width="2"/><path d="m185 298h98" stroke="#343536" stroke-width="2"/><path d="m185 298c0-1.657 1.343-3 3-3s3 1.343 3 3-1.343 3-3 3-3-1.343-3-3z" fill="#fff" stroke="#343536" stroke-linecap="round" stroke-linejoin="round" stroke-width="2"/><path d="m281 298h4" stroke="#343536" stroke-width="2"/><path d="m318 188c0 12.15-9.85 22-22 22s-22-9.85-22-22 9.85-22 22-22 22 9.85 22 22z" fill="#fff" stroke="#f25054" stroke-width="2"/><path d="m300.533 190.294c.308-.309.617-.694.694-1.08.231-.848-2.314-1.311-2.314-1.311s-.231 1.697-2.544 2.622c-.386.154-.772.154-1.157 0-2.313-.925-2.545-2.622-2.545-2.622s-2.544.463-2.236 1.311c.154.463.386.771.694 1.08-2.313 0-4.164 1.696-4.164 3.855v1.851h17.736v-1.851c0-2.159-1.851-3.855-4.164-3.855z" fill="#000"/><path d="m295.983 186.824c4.241 0 7.634-1.543 7.634-3.393 0-1.311-1.774-2.468-4.318-3.008-.232-.694-.386-1.388-.54-1.85-.309-1.08-1.697-.386-2.545.077-.771.385-1.465-.309-2.39-.386-.694-.077-.926.617-.926.617l-.694 1.697c-2.313.617-3.855 1.696-3.855 2.93 0 1.773 3.393 3.316 7.634 3.316zm-4.01-4.396c0 .386 1.388 1.157 3.855 1.157 2.468 0 3.856-.771 3.856-1.157l.386.926c-.771.694-2.545 1.079-4.242 1.079-1.696 0-3.392-.385-4.164-1.079z" fill="#000"/><path d="m299.085 300 4.915 2" stroke="#f25054" stroke-width="2"/><path d="m292.915 296-4.915-2" stroke="#f25054" stroke-width="2"/><path d="m288 302 4.915-2" stroke="#f25054" stroke-width="2"/><path d="m304 294-4.915 2" stroke="#f25054" stroke-width="2"/><path d="m299.085 82.0002 4.915 1.9999" stroke="#f25054" stroke-width="2"/><path d="m292.915 77.9999-4.915-1.9998" stroke="#f25054" stroke-width="2"/><path d="m288 84.0001 4.915-2" stroke="#f25054" stroke-width="2"/><path d="m304 76-4.915 2.0001" stroke="#f25054" stroke-width="2"/><path d="m0 28h592v320h-592z" fill="#fff"/><rect fill="#fff" height="296" rx="1" width="230" x="315" y="39"/><rect height="297.5" rx="1.75" stroke="#000" stroke-opacity=".16" stroke-width="1.5" width="231.5" x="314.25" y="38.25"/><rect fill="#fff" height="19" rx="3" width="86" x="387" y="326"/><path d="m423.459 331.6h-3.936v8.4h1.632v-2.568h2.232c1.932 0 2.988-1.5 2.988-2.916 0-1.392-1.068-2.916-2.916-2.916zm-.12 4.368h-2.184v-2.88h2.256c.804 0 1.368.696 1.368 1.44 0 .732-.552 1.44-1.44 1.44zm8.847 4.2c2.532 0 4.404-1.896 4.404-4.38 0-2.472-1.872-4.356-4.404-4.356-2.544 0-4.416 1.884-4.416 4.356 0 2.484 1.872 4.38 4.416 4.38zm0-1.524c-1.668 0-2.748-1.248-2.748-2.856 0-1.572 1.08-2.832 2.748-2.832 1.656 0 2.748 1.26 2.748 2.832 0 1.608-1.092 2.856-2.748 2.856zm7.976-.156v-6.888h-1.644v8.4h5.832v-1.512zm5.967 1.512h1.668v-8.4h-1.668zm8.01.168c2.22 0 3.636-1.356 4.02-2.7l-1.596-.408c-.276.828-1.176 1.56-2.448 1.56-1.656 0-2.712-1.332-2.712-2.844s1.056-2.796 2.712-2.796c1.272 0 2.172.756 2.448 1.572l1.608-.396c-.384-1.332-1.8-2.724-4.068-2.724-2.496 0-4.38 1.884-4.38 4.356 0 2.484 1.884 4.38 4.416 4.38zm10.937-8.568-2.16 3.732-2.172-3.732h-1.86l3.192 5.316v3.084h1.668v-3.084l3.18-5.316z" fill="#000"/><rect fill="#fff" height="296" rx="1" width="230" x="59" y="39"/><rect height="297.5" rx="1.75" stroke="#000" stroke-opacity=".16" stroke-width="1.5" width="231.5" x="58.25" y="38.25"/><rect fill="#fff" height="19" rx="3" width="86" x="131" y="326"/><path d="m167.459 331.6h-3.936v8.4h1.632v-2.568h2.232c1.932 0 2.988-1.5 2.988-2.916 0-1.392-1.068-2.916-2.916-2.916zm-.12 4.368h-2.184v-2.88h2.256c.804 0 1.368.696 1.368 1.44 0 .732-.552 1.44-1.44 1.44zm8.847 4.2c2.532 0 4.404-1.896 4.404-4.38 0-2.472-1.872-4.356-4.404-4.356-2.544 0-4.416 1.884-4.416 4.356 0 2.484 1.872 4.38 4.416 4.38zm0-1.524c-1.668 0-2.748-1.248-2.748-2.856 0-1.572 1.08-2.832 2.748-2.832 1.656 0 2.748 1.26 2.748 2.832 0 1.608-1.092 2.856-2.748 2.856zm7.976-.156v-6.888h-1.644v8.4h5.832v-1.512zm5.967 1.512h1.668v-8.4h-1.668zm8.01.168c2.22 0 3.636-1.356 4.02-2.7l-1.596-.408c-.276.828-1.176 1.56-2.448 1.56-1.656 0-2.712-1.332-2.712-2.844s1.056-2.796 2.712-2.796c1.272 0 2.172.756 2.448 1.572l1.608-.396c-.384-1.332-1.8-2.724-4.068-2.724-2.496 0-4.38 1.884-4.38 4.356 0 2.484 1.884 4.38 4.416 4.38zm10.937-8.568-2.16 3.732-2.172-3.732h-1.86l3.192 5.316v3.084h1.668v-3.084l3.18-5.316z" fill="#000"/><path d="m404 346s8-4 8-10v-8l-8-2-8 2v8c0 6 8 10 8 10z" style="fill-rule:evenodd;clip-rule:evenodd;stroke:#000;stroke-width:1.5;stroke-linecap:round;stroke-linejoin:round"/><path d="m408 332.5-5.5 5.5-2.5-2.5" stroke="#000" stroke-linecap="round" stroke-linejoin="round" stroke-width="1.5"/><path d="m148 346s8-4 8-10v-8l-8-2-8 2v8c0 6 8 10 8 10z" style="fill-rule:evenodd;clip-rule:evenodd;stroke:#000;stroke-width:1.5;stroke-linecap:round;stroke-linejoin:round"/><path d="m152 332.5-5.5 5.5-2.5-2.5" stroke="#000" stroke-linecap="round" stroke-linejoin="round" stroke-width="1.5"/><rect fill="#fff9cf" height="56" rx="2" width="56" x="74" y="74"/><path d="m76.175 151 .975-2.58h4.005l.99 2.58h1.875l-4.02-10.5h-1.68l-4.02 10.485zm1.425-4.08 1.56-4.365 1.545 4.365zm7.8896 4.08h1.68v-10.5h-1.68zm6.9104.165c1.8 0 3-1.065 3.225-2.535h-1.5c-.345.99-1.245 1.155-1.725 1.155-1.185 0-1.965-.75-1.965-1.98v-.015h5.31c.18-2.475-1.08-4.38-3.39-4.38-2.13 0-3.57 1.575-3.57 3.9 0 2.415 1.425 3.855 3.615 3.855zm-1.92-4.77c.06-.945.825-1.605 1.83-1.605s1.71.66 1.755 1.605zm5.9268 4.605h1.89l1.8152-2.49 1.8 2.49h1.89l-2.775-3.75 2.775-3.75h-1.89l-1.785 2.49-1.8302-2.49h-1.89l2.79 3.75z" fill="#000"/><path d="m111.334 112.5v-2.333c0-2.578-2.09-4.667-4.667-4.667h-9.3333c-2.5774 0-4.6667 2.089-4.6667 4.667v2.333" stroke="#000" stroke-linecap="round" stroke-linejoin="round" stroke-width="2"/><path d="m102 100.833c2.577 0 4.666-2.089 4.666-4.6663 0-2.5774-2.089-4.6667-4.666-4.6667-2.5777 0-4.667 2.0893-4.667 4.6667 0 2.5773 2.0893 4.6663 4.667 4.6663z" style="fill-rule:evenodd;clip-rule:evenodd;stroke:#000;stroke-width:2;stroke-linecap:round;stroke-linejoin:round"/><rect fill="#fff9cf" height="56" rx="2" width="56" x="330" y="74"/><path d="m332.175 151 .975-2.58h4.005l.99 2.58h1.875l-4.02-10.5h-1.68l-4.02 10.485zm1.425-4.08 1.56-4.365 1.545 4.365zm7.89 4.08h1.59v-3.78c0-1.545.885-2.49 1.875-2.49.84 0 1.485.525 1.485 1.845v4.425h1.725v-4.605c0-2.535-1.8-3.09-2.835-3.09-1.215 0-1.965.735-2.25 1.14v-.945h-1.59zm8.742 0h1.59v-3.78c0-1.545.885-2.49 1.875-2.49.84 0 1.485.525 1.485 1.845v4.425h1.725v-4.605c0-2.535-1.8-3.09-2.835-3.09-1.215 0-1.965.735-2.25 1.14v-.945h-1.59z" fill="#000"/><path d="m367.334 112.5v-2.333c0-2.578-2.09-4.667-4.667-4.667h-9.333c-2.578 0-4.667 2.089-4.667 4.667v2.333" stroke="#000" stroke-linecap="round" stroke-linejoin="round" stroke-width="2"/><path d="m358 100.833c2.577 0 4.666-2.089 4.666-4.6663 0-2.5774-2.089-4.6667-4.666-4.6667-2.578 0-4.667 2.0893-4.667 4.6667 0 2.5773 2.089 4.6663 4.667 4.6663z" style="fill-rule:evenodd;clip-rule:evenodd;stroke:#000;stroke-width:2;stroke-linecap:round;stroke-linejoin:round"/><rect fill="#f2f2f3" height="56" rx="2" width="56" x="74" y="172"/><path clip-rule="evenodd" d="m101.846 186.4c-7.7397 0-14.0247 6.044-14.0247 13.506 0 5.97 4.0207 11.028 9.5911 12.819.6973.124.9556-.29.9556-.655 0-.324-.0086-1.169-.0172-2.297-3.9001.813-4.7267-1.807-4.7267-1.807-.6371-1.559-1.5583-1.974-1.5583-1.974-1.2742-.837.0947-.821.0947-.821 1.4034.1 2.1524 1.393 2.1524 1.393 1.2484 2.065 3.2803 1.468 4.081 1.12.1291-.871.4907-1.468.8867-1.808-3.1166-.34-6.3883-1.501-6.3883-6.674 0-1.476.5424-2.678 1.4464-3.624-.1463-.34-.6285-1.716.1378-3.573 0 0 1.1795-.365 3.8571 1.385 1.1192-.299 2.3164-.448 3.5124-.456 1.188.008 2.394.157 3.513.456 2.678-1.75 3.857-1.385 3.857-1.385.766 1.857.284 3.233.138 3.573.895.946 1.438 2.148 1.438 3.624 0 5.19-3.281 6.326-6.406 6.666.499.414.956 1.244.956 2.504 0 1.807-.017 3.258-.017 3.706 0 .365.249.779.964.647 5.57-1.791 9.582-6.849 9.582-12.81 0-7.471-6.285-13.515-14.025-13.515z" fill="#000" fill-rule="evenodd"/><rect fill="#f2f2f3" height="56" rx="2" width="56" x="329" y="172"/><path clip-rule="evenodd" d="m356.846 186.4c-7.74 0-14.025 6.044-14.025 13.506 0 5.97 4.021 11.028 9.591 12.819.698.124.956-.29.956-.655 0-.324-.009-1.169-.017-2.297-3.9.813-4.727-1.807-4.727-1.807-.637-1.559-1.558-1.974-1.558-1.974-1.274-.837.095-.821.095-.821 1.403.1 2.152 1.393 2.152 1.393 1.248 2.065 3.28 1.468 4.081 1.12.129-.871.491-1.468.887-1.808-3.117-.34-6.389-1.501-6.389-6.674 0-1.476.543-2.678 1.447-3.624-.147-.34-.629-1.716.137-3.573 0 0 1.18-.365 3.858 1.385 1.119-.299 2.316-.448 3.512-.456 1.188.008 2.394.157 3.513.456 2.678-1.75 3.857-1.385 3.857-1.385.766 1.857.284 3.233.138 3.573.895.946 1.438 2.148 1.438 3.624 0 5.19-3.281 6.326-6.406 6.666.499.414.956 1.244.956 2.504 0 1.807-.017 3.258-.017 3.706 0 .365.249.779.964.647 5.57-1.791 9.582-6.849 9.582-12.81 0-7.471-6.285-13.515-14.025-13.515z" fill="#000" fill-rule="evenodd"/><rect fill="#f2f2f3" height="56" rx="2" width="56" x="146" y="172"/><path d="m166.564 197.377c0 .422.045.764.124 1.014.091.251.204.524.362.82.057.092.079.183.079.263 0 .113-.067.227-.215.341l-.712.479c-.102.068-.204.102-.295.102-.113 0-.226-.057-.339-.159-.159-.171-.294-.353-.408-.536-.113-.193-.226-.41-.35-.672-.883 1.048-1.992 1.572-3.327 1.572-.951 0-1.709-.273-2.264-.82-.554-.547-.837-1.276-.837-2.187 0-.969.339-1.755 1.03-2.347.69-.593 1.607-.889 2.772-.889.385 0 .781.034 1.2.091.418.057.848.148 1.301.251v-.832c0-.866-.181-1.47-.532-1.823-.362-.353-.973-.524-1.844-.524-.396 0-.804.046-1.223.148-.418.103-.826.228-1.222.388-.181.079-.317.125-.396.148-.079.022-.136.034-.181.034-.158 0-.237-.114-.237-.353v-.559c0-.182.022-.319.079-.398.056-.08.158-.16.317-.24.396-.205.871-.376 1.425-.512.555-.148 1.143-.217 1.766-.217 1.347 0 2.331.308 2.965.923.622.615.939 1.55.939 2.803v3.691zm-4.595 1.732c.374 0 .758-.068 1.166-.205.407-.137.769-.387 1.075-.729.181-.217.317-.456.385-.729.067-.274.113-.604.113-.992v-.478c-.328-.08-.679-.148-1.041-.194-.362-.045-.713-.068-1.064-.068-.758 0-1.313.148-1.686.455-.374.308-.555.741-.555 1.311 0 .535.136.934.419 1.207.272.285.668.422 1.188.422zm9.087 1.23c-.203 0-.339-.034-.43-.113-.09-.069-.169-.228-.237-.445l-2.66-8.807c-.068-.228-.102-.376-.102-.456 0-.182.091-.284.272-.284h1.109c.215 0 .362.034.441.114.091.068.159.227.227.444l1.901 7.542 1.765-7.542c.057-.228.125-.376.215-.444.091-.069.249-.114.453-.114h.905c.215 0 .362.034.453.114.09.068.17.227.215.444l1.788 7.633 1.958-7.633c.068-.228.147-.376.226-.444.091-.069.238-.114.441-.114h1.053c.181 0 .283.091.283.284 0 .057-.012.114-.023.183-.011.068-.034.159-.079.285l-2.727 8.807c-.068.227-.148.376-.238.444-.091.068-.238.114-.43.114h-.973c-.215 0-.362-.034-.453-.114-.09-.08-.17-.228-.215-.456l-1.754-7.348-1.743 7.337c-.056.228-.124.376-.215.456-.09.079-.249.113-.452.113zm14.542.308c-.588 0-1.177-.068-1.743-.205s-1.007-.285-1.301-.456c-.181-.102-.306-.216-.351-.319-.045-.102-.068-.216-.068-.319v-.581c0-.239.091-.353.26-.353.068 0 .136.011.204.034s.17.069.283.114c.385.171.804.308 1.245.399.453.091.894.137 1.347.137.712 0 1.267-.126 1.652-.376.385-.251.588-.616.588-1.083 0-.319-.102-.581-.305-.797-.204-.217-.589-.41-1.143-.593l-1.641-.512c-.826-.262-1.437-.65-1.811-1.163-.373-.501-.566-1.059-.566-1.652 0-.478.102-.9.306-1.264.204-.365.475-.684.815-.934.339-.263.724-.456 1.177-.593.452-.137.928-.194 1.425-.194.249 0 .51.012.759.046.26.034.498.08.735.125.227.057.442.114.645.183.204.068.362.136.476.205.158.091.271.182.339.284.068.092.102.217.102.376v.536c0 .239-.091.365-.26.365-.091 0-.238-.046-.43-.137-.645-.296-1.37-.445-2.173-.445-.645 0-1.154.103-1.505.319-.351.217-.532.547-.532 1.014 0 .319.113.593.339.809.227.217.645.433 1.245.627l1.607.513c.815.262 1.403.626 1.754 1.093.351.468.521 1.003.521 1.596 0 .489-.102.934-.294 1.321-.204.388-.476.729-.827 1.003-.35.285-.769.49-1.256.638-.509.159-1.041.239-1.618.239z" fill="#000"/><path clip-rule="evenodd" d="m187.737 206.184c-3.724 2.769-9.133 4.238-13.784 4.238-6.518 0-12.392-2.426-16.828-6.459-.35-.319-.034-.752.385-.502 4.798 2.803 10.717 4.501 16.839 4.501 4.131 0 8.669-.866 12.844-2.644.623-.285 1.155.41.544.866z" fill="#000" fill-rule="evenodd"/><path clip-rule="evenodd" d="m189.287 204.407c-.475-.615-3.146-.296-4.357-.148-.362.045-.419-.274-.09-.513 2.127-1.504 5.624-1.071 6.031-.57.408.513-.113 4.034-2.105 5.72-.305.262-.599.125-.464-.217.453-1.128 1.46-3.668.985-4.272z" fill="#000" fill-rule="evenodd"/><rect fill="#f2f2f3" height="56" rx="2" width="56" x="402" y="172"/><path d="m415.753 197.085c-2.627 0-4.753 2.054-4.753 4.591s2.126 4.591 4.753 4.591c2.626 0 4.752-2.054 4.752-4.591s-2.126-4.591-4.752-4.591zm0 6.891c-1.314 0-2.381-1.031-2.381-2.3s1.067-2.3 2.381-2.3c1.313 0 2.381 1.031 2.381 2.3s-1.068 2.3-2.381 2.3z" fill="#000"/><path d="m424.105 203.218c0-.365.454-.538.718-.283 1.191 1.169 3.156 3.177 3.166 3.186.028.027.056.073.17.109.047.018.122.018.208.018h2.144c.388 0 .501-.428.322-.648l-3.553-3.513-.189-.183c-.406-.465-.359-.648.104-1.123l2.816-3.039c.179-.219.066-.639-.331-.639h-1.947c-.075 0-.132 0-.188.018-.114.037-.161.073-.189.11-.01.009-1.569 1.634-2.533 2.629-.264.273-.737.091-.737-.283v-5.212c0-.265-.226-.365-.406-.365h-1.587c-.274 0-.406.173-.406.329v11.554c0 .265.226.338.415.338h1.588c.245 0 .406-.173.406-.347v-.118-2.538z" fill="#000"/><path d="m437.068 205.829-.17-1.534c-.019-.21-.227-.356-.444-.319-.123.018-.246.027-.368.027-1.267 0-2.296-.958-2.372-2.172 0-.037 0-.082 0-.128v-1.88c0-.246.189-.447.444-.447h2.126c.151 0 .378-.128.378-.393v-1.451c0-.283-.189-.429-.359-.429h-2.145c-.246 0-.444-.173-.453-.411v-2.327c0-.146-.114-.365-.407-.365h-1.578c-.198 0-.387.119-.387.356v7.475c.066 2.483 2.173 4.463 4.753 4.463.217 0 .425-.018.633-.046.226-.027.378-.209.349-.419z" fill="#000"/><path d="m448.548 203.903c-1.341 0-1.549-.466-1.549-2.209 0-.009 0-.009 0-.018v-4.189c0-.147-.113-.393-.416-.393h-1.587c-.199 0-.416.155-.416.393v.191c-.69-.383-1.493-.602-2.343-.602-2.627 0-4.753 2.053-4.753 4.591 0 2.537 2.126 4.591 4.753 4.591 1.181 0 2.258-.42 3.09-1.105.444.657 1.162 1.095 2.286 1.105.189 0 1.209.036 1.209-.429v-1.634c0-.137-.113-.292-.274-.292zm-6.302.073c-1.313 0-2.381-1.032-2.381-2.3 0-1.269 1.068-2.3 2.381-2.3 1.314 0 2.381 1.031 2.381 2.3-.009 1.268-1.077 2.3-2.381 2.3z" fill="#000"/><rect fill="#f2f2f3" height="56" rx="2" width="56" x="146" y="244"/><path d="m162 260h11.429v11.429h-11.429z" fill="#000"/><path d="m174.571 260h11.429v11.429h-11.429z" fill="#000"/><path d="m162 272.571h11.429v11.429h-11.429z" fill="#000"/><path d="m174.571 272.571h11.429v11.429h-11.429z" fill="#000"/><rect fill="#f2f2f3" height="56" rx="2" width="56" x="474" y="172"/><path d="m505.696 194.197h.858l2.447-2.447.12-1.039c-2.849-2.515-6.796-3.381-10.437-2.289s-6.46 3.987-7.455 7.655c.272-.111.574-.13.858-.051l4.894-.807s.249-.412.378-.387c2.177-2.391 5.84-2.669 8.354-.635z" fill="#000"/><path d="m512.488 196.077c-.563-2.071-1.717-3.933-3.323-5.357l-3.434 3.434c1.45 1.185 2.276 2.97 2.241 4.842v.61c1.688 0 3.056 1.369 3.056 3.057s-1.368 3.056-3.056 3.056h-6.113l-.61.618v3.667l.61.609h6.113c3.505.027 6.614-2.244 7.654-5.591s-.235-6.981-3.138-8.945z" fill="#000"/><path d="m495.736 210.579h6.113v-4.894h-6.113c-.436 0-.866-.094-1.262-.275l-.859.266-2.464 2.447-.214.859c1.381 1.043 3.067 1.604 4.799 1.597z" fill="#000"/><path d="m495.737 194.704c-3.396.02-6.404 2.194-7.488 5.413-1.083 3.218-.004 6.769 2.688 8.839l3.546-3.546c-1.239-.56-1.959-1.87-1.768-3.216.192-1.346 1.25-2.404 2.596-2.595 1.345-.192 2.656.528 3.216 1.767l3.546-3.546c-1.509-1.972-3.853-3.125-6.336-3.116z" fill="#000"/><rect fill="#f2f2f3" height="56" rx="2" width="56" x="218" y="244"/><path d="m249.696 266.197h.858l2.447-2.447.12-1.039c-2.849-2.515-6.796-3.381-10.437-2.289s-6.46 3.987-7.455 7.655c.272-.111.574-.13.858-.051l4.894-.807s.249-.412.378-.387c2.177-2.391 5.84-2.669 8.354-.635z" fill="#000"/><path d="m256.488 268.077c-.563-2.071-1.717-3.933-3.323-5.357l-3.434 3.434c1.45 1.185 2.276 2.97 2.241 4.842v.61c1.688 0 3.056 1.369 3.056 3.057s-1.368 3.056-3.056 3.056h-6.113l-.61.618v3.667l.61.609h6.113c3.505.027 6.614-2.244 7.654-5.591s-.235-6.981-3.138-8.945z" fill="#000"/><path d="m239.736 282.579h6.113v-4.894h-6.113c-.436 0-.866-.094-1.262-.275l-.859.266-2.464 2.447-.214.859c1.381 1.043 3.067 1.604 4.799 1.597z" fill="#000"/><path d="m239.737 266.704c-3.396.02-6.404 2.194-7.488 5.413-1.083 3.218-.004 6.769 2.688 8.839l3.546-3.546c-1.239-.56-1.959-1.87-1.768-3.216.192-1.346 1.25-2.404 2.596-2.595 1.345-.192 2.656.528 3.216 1.767l3.546-3.546c-1.509-1.972-3.853-3.125-6.336-3.116z" fill="#000"/><rect fill="#f2f2f3" height="56" rx="2" width="56" x="330" y="244"/><path d="m356.516 269.272.192-3.402c-.229.028-.459.067-.689.119-1.258.287-2.35.91-3.204 1.753l2.778 1.978.005-.003c.095.069.21.109.336.109.306 0 .555-.243.568-.547z" fill="#000"/><path d="m362.196 267.743c-1.042-1.024-2.4-1.692-3.87-1.873l.192 3.396.003.002c.005.117.046.233.124.331.191.24.536.285.781.105l.01.005z" fill="#000"/><path d="m354.344 271.291-2.536-2.278c-.753 1.231-1.109 2.708-.944 4.228l3.251-.942.003-.011c.112-.031.217-.097.295-.196.191-.24.157-.587-.072-.787z" fill="#000"/><path d="m364.039 271.056c-.17-.743-.455-1.428-.832-2.042l-2.522 2.267.001.007c-.088.077-.153.181-.181.304-.068.3.112.599.404.679l.003.014 3.268.945c.069-.708.027-1.441-.141-2.174z" fill="#000"/><path d="m358.035 271.467h-1.039l-.647.809.232 1.012.935.452.933-.451.232-1.011z" fill="#000"/><path d="m360.458 274.251c-.043-.008-.087-.012-.131-.009-.073.003-.147.022-.218.056-.276.134-.396.462-.276.742l-.004.005 1.305 3.167c1.259-.805 2.2-2.008 2.693-3.397l-3.363-.571z" fill="#000"/><path d="m355.226 274.7c-.06-.262-.29-.441-.547-.445-.036 0-.074.003-.111.01l-.006-.007-3.334.568c.515 1.43 1.477 2.595 2.684 3.373l1.292-3.134-.01-.013c.046-.107.06-.229.032-.352z" fill="#000"/><path d="m357.762 275.686c-.086-.042-.177-.061-.266-.057-.197.007-.383.117-.482.302h-.003l-1.639 2.977c1.135.388 2.387.475 3.644.188.225-.051.444-.112.657-.184l-1.643-2.983h-.013c-.055-.103-.142-.189-.255-.243z" fill="#000"/><path clip-rule="evenodd" d="m356.619 257.082c.247-.118.516-.187.791-.201.345-.017.689.052 1 .201l10.791 5.175c.279.134.524.329.717.57.194.242.33.523.399.824l2.666 11.63c.069.301.069.614 0 .915s-.206.583-.399.824l-7.465 9.327c-.194.241-.439.435-.718.569s-.585.203-.895.203l-11.976.002c-.31 0-.616-.069-.895-.203s-.525-.329-.718-.57l-7.468-9.325c-.042-.053-.081-.107-.117-.164-.15-.23-.252-.489-.3-.759-.049-.271-.042-.548.02-.816l2.662-11.63c.069-.301.205-.583.398-.824s.439-.436.718-.57zm.252 4.478c0-.398.289-.721.645-.721.357 0 .646.323.646.721 0 .02.001.042.001.065.001.042.002.086.001.119-.006.152-.03.28-.054.41-.012.067-.025.135-.035.207l-.004.034c-.052.438-.096.803-.069 1.142.022.151.101.223.176.292.012.011.024.022.035.033.002.047.01.203.015.289 2.054.184 3.961 1.127 5.361 2.602l.246-.176c.01 0 .021.001.033.002.093.007.248.019.359-.045.282-.191.539-.454.847-.768l.023-.024c.049-.052.093-.103.137-.153.088-.101.174-.2.29-.3.028-.025.067-.055.104-.084.013-.011.027-.021.039-.031.31-.248.741-.222.963.058.223.28.151.708-.158.957-.015.011-.031.025-.047.038-.033.027-.068.056-.095.077-.121.089-.235.15-.351.211-.061.033-.123.066-.186.103h-.001c-.386.24-.706.438-.96.678-.103.111-.111.218-.117.32-.002.016-.003.031-.004.047-.017.016-.055.05-.098.088-.046.041-.096.087-.131.119.557.832.974 1.776 1.21 2.809.234 1.023.271 2.045.135 3.028l.261.076c.006.008.012.017.019.027.051.076.14.208.26.254.329.104.699.143 1.144.19l.014.001c.072.006.142.009.211.012.131.005.261.01.408.038.034.007.077.017.118.028.025.006.049.012.07.017.38.092.625.443.546.79-.078.346-.45.556-.833.473-.002 0-.003 0-.005 0s-.003-.001-.005-.001c-.004-.001-.008-.003-.012-.004-.02-.004-.041-.009-.062-.013-.037-.007-.075-.015-.105-.023-.146-.039-.264-.091-.385-.143-.063-.028-.127-.055-.195-.082l-.019-.007c-.419-.15-.767-.276-1.107-.325-.151-.012-.238.049-.322.107-.013.009-.026.018-.039.027-.048-.009-.193-.035-.276-.048-.619 1.953-1.937 3.644-3.723 4.703.01.024.022.057.035.091.026.073.056.152.072.171-.005.015-.011.03-.017.045-.038.095-.077.193-.032.338.125.326.328.645.572 1.029.041.061.082.117.122.172.078.107.154.212.225.345.018.034.039.08.059.123.009.018.017.036.025.052.166.356.044.767-.275.921-.321.156-.72-.008-.892-.367-.008-.015-.016-.032-.025-.049-.02-.04-.041-.084-.055-.117-.061-.14-.095-.266-.131-.394-.017-.066-.035-.132-.057-.201l-.006-.017c-.144-.424-.263-.776-.437-1.073-.085-.127-.188-.158-.285-.187-.015-.005-.03-.009-.045-.014-.01-.019-.036-.065-.064-.116-.026-.047-.054-.098-.074-.134-.357.136-.726.248-1.108.336-1.675.382-3.353.227-4.851-.351l-.147.266c-.109.029-.214.059-.278.136-.165.198-.261.481-.362.78-.043.127-.087.257-.138.385-.022.07-.04.137-.058.204-.034.127-.068.253-.128.391-.014.032-.034.072-.053.111-.01.019-.019.037-.027.054v.001c0 .001-.001.001-.002.002-.172.357-.57.521-.891.365-.319-.154-.441-.564-.275-.921.009-.019.019-.04.03-.063.018-.039.037-.081.053-.112.071-.134.148-.24.226-.347.04-.055.08-.111.121-.171.244-.384.459-.729.584-1.055.032-.109-.015-.257-.057-.367l.117-.283c-1.719-1.023-3.077-2.653-3.724-4.67l-.282.049c-.008-.005-.018-.011-.028-.017-.082-.047-.215-.125-.343-.115-.34.049-.688.175-1.107.326l-.019.007c-.067.025-.129.052-.191.079-.122.053-.242.104-.388.144-.034.009-.077.018-.118.027-.017.003-.034.007-.049.01-.003.001-.004.001-.006.002-.003.001-.005.002-.007.002-.003.001-.007.001-.01.002-.382.083-.754-.128-.833-.474s.166-.698.546-.79c.003-.001.007-.002.01-.003.001 0 .002 0 .003-.001h.003c.016-.004.034-.008.052-.013.041-.01.086-.021.12-.027.147-.029.277-.034.408-.039.069-.003.139-.005.212-.011l.014-.002c.445-.047.815-.086 1.143-.19.094-.038.183-.156.252-.247.009-.012.017-.023.026-.034l.27-.079c-.303-2.108.21-4.176 1.318-5.851l-.207-.186c-.001-.008-.003-.019-.005-.03-.013-.09-.036-.249-.125-.344-.254-.239-.574-.438-.96-.677-.063-.038-.124-.07-.185-.102-.116-.062-.23-.123-.351-.213-.027-.021-.062-.049-.095-.077-.013-.011-.026-.021-.038-.031-.002-.001-.003-.002-.005-.003s-.003-.003-.005-.004c-.31-.248-.381-.676-.159-.956.125-.158.316-.236.515-.229.154.005.314.062.45.171.012.009.025.019.038.03.037.029.077.06.105.085.115.099.2.197.287.297.044.051.089.103.138.156l.012.011c.313.32.573.586.859.779.132.077.237.06.338.044.015-.002.03-.005.046-.007.037.028.162.118.233.166 1.099-1.171 2.543-2.038 4.219-2.421.39-.088.78-.148 1.168-.18l.015-.274c.086-.084.182-.204.21-.336.028-.346-.017-.718-.071-1.167l-.001-.009c-.01-.072-.023-.14-.035-.207-.024-.13-.048-.258-.053-.41-.002-.032-.001-.072 0-.112 0-.019.001-.037.001-.054 0-.003 0-.006-.001-.009 0-.003 0-.006 0-.009z" fill="#000" fill-rule="evenodd"/><rect fill="#f2f2f3" height="56" rx="2" width="56" x="218" y="172"/><path d="m244.516 197.272.192-3.402c-.229.028-.459.067-.689.119-1.258.287-2.35.91-3.204 1.753l2.778 1.978.005-.003c.095.069.21.109.336.109.306 0 .555-.243.568-.547z" fill="#000"/><path d="m250.196 195.743c-1.042-1.024-2.4-1.692-3.87-1.873l.192 3.396.003.002c.005.117.046.233.124.331.191.24.536.285.781.105l.01.005z" fill="#000"/><path d="m242.344 199.291-2.536-2.278c-.753 1.231-1.109 2.708-.944 4.228l3.251-.942.003-.011c.112-.031.217-.097.295-.196.191-.24.157-.587-.072-.787z" fill="#000"/><path d="m252.039 199.056c-.17-.743-.455-1.428-.832-2.042l-2.522 2.267.001.007c-.088.077-.153.181-.181.304-.068.3.112.599.404.679l.003.014 3.268.945c.069-.708.027-1.441-.141-2.174z" fill="#000"/><path d="m246.035 199.467h-1.039l-.647.809.232 1.012.935.452.933-.451.232-1.011z" fill="#000"/><path d="m248.458 202.251c-.043-.008-.087-.012-.131-.009-.073.003-.147.022-.218.056-.276.134-.396.462-.276.742l-.004.005 1.305 3.167c1.259-.805 2.2-2.008 2.693-3.397l-3.363-.571z" fill="#000"/><path d="m243.226 202.7c-.06-.262-.29-.441-.547-.445-.036 0-.074.003-.111.01l-.006-.007-3.334.568c.515 1.43 1.477 2.595 2.684 3.373l1.292-3.134-.01-.013c.046-.107.06-.229.032-.352z" fill="#000"/><path d="m245.762 203.686c-.086-.042-.177-.061-.266-.057-.197.007-.383.117-.482.302h-.003l-1.639 2.977c1.135.388 2.387.475 3.644.188.225-.051.444-.112.657-.184l-1.643-2.983h-.013c-.055-.103-.142-.189-.255-.243z" fill="#000"/><path clip-rule="evenodd" d="m244.619 185.082c.247-.118.516-.187.791-.201.345-.017.689.052 1 .201l10.791 5.175c.279.134.524.329.717.57.194.242.33.523.399.824l2.666 11.63c.069.301.069.614 0 .915s-.206.583-.399.824l-7.465 9.327c-.194.241-.439.435-.718.569s-.585.203-.895.203l-11.976.002c-.31 0-.616-.069-.895-.203s-.525-.329-.718-.57l-7.468-9.325c-.042-.053-.081-.107-.117-.164-.15-.23-.252-.489-.3-.759-.049-.271-.042-.548.02-.816l2.662-11.63c.069-.301.205-.583.398-.824s.439-.436.718-.57zm.252 4.478c0-.398.289-.721.645-.721.357 0 .646.323.646.721 0 .02.001.042.001.065.001.042.002.086.001.119-.006.152-.03.28-.054.41-.012.067-.025.135-.035.207l-.004.034c-.052.438-.096.803-.069 1.142.022.151.101.223.176.292.012.011.024.022.035.033.002.047.01.203.015.289 2.054.184 3.961 1.127 5.361 2.602l.246-.176c.01 0 .021.001.033.002.093.007.248.019.359-.045.282-.191.539-.454.847-.768l.023-.024c.049-.052.093-.103.137-.153.088-.101.174-.2.29-.3.028-.025.067-.055.104-.084.013-.011.027-.021.039-.031.31-.248.741-.222.963.058.223.28.151.708-.158.957-.015.011-.031.025-.047.038-.033.027-.068.056-.095.077-.121.089-.235.15-.351.211-.061.033-.123.066-.186.103h-.001c-.386.24-.706.438-.96.678-.103.111-.111.218-.117.32-.002.016-.003.031-.004.047-.017.016-.055.05-.098.088-.046.041-.096.087-.131.119.557.832.974 1.776 1.21 2.809.234 1.023.271 2.045.135 3.028l.261.076c.006.008.012.017.019.027.051.076.14.208.26.254.329.104.699.143 1.144.19l.014.001c.072.006.142.009.211.012.131.005.261.01.408.038.034.007.077.017.118.028.025.006.049.012.07.017.38.092.625.443.546.79-.078.346-.45.556-.833.473-.002 0-.003 0-.005 0s-.003-.001-.005-.001c-.004-.001-.008-.003-.012-.004-.02-.004-.041-.009-.062-.013-.037-.007-.075-.015-.105-.023-.146-.039-.264-.091-.385-.143-.063-.028-.127-.055-.195-.082l-.019-.007c-.419-.15-.767-.276-1.107-.325-.151-.012-.238.049-.322.107-.013.009-.026.018-.039.027-.048-.009-.193-.035-.276-.048-.619 1.953-1.937 3.644-3.723 4.703.01.024.022.057.035.091.026.073.056.152.072.171-.005.015-.011.03-.017.045-.038.095-.077.193-.032.338.125.326.328.645.572 1.029.041.061.082.117.122.172.078.107.154.212.225.345.018.034.039.08.059.123.009.018.017.036.025.052.166.356.044.767-.275.921-.321.156-.72-.008-.892-.367-.008-.015-.016-.032-.025-.049-.02-.04-.041-.084-.055-.117-.061-.14-.095-.266-.131-.394-.017-.066-.035-.132-.057-.201l-.006-.017c-.144-.424-.263-.776-.437-1.073-.085-.127-.188-.158-.285-.187-.015-.005-.03-.009-.045-.014-.01-.019-.036-.065-.064-.116-.026-.047-.054-.098-.074-.134-.357.136-.726.248-1.108.336-1.675.382-3.353.227-4.851-.351l-.147.266c-.109.029-.214.059-.278.136-.165.198-.261.481-.362.78-.043.127-.087.257-.138.385-.022.07-.04.137-.058.204-.034.127-.068.253-.128.391-.014.032-.034.072-.053.111-.01.019-.019.037-.027.054v.001c0 .001-.001.001-.002.002-.172.357-.57.521-.891.365-.319-.154-.441-.564-.275-.921.009-.019.019-.04.03-.063.018-.039.037-.081.053-.112.071-.134.148-.24.226-.347.04-.055.08-.111.121-.171.244-.384.459-.729.584-1.055.032-.109-.015-.257-.057-.367l.117-.283c-1.719-1.023-3.077-2.653-3.724-4.67l-.282.049c-.008-.005-.018-.011-.028-.017-.082-.047-.215-.125-.343-.115-.34.049-.688.175-1.107.326l-.019.007c-.067.025-.129.052-.191.079-.122.053-.242.104-.388.144-.034.009-.077.018-.118.027-.017.003-.034.007-.049.01-.003.001-.004.001-.006.002-.003.001-.005.002-.007.002-.003.001-.007.001-.01.002-.382.083-.754-.128-.833-.474s.166-.698.546-.79c.003-.001.007-.002.01-.003.001 0 .002 0 .003-.001h.003c.016-.004.034-.008.052-.013.041-.01.086-.021.12-.027.147-.029.277-.034.408-.039.069-.003.139-.005.212-.011l.014-.002c.445-.047.815-.086 1.143-.19.094-.038.183-.156.252-.247.009-.012.017-.023.026-.034l.27-.079c-.303-2.108.21-4.176 1.318-5.851l-.207-.186c-.001-.008-.003-.019-.005-.03-.013-.09-.036-.249-.125-.344-.254-.239-.574-.438-.96-.677-.063-.038-.124-.07-.185-.102-.116-.062-.23-.123-.351-.213-.027-.021-.062-.049-.095-.077-.013-.011-.026-.021-.038-.031-.002-.001-.003-.002-.005-.003s-.003-.003-.005-.004c-.31-.248-.381-.676-.159-.956.125-.158.316-.236.515-.229.154.005.314.062.45.171.012.009.025.019.038.03.037.029.077.06.105.085.115.099.2.197.287.297.044.051.089.103.138.156l.012.011c.313.32.573.586.859.779.132.077.237.06.338.044.015-.002.03-.005.046-.007.037.028.162.118.233.166 1.099-1.171 2.543-2.038 4.219-2.421.39-.088.78-.148 1.168-.18l.015-.274c.086-.084.182-.204.21-.336.028-.346-.017-.718-.071-1.167l-.001-.009c-.01-.072-.023-.14-.035-.207-.024-.13-.048-.258-.053-.41-.002-.032-.001-.072 0-.112 0-.019.001-.037.001-.054 0-.003 0-.006-.001-.009 0-.003 0-.006 0-.009z" fill="#000" fill-rule="evenodd"/><rect fill="#f2f2f3" height="56" rx="2" width="56" x="74" y="244"/><path d="m84.4453 278h6.39v-1.65h-4.65v-8.85h-1.74zm7.9219.03 3.915-.03c2.745-.015 4.8448-2.22 4.8448-5.325 0-3.06-2.1598-5.235-4.9948-5.205l-3.765.03zm1.56-1.59v-7.305l2.205-.03c1.86-.03 3.33 1.425 3.33 3.63 0 2.19-1.5 3.645-3.39 3.675zm9.4188 1.56.975-2.58h4.005l.99 2.58h1.875l-4.02-10.5h-1.68l-4.02 10.485zm1.425-4.08 1.56-4.365 1.545 4.365zm8.04 4.095h1.62v-4.17h2.79c1.905 0 3.165-1.35 3.165-3.15 0-1.815-1.23-3.21-3.075-3.21l-4.5.015zm1.62-5.595v-3.51h2.46c1.035 0 1.86.6 1.86 1.77 0 1.155-.825 1.74-1.86 1.74z" fill="#000"/><path d="m402 34h56v13h-56z" fill="#fff"/><path d="m404.915 28.4318 24.913 50.0116 25.099-50.0116zm27.853 10.0581h2.901v2.8781h-2.901zm-5.772 11.6054h-2.87v-2.9246h2.893zm0-4.3482h-2.87v-2.9246h2.893zm0-4.3482h-2.87v-2.9245h2.893zm4.348 13.0523h-2.87v-2.9323h2.894zm0-4.3559h-2.87v-2.9246h2.894zm0-4.3482h-2.87v-2.9246h2.894zm0-4.3482h-2.87v-2.9245h2.894zm1.424 1.4236h2.901v2.8937h-2.901zm0 7.2418v-2.8936h2.894v2.8936z" fill="#000"/><path d="m146 34h56v13h-56z" fill="#fff"/><path d="m148.915 28.4318 24.913 50.0116 25.099-50.0116zm27.853 10.0581h2.901v2.8781h-2.901zm-5.772 11.6054h-2.87v-2.9246h2.893zm0-4.3482h-2.87v-2.9246h2.893zm0-4.3482h-2.87v-2.9245h2.893zm4.348 13.0523h-2.87v-2.9323h2.894zm0-4.3559h-2.87v-2.9246h2.894zm0-4.3482h-2.87v-2.9246h2.894zm0-4.3482h-2.87v-2.9245h2.894zm1.424 1.4236h2.901v2.8937h-2.901zm0 7.2418v-2.8936h2.894v2.8936z" fill="#000"/></svg>