<svg width="597" height="357" viewBox="0 0 597 357" fill="none" xmlns="http://www.w3.org/2000/svg">
<foreignObject x="412.714" y="106" width="369.572" height="323.986"><div xmlns="http://www.w3.org/1999/xhtml" style="backdrop-filter:blur(4px);clip-path:url(#bgblur_0_1460_44185_clip_path);height:100%;width:100%"></div></foreignObject><path data-figma-bg-blur-radius="8" d="M600.966 419.982C599.428 422.653 595.573 422.653 594.034 419.982L421.253 119.996C419.718 117.33 421.642 114 424.72 114L770.28 114C773.358 114 775.282 117.33 773.747 119.996L600.966 419.982Z" fill="url(#paint0_linear_1460_44185)"/>
<path d="M519 157C519.552 157 520 157.448 520 158V159C520 159.552 519.552 160 519 160H459C458.448 160 458 159.552 458 159V158C458 157.448 458.448 157 459 157H519ZM556 157C556.552 157 557 157.448 557 158V159C557 159.552 556.552 160 556 160H527C526.448 160 526 159.552 526 159V158C526 157.448 526.448 157 527 157H556ZM502 145C502.552 145 503 145.448 503 146V147C503 147.552 502.552 148 502 148H442C441.448 148 441 147.552 441 147V146C441 145.448 441.448 145 442 145H502ZM570 145C570.552 145 571 145.448 571 146V147C571 147.552 570.552 148 570 148H510C509.448 148 509 147.552 509 147V146C509 145.448 509.448 145 510 145H570ZM456 132C456.552 132 457 132.448 457 133V134C457 134.552 456.552 135 456 135H425C424.448 135 424 134.552 424 134V133C424 132.448 424.448 132 425 132H456ZM513 132C513.552 132 514 132.448 514 133V134C514 134.552 513.552 135 513 135H465C464.448 135 464 134.552 464 134V133C464 132.448 464.448 132 465 132H513ZM582 132C582.552 132 583 132.448 583 133V134C583 134.552 582.552 135 582 135H522C521.448 135 521 134.552 521 134V133C521 132.448 521.448 132 522 132H582Z" fill="url(#paint1_radial_1460_44185)"/>
<defs>
<clipPath id="bgblur_0_1460_44185_clip_path" transform="translate(-412.714 -106)"><path d="M600.966 419.982C599.428 422.653 595.573 422.653 594.034 419.982L421.253 119.996C419.718 117.33 421.642 114 424.72 114L770.28 114C773.358 114 775.282 117.33 773.747 119.996L600.966 419.982Z"/>
</clipPath><linearGradient id="paint0_linear_1460_44185" x1="465.533" y1="66.4509" x2="693.552" y2="230.428" gradientUnits="userSpaceOnUse">
<stop stop-color="#FFEC6E"/>
<stop offset="1" stop-color="#FFEC6E" stop-opacity="0"/>
</linearGradient>
<radialGradient id="paint1_radial_1460_44185" cx="0" cy="0" r="1" gradientTransform="matrix(49.5 3 -9.71193 150.832 511 143)" gradientUnits="userSpaceOnUse">
<stop offset="0.447917" stop-color="white" stop-opacity="0.38"/>
<stop offset="1" stop-color="white" stop-opacity="0"/>
</radialGradient>
</defs>
</svg>
