<svg width="24" height="24" viewBox="0 0 24 24" fill="none" xmlns="http://www.w3.org/2000/svg">
<path d="M23.988 11.994C23.988 18.618 18.618 23.988 11.994 23.988C5.37 23.988 0 18.618 0 11.994C0 5.37 5.37 0 11.994 0C18.618 0 23.988 5.37 23.988 11.994Z" fill="#59B734"/>
<path d="M20.4045 11.9505C20.3153 13.3849 19.1259 14.5026 17.6888 14.5026C16.2516 14.5026 15.0622 13.3849 14.973 11.9505H20.4045ZM9.01951 11.9505C8.93647 13.3893 7.7457 14.5136 6.30451 14.514H3.58276V11.9505H9.01876H9.01951ZM14.7173 9.07275V11.793C14.7173 11.8462 14.715 11.898 14.712 11.9505V14.5095H12.153V9.072H14.7173V9.07275Z" fill="#E6F3D8"/>
<path d="M11.8395 9.07275V14.5095C10.4 14.4264 9.27525 13.2349 9.27525 11.793V9.07275H11.8402H11.8395ZM17.6887 9.07275C19.1301 9.07311 20.3211 10.1973 20.4045 11.6362H14.973C15.0564 10.1976 16.247 9.07351 17.688 9.07275H17.6887ZM6.30375 9.07275C7.74507 9.07311 8.93607 10.1973 9.0195 11.6362H3.5835V9.07275H6.30375Z" fill="white"/>
</svg>
