<svg viewBox="0 0 24 24" xmlns="http://www.w3.org/2000/svg">
  <path d="M20,14 L20,20.5714286 C20,21.3571429 19.2857143,22 18.5,22 L4.5,22 C3.71428571,22 3,21.2857143 3,20.5 L3,3.5 C3,2.71428571 3.71428571,2 4.5,2 L11,2 L10,3.5 L4.5,3.5 L4.5,20.5 L18.5,20.5 L18.5,14 L20,14 Z M7,18.5 L16,18.5 L16,17 L7,17 L7,18.5 Z M7,15.5 L16,15.5 L16,14 L7,14 L7,15.5 Z M7,12.5 L12,12.5 L12,11 L7,11 L7,12.5 Z M7,9.5 L10,9.5 L10,8 L7,8 L7,9.5 Z M17.5,12 C20.5375661,12 23,9.53756612 23,6.5 C23,3.46243388 20.5375661,1 17.5,1 C14.4624339,1 12,3.46243388 12,6.5 C12,9.53756612 14.4624339,12 17.5,12 Z M14,6.66152019 L15.0254545,5.6567696 L16.9090909,7.49524941 L20.4745455,4 L21.5,5.01187648 L16.9090909,9.51187648 L14,6.66152019 Z" fill="currentColor" />
</svg>
