<svg viewBox="0 0 24 24" xmlns="http://www.w3.org/2000/svg">
  <path d="M20,14 L20,20.5714286 C20,21.3571429 19.2857143,22 18.5,22 L4.5,22 C3.71428571,22 3,21.2857143 3,20.5 L3,3.5 C3,2.71428571 3.71428571,2 4.5,2 L10,2 L10,3.5 L4.5,3.5 L4.5,20.5 L18.5,20.5 L18.5,14 L20,14 Z M7,18.5 L16,18.5 L16,17 L7,17 L7,18.5 Z M7,15.5 L16,15.5 L16,14 L7,14 L7,15.5 Z M7,12.5 L11,12.5 L11,11 L7,11 L7,12.5 Z M7,9.5 L10,9.5 L10,8 L7,8 L7,9.5 Z M20,1 C21.6568542,1 23,2.34314575 23,4 L23,9 C23,10.6568542 21.6568542,12 20,12 L15,12 C13.3431458,12 12,10.6568542 12,9 L12,4 C12,2.34314575 13.3431458,1 15,1 L20,1 Z M19.9425,3 L17.5,5.4425 L15.0575,3 L14,4.0575 L16.4425,6.5 L14,8.9425 L15.0575,10 L17.5,7.5575 L19.9425,10 L21,8.9425 L18.5575,6.5 L21,4.0575 L19.9425,3 Z" fill="currentColor" />
</svg>
