<svg width="200" height="200" viewBox="0 0 200 200" xmlns="http://www.w3.org/2000/svg">
  <defs>
    <linearGradient x1="50%" y1="96.412%" x2="50%" y2="0%" id="a">
      <stop stop-color="#949FAD" offset="0%"/>
      <stop stop-color="#BBC4D1" offset="100%"/>
    </linearGradient>
  </defs>
  <g fill="none" fill-rule="evenodd">
    <g opacity=".5" fill-rule="nonzero" fill="#BBC4D0">
      <g opacity=".1">
        <circle cx="100" cy="3.125" r="3.125"/>
        <circle cx="100" cy="196.875" r="3.125"/>
        <circle cx="16.111" cy="51.563" r="3.125"/>
        <circle cx="183.889" cy="148.438" r="3.125"/>
        <circle cx="16.111" cy="148.438" r="3.125"/>
        <circle cx="183.889" cy="51.563" r="3.125"/>
        <circle cx="51.563" cy="16.111" r="3.125"/>
        <circle cx="148.438" cy="183.889" r="3.125"/>
        <circle cx="3.125" cy="100" r="3.125"/>
        <circle cx="196.875" cy="100" r="3.125"/>
        <circle cx="51.563" cy="183.889" r="3.125"/>
        <circle cx="148.438" cy="16.111" r="3.125"/>
        <g transform="translate(3.3 3.3)">
          <circle cx="71.632" cy="3.125" r="3.125"/>
          <circle cx="121.771" cy="190.278" r="3.125"/>
          <circle cx="3.125" cy="71.632" r="3.125"/>
          <circle cx="190.278" cy="121.771" r="3.125"/>
          <circle cx="28.194" cy="165.208" r="3.125"/>
          <circle cx="165.208" cy="28.194" r="3.125"/>
          <circle cx="28.194" cy="28.194" r="3.125"/>
          <circle cx="165.208" cy="165.208" r="3.125"/>
          <circle cx="3.125" cy="121.771" r="3.125"/>
          <circle cx="190.278" cy="71.632" r="3.125"/>
          <circle cx="71.632" cy="190.278" r="3.125"/>
          <circle cx="121.771" cy="3.125" r="3.125"/>
        </g>
        <g>
          <g transform="translate(.694 .694)">
            <circle cx="86.667" cy="3.264" r="3.125"/>
            <circle cx="111.944" cy="195.347" r="3.125"/>
            <circle cx="9.809" cy="62.24" r="3.125"/>
            <circle cx="188.802" cy="136.372" r="3.125"/>
            <circle cx="22.448" cy="158.281" r="3.125"/>
            <circle cx="176.163" cy="40.33" r="3.125"/>
            <circle cx="40.33" cy="22.448" r="3.125"/>
            <circle cx="158.281" cy="176.163" r="3.125"/>
            <circle cx="3.264" cy="111.944" r="3.125"/>
            <circle cx="195.347" cy="86.667" r="3.125"/>
            <circle cx="62.24" cy="188.802" r="3.125"/>
            <circle cx="136.372" cy="9.809" r="3.125"/>
          </g>
          <g transform="translate(.694 .694)">
            <circle cx="62.24" cy="9.809" r="3.125"/>
            <circle cx="136.372" cy="188.802" r="3.125"/>
            <circle cx="3.264" cy="86.667" r="3.125"/>
            <circle cx="195.347" cy="111.944" r="3.125"/>
            <circle cx="40.33" cy="176.163" r="3.125"/>
            <circle cx="158.281" cy="22.448" r="3.125"/>
            <circle cx="22.448" cy="40.33" r="3.125"/>
            <circle cx="176.163" cy="158.281" r="3.125"/>
            <circle cx="9.809" cy="136.372" r="3.125"/>
            <circle cx="188.802" cy="62.24" r="3.125"/>
            <circle cx="86.667" cy="195.347" r="3.125"/>
            <circle cx="111.944" cy="3.264" r="3.125"/>
          </g>
        </g>
      </g>
      <g opacity=".2">
        <g transform="translate(9.896 9.896)">
          <circle cx="84.392" cy="2.917" r="2.813"/>
          <circle cx="95.816" cy="177.292" r="2.813"/>
          <circle cx="11.753" cy="51.458" r="2.813"/>
          <circle cx="168.455" cy="128.75" r="2.813"/>
          <circle cx="17.465" cy="138.646" r="2.813"/>
          <circle cx="162.743" cy="41.563" r="2.813"/>
          <circle cx="41.563" cy="17.465" r="2.813"/>
          <circle cx="138.646" cy="162.743" r="2.813"/>
          <circle cx="2.917" cy="95.816" r="2.813"/>
          <circle cx="177.292" cy="84.392" r="2.813"/>
          <circle cx="51.458" cy="168.455" r="2.813"/>
          <circle cx="128.75" cy="11.753" r="2.813"/>
        </g>
        <g transform="translate(11.458 11.458)">
          <circle cx="60.451" cy="5.816" r="2.813"/>
          <circle cx="116.632" cy="171.267" r="2.813"/>
          <circle cx="2.847" cy="71.493" r="2.813"/>
          <circle cx="174.236" cy="105.59" r="2.813"/>
          <circle cx="30.938" cy="154.236" r="2.813"/>
          <circle cx="146.146" cy="22.847" r="2.813"/>
          <circle cx="22.847" cy="30.938" r="2.813"/>
          <circle cx="154.236" cy="146.146" r="2.813"/>
          <circle cx="5.816" cy="116.632" r="2.813"/>
          <circle cx="171.267" cy="60.451" r="2.813"/>
          <circle cx="71.493" cy="174.236" r="2.813"/>
          <circle cx="105.59" cy="2.847" r="2.813"/>
        </g>
        <g>
          <g transform="translate(11.458 11.458)">
            <circle cx="71.493" cy="2.847" r="2.813"/>
            <circle cx="105.59" cy="174.236" r="2.813"/>
            <circle cx="5.816" cy="60.451" r="2.813"/>
            <circle cx="171.267" cy="116.632" r="2.813"/>
            <circle cx="22.847" cy="146.146" r="2.813"/>
            <circle cx="154.236" cy="30.938" r="2.813"/>
            <circle cx="30.938" cy="22.847" r="2.813"/>
            <circle cx="146.146" cy="154.236" r="2.813"/>
            <circle cx="2.847" cy="105.59" r="2.813"/>
            <circle cx="174.236" cy="71.493" r="2.813"/>
            <circle cx="60.451" cy="171.267" r="2.813"/>
            <circle cx="116.632" cy="5.816" r="2.813"/>
          </g>
          <g transform="translate(9.896 9.896)">
            <circle cx="51.458" cy="11.753" r="2.813"/>
            <circle cx="128.75" cy="168.455" r="2.813"/>
            <circle cx="2.917" cy="84.392" r="2.813"/>
            <circle cx="177.292" cy="95.816" r="2.813"/>
            <circle cx="41.563" cy="162.743" r="2.813"/>
            <circle cx="138.646" cy="17.465" r="2.813"/>
            <circle cx="17.465" cy="41.563" r="2.813"/>
            <circle cx="162.743" cy="138.646" r="2.813"/>
            <circle cx="11.753" cy="128.75" r="2.813"/>
            <circle cx="168.455" cy="51.458" r="2.813"/>
            <circle cx="84.392" cy="177.292" r="2.813"/>
            <circle cx="95.816" cy="2.917" r="2.813"/>
          </g>
        </g>
      </g>
      <g opacity=".4">
        <g transform="translate(19.618 19.618)">
          <circle cx="70.139" cy="2.587" r="2.535"/>
          <circle cx="90.625" cy="158.177" r="2.535"/>
          <circle cx="7.882" cy="50.347" r="2.535"/>
          <circle cx="152.882" cy="110.417" r="2.535"/>
          <circle cx="18.125" cy="128.142" r="2.535"/>
          <circle cx="142.639" cy="32.622" r="2.535"/>
          <circle cx="32.622" cy="18.125" r="2.535"/>
          <circle cx="128.142" cy="142.639" r="2.535"/>
          <circle cx="2.587" cy="90.625" r="2.535"/>
          <circle cx="158.177" cy="70.139" r="2.535"/>
          <circle cx="50.347" cy="152.882" r="2.535"/>
          <circle cx="110.417" cy="7.882" r="2.535"/>
        </g>
        <g transform="translate(19.618 19.618)">
          <circle cx="50.347" cy="7.882" r="2.535"/>
          <circle cx="110.417" cy="152.882" r="2.535"/>
          <circle cx="2.587" cy="70.139" r="2.535"/>
          <circle cx="158.177" cy="90.625" r="2.535"/>
          <circle cx="32.622" cy="142.639" r="2.535"/>
          <circle cx="128.142" cy="18.125" r="2.535"/>
          <circle cx="18.125" cy="32.622" r="2.535"/>
          <circle cx="142.639" cy="128.142" r="2.535"/>
          <circle cx="7.882" cy="110.417" r="2.535"/>
          <circle cx="152.882" cy="50.347" r="2.535"/>
          <circle cx="70.139" cy="158.177" r="2.535"/>
          <circle cx="90.625" cy="2.587" r="2.535"/>
        </g>
        <g>
          <g transform="translate(21.528 21.528)">
            <circle cx="58.16" cy="2.674" r="2.535"/>
            <circle cx="98.785" cy="154.271" r="2.535"/>
            <circle cx="2.674" cy="58.16" r="2.535"/>
            <circle cx="154.271" cy="98.785" r="2.535"/>
            <circle cx="22.986" cy="133.958" r="2.535"/>
            <circle cx="133.958" cy="22.986" r="2.535"/>
            <circle cx="22.986" cy="22.986" r="2.535"/>
            <circle cx="133.958" cy="133.958" r="2.535"/>
            <circle cx="2.674" cy="98.785" r="2.535"/>
            <circle cx="154.271" cy="58.16" r="2.535"/>
            <circle cx="58.16" cy="154.271" r="2.535"/>
            <circle cx="98.785" cy="2.674" r="2.535"/>
          </g>
          <g transform="translate(18.924 18.924)">
            <circle cx="41.84" cy="13.125" r="2.535"/>
            <circle cx="120.313" cy="149.028" r="2.535"/>
            <circle cx="2.604" cy="81.076" r="2.535"/>
            <circle cx="159.549" cy="81.076" r="2.535"/>
            <circle cx="41.84" cy="149.028" r="2.535"/>
            <circle cx="120.313" cy="13.125" r="2.535"/>
            <circle cx="13.125" cy="41.84" r="2.535"/>
            <circle cx="149.028" cy="120.313" r="2.535"/>
            <circle cx="13.125" cy="120.313" r="2.535"/>
            <circle cx="149.028" cy="41.84" r="2.535"/>
            <circle cx="81.076" cy="159.549" r="2.535"/>
            <circle cx="81.076" cy="2.604" r="2.535"/>
          </g>
        </g>
      </g>
      <g opacity=".6">
        <g transform="translate(28.3 28.3)">
          <circle cx="57.899" cy="2.292" r="2.274"/>
          <circle cx="85.503" cy="141.111" r="2.274"/>
          <circle cx="4.688" cy="48.958" r="2.274"/>
          <circle cx="138.715" cy="94.444" r="2.274"/>
          <circle cx="18.49" cy="118.368" r="2.274"/>
          <circle cx="124.913" cy="25.035" r="2.274"/>
          <circle cx="25.035" cy="18.49" r="2.274"/>
          <circle cx="118.368" cy="124.913" r="2.274"/>
          <circle cx="2.292" cy="85.503" r="2.274"/>
          <circle cx="141.111" cy="57.899" r="2.274"/>
          <circle cx="48.958" cy="138.715" r="2.274"/>
          <circle cx="94.444" cy="4.688" r="2.274"/>
        </g>
        <g transform="translate(27.083 27.083)">
          <circle cx="41.615" cy="9.444" r="2.274"/>
          <circle cx="104.219" cy="136.389" r="2.274"/>
          <circle cx="2.292" cy="68.281" r="2.274"/>
          <circle cx="143.542" cy="77.552" r="2.274"/>
          <circle cx="33.594" cy="131.753" r="2.274"/>
          <circle cx="112.24" cy="14.08" r="2.274"/>
          <circle cx="14.08" cy="33.594" r="2.274"/>
          <circle cx="131.753" cy="112.24" r="2.274"/>
          <circle cx="9.444" cy="104.219" r="2.274"/>
          <circle cx="136.389" cy="41.615" r="2.274"/>
          <circle cx="68.281" cy="143.542" r="2.274"/>
          <circle cx="77.552" cy="2.292" r="2.274"/>
        </g>
        <g>
          <g transform="translate(28.3 28.3)">
            <circle cx="48.958" cy="4.688" r="2.274"/>
            <circle cx="94.444" cy="138.715" r="2.274"/>
            <circle cx="2.292" cy="57.899" r="2.274"/>
            <circle cx="141.111" cy="85.503" r="2.274"/>
            <circle cx="25.035" cy="124.913" r="2.274"/>
            <circle cx="118.368" cy="18.49" r="2.274"/>
            <circle cx="18.49" cy="25.035" r="2.274"/>
            <circle cx="124.913" cy="118.368" r="2.274"/>
            <circle cx="4.688" cy="94.444" r="2.274"/>
            <circle cx="138.715" cy="48.958" r="2.274"/>
            <circle cx="57.899" cy="141.111" r="2.274"/>
            <circle cx="85.503" cy="2.292" r="2.274"/>
          </g>
          <g transform="translate(27.083 27.083)">
            <circle cx="33.594" cy="14.08" r="2.274"/>
            <circle cx="112.24" cy="131.753" r="2.274"/>
            <circle cx="2.292" cy="77.552" r="2.274"/>
            <circle cx="143.542" cy="68.281" r="2.274"/>
            <circle cx="41.615" cy="136.389" r="2.274"/>
            <circle cx="104.219" cy="9.444" r="2.274"/>
            <circle cx="9.444" cy="41.615" r="2.274"/>
            <circle cx="136.389" cy="104.219" r="2.274"/>
            <circle cx="14.08" cy="112.24" r="2.274"/>
            <circle cx="131.753" cy="33.594" r="2.274"/>
            <circle cx="77.552" cy="143.542" r="2.274"/>
            <circle cx="68.281" cy="2.292" r="2.274"/>
          </g>
        </g>
      </g>
      <g opacity=".8">
        <g transform="translate(34.375 34.375)">
          <circle cx="65.625" cy="2.049" r="2.049"/>
          <circle cx="65.625" cy="129.201" r="2.049"/>
          <circle cx="10.573" cy="33.837" r="2.049"/>
          <circle cx="120.677" cy="97.413" r="2.049"/>
          <circle cx="10.573" cy="97.413" r="2.049"/>
          <circle cx="120.677" cy="33.837" r="2.049"/>
          <circle cx="33.837" cy="10.573" r="2.049"/>
          <circle cx="97.413" cy="120.677" r="2.049"/>
          <circle cx="2.049" cy="65.625" r="2.049"/>
          <circle cx="129.201" cy="65.625" r="2.049"/>
          <circle cx="33.837" cy="120.677" r="2.049"/>
          <circle cx="97.413" cy="10.573" r="2.049"/>
        </g>
        <g transform="translate(36.458 36.458)">
          <circle cx="47.083" cy="2.135" r="2.049"/>
          <circle cx="80" cy="124.948" r="2.049"/>
          <circle cx="2.135" cy="47.083" r="2.049"/>
          <circle cx="124.948" cy="80" r="2.049"/>
          <circle cx="18.594" cy="108.49" r="2.049"/>
          <circle cx="108.49" cy="18.594" r="2.049"/>
          <circle cx="18.594" cy="18.594" r="2.049"/>
          <circle cx="108.49" cy="108.49" r="2.049"/>
          <circle cx="2.135" cy="80" r="2.049"/>
          <circle cx="124.948" cy="47.083" r="2.049"/>
          <circle cx="47.083" cy="124.948" r="2.049"/>
          <circle cx="80" cy="2.135" r="2.049"/>
        </g>
        <g>
          <g transform="translate(34.896 34.896)">
            <circle cx="56.806" cy="2.066" r="2.049"/>
            <circle cx="73.403" cy="128.142" r="2.049"/>
            <circle cx="6.372" cy="40.781" r="2.049"/>
            <circle cx="123.837" cy="89.427" r="2.049"/>
            <circle cx="14.67" cy="103.802" r="2.049"/>
            <circle cx="115.538" cy="26.406" r="2.049"/>
            <circle cx="26.406" cy="14.67" r="2.049"/>
            <circle cx="103.802" cy="115.538" r="2.049"/>
            <circle cx="2.066" cy="73.403" r="2.049"/>
            <circle cx="128.142" cy="56.806" r="2.049"/>
            <circle cx="40.781" cy="123.837" r="2.049"/>
            <circle cx="89.427" cy="6.372" r="2.049"/>
          </g>
          <g transform="translate(34.896 34.896)">
            <circle cx="40.781" cy="6.372" r="2.049"/>
            <circle cx="89.427" cy="123.837" r="2.049"/>
            <circle cx="2.066" cy="56.806" r="2.049"/>
            <circle cx="128.142" cy="73.403" r="2.049"/>
            <circle cx="26.406" cy="115.538" r="2.049"/>
            <circle cx="103.802" cy="14.67" r="2.049"/>
            <circle cx="14.67" cy="26.406" r="2.049"/>
            <circle cx="115.538" cy="103.802" r="2.049"/>
            <circle cx="6.372" cy="89.427" r="2.049"/>
            <circle cx="123.837" cy="40.781" r="2.049"/>
            <circle cx="56.806" cy="128.142" r="2.049"/>
            <circle cx="73.403" cy="2.066" r="2.049"/>
          </g>
        </g>
      </g>
      <g transform="translate(40.8 40.8)">
        <circle cx="55.451" cy="1.997" r="1.858"/>
        <circle cx="62.951" cy="116.406" r="1.858"/>
        <circle cx="7.778" cy="33.837" r="1.858"/>
        <circle cx="110.625" cy="84.566" r="1.858"/>
        <circle cx="11.528" cy="91.059" r="1.858"/>
        <circle cx="106.875" cy="27.344" r="1.858"/>
        <circle cx="27.344" cy="11.528" r="1.858"/>
        <circle cx="91.059" cy="106.875" r="1.858"/>
        <circle cx="1.997" cy="62.951" r="1.858"/>
        <circle cx="116.406" cy="55.451" r="1.858"/>
        <circle cx="33.837" cy="110.625" r="1.858"/>
        <circle cx="84.566" cy="7.778" r="1.858"/>
      </g>
      <g transform="translate(41.84 41.84)">
        <circle cx="39.722" cy="3.872" r="1.858"/>
        <circle cx="76.597" cy="112.448" r="1.858"/>
        <circle cx="1.927" cy="46.979" r="1.858"/>
        <circle cx="114.392" cy="69.34" r="1.858"/>
        <circle cx="20.347" cy="101.267" r="1.858"/>
        <circle cx="95.972" cy="15.052" r="1.858"/>
        <circle cx="15.052" cy="20.347" r="1.858"/>
        <circle cx="101.267" cy="95.972" r="1.858"/>
        <circle cx="3.872" cy="76.597" r="1.858"/>
        <circle cx="112.448" cy="39.722" r="1.858"/>
        <circle cx="46.979" cy="114.392" r="1.858"/>
        <circle cx="69.34" cy="1.927" r="1.858"/>
      </g>
      <g transform="translate(41.84 41.84)">
        <circle cx="46.979" cy="1.927" r="1.858"/>
        <circle cx="69.34" cy="114.392" r="1.858"/>
        <circle cx="3.872" cy="39.722" r="1.858"/>
        <circle cx="112.448" cy="76.597" r="1.858"/>
        <circle cx="15.052" cy="95.972" r="1.858"/>
        <circle cx="101.267" cy="20.347" r="1.858"/>
        <circle cx="20.347" cy="15.052" r="1.858"/>
        <circle cx="95.972" cy="101.267" r="1.858"/>
        <circle cx="1.927" cy="69.34" r="1.858"/>
        <circle cx="114.392" cy="46.979" r="1.858"/>
        <circle cx="39.722" cy="112.448" r="1.858"/>
        <circle cx="76.597" cy="3.872" r="1.858"/>
      </g>
      <g transform="translate(40.8 40.8)">
        <circle cx="33.837" cy="7.778" r="1.858"/>
        <circle cx="84.566" cy="110.625" r="1.858"/>
        <circle cx="1.997" cy="55.451" r="1.858"/>
        <circle cx="116.406" cy="62.951" r="1.858"/>
        <circle cx="27.344" cy="106.875" r="1.858"/>
        <circle cx="91.059" cy="11.528" r="1.858"/>
        <circle cx="11.528" cy="27.344" r="1.858"/>
        <circle cx="106.875" cy="91.059" r="1.858"/>
        <circle cx="7.778" cy="84.566" r="1.858"/>
        <circle cx="110.625" cy="33.837" r="1.858"/>
        <circle cx="55.451" cy="116.406" r="1.858"/>
        <circle cx="62.951" cy="1.997" r="1.858"/>
      </g>
      <g transform="translate(47.222 47.222)">
        <circle cx="46.059" cy="1.719" r="1.667"/>
        <circle cx="59.497" cy="103.837" r="1.667"/>
        <circle cx="5.208" cy="33.073" r="1.667"/>
        <circle cx="100.347" cy="72.483" r="1.667"/>
        <circle cx="11.927" cy="84.132" r="1.667"/>
        <circle cx="93.628" cy="21.424" r="1.667"/>
        <circle cx="21.424" cy="11.927" r="1.667"/>
        <circle cx="84.132" cy="93.628" r="1.667"/>
        <circle cx="1.719" cy="59.497" r="1.667"/>
        <circle cx="103.837" cy="46.059" r="1.667"/>
        <circle cx="33.073" cy="100.347" r="1.667"/>
        <circle cx="72.483" cy="5.208" r="1.667"/>
      </g>
      <g transform="translate(47.222 47.222)">
        <circle cx="33.073" cy="5.208" r="1.667"/>
        <circle cx="72.483" cy="100.347" r="1.667"/>
        <circle cx="1.719" cy="46.059" r="1.667"/>
        <circle cx="103.837" cy="59.497" r="1.667"/>
        <circle cx="21.424" cy="93.628" r="1.667"/>
        <circle cx="84.132" cy="11.927" r="1.667"/>
        <circle cx="11.927" cy="21.424" r="1.667"/>
        <circle cx="93.628" cy="84.132" r="1.667"/>
        <circle cx="5.208" cy="72.483" r="1.667"/>
        <circle cx="100.347" cy="33.073" r="1.667"/>
        <circle cx="46.059" cy="103.837" r="1.667"/>
        <circle cx="59.497" cy="1.719" r="1.667"/>
      </g>
      <g transform="translate(48.438 48.438)">
        <circle cx="38.229" cy="1.823" r="1.667"/>
        <circle cx="64.896" cy="101.302" r="1.667"/>
        <circle cx="1.823" cy="38.229" r="1.667"/>
        <circle cx="101.302" cy="64.896" r="1.667"/>
        <circle cx="15.156" cy="87.969" r="1.667"/>
        <circle cx="87.969" cy="15.156" r="1.667"/>
        <circle cx="15.156" cy="15.156" r="1.667"/>
        <circle cx="87.969" cy="87.969" r="1.667"/>
        <circle cx="1.823" cy="64.896" r="1.667"/>
        <circle cx="101.302" cy="38.229" r="1.667"/>
        <circle cx="38.229" cy="101.302" r="1.667"/>
        <circle cx="64.896" cy="1.823" r="1.667"/>
      </g>
      <g transform="translate(46.7 46.7)">
        <circle cx="27.552" cy="8.698" r="1.667"/>
        <circle cx="79.045" cy="97.899" r="1.667"/>
        <circle cx="1.806" cy="53.299" r="1.667"/>
        <circle cx="104.792" cy="53.299" r="1.667"/>
        <circle cx="27.552" cy="97.899" r="1.667"/>
        <circle cx="79.045" cy="8.698" r="1.667"/>
        <circle cx="8.698" cy="27.552" r="1.667"/>
        <circle cx="97.899" cy="79.045" r="1.667"/>
        <circle cx="8.698" cy="79.045" r="1.667"/>
        <circle cx="97.899" cy="27.552" r="1.667"/>
        <circle cx="53.299" cy="104.792" r="1.667"/>
        <circle cx="53.299" cy="1.806" r="1.667"/>
      </g>
      <g opacity=".9">
        <g transform="translate(52.95 52.95)">
          <circle cx="37.986" cy="1.493" r="1.493"/>
          <circle cx="56.111" cy="92.604" r="1.493"/>
          <circle cx="3.073" cy="32.118" r="1.493"/>
          <circle cx="91.024" cy="61.979" r="1.493"/>
          <circle cx="12.135" cy="77.674" r="1.493"/>
          <circle cx="81.962" cy="16.424" r="1.493"/>
          <circle cx="16.424" cy="12.135" r="1.493"/>
          <circle cx="77.674" cy="81.962" r="1.493"/>
          <circle cx="1.493" cy="56.111" r="1.493"/>
          <circle cx="92.604" cy="37.986" r="1.493"/>
          <circle cx="32.118" cy="91.024" r="1.493"/>
          <circle cx="61.979" cy="3.073" r="1.493"/>
        </g>
        <g transform="translate(52.083 52.083)">
          <circle cx="27.378" cy="6.267" r="1.493"/>
          <circle cx="68.455" cy="89.566" r="1.493"/>
          <circle cx="1.58" cy="44.878" r="1.493"/>
          <circle cx="94.253" cy="50.955" r="1.493"/>
          <circle cx="22.118" cy="86.528" r="1.493"/>
          <circle cx="73.715" cy="9.306" r="1.493"/>
          <circle cx="9.306" cy="22.118" r="1.493"/>
          <circle cx="86.528" cy="73.715" r="1.493"/>
          <circle cx="6.267" cy="68.455" r="1.493"/>
          <circle cx="89.566" cy="27.378" r="1.493"/>
          <circle cx="44.878" cy="94.253" r="1.493"/>
          <circle cx="50.955" cy="1.58" r="1.493"/>
        </g>
        <g>
          <g transform="translate(52.95 52.95)">
            <circle cx="32.118" cy="3.073" r="1.493"/>
            <circle cx="61.979" cy="91.024" r="1.493"/>
            <circle cx="1.493" cy="37.986" r="1.493"/>
            <circle cx="92.604" cy="56.111" r="1.493"/>
            <circle cx="16.424" cy="81.962" r="1.493"/>
            <circle cx="77.674" cy="12.135" r="1.493"/>
            <circle cx="12.135" cy="16.424" r="1.493"/>
            <circle cx="81.962" cy="77.674" r="1.493"/>
            <circle cx="3.073" cy="61.979" r="1.493"/>
            <circle cx="91.024" cy="32.118" r="1.493"/>
            <circle cx="37.986" cy="92.604" r="1.493"/>
            <circle cx="56.111" cy="1.493" r="1.493"/>
          </g>
          <g transform="translate(52.083 52.083)">
            <circle cx="22.118" cy="9.306" r="1.493"/>
            <circle cx="73.715" cy="86.528" r="1.493"/>
            <circle cx="1.58" cy="50.955" r="1.493"/>
            <circle cx="94.253" cy="44.878" r="1.493"/>
            <circle cx="27.378" cy="89.566" r="1.493"/>
            <circle cx="68.455" cy="6.267" r="1.493"/>
            <circle cx="6.267" cy="27.378" r="1.493"/>
            <circle cx="89.566" cy="68.455" r="1.493"/>
            <circle cx="9.306" cy="73.715" r="1.493"/>
            <circle cx="86.528" cy="22.118" r="1.493"/>
            <circle cx="50.955" cy="94.253" r="1.493"/>
            <circle cx="44.878" cy="1.58" r="1.493"/>
          </g>
        </g>
      </g>
      <g opacity=".8">
        <g transform="translate(56.944 56.944)">
          <circle cx="43.056" cy="1.406" r="1.337"/>
          <circle cx="43.056" cy="84.705" r="1.337"/>
          <circle cx="6.979" cy="22.222" r="1.337"/>
          <circle cx="79.132" cy="63.889" r="1.337"/>
          <circle cx="6.979" cy="63.889" r="1.337"/>
          <circle cx="79.132" cy="22.222" r="1.337"/>
          <circle cx="22.222" cy="6.979" r="1.337"/>
          <circle cx="63.889" cy="79.132" r="1.337"/>
          <circle cx="1.406" cy="43.056" r="1.337"/>
          <circle cx="84.705" cy="43.056" r="1.337"/>
          <circle cx="22.222" cy="79.132" r="1.337"/>
          <circle cx="63.889" cy="6.979" r="1.337"/>
        </g>
        <g transform="translate(58.333 58.333)">
          <circle cx="30.885" cy="1.424" r="1.337"/>
          <circle cx="52.448" cy="81.91" r="1.337"/>
          <circle cx="1.424" cy="30.885" r="1.337"/>
          <circle cx="81.91" cy="52.448" r="1.337"/>
          <circle cx="12.205" cy="71.128" r="1.337"/>
          <circle cx="71.128" cy="12.205" r="1.337"/>
          <circle cx="12.205" cy="12.205" r="1.337"/>
          <circle cx="71.128" cy="71.128" r="1.337"/>
          <circle cx="1.424" cy="52.448" r="1.337"/>
          <circle cx="81.91" cy="30.885" r="1.337"/>
          <circle cx="30.885" cy="81.91" r="1.337"/>
          <circle cx="52.448" cy="1.424" r="1.337"/>
        </g>
        <g>
          <g transform="translate(57.292 57.292)">
            <circle cx="37.274" cy="1.406" r="1.337"/>
            <circle cx="48.142" cy="84.01" r="1.337"/>
            <circle cx="4.219" cy="26.771" r="1.337"/>
            <circle cx="81.198" cy="58.646" r="1.337"/>
            <circle cx="9.653" cy="68.073" r="1.337"/>
            <circle cx="75.764" cy="17.344" r="1.337"/>
            <circle cx="17.344" cy="9.653" r="1.337"/>
            <circle cx="68.073" cy="75.764" r="1.337"/>
            <circle cx="1.406" cy="48.142" r="1.337"/>
            <circle cx="84.01" cy="37.274" r="1.337"/>
            <circle cx="26.771" cy="81.198" r="1.337"/>
            <circle cx="58.646" cy="4.219" r="1.337"/>
          </g>
          <g transform="translate(57.292 57.292)">
            <circle cx="26.771" cy="4.219" r="1.337"/>
            <circle cx="58.646" cy="81.198" r="1.337"/>
            <circle cx="1.406" cy="37.274" r="1.337"/>
            <circle cx="84.01" cy="48.142" r="1.337"/>
            <circle cx="17.344" cy="75.764" r="1.337"/>
            <circle cx="68.073" cy="9.653" r="1.337"/>
            <circle cx="9.653" cy="17.344" r="1.337"/>
            <circle cx="75.764" cy="68.073" r="1.337"/>
            <circle cx="4.219" cy="58.646" r="1.337"/>
            <circle cx="81.198" cy="26.771" r="1.337"/>
            <circle cx="37.274" cy="84.01" r="1.337"/>
            <circle cx="48.142" cy="1.406" r="1.337"/>
          </g>
        </g>
      </g>
      <g opacity=".7">
        <g transform="translate(61.285 61.285)">
          <circle cx="36.25" cy="1.233" r="1.215"/>
          <circle cx="41.181" cy="76.198" r="1.215"/>
          <circle cx="5.017" cy="22.101" r="1.215"/>
          <circle cx="72.413" cy="55.33" r="1.215"/>
          <circle cx="7.483" cy="59.583" r="1.215"/>
          <circle cx="69.948" cy="17.847" r="1.215"/>
          <circle cx="17.847" cy="7.483" r="1.215"/>
          <circle cx="59.583" cy="69.948" r="1.215"/>
          <circle cx="1.233" cy="41.181" r="1.215"/>
          <circle cx="76.198" cy="36.25" r="1.215"/>
          <circle cx="22.101" cy="72.413" r="1.215"/>
          <circle cx="55.33" cy="5.017" r="1.215"/>
        </g>
        <g transform="translate(61.806 61.806)">
          <circle cx="26.111" cy="2.622" r="1.215"/>
          <circle cx="50.278" cy="73.767" r="1.215"/>
          <circle cx="1.354" cy="30.868" r="1.215"/>
          <circle cx="75.035" cy="45.521" r="1.215"/>
          <circle cx="13.42" cy="66.441" r="1.215"/>
          <circle cx="62.969" cy="9.948" r="1.215"/>
          <circle cx="9.948" cy="13.42" r="1.215"/>
          <circle cx="66.441" cy="62.969" r="1.215"/>
          <circle cx="2.622" cy="50.278" r="1.215"/>
          <circle cx="73.767" cy="26.111" r="1.215"/>
          <circle cx="30.868" cy="75.035" r="1.215"/>
          <circle cx="45.521" cy="1.354" r="1.215"/>
        </g>
        <g>
          <g transform="translate(61.806 61.806)">
            <circle cx="30.868" cy="1.354" r="1.215"/>
            <circle cx="45.521" cy="75.035" r="1.215"/>
            <circle cx="2.622" cy="26.111" r="1.215"/>
            <circle cx="73.767" cy="50.278" r="1.215"/>
            <circle cx="9.948" cy="62.969" r="1.215"/>
            <circle cx="66.441" cy="13.42" r="1.215"/>
            <circle cx="13.42" cy="9.948" r="1.215"/>
            <circle cx="62.969" cy="66.441" r="1.215"/>
            <circle cx="1.354" cy="45.521" r="1.215"/>
            <circle cx="75.035" cy="30.868" r="1.215"/>
            <circle cx="26.111" cy="73.767" r="1.215"/>
            <circle cx="50.278" cy="2.622" r="1.215"/>
          </g>
          <g transform="translate(61.285 61.285)">
            <circle cx="22.101" cy="5.017" r="1.215"/>
            <circle cx="55.33" cy="72.413" r="1.215"/>
            <circle cx="1.233" cy="36.25" r="1.215"/>
            <circle cx="76.198" cy="41.181" r="1.215"/>
            <circle cx="17.847" cy="69.948" r="1.215"/>
            <circle cx="59.583" cy="7.483" r="1.215"/>
            <circle cx="7.483" cy="17.847" r="1.215"/>
            <circle cx="69.948" cy="59.583" r="1.215"/>
            <circle cx="5.017" cy="55.33" r="1.215"/>
            <circle cx="72.413" cy="22.101" r="1.215"/>
            <circle cx="36.25" cy="76.198" r="1.215"/>
            <circle cx="41.181" cy="1.233" r="1.215"/>
          </g>
        </g>
      </g>
      <g opacity=".6">
        <g transform="translate(65.45 65.45)">
          <circle cx="30.139" cy="1.094" r="1.094"/>
          <circle cx="38.958" cy="68.003" r="1.094"/>
          <circle cx="3.368" cy="21.632" r="1.094"/>
          <circle cx="65.729" cy="47.465" r="1.094"/>
          <circle cx="7.778" cy="55.087" r="1.094"/>
          <circle cx="61.319" cy="14.01" r="1.094"/>
          <circle cx="14.01" cy="7.778" r="1.094"/>
          <circle cx="55.087" cy="61.319" r="1.094"/>
          <circle cx="1.094" cy="38.958" r="1.094"/>
          <circle cx="68.003" cy="30.139" r="1.094"/>
          <circle cx="21.632" cy="65.729" r="1.094"/>
          <circle cx="47.465" cy="3.368" r="1.094"/>
        </g>
        <g transform="translate(65.45 65.45)">
          <circle cx="21.632" cy="3.368" r="1.094"/>
          <circle cx="47.465" cy="65.729" r="1.094"/>
          <circle cx="1.094" cy="30.139" r="1.094"/>
          <circle cx="68.003" cy="38.958" r="1.094"/>
          <circle cx="14.01" cy="61.319" r="1.094"/>
          <circle cx="55.087" cy="7.778" r="1.094"/>
          <circle cx="7.778" cy="14.01" r="1.094"/>
          <circle cx="61.319" cy="55.087" r="1.094"/>
          <circle cx="3.368" cy="47.465" r="1.094"/>
          <circle cx="65.729" cy="21.632" r="1.094"/>
          <circle cx="30.139" cy="68.003" r="1.094"/>
          <circle cx="38.958" cy="1.094" r="1.094"/>
        </g>
        <g>
          <g transform="translate(66.32 66.32)">
            <circle cx="24.948" cy="1.094" r="1.094"/>
            <circle cx="42.413" cy="66.267" r="1.094"/>
            <circle cx="1.094" cy="24.948" r="1.094"/>
            <circle cx="66.267" cy="42.413" r="1.094"/>
            <circle cx="9.826" cy="57.535" r="1.094"/>
            <circle cx="57.535" cy="9.826" r="1.094"/>
            <circle cx="9.826" cy="9.826" r="1.094"/>
            <circle cx="57.535" cy="57.535" r="1.094"/>
            <circle cx="1.094" cy="42.413" r="1.094"/>
            <circle cx="66.267" cy="24.948" r="1.094"/>
            <circle cx="24.948" cy="66.267" r="1.094"/>
            <circle cx="42.413" cy="1.094" r="1.094"/>
          </g>
          <g transform="translate(65.104 65.104)">
            <circle cx="18.021" cy="5.677" r="1.094"/>
            <circle cx="51.771" cy="64.115" r="1.094"/>
            <circle cx="1.146" cy="34.896" r="1.094"/>
            <circle cx="68.646" cy="34.896" r="1.094"/>
            <circle cx="18.021" cy="64.115" r="1.094"/>
            <circle cx="51.771" cy="5.677" r="1.094"/>
            <circle cx="5.677" cy="18.021" r="1.094"/>
            <circle cx="64.115" cy="51.771" r="1.094"/>
            <circle cx="5.677" cy="51.771" r="1.094"/>
            <circle cx="64.115" cy="18.021" r="1.094"/>
            <circle cx="34.896" cy="68.646" r="1.094"/>
            <circle cx="34.896" cy="1.146" r="1.094"/>
          </g>
        </g>
      </g>
      <g>
        <g transform="translate(69.097 69.097)">
          <circle cx="24.965" cy="1.059" r="1"/>
          <circle cx="36.84" cy="60.747" r="1"/>
          <circle cx="2.083" cy="21.128" r="1"/>
          <circle cx="59.722" cy="40.677" r="1"/>
          <circle cx="8.021" cy="50.972" r="1"/>
          <circle cx="53.785" cy="10.833" r="1"/>
          <circle cx="10.833" cy="8.021" r="1"/>
          <circle cx="50.972" cy="53.785" r="1"/>
          <circle cx="1.059" cy="36.84" r="1"/>
          <circle cx="60.747" cy="24.965" r="1"/>
          <circle cx="21.128" cy="59.722" r="1"/>
          <circle cx="40.677" cy="2.083" r="1"/>
        </g>
        <g transform="translate(68.576 68.576)">
          <circle cx="17.969" cy="4.132" r="1"/>
          <circle cx="44.878" cy="58.715" r="1"/>
          <circle cx="1.059" cy="29.427" r="1"/>
          <circle cx="61.788" cy="33.42" r="1"/>
          <circle cx="14.514" cy="56.719" r="1"/>
          <circle cx="48.333" cy="6.128" r="1"/>
          <circle cx="6.128" cy="14.514" r="1"/>
          <circle cx="56.719" cy="48.333" r="1"/>
          <circle cx="4.132" cy="44.878" r="1"/>
          <circle cx="58.715" cy="17.969" r="1"/>
          <circle cx="29.427" cy="61.788" r="1"/>
          <circle cx="33.42" cy="1.059" r="1"/>
        </g>
        <g>
          <g transform="translate(69.097 69.097)">
            <circle cx="21.128" cy="2.083" r="1"/>
            <circle cx="40.677" cy="59.722" r="1"/>
            <circle cx="1.059" cy="24.965" r="1"/>
            <circle cx="60.747" cy="36.84" r="1"/>
            <circle cx="10.833" cy="53.785" r="1"/>
            <circle cx="50.972" cy="8.021" r="1"/>
            <circle cx="8.021" cy="10.833" r="1"/>
            <circle cx="53.785" cy="50.972" r="1"/>
            <circle cx="2.083" cy="40.677" r="1"/>
            <circle cx="59.722" cy="21.128" r="1"/>
            <circle cx="24.965" cy="60.747" r="1"/>
            <circle cx="36.84" cy="1.059" r="1"/>
          </g>
          <g transform="translate(68.576 68.576)">
            <circle cx="14.514" cy="6.128" r="1"/>
            <circle cx="48.333" cy="56.719" r="1"/>
            <circle cx="1.059" cy="33.42" r="1"/>
            <circle cx="61.788" cy="29.427" r="1"/>
            <circle cx="17.969" cy="58.715" r="1"/>
            <circle cx="44.878" cy="4.132" r="1"/>
            <circle cx="4.132" cy="17.969" r="1"/>
            <circle cx="58.715" cy="44.878" r="1"/>
            <circle cx="6.128" cy="48.333" r="1"/>
            <circle cx="56.719" cy="14.514" r="1"/>
            <circle cx="33.42" cy="61.788" r="1"/>
            <circle cx="29.427" cy="1.059" r="1"/>
          </g>
        </g>
      </g>
      <g opacity=".4">
        <g transform="translate(71.7 71.7)">
          <circle cx="28.299" cy=".955" r="1"/>
          <circle cx="28.299" cy="55.642" r="1"/>
          <circle cx="4.618" cy="14.635" r="1"/>
          <circle cx="51.979" cy="41.962" r="1"/>
          <circle cx="4.618" cy="41.962" r="1"/>
          <circle cx="51.979" cy="14.635" r="1"/>
          <circle cx="14.635" cy="4.618" r="1"/>
          <circle cx="41.962" cy="51.979" r="1"/>
          <circle cx=".955" cy="28.299" r="1"/>
          <circle cx="55.642" cy="28.299" r="1"/>
          <circle cx="14.635" cy="51.979" r="1"/>
          <circle cx="41.962" cy="4.618" r="1"/>
        </g>
        <g transform="translate(72.57 72.57)">
          <circle cx="20.347" cy="1.024" r="1"/>
          <circle cx="34.514" cy="53.837" r="1"/>
          <circle cx="1.024" cy="20.347" r="1"/>
          <circle cx="53.837" cy="34.514" r="1"/>
          <circle cx="8.108" cy="46.753" r="1"/>
          <circle cx="46.753" cy="8.108" r="1"/>
          <circle cx="8.108" cy="8.108" r="1"/>
          <circle cx="46.753" cy="46.753" r="1"/>
          <circle cx="1.024" cy="34.514" r="1"/>
          <circle cx="53.837" cy="20.347" r="1"/>
          <circle cx="20.347" cy="53.837" r="1"/>
          <circle cx="34.514" cy="1.024" r="1"/>
        </g>
        <g>
          <g transform="translate(71.875 71.875)">
            <circle cx="24.549" cy="1.024" r="1"/>
            <circle cx="31.701" cy="55.226" r="1"/>
            <circle cx="2.865" cy="17.656" r="1"/>
            <circle cx="53.385" cy="38.594" r="1"/>
            <circle cx="6.441" cy="44.774" r="1"/>
            <circle cx="49.809" cy="11.476" r="1"/>
            <circle cx="11.476" cy="6.441" r="1"/>
            <circle cx="44.774" cy="49.809" r="1"/>
            <circle cx="1.024" cy="31.701" r="1"/>
            <circle cx="55.226" cy="24.549" r="1"/>
            <circle cx="17.656" cy="53.385" r="1"/>
            <circle cx="38.594" cy="2.865" r="1"/>
          </g>
          <g transform="translate(71.875 71.875)">
            <circle cx="17.656" cy="2.865" r="1"/>
            <circle cx="38.594" cy="53.385" r="1"/>
            <circle cx="1.024" cy="24.549" r="1"/>
            <circle cx="55.226" cy="31.701" r="1"/>
            <circle cx="11.476" cy="49.809" r="1"/>
            <circle cx="44.774" cy="6.441" r="1"/>
            <circle cx="6.441" cy="11.476" r="1"/>
            <circle cx="49.809" cy="44.774" r="1"/>
            <circle cx="2.865" cy="38.594" r="1"/>
            <circle cx="53.385" cy="17.656" r="1"/>
            <circle cx="24.549" cy="55.226" r="1"/>
            <circle cx="31.701" cy="1.024" r="1"/>
          </g>
        </g>
      </g>
      <g opacity=".3">
        <g transform="translate(74.48 74.48)">
          <circle cx="23.906" cy=".92" r="1"/>
          <circle cx="27.135" cy="50.122" r="1"/>
          <circle cx="3.403" cy="14.618" r="1"/>
          <circle cx="47.639" cy="36.424" r="1"/>
          <circle cx="5.017" cy="39.219" r="1"/>
          <circle cx="46.024" cy="11.823" r="1"/>
          <circle cx="11.823" cy="5.017" r="1"/>
          <circle cx="39.219" cy="46.024" r="1"/>
          <circle cx=".92" cy="27.135" r="1"/>
          <circle cx="50.122" cy="23.906" r="1"/>
          <circle cx="14.618" cy="47.639" r="1"/>
          <circle cx="36.424" cy="3.403" r="1"/>
        </g>
        <g transform="translate(75 75)">
          <circle cx="17.083" cy="1.649" r="1"/>
          <circle cx="32.917" cy="48.351" r="1"/>
          <circle cx=".816" cy="20.191" r="1"/>
          <circle cx="49.184" cy="29.809" r="1"/>
          <circle cx="8.75" cy="43.542" r="1"/>
          <circle cx="41.25" cy="6.458" r="1"/>
          <circle cx="6.458" cy="8.75" r="1"/>
          <circle cx="43.542" cy="41.25" r="1"/>
          <circle cx="1.649" cy="32.917" r="1"/>
          <circle cx="48.351" cy="17.083" r="1"/>
          <circle cx="20.191" cy="49.184" r="1"/>
          <circle cx="29.809" cy=".816" r="1"/>
        </g>
        <g>
          <g transform="translate(75 75)">
            <circle cx="20.191" cy=".816" r="1"/>
            <circle cx="29.809" cy="49.184" r="1"/>
            <circle cx="1.649" cy="17.083" r="1"/>
            <circle cx="48.351" cy="32.917" r="1"/>
            <circle cx="6.458" cy="41.25" r="1"/>
            <circle cx="43.542" cy="8.75" r="1"/>
            <circle cx="8.75" cy="6.458" r="1"/>
            <circle cx="41.25" cy="43.542" r="1"/>
            <circle cx=".816" cy="29.809" r="1"/>
            <circle cx="49.184" cy="20.191" r="1"/>
            <circle cx="17.083" cy="48.351" r="1"/>
            <circle cx="32.917" cy="1.649" r="1"/>
          </g>
          <g transform="translate(74.48 74.48)">
            <circle cx="14.618" cy="3.403" r="1"/>
            <circle cx="36.424" cy="47.639" r="1"/>
            <circle cx=".92" cy="23.906" r="1"/>
            <circle cx="50.122" cy="27.135" r="1"/>
            <circle cx="11.823" cy="46.024" r="1"/>
            <circle cx="39.219" cy="5.017" r="1"/>
            <circle cx="5.017" cy="11.823" r="1"/>
            <circle cx="46.024" cy="39.219" r="1"/>
            <circle cx="3.403" cy="36.424" r="1"/>
            <circle cx="47.639" cy="14.618" r="1"/>
            <circle cx="23.906" cy="50.122" r="1"/>
            <circle cx="27.135" cy=".92" r="1"/>
          </g>
        </g>
      </g>
      <g opacity=".2">
        <g transform="translate(77.257 77.257)">
          <circle cx="19.861" cy=".781" r="1"/>
          <circle cx="25.625" cy="44.705" r="1"/>
          <circle cx="2.292" cy="14.271" r="1"/>
          <circle cx="43.194" cy="31.215" r="1"/>
          <circle cx="5.174" cy="36.215" r="1"/>
          <circle cx="40.313" cy="9.271" r="1"/>
          <circle cx="9.271" cy="5.174" r="1"/>
          <circle cx="36.215" cy="40.313" r="1"/>
          <circle cx=".781" cy="25.625" r="1"/>
          <circle cx="44.705" cy="19.861" r="1"/>
          <circle cx="14.271" cy="43.194" r="1"/>
          <circle cx="31.215" cy="2.292" r="1"/>
        </g>
        <g transform="translate(77.257 77.257)">
          <circle cx="14.271" cy="2.292" r="1"/>
          <circle cx="31.215" cy="43.194" r="1"/>
          <circle cx=".781" cy="19.861" r="1"/>
          <circle cx="44.705" cy="25.625" r="1"/>
          <circle cx="9.271" cy="40.313" r="1"/>
          <circle cx="36.215" cy="5.174" r="1"/>
          <circle cx="5.174" cy="9.271" r="1"/>
          <circle cx="40.313" cy="36.215" r="1"/>
          <circle cx="2.292" cy="31.215" r="1"/>
          <circle cx="43.194" cy="14.271" r="1"/>
          <circle cx="19.861" cy="44.705" r="1"/>
          <circle cx="25.625" cy=".781" r="1"/>
        </g>
        <g>
          <g transform="translate(77.778 77.778)">
            <circle cx="16.493" cy=".833" r="1"/>
            <circle cx="27.951" cy="43.611" r="1"/>
            <circle cx=".833" cy="16.493" r="1"/>
            <circle cx="43.611" cy="27.951" r="1"/>
            <circle cx="6.563" cy="37.882" r="1"/>
            <circle cx="37.882" cy="6.563" r="1"/>
            <circle cx="6.563" cy="6.563" r="1"/>
            <circle cx="37.882" cy="37.882" r="1"/>
            <circle cx=".833" cy="27.951" r="1"/>
            <circle cx="43.611" cy="16.493" r="1"/>
            <circle cx="16.493" cy="43.611" r="1"/>
            <circle cx="27.951" cy=".833" r="1"/>
          </g>
          <g transform="translate(77.083 77.083)">
            <circle cx="11.84" cy="3.733" r="1"/>
            <circle cx="33.993" cy="42.101" r="1"/>
            <circle cx=".781" cy="22.917" r="1"/>
            <circle cx="45.052" cy="22.917" r="1"/>
            <circle cx="11.84" cy="42.101" r="1"/>
            <circle cx="33.993" cy="3.733" r="1"/>
            <circle cx="3.733" cy="11.84" r="1"/>
            <circle cx="42.101" cy="33.993" r="1"/>
            <circle cx="3.733" cy="33.993" r="1"/>
            <circle cx="42.101" cy="11.84" r="1"/>
            <circle cx="22.917" cy="45.052" r="1"/>
            <circle cx="22.917" cy=".781" r="1"/>
          </g>
        </g>
      </g>
      <g opacity=".1">
        <g transform="translate(79.688 79.688)">
          <circle cx="16.424" cy=".729" r="1"/>
          <circle cx="24.201" cy="39.896" r="1"/>
          <circle cx="1.406" cy="13.889" r="1"/>
          <circle cx="39.219" cy="26.736" r="1"/>
          <circle cx="5.295" cy="33.472" r="1"/>
          <circle cx="35.33" cy="7.153" r="1"/>
          <circle cx="7.153" cy="5.295" r="1"/>
          <circle cx="33.472" cy="35.33" r="1"/>
          <circle cx=".729" cy="24.201" r="1"/>
          <circle cx="39.896" cy="16.424" r="1"/>
          <circle cx="13.889" cy="39.219" r="1"/>
          <circle cx="26.736" cy="1.406" r="1"/>
        </g>
        <g transform="translate(79.34 79.34)">
          <circle cx="11.823" cy="2.743" r="1"/>
          <circle cx="29.497" cy="38.576" r="1"/>
          <circle cx=".729" cy="19.358" r="1"/>
          <circle cx="40.59" cy="21.962" r="1"/>
          <circle cx="9.566" cy="37.257" r="1"/>
          <circle cx="31.753" cy="4.063" r="1"/>
          <circle cx="4.063" cy="9.566" r="1"/>
          <circle cx="37.257" cy="31.753" r="1"/>
          <circle cx="2.743" cy="29.497" r="1"/>
          <circle cx="38.576" cy="11.823" r="1"/>
          <circle cx="19.358" cy="40.59" r="1"/>
          <circle cx="21.962" cy=".729" r="1"/>
        </g>
        <g>
          <g transform="translate(79.688 79.688)">
            <circle cx="13.889" cy="1.406" r="1"/>
            <circle cx="26.736" cy="39.219" r="1"/>
            <circle cx=".729" cy="16.424" r="1"/>
            <circle cx="39.896" cy="24.201" r="1"/>
            <circle cx="7.153" cy="35.33" r="1"/>
            <circle cx="33.472" cy="5.295" r="1"/>
            <circle cx="5.295" cy="7.153" r="1"/>
            <circle cx="35.33" cy="33.472" r="1"/>
            <circle cx="1.406" cy="26.736" r="1"/>
            <circle cx="39.219" cy="13.889" r="1"/>
            <circle cx="16.424" cy="39.896" r="1"/>
            <circle cx="24.201" cy=".729" r="1"/>
          </g>
          <g transform="translate(79.34 79.34)">
            <circle cx="9.566" cy="4.063" r="1"/>
            <circle cx="31.753" cy="37.257" r="1"/>
            <circle cx=".729" cy="21.962" r="1"/>
            <circle cx="40.59" cy="19.358" r="1"/>
            <circle cx="11.823" cy="38.576" r="1"/>
            <circle cx="29.497" cy="2.743" r="1"/>
            <circle cx="2.743" cy="11.823" r="1"/>
            <circle cx="38.576" cy="29.497" r="1"/>
            <circle cx="4.063" cy="31.753" r="1"/>
            <circle cx="37.257" cy="9.566" r="1"/>
            <circle cx="21.962" cy="40.59" r="1"/>
            <circle cx="19.358" cy=".729" r="1"/>
          </g>
        </g>
      </g>
    </g>
    <path d="M96.81 99.48l-1.308 10.478h8.496l-1.274-10.212c1.942-.993 3.27-3.016 3.27-5.35 0-3.316-2.683-6.004-5.994-6.004-3.31 0-5.995 2.688-5.995 6.004 0 2.142 1.12 4.022 2.805 5.085zM76 73h48v38.903c0 1.255-.59 2.438-1.592 3.194l-21.204 15.98c-.713.538-1.695.538-2.408 0l-21.204-15.98c-1.002-.756-1.592-1.94-1.592-3.194V73z" fill="url(#a)"/>
  </g>
</svg>
