<svg width="24" height="24" viewBox="0 0 24 24" xmlns="http://www.w3.org/2000/svg"><title>Consul Logo White</title><path d="M10.96 14.346a2.368 2.368 0 0 1-2.378-2.368A2.367 2.367 0 0 1 10.95 9.6a2.367 2.367 0 0 1 2.377 2.368 2.364 2.364 0 0 1-2.368 2.378zm4.618-1.279a1.091 1.091 0 0 1-1.095-1.094c0-.607.488-1.094 1.095-1.094.606 0 1.094.487 1.094 1.094 0 .607-.488 1.094-1.094 1.094zm4.004 1.032a1.093 1.093 0 1 1-.791-1.328c.557.147.91.684.813 1.242-.012.027-.012.053-.022.086zm-.776-2.82a1.093 1.093 0 0 1-1.316-.817 1.093 1.093 0 1 1 2.13-.499c.027.147.037.292.01.429-.06.427-.374.79-.824.887zm3.893 2.698a1.087 1.087 0 0 1-1.267.889 1.087 1.087 0 0 1-.888-1.268 1.088 1.088 0 0 1 1.267-.888 1.1 1.1 0 0 1 .91 1.17c-.01.032-.022.059-.022.097zm-.89-2.745a1.093 1.093 0 1 1 .9-1.257c.01.098.022.184.01.282-.038.476-.411.899-.91.975zm-.764 6.536a1.093 1.093 0 0 1-1.495.411 1.093 1.093 0 0 1-.411-1.494 1.093 1.093 0 0 1 2.042.634.987.987 0 0 1-.136.449zM20.651 7.71a1.107 1.107 0 0 1-1.496-.417 1.108 1.108 0 0 1 .417-1.495 1.107 1.107 0 0 1 1.496.417c.12.206.157.417.135.634a1.097 1.097 0 0 1-.552.861zM11 23a10.928 10.928 0 0 1-7.783-3.218A10.96 10.96 0 0 1 0 12a10.93 10.93 0 0 1 3.217-7.782A10.964 10.964 0 0 1 11 1c2.441 0 4.751.781 6.68 2.26l-1.344 1.754A8.702 8.702 0 0 0 11 3.21 8.767 8.767 0 0 0 4.777 5.78 8.738 8.738 0 0 0 2.21 12a8.76 8.76 0 0 0 2.571 6.221A8.73 8.73 0 0 0 11 20.791a8.707 8.707 0 0 0 5.337-1.806l1.342 1.756A10.904 10.904 0 0 1 11 23z" fill="#FFF" fill-rule="evenodd"/></svg>