<svg width="160" height="38" viewBox="0 0 160 38" xmlns="http://www.w3.org/2000/svg" xmlns:xlink="http://www.w3.org/1999/xlink"><title>HashiCorp Logo</title><defs><path id="a" d="M0 37.602h159.65V.354H0z"/></defs><g fill="none" fill-rule="evenodd"><path fill="#FFF" d="M54.377 29.315v-8.571h-7.534v8.571H43V9h3.843v8.358h7.534V9h3.844v20.315z"/><g><path d="M68.673 23.644h-2.745c-1.22 0-1.556.335-1.556 1.464 0 1.037.335 1.495 1.495 1.495 1.098 0 2.104-.366 2.806-.763v-2.196zm3.721 5.612h-3.05l-.274-1.006a8.121 8.121 0 0 1-4.423 1.311c-2.715 0-3.874-1.86-3.874-4.422 0-3.02 1.311-4.18 4.331-4.18h3.569v-1.555c0-1.647-.458-2.227-2.837-2.227-1.342 0-2.806.183-4.118.458l-.457-2.837c1.403-.427 3.446-.702 5.094-.702 4.667 0 6.04 1.647 6.04 5.369v9.791zM79.593 29.561c-1.586 0-3.752-.366-5.124-.854l.518-2.836c1.25.366 2.898.64 4.423.64 1.647 0 1.891-.366 1.891-1.495 0-.914-.183-1.372-2.593-1.952-3.63-.884-4.056-1.8-4.056-4.667 0-2.989 1.311-4.3 5.551-4.3 1.373 0 3.172.182 4.453.518l-.365 2.959c-1.129-.214-2.929-.427-4.088-.427-1.616 0-1.891.366-1.891 1.28 0 1.19.091 1.282 2.104 1.8 4.149 1.099 4.546 1.648 4.546 4.698 0 2.867-.885 4.636-5.369 4.636M96.034 29.256v-10.37c0-.794-.335-1.19-1.19-1.19-.914 0-2.53.55-3.873 1.25v10.31h-3.722V8.331l3.722-.518v7.717c1.647-.854 3.843-1.434 5.43-1.434 2.47 0 3.355 1.74 3.355 4.393v10.767h-3.722z" fill="#FFF"/><mask id="b" fill="#fff"><use xlink:href="#a"/></mask><path d="M102.501 29.256h3.721V14.401h-3.72v14.855zm0-16.96h3.721v-4.3h-3.72v4.3zM108.815 14.523c0-3.721 2.166-5.887 7.23-5.887 1.89 0 3.842.244 5.52.672l-.427 3.324c-1.647-.305-3.569-.519-4.972-.519-2.654 0-3.507.916-3.507 3.082v7.808c0 2.166.853 3.081 3.507 3.081 1.403 0 3.325-.214 4.972-.519l.427 3.325c-1.678.428-3.63.671-5.52.671-5.064 0-7.23-2.165-7.23-5.886v-9.152zM129.191 17.269c-1.982 0-2.745.884-2.745 2.562v3.996c0 1.677.763 2.562 2.745 2.562 1.983 0 2.745-.885 2.745-2.562v-3.996c0-1.678-.762-2.562-2.745-2.562m0 12.292c-5.093 0-6.466-2.806-6.466-5.856v-3.752c0-3.05 1.373-5.857 6.466-5.857 5.094 0 6.467 2.807 6.467 5.857v3.752c0 3.05-1.373 5.856-6.467 5.856M145.541 17.513c-1.433.64-2.593 1.311-3.935 2.166v9.577h-3.721V14.401h3.142l.244 1.648c.823-.55 2.592-1.586 3.904-1.953l.366 3.417zM150.775 25.993c.976.213 2.226.396 3.294.396 1.342 0 1.86-.64 1.86-1.983V19.16c0-1.22-.457-1.891-1.83-1.891-1.22 0-2.531.61-3.324 1.342v7.382zm8.876-1.678c0 3.294-1.464 5.246-4.911 5.246-1.311 0-2.806-.183-3.965-.427v6.131l-3.722.52V14.4h2.96l.365 1.251c1.312-.946 2.837-1.556 4.698-1.556 2.989 0 4.575 1.77 4.575 5.156v5.063zM14.945.354L.282 8.813V29.13l5.509 3.18V11.994l9.154-5.284z" fill="#FFF" mask="url(#b)"/><path fill="#FFF" mask="url(#b)" d="M20.798.354v16.181h-5.853v-6.039l-5.51 3.18v20.732l5.51 3.188V21.461h5.853v6l5.509-3.182V3.535z"/><path fill="#FFF" mask="url(#b)" d="M20.798 37.602l14.663-8.459V8.825l-5.51-3.18v20.317l-9.153 5.285z"/></g></g></svg>