<svg width="24" height="24" viewBox="0 0 24 24" xmlns="http://www.w3.org/2000/svg"><title>Vault Logo White</title><path d="M1 1l10.692 21.462L22.462 1H1zm11.964 5.55h1.244V5.308h-1.244v1.244zm-1.855 0h1.243V5.308H11.11v1.244zm-1.866 0h1.244V5.308H9.243v1.244zm3.721 1.867h1.244V7.174h-1.244v1.243zm-1.855 0h1.243V7.174H11.11v1.243zm-1.866 0h1.244V7.174H9.243v1.243zm3.732 1.867h1.243V9.04h-1.243v1.244zm-1.866 0h1.243V9.04H11.11v1.244zm-1.866 0h1.244V9.04H9.243v1.244zm1.866 1.866h1.243v-1.244H11.11v1.244z" fill="#FFF" fill-rule="evenodd"/></svg>