<svg fill="none" height="80" viewBox="0 0 80 80" width="80" xmlns="http://www.w3.org/2000/svg" xmlns:xlink="http://www.w3.org/1999/xlink"><linearGradient id="a" gradientUnits="userSpaceOnUse" x1="14" x2="31.342" y1="9" y2="11.7336"><stop offset="0" stop-color="#fff9cf"/><stop offset="1" stop-color="#ffec6e"/></linearGradient><path d="m0 0h80v80h-80z" fill="#fff"/><rect fill="#000" height="54" rx="1.5" width="43" x="23" y="13"/><path d="m57 69.5c0 .8284-.6716 1.5-1.5 1.5h-33.5v-62h33.5c.8284 0 1.5.67158 1.5 1.5z" fill="#ffec6e"/><rect fill="#000" height="3" rx="1.5" width="12" x="32" y="14"/><path d="m22 9v62h-6.5c-.8284 0-1.5-.6716-1.5-1.5v-59c0-.82843.6716-1.5 1.5-1.5z" fill="url(#a)" opacity=".7"/><g stroke="#000" stroke-linecap="round" stroke-linejoin="round"><path d="m43.6663 53.5v-1.6667c0-1.8409-1.4923-3.3333-3.3333-3.3333h-6.6667c-1.8409 0-3.3333 1.4924-3.3333 3.3333v1.6667" stroke-width="2"/><path clip-rule="evenodd" d="m37.0003 45.1667c1.841 0 3.3334-1.4924 3.3334-3.3334 0-1.8409-1.4924-3.3333-3.3334-3.3333-1.8409 0-3.3333 1.4924-3.3333 3.3333 0 1.841 1.4924 3.3334 3.3333 3.3334z" fill-rule="evenodd" stroke-width="1.5"/></g></svg>