<svg fill="none" height="80" viewBox="0 0 80 80" width="80" xmlns="http://www.w3.org/2000/svg" xmlns:xlink="http://www.w3.org/1999/xlink"><linearGradient id="a" gradientUnits="userSpaceOnUse" x1="11.5" x2="36.3586" y1="45" y2="71.4797"><stop offset="0" stop-color="#fff9cf"/><stop offset="1" stop-color="#ffec6e"/></linearGradient><path d="m0 0h80v80h-80z" fill="#fff"/><circle cx="40" cy="40" fill="url(#a)" fill-opacity=".65" r="32"/><path d="m40 69c16.0163 0 29-12.9837 29-29s-12.9837-29-29-29-29 12.9837-29 29" stroke="#000" stroke-width="6"/><circle cx="40" cy="40" fill="#ffec6e" r="26"/><path d="m48.0259 31.978c-1.2759-1.2756-2.9739-1.978-4.779-1.978-.2992 0-.6017.0189-.8978.0598-2.0729.2772-3.9316 1.5276-4.9711 3.3449-1.0396 1.8173-1.1719 4.0504-.3592 5.9811.0126.0284.0063.063-.0189.0882l-6.9999 6.9984v3.5276h3.5126l.9041-.9039c.0914-.0977.1323-.2142.126-.3307v-1.6599c0-.1512.1229-.2772.2772-.2772h1.5122c.1575 0 .3118-.0629.4221-.1763.1103-.1166.1701-.2614.1733-.4158v-1.5023c0-.1512.1228-.2772.2772-.2772h1.6885c.1198 0 .2363-.0504.3182-.1386l1.3263-1.326c.0157-.0126.0315-.0189.0504-.0189l.0315.0063c.8348.3496 1.7169.5292 2.621.5292 1.1751 0 2.3344-.3087 3.3551-.8914 1.8145-1.0362 3.0652-2.8945 3.3456-4.9669.2772-2.0724-.4379-4.1921-1.9154-5.6724zm-2.347 5.4299c-.4095.4126-.9576.6393-1.5404.6393-.8853 0-1.6728-.5291-2.0131-1.3448-.3371-.8158-.1543-1.7481.4726-2.3717.4127-.4126.9577-.6362 1.5405-.6362.2866 0 .567.0567.8316.1669.816.3402 1.3452 1.1276 1.3452 2.0126 0 .5669-.2331 1.1276-.6364 1.5339z" stroke="#000" stroke-linecap="round" stroke-linejoin="round" stroke-width="1.75"/></svg>